<svg xmlns="http://www.w3.org/2000/svg" xmlns:xlink="http://www.w3.org/1999/xlink" version="1.1" width="256" height="256" viewBox="0 0 256 256" xml:space="preserve">

<defs>
</defs>
<g style="stroke: none; stroke-width: 0; stroke-dasharray: none; stroke-linecap: butt; stroke-linejoin: miter; stroke-miterlimit: 10; fill: none; fill-rule: nonzero; opacity: 1;" transform="translate(1.4065934065934016 1.4065934065934016) scale(2.81 2.81)" >
	<path d="M 88.174 59.263 c -0.406 -0.246 -0.934 -0.174 -1.258 0.18 c -4.853 5.307 -11.13 8.79 -18.15 10.074 c -8.563 1.564 -17.229 -0.296 -24.395 -5.246 c -7.165 -4.949 -11.974 -12.393 -13.54 -20.959 c -1.567 -8.566 0.296 -17.23 5.246 -24.395 S 48.47 6.943 57.036 5.376 c 1.522 -0.278 3.118 -0.432 5.022 -0.484 c 0.477 -0.013 0.878 -0.361 0.958 -0.831 c 0.081 -0.47 -0.183 -0.932 -0.628 -1.103 c -7.671 -2.936 -16.019 -3.701 -24.137 -2.217 C 13.847 5.205 -2.376 28.69 2.087 53.094 c 2.162 11.822 8.798 22.094 18.686 28.925 c 7.604 5.253 16.429 7.986 25.476 7.986 c 2.719 0 5.459 -0.247 8.189 -0.747 c 15.596 -2.852 28.682 -13.886 34.155 -28.796 C 88.758 60.014 88.583 59.511 88.174 59.263 z" style="stroke: none; stroke-width: 1; stroke-dasharray: none; stroke-linecap: butt; stroke-linejoin: miter; stroke-miterlimit: 10; fill: rgb(0,0,0); fill-rule: nonzero; opacity: 1;" transform=" matrix(1 0 0 1 0 0) " stroke-linecap="round" />
</g>
</svg>