<svg width="15" height="15" viewBox="0 0 17.6362 16.6339" fill="none" xmlns="http://www.w3.org/2000/svg" xmlns:xlink="http://www.w3.org/1999/xlink">
	<desc>
			Created with Pixso.
	</desc>
	<defs/>
	<path id="Vector" d="M5.15 1.5C4.15 1.5 3.25 1.93 2.57 2.62C1.92 3.3 1.5 4.23 1.5 5.3C1.5 6.34 1.92 7.28 2.57 7.98L8.81 14.47L15.05 7.98C15.71 7.3 16.13 6.36 16.13 5.3C16.13 4.25 15.71 3.32 15.05 2.62C14.39 1.93 13.5 1.5 12.47 1.5C11.47 1.5 10.57 1.93 9.89 2.62C9.23 3.3 8.81 4.23 8.81 5.3C8.81 4.25 8.39 3.32 7.73 2.62C7.08 1.93 6.18 1.5 5.15 1.5Z" fill="#FFFFFF" fill-opacity="0" fill-rule="nonzero"/>
	<path id="Vector" d="M2.76 0.62Q2.08 0.99 1.51 1.56L1.49 1.58Q1.09 1.99 0.8 2.47Q0.57 2.84 0.4 3.24Q0.24 3.64 0.14 4.06Q0 4.66 0 5.3Q0 5.83 0.1 6.35Q0.2 6.86 0.4 7.34Q0.53 7.65 0.69 7.94Q1.02 8.51 1.48 9.01L8.81 16.63L16.13 9.02Q16.53 8.6 16.83 8.12Q17.06 7.76 17.22 7.36Q17.39 6.96 17.49 6.54Q17.63 5.94 17.63 5.3Q17.63 4.76 17.53 4.25Q17.43 3.74 17.22 3.25Q17.1 2.95 16.93 2.66Q16.61 2.09 16.15 1.59Q15.55 0.97 14.82 0.58Q14.67 0.5 14.51 0.43Q14.06 0.23 13.58 0.12Q13.04 0 12.47 0Q11.99 0 11.53 0.09Q10.97 0.19 10.45 0.43Q10.26 0.52 10.07 0.62Q9.39 0.99 8.83 1.56Q8.82 1.57 8.81 1.58Q8.22 0.96 7.51 0.58Q7.35 0.5 7.2 0.43Q6.74 0.23 6.26 0.12Q5.72 0 5.15 0Q4.67 0 4.21 0.09Q3.66 0.19 3.13 0.43Q2.94 0.52 2.76 0.62ZM9.71 2.83C9.16 3.49 8.81 4.34 8.81 5.3C8.81 4.35 8.47 3.5 7.91 2.82C7.86 2.75 7.8 2.68 7.73 2.62C7.08 1.93 6.18 1.5 5.15 1.5C4.15 1.5 3.25 1.93 2.57 2.62C1.92 3.3 1.5 4.23 1.5 5.3C1.5 6.34 1.92 7.28 2.57 7.98L8.81 14.47L9.85 13.38L15.05 7.98C15.71 7.3 16.13 6.36 16.13 5.3C16.13 4.25 15.71 3.32 15.05 2.62C14.39 1.93 13.5 1.5 12.47 1.5C11.47 1.5 10.57 1.93 9.89 2.62C9.83 2.68 9.77 2.75 9.71 2.83Z" fill="#171717" fill-opacity="1.000000" fill-rule="evenodd"/>
</svg>
