<svg width="9" height="9" viewBox="0 0 9 9" fill="none" xmlns="http://www.w3.org/2000/svg">
<g clip-path="url(#clip0_287_1755)">
<path d="M4.62625 0.476821C4.69453 0.522342 4.74401 0.576105 4.78116 0.650405C4.78278 0.69225 4.78337 0.733574 4.78315 0.775418C4.78315 0.788282 4.78316 0.801145 4.78316 0.814399C4.78315 0.85701 4.78301 0.899619 4.78287 0.94223C4.78284 0.971737 4.78281 1.00124 4.7828 1.03075C4.78273 1.10849 4.78256 1.18622 4.78236 1.26396C4.78218 1.34326 4.7821 1.42255 4.78201 1.50185C4.78182 1.65749 4.78152 1.81313 4.78116 1.96876C4.96678 1.96876 5.15241 1.96876 5.34366 1.96876C5.34284 1.91542 5.34202 1.86208 5.34118 1.80713C5.34063 1.75529 5.34021 1.70346 5.33979 1.65162C5.33944 1.61568 5.33896 1.57974 5.33835 1.5438C5.33749 1.49205 5.3371 1.44031 5.33679 1.38855C5.33643 1.37256 5.33606 1.35657 5.33569 1.3401C5.33565 1.24161 5.34789 1.1854 5.41397 1.10744C5.49347 1.03569 5.55093 1.01386 5.6591 1.01584C5.74291 1.02444 5.79701 1.06405 5.85012 1.12611C5.89546 1.18699 5.90837 1.21252 5.90815 1.28628C5.90815 1.30141 5.90815 1.31654 5.90815 1.33213C5.90806 1.34848 5.90797 1.36484 5.90787 1.38168C5.90783 1.40677 5.90784 1.40677 5.9078 1.43237C5.9077 1.48593 5.90748 1.53948 5.90725 1.59303C5.90717 1.62929 5.90709 1.66554 5.90701 1.7018C5.90682 1.79079 5.90652 1.87978 5.90616 1.96876C5.93451 1.96825 5.93451 1.96825 5.96343 1.96772C5.9887 1.96744 6.01396 1.96717 6.03923 1.96691C6.05163 1.96666 6.06403 1.96641 6.07681 1.96616C6.19862 1.96521 6.30294 1.99389 6.41592 2.03908C6.43103 2.04483 6.44615 2.05059 6.46172 2.05652C6.70036 2.16047 6.8819 2.37831 6.97622 2.61586C7.01933 2.73303 7.0337 2.83388 7.03225 2.95863C7.03217 2.97165 7.03209 2.98467 7.03201 2.99808C7.03181 3.02998 7.03149 3.06187 7.03116 3.09376C7.0535 3.0934 7.07584 3.09303 7.09887 3.09265C7.18201 3.09137 7.26515 3.09057 7.3483 3.0899C7.38424 3.08955 7.42018 3.08907 7.45612 3.08846C7.50787 3.0876 7.55961 3.08721 7.61137 3.0869C7.62736 3.08654 7.64335 3.08617 7.65982 3.0858C7.75831 3.08576 7.81452 3.098 7.89248 3.16408C7.96423 3.24358 7.98606 3.30104 7.98408 3.40921C7.97548 3.49302 7.93587 3.54712 7.87381 3.60023C7.81293 3.64557 7.7874 3.65848 7.71364 3.65826C7.69094 3.65826 7.69094 3.65826 7.66779 3.65826C7.65144 3.65817 7.63508 3.65807 7.61824 3.65798C7.60151 3.65796 7.58478 3.65793 7.56755 3.65791C7.51399 3.65781 7.46044 3.65759 7.40689 3.65736C7.37063 3.65728 7.33438 3.6572 7.29812 3.65712C7.20913 3.65694 7.12015 3.6566 7.03116 3.65626C7.03116 3.84189 7.03116 4.02751 7.03116 4.21876C7.07054 4.2184 7.10992 4.21803 7.1505 4.21765C7.28079 4.21648 7.41108 4.21571 7.54137 4.21512C7.62035 4.21476 7.69932 4.21426 7.77829 4.21346C7.85454 4.2127 7.93079 4.21228 8.00704 4.21209C8.0361 4.21196 8.06515 4.21171 8.09421 4.21133C8.13498 4.21082 8.17574 4.21075 8.21652 4.21078C8.23971 4.21063 8.26289 4.21047 8.28678 4.21031C8.3803 4.22291 8.43349 4.26526 8.49563 4.33412C8.54747 4.409 8.55198 4.48165 8.54287 4.57033C8.50767 4.67008 8.4442 4.73392 8.34951 4.78126C8.30767 4.78289 8.26635 4.78348 8.2245 4.78326C8.20521 4.78326 8.20521 4.78326 8.18552 4.78327C8.14291 4.78326 8.1003 4.78312 8.05769 4.78298C8.02818 4.78295 7.99867 4.78292 7.96917 4.78291C7.89143 4.78284 7.81369 4.78267 7.73596 4.78247C7.65666 4.78229 7.57737 4.78221 7.49807 4.78212C7.34243 4.78193 7.18679 4.78163 7.03116 4.78126C7.03116 4.96689 7.03116 5.15251 7.03116 5.34376C7.0845 5.34295 7.13784 5.34213 7.19279 5.34129C7.24463 5.34074 7.29646 5.34032 7.3483 5.3399C7.38424 5.33955 7.42018 5.33907 7.45612 5.33846C7.50787 5.3376 7.55961 5.33721 7.61137 5.3369C7.62736 5.33653 7.64335 5.33617 7.65982 5.3358C7.75831 5.33576 7.81452 5.348 7.89248 5.41408C7.96423 5.49358 7.98606 5.55104 7.98408 5.65921C7.97548 5.74302 7.93587 5.79712 7.87381 5.85023C7.81293 5.89557 7.7874 5.90848 7.71364 5.90826C7.69094 5.90826 7.69094 5.90826 7.66779 5.90826C7.65144 5.90817 7.63508 5.90807 7.61824 5.90798C7.60151 5.90796 7.58478 5.90793 7.56755 5.90791C7.51399 5.90781 7.46044 5.90759 7.40689 5.90736C7.37063 5.90727 7.33438 5.90719 7.29812 5.90712C7.20913 5.90693 7.12014 5.90662 7.03116 5.90626C7.03167 5.93462 7.03167 5.93462 7.0322 5.96354C7.03248 5.9888 7.03275 6.01407 7.03301 6.03934C7.03326 6.05174 7.03351 6.06414 7.03376 6.07692C7.03471 6.19873 7.00603 6.30305 6.96084 6.41603C6.95509 6.43114 6.94933 6.44626 6.9434 6.46183C6.83945 6.70047 6.62161 6.88201 6.38406 6.97633C6.26689 7.01943 6.16604 7.03381 6.04129 7.03236C6.02827 7.03228 6.01525 7.0322 6.00184 7.03212C5.96994 7.03192 5.93805 7.0316 5.90616 7.03126C5.90652 7.05361 5.90689 7.07595 5.90727 7.09898C5.90855 7.18212 5.90935 7.26526 5.91002 7.34841C5.91037 7.38435 5.91085 7.42029 5.91146 7.45623C5.91232 7.50798 5.91271 7.55972 5.91302 7.61148C5.91338 7.62747 5.91375 7.64346 5.91412 7.65993C5.91416 7.75845 5.90186 7.81456 5.83584 7.89259C5.76178 7.9611 5.71676 7.97758 5.61831 7.98488C5.53726 7.97929 5.48173 7.96071 5.42365 7.902C5.3683 7.83714 5.34141 7.79793 5.34166 7.71375C5.34166 7.69862 5.34166 7.68349 5.34166 7.6679C5.34175 7.65155 5.34185 7.63519 5.34194 7.61835C5.34198 7.59326 5.34198 7.59326 5.34201 7.56766C5.34211 7.5141 5.34233 7.46055 5.34256 7.407C5.34264 7.37074 5.34272 7.33449 5.3428 7.29823C5.34298 7.20924 5.34332 7.12025 5.34366 7.03126C5.15803 7.03126 4.9724 7.03126 4.78116 7.03126C4.78152 7.07065 4.78189 7.11003 4.78227 7.15061C4.78344 7.2809 4.78421 7.41119 4.7848 7.54148C4.78516 7.62046 4.78566 7.69943 4.78646 7.7784C4.78722 7.85465 4.78764 7.9309 4.78783 8.00715C4.78796 8.03621 4.78821 8.06526 4.78859 8.09432C4.7891 8.13509 4.78917 8.17585 4.78914 8.21663C4.78929 8.23982 4.78945 8.263 4.78961 8.28689C4.77707 8.37996 4.73463 8.43309 4.6669 8.49574C4.58939 8.54806 4.52265 8.5494 4.42959 8.54298C4.32983 8.50707 4.26614 8.44459 4.21866 8.34962C4.21703 8.30778 4.21644 8.26646 4.21666 8.22461C4.21666 8.21175 4.21665 8.19888 4.21665 8.18563C4.21666 8.14302 4.2168 8.10041 4.21694 8.0578C4.21697 8.02829 4.217 7.99878 4.21701 7.96928C4.21708 7.89154 4.21725 7.8138 4.21745 7.73607C4.21763 7.65677 4.21771 7.57748 4.2178 7.49818C4.21799 7.34254 4.21829 7.1869 4.21866 7.03126C4.03303 7.03126 3.84741 7.03126 3.65616 7.03126C3.65697 7.0846 3.65779 7.13794 3.65863 7.1929C3.65918 7.24474 3.6596 7.29657 3.66002 7.34841C3.66037 7.38435 3.66085 7.42029 3.66146 7.45623C3.66232 7.50798 3.66271 7.55972 3.66302 7.61148C3.66338 7.62747 3.66375 7.64346 3.66412 7.65993C3.66416 7.75845 3.65186 7.81456 3.58584 7.89259C3.51178 7.9611 3.46676 7.97758 3.36831 7.98488C3.28726 7.97929 3.23173 7.96071 3.17365 7.902C3.1183 7.83714 3.09141 7.79793 3.09166 7.71375C3.09166 7.69862 3.09166 7.68349 3.09166 7.6679C3.09175 7.65155 3.09185 7.63519 3.09194 7.61835C3.09198 7.59326 3.09198 7.59326 3.09201 7.56766C3.09211 7.5141 3.09233 7.46055 3.09256 7.407C3.09264 7.37074 3.09272 7.33449 3.0928 7.29823C3.09299 7.20924 3.09329 7.12025 3.09366 7.03126C3.06528 7.03176 3.06528 7.03176 3.03634 7.03227C3.01107 7.03254 2.98579 7.0328 2.96051 7.03305C2.9481 7.03329 2.93569 7.03353 2.92291 7.03377C2.66585 7.0357 2.4367 6.91084 2.25375 6.73745C2.06634 6.54443 1.9636 6.30957 1.96735 6.04043C1.96749 6.02101 1.96749 6.02101 1.96764 6.0012C1.96788 5.96955 1.96825 5.93791 1.96866 5.90626C1.93514 5.90682 1.93514 5.90682 1.90094 5.90738C1.8178 5.90866 1.73466 5.90946 1.65151 5.91013C1.61557 5.91048 1.57963 5.91096 1.54369 5.91157C1.49194 5.91242 1.4402 5.91282 1.38844 5.91313C1.37245 5.91349 1.35646 5.91386 1.33999 5.91423C1.2415 5.91427 1.18529 5.90203 1.10733 5.83595C1.03555 5.75641 1.01388 5.69901 1.01566 5.59082C1.02612 5.49076 1.08712 5.42517 1.16006 5.36134C1.20894 5.34505 1.23777 5.34162 1.28817 5.34177C1.3033 5.34177 1.31843 5.34177 1.33401 5.34177C1.35027 5.34186 1.36654 5.34195 1.38329 5.34205C1.39999 5.34207 1.41669 5.3421 1.4339 5.34212C1.48728 5.34222 1.54065 5.34244 1.59402 5.34267C1.6302 5.34275 1.66637 5.34283 1.70255 5.34291C1.79125 5.34308 1.87995 5.34343 1.96866 5.34376C1.96866 5.15814 1.96866 4.97251 1.96866 4.78126C1.90958 4.78182 1.90958 4.78182 1.84931 4.78238C1.71902 4.78355 1.58873 4.78432 1.45844 4.78491C1.37946 4.78527 1.30049 4.78577 1.22152 4.78657C1.14527 4.78733 1.06902 4.78775 0.992769 4.78794C0.963712 4.78807 0.934656 4.78832 0.905602 4.7887C0.864825 4.78921 0.82407 4.78928 0.78329 4.78925C0.760104 4.7894 0.736918 4.78956 0.713029 4.78972C0.619507 4.77711 0.566316 4.73476 0.504178 4.66591C0.45239 4.5911 0.447671 4.51831 0.456936 4.4297C0.487661 4.34723 0.531549 4.2941 0.597561 4.23634C0.658853 4.21591 0.713578 4.21644 0.777304 4.21677C0.79017 4.21677 0.803037 4.21676 0.816293 4.21676C0.858808 4.21677 0.901322 4.21691 0.943837 4.21705C0.973319 4.21708 1.0028 4.21711 1.03228 4.21712C1.10988 4.21719 1.18747 4.21736 1.26506 4.21756C1.34424 4.21774 1.42342 4.21782 1.50259 4.21791C1.65795 4.2181 1.8133 4.2184 1.96866 4.21876C1.96866 4.03314 1.96866 3.84751 1.96866 3.65626C1.91532 3.65708 1.86198 3.6579 1.80702 3.65874C1.75518 3.65929 1.70335 3.65971 1.65151 3.66013C1.61557 3.66048 1.57963 3.66096 1.54369 3.66157C1.49194 3.66243 1.4402 3.66282 1.38844 3.66313C1.37245 3.66349 1.35646 3.66386 1.33999 3.66423C1.2415 3.66427 1.18529 3.65203 1.10733 3.58595C1.03555 3.50641 1.01388 3.44901 1.01566 3.34082C1.02612 3.24076 1.08712 3.17517 1.16006 3.11134C1.20894 3.09505 1.23777 3.09162 1.28817 3.09177C1.3033 3.09177 1.31843 3.09177 1.33401 3.09177C1.35027 3.09186 1.36654 3.09195 1.38329 3.09205C1.39999 3.09207 1.41669 3.0921 1.4339 3.09212C1.48728 3.09222 1.54065 3.09244 1.59402 3.09267C1.6302 3.09275 1.66637 3.09283 1.70255 3.09291C1.79125 3.0931 1.87995 3.0934 1.96866 3.09376C1.96831 3.07486 1.96797 3.05596 1.96761 3.03649C1.96733 3.01122 1.96706 2.98596 1.9668 2.96069C1.96655 2.94829 1.9663 2.93589 1.96605 2.92311C1.9651 2.8013 1.99378 2.69698 2.03897 2.584C2.04472 2.56889 2.05048 2.55377 2.05641 2.5382C2.16036 2.29956 2.3782 2.11802 2.61575 2.0237C2.73292 1.98059 2.83377 1.96622 2.95852 1.96767C2.97154 1.96775 2.98456 1.96782 2.99797 1.96791C3.02987 1.96811 3.06176 1.96843 3.09366 1.96876C3.09329 1.94642 3.09292 1.92407 3.09254 1.90105C3.09126 1.81791 3.09046 1.73477 3.08979 1.65162C3.08944 1.61568 3.08896 1.57974 3.08835 1.5438C3.08749 1.49205 3.0871 1.44031 3.08679 1.38855C3.08643 1.37256 3.08606 1.35657 3.08569 1.3401C3.08565 1.24161 3.09789 1.1854 3.16397 1.10744C3.24347 1.03569 3.30093 1.01386 3.4091 1.01584C3.49291 1.02444 3.54701 1.06405 3.60012 1.12611C3.64546 1.18699 3.65837 1.21252 3.65815 1.28628C3.65815 1.30141 3.65815 1.31654 3.65815 1.33213C3.65806 1.34848 3.65797 1.36484 3.65787 1.38168C3.65783 1.40677 3.65783 1.40677 3.6578 1.43237C3.6577 1.48593 3.65748 1.53948 3.65725 1.59303C3.65717 1.62929 3.65709 1.66554 3.65701 1.7018C3.65683 1.79079 3.65649 1.87977 3.65616 1.96876C3.84178 1.96876 4.02741 1.96876 4.21866 1.96876C4.21829 1.92938 4.21792 1.89 4.21754 1.84942C4.21637 1.71913 4.2156 1.58884 4.21501 1.45855C4.21465 1.37957 4.21415 1.3006 4.21335 1.22163C4.21259 1.14538 4.21217 1.06913 4.21198 0.992878C4.21185 0.963822 4.2116 0.934766 4.21122 0.905711C4.21071 0.864935 4.21064 0.824179 4.21067 0.7834C4.21052 0.760214 4.21036 0.737027 4.2102 0.713138C4.22281 0.619616 4.26516 0.566426 4.33401 0.504287C4.42529 0.441096 4.52456 0.440932 4.62625 0.476821ZM3.31015 3.74539C3.22662 3.86784 3.19712 3.98859 3.19601 4.13488C3.1959 4.14755 3.19578 4.16022 3.19566 4.17328C3.19532 4.2151 3.19511 4.25693 3.19494 4.29876C3.19486 4.31309 3.19479 4.32741 3.19472 4.34217C3.19435 4.41799 3.1941 4.49381 3.19394 4.56964C3.19374 4.64778 3.19314 4.72591 3.19244 4.80405C3.19198 4.86429 3.19183 4.92454 3.19177 4.98478C3.19168 5.01358 3.19148 5.04238 3.19115 5.07117C3.19072 5.11156 3.19074 5.15192 3.19086 5.19231C3.19076 5.21525 3.19066 5.23818 3.19055 5.26181C3.20188 5.34688 3.23004 5.41605 3.29784 5.47315C3.37608 5.52675 3.45833 5.53623 3.55069 5.51955C3.64391 5.47205 3.71062 5.40889 3.74405 5.30861C3.74547 5.28129 3.74594 5.25391 3.74576 5.22655C3.74572 5.21241 3.74567 5.19827 3.74563 5.18369C3.74547 5.16582 3.74531 5.14795 3.74514 5.12953C3.7446 5.04415 3.7446 5.04415 3.74405 4.95705C3.93547 4.95705 4.1269 4.95705 4.32412 4.95705C4.31973 5.13393 4.31973 5.13393 4.31779 5.18893C4.31649 5.29757 4.32965 5.36115 4.39444 5.44923C4.46954 5.51186 4.54054 5.53115 4.63806 5.52634C4.71981 5.51157 4.76792 5.4639 4.8218 5.40419C4.87172 5.33208 4.87141 5.27499 4.87188 5.18923C4.87197 5.17716 4.87205 5.16509 4.87214 5.15266C4.8724 5.1127 4.87252 5.07274 4.87262 5.03278C4.87272 5.0049 4.87282 4.97702 4.87292 4.94915C4.8731 4.89061 4.87321 4.83208 4.87327 4.77355C4.87336 4.69895 4.87379 4.62434 4.87429 4.54974C4.87462 4.49208 4.87471 4.43443 4.87473 4.37678C4.87479 4.3493 4.87493 4.32182 4.87516 4.29435C4.87706 4.05219 4.8495 3.83251 4.6717 3.6516C4.48941 3.49535 4.30652 3.46877 4.07488 3.47132C4.03414 3.47169 3.99346 3.47132 3.95272 3.47087C3.6903 3.47037 3.48109 3.5358 3.31015 3.74539ZM5.30301 3.59584C5.24792 3.67541 5.25306 3.75103 5.25293 3.84419C5.25284 3.8598 5.25276 3.87541 5.25267 3.89149C5.25241 3.9432 5.25229 3.99491 5.25219 4.04662C5.25209 4.08255 5.25199 4.11848 5.25189 4.15441C5.25171 4.22979 5.2516 4.30517 5.25154 4.38054C5.25145 4.47707 5.25102 4.57359 5.25052 4.67011C5.2502 4.74435 5.2501 4.81859 5.25008 4.89283C5.25002 4.92841 5.24988 4.96399 5.24965 4.99957C5.24935 5.04939 5.24938 5.0992 5.2495 5.14902C5.24934 5.16368 5.24918 5.17834 5.24901 5.19344C5.24971 5.292 5.26556 5.36808 5.33548 5.44298C5.43091 5.51596 5.48812 5.53323 5.60733 5.51955C5.69443 5.49142 5.74266 5.44291 5.7864 5.36214C5.8124 5.29672 5.81045 5.23208 5.80978 5.16249C5.80991 5.14655 5.81003 5.13062 5.81016 5.1142C5.81047 5.06181 5.81026 5.00944 5.81002 4.95705C5.81007 4.92047 5.81014 4.8839 5.81023 4.84732C5.81033 4.77078 5.81018 4.69425 5.80985 4.61771C5.80945 4.51976 5.80968 4.42183 5.8101 4.32389C5.81036 4.2484 5.81028 4.17291 5.8101 4.09742C5.81005 4.06131 5.81011 4.0252 5.81027 3.9891C5.81045 3.93857 5.81017 3.88807 5.80978 3.83754C5.80993 3.82272 5.81007 3.80791 5.81022 3.79265C5.80878 3.69214 5.78861 3.63332 5.73037 3.5508C5.65549 3.48802 5.58411 3.46888 5.48675 3.47369C5.405 3.48845 5.35689 3.53612 5.30301 3.59584Z" fill="#005864"/>
<path d="M3.90412 4.01839C3.92512 4.01833 3.94613 4.01826 3.96777 4.01819C3.98973 4.01839 4.01168 4.0186 4.03431 4.01881C4.05626 4.0186 4.07822 4.0184 4.10084 4.01819C4.13235 4.01829 4.13235 4.01829 4.16449 4.01839C4.18377 4.01845 4.20304 4.01851 4.22289 4.01857C4.27161 4.0254 4.27161 4.0254 4.30435 4.04732C4.32973 4.08643 4.33043 4.10992 4.3295 4.15634C4.3293 4.17649 4.3293 4.17649 4.3291 4.19704C4.32862 4.21399 4.32814 4.23095 4.32764 4.24842C4.32655 4.30244 4.32547 4.35646 4.32435 4.41212C4.13292 4.41212 3.94149 4.41212 3.74427 4.41212C3.74318 4.3581 3.74209 4.30408 3.74097 4.24842C3.74049 4.23146 3.74001 4.21451 3.73952 4.19704C3.73939 4.18361 3.73925 4.17018 3.73912 4.15634C3.73884 4.14263 3.73857 4.12891 3.73828 4.11478C3.74427 4.07813 3.74427 4.07813 3.76426 4.04732C3.81136 4.01579 3.84778 4.01857 3.90412 4.01839Z" fill="#005864"/>
</g>
<defs>
<clipPath id="clip0_287_1755">
<rect width="9" height="9" fill="white"/>
</clipPath>
</defs>
</svg>
