<svg width="16" height="16" viewBox="0 0 16 16" fill="none" xmlns="http://www.w3.org/2000/svg">
<g clip-path="url(#clip0_287_2016)">
<path d="M10.4627 -0.0175781C10.4932 -0.0189075 10.5237 -0.0202368 10.5552 -0.0216064C10.7908 0.0288285 10.9711 0.242314 11.1405 0.404297C11.1817 0.443225 11.2229 0.482125 11.2641 0.520996C11.2835 0.539224 11.3028 0.557452 11.3227 0.576233C11.4006 0.649071 11.4809 0.71889 11.5617 0.788452C11.6466 0.862776 11.7294 0.939222 11.8124 1.01562C11.9155 1.11059 12.0189 1.20505 12.1249 1.29688C12.2477 1.40334 12.3671 1.51344 12.4867 1.62354C12.5734 1.7033 12.6608 1.78218 12.7499 1.85938C12.8727 1.96584 12.9921 2.07594 13.1117 2.18604C13.1984 2.2658 13.2858 2.34468 13.3749 2.42188C13.4825 2.5153 13.5881 2.61084 13.6932 2.70703C13.7088 2.72127 13.7244 2.73551 13.7405 2.75018C14.0567 3.04024 14.0567 3.04024 14.0709 3.17419C14.0769 3.35922 14.0799 3.49487 13.956 3.63879C13.8831 3.70997 13.8083 3.77772 13.7302 3.84326C13.6408 3.91923 13.5547 3.99853 13.4686 4.07812C13.3464 4.19065 13.223 4.30138 13.0975 4.41016C13.0118 4.4858 12.9277 4.56319 12.8436 4.64062C12.7214 4.75313 12.598 4.86388 12.4725 4.97266C12.3868 5.0483 12.3027 5.12569 12.2186 5.20312C12.0964 5.31563 11.973 5.42638 11.8475 5.53516C11.7618 5.6108 11.6777 5.68819 11.5936 5.76562C11.4709 5.87864 11.3471 5.99015 11.2208 6.09924C11.1099 6.19696 11.0021 6.29816 10.894 6.39893C10.747 6.52461 10.6326 6.58365 10.4374 6.59375C10.2633 6.56374 10.1765 6.50873 10.0624 6.375C9.99893 6.27986 9.99209 6.26241 9.99276 6.15586C9.99277 6.13084 9.99277 6.10582 9.99277 6.08005C9.9931 6.05319 9.99342 6.02633 9.99375 5.99866C9.99389 5.95724 9.99389 5.95724 9.99402 5.91498C9.99437 5.82678 9.99516 5.73859 9.99595 5.65039C9.99626 5.5906 9.99655 5.5308 9.9968 5.47101C9.99749 5.32442 9.99857 5.17784 9.99986 5.03125C9.71483 5.03319 9.4298 5.03561 9.14478 5.03862C9.01235 5.04 8.87992 5.04123 8.74748 5.04208C8.15963 5.04596 7.58039 5.0518 6.99986 5.15625C6.96066 5.16325 6.92147 5.17024 6.88109 5.17745C6.78525 5.19627 6.69049 5.21731 6.59556 5.24023C6.56203 5.24822 6.5285 5.25621 6.49395 5.26444C5.45003 5.52118 4.44941 5.97003 3.59361 6.625C3.57571 6.63848 3.55781 6.65196 3.53938 6.66585C3.26086 6.876 3.00112 7.10181 2.74986 7.34375C2.72531 7.36727 2.72531 7.36727 2.70026 7.39127C2.48111 7.60228 2.2789 7.82068 2.09361 8.0625C2.07741 8.0834 2.06122 8.1043 2.04453 8.12584C1.62499 8.67002 1.29272 9.25099 1.00498 9.8739C0.995566 9.89381 0.98615 9.91372 0.976448 9.93423C0.950886 9.98835 0.925909 10.0428 0.900978 10.0972C0.831813 10.2061 0.770312 10.2533 0.656105 10.3125C0.483191 10.3431 0.328683 10.335 0.169777 10.2598C0.0680354 10.1632 0.00685059 10.0829 -0.0122757 9.94173C-0.0123814 9.90915 -0.0124872 9.87658 -0.0125961 9.84302C-0.01279 9.80632 -0.0129839 9.76963 -0.0131836 9.73183C-0.012748 9.69271 -0.0123125 9.65359 -0.0118637 9.61328C-0.0115691 9.57275 -0.0112746 9.53222 -0.0109711 9.49046C0.00167032 8.67023 0.170134 7.86755 0.437355 7.09375C0.444138 7.07347 0.45092 7.05319 0.457909 7.0323C0.753964 6.15188 1.22835 5.34355 1.81236 4.625C1.82727 4.60647 1.84219 4.58794 1.85755 4.56885C2.22132 4.11989 2.6325 3.69296 3.09361 3.34375C3.13029 3.31485 3.16695 3.28591 3.20359 3.25696C3.52487 3.00621 3.86431 2.79454 4.21861 2.59375C4.25479 2.57308 4.25479 2.57308 4.2917 2.552C5.4638 1.88883 6.80332 1.54764 8.14744 1.5564C8.20133 1.55651 8.25522 1.5566 8.30911 1.55666C8.449 1.5569 8.58888 1.55751 8.72877 1.55821C8.87229 1.55885 9.01582 1.55913 9.15934 1.55945C9.43951 1.56011 9.71968 1.56118 9.99986 1.5625C9.9992 1.52467 9.99855 1.48684 9.99787 1.44786C9.9956 1.30704 9.99417 1.16622 9.99299 1.02539C9.99236 0.964526 9.99151 0.903663 9.99043 0.842804C9.9889 0.755143 9.9882 0.667506 9.98765 0.579834C9.987 0.552776 9.98636 0.525718 9.98569 0.49784C9.98563 0.326581 10.0103 0.229442 10.1249 0.09375C10.2364 0.00776368 10.3228 -0.0148276 10.4627 -0.0175781Z" fill="#171717"/>
<path d="M15.8712 5.77733C16.0194 5.92555 16.0088 6.06407 16.0104 6.26541C16.0101 6.32449 16.0101 6.32449 16.0098 6.38475C16.0097 6.42542 16.0095 6.4661 16.0094 6.508C15.9973 7.52031 15.7548 8.54413 15.3438 9.46874C15.3322 9.49486 15.3206 9.52098 15.3087 9.54789C15.0112 10.2103 14.6457 10.8116 14.1876 11.375C14.1649 11.403 14.1649 11.403 14.1419 11.4316C13.7859 11.8699 13.3865 12.2817 12.9376 12.625C12.8907 12.6622 12.8907 12.6622 12.8428 12.7002C11.8868 13.4561 10.7696 13.9865 9.5821 14.2578C9.55043 14.2651 9.51876 14.2724 9.48612 14.28C9.37653 14.3037 9.26674 14.3242 9.15632 14.3437C9.12241 14.35 9.12241 14.35 9.08781 14.3565C8.482 14.4653 7.87122 14.4486 7.25829 14.4439C7.116 14.443 6.97372 14.4425 6.83143 14.4421C6.55431 14.4411 6.27719 14.4395 6.00007 14.4375C6.00073 14.4753 6.00138 14.5132 6.00205 14.5521C6.00432 14.6929 6.00575 14.8338 6.00694 14.9746C6.00756 15.0355 6.00842 15.0963 6.0095 15.1572C6.01102 15.2448 6.01173 15.3325 6.01228 15.4202C6.01292 15.4472 6.01357 15.4743 6.01423 15.5021C6.0143 15.6734 5.98958 15.7705 5.87507 15.9062C5.76353 15.9922 5.67709 16.0148 5.53718 16.0176C5.49144 16.0196 5.49144 16.0196 5.44477 16.0216C5.20912 15.9712 5.02886 15.7577 4.85945 15.5957C4.81825 15.5568 4.77703 15.5179 4.73579 15.479C4.70681 15.4517 4.70681 15.4517 4.67724 15.4238C4.59932 15.3509 4.51901 15.2811 4.43818 15.2115C4.35336 15.1372 4.27052 15.0608 4.18757 14.9844C4.08444 14.8894 3.98102 14.7949 3.87507 14.7031C3.75223 14.5967 3.63282 14.4866 3.51325 14.3765C3.42648 14.2967 3.33914 14.2178 3.25007 14.1406C3.12723 14.0342 3.00782 13.9241 2.88825 13.814C2.80148 13.7342 2.71414 13.6553 2.62507 13.5781C2.51743 13.4847 2.41187 13.3891 2.30671 13.293C2.2911 13.2787 2.27549 13.2645 2.25941 13.2498C1.94325 12.9598 1.94325 12.9598 1.92903 12.8258C1.92299 12.6408 1.91998 12.5051 2.04389 12.3612C2.11685 12.29 2.19164 12.2223 2.26972 12.1567C2.35909 12.0808 2.4452 12.0015 2.53132 11.9219C2.65348 11.8093 2.7769 11.6986 2.90241 11.5898C2.98814 11.5142 3.07222 11.4368 3.15632 11.3594C3.2785 11.2469 3.4019 11.1361 3.52741 11.0273C3.61314 10.9517 3.69722 10.8743 3.78132 10.7969C3.9035 10.6844 4.0269 10.5736 4.15241 10.4648C4.23814 10.3892 4.32222 10.3118 4.40632 10.2344C4.52908 10.1213 4.65286 10.0098 4.77912 9.90075C4.89002 9.80303 4.99778 9.70183 5.10591 9.60106C5.25291 9.47537 5.36731 9.41634 5.56257 9.40624C5.73662 9.43625 5.82341 9.49126 5.93757 9.62499C6.001 9.72013 6.00784 9.73758 6.00717 9.84413C6.00716 9.88166 6.00716 9.88166 6.00715 9.91994C6.00683 9.9468 6.00651 9.97366 6.00617 10.0013C6.00609 10.0289 6.006 10.0566 6.00591 10.085C6.00556 10.1732 6.00477 10.2614 6.00398 10.3496C6.00366 10.4094 6.00338 10.4692 6.00312 10.529C6.00243 10.6756 6.00135 10.8222 6.00007 10.9687C6.2851 10.9668 6.57012 10.9644 6.85514 10.9614C6.98758 10.96 7.12001 10.9588 7.25244 10.9579C8.08653 10.9524 8.87642 10.898 9.68757 10.6875C9.71353 10.6808 9.73949 10.6741 9.76623 10.6671C10.8296 10.3851 11.8429 9.86033 12.6876 9.15624C12.7051 9.14192 12.7225 9.12761 12.7406 9.11286C13.1675 8.76304 13.5726 8.37821 13.9063 7.93749C13.9303 7.90641 13.9303 7.90641 13.9548 7.8747C14.3746 7.33034 14.7071 6.74928 14.9949 6.12609C15.0091 6.09623 15.0091 6.09623 15.0235 6.06576C15.049 6.01164 15.074 5.95724 15.0989 5.90282C15.1828 5.77079 15.2852 5.70534 15.4337 5.66014C15.6006 5.65347 15.731 5.68591 15.8712 5.77733Z" fill="#171717"/>
</g>
<defs>
<clipPath id="clip0_287_2016">
<rect width="16" height="16" fill="white"/>
</clipPath>
</defs>
</svg>
