<svg width="306" height="40" viewBox="0 0 306 40" fill="none" xmlns="http://www.w3.org/2000/svg">
<rect width="306" height="40" rx="10" fill="#171717"/>
<path d="M44.928 25.16C43.8613 25.16 43.0187 24.8613 42.4 24.264C41.7813 23.6667 41.472 22.8453 41.472 21.8V16.52C41.472 15.4747 41.7813 14.6533 42.4 14.056C43.0187 13.4587 43.8613 13.16 44.928 13.16C45.9733 13.16 46.8053 13.464 47.424 14.072C48.0427 14.6693 48.352 15.4853 48.352 16.52H46.912C46.912 15.8587 46.736 15.352 46.384 15C46.0427 14.6373 45.5573 14.456 44.928 14.456C44.2987 14.456 43.8027 14.6373 43.44 15C43.088 15.352 42.912 15.8587 42.912 16.52V21.8C42.912 22.4613 43.088 22.9733 43.44 23.336C43.8027 23.688 44.2987 23.864 44.928 23.864C45.5573 23.864 46.0427 23.688 46.384 23.336C46.736 22.9733 46.912 22.4613 46.912 21.8H48.352C48.352 22.8347 48.0427 23.656 47.424 24.264C46.8053 24.8613 45.9733 25.16 44.928 25.16ZM54.3938 25.128C53.3378 25.128 52.4951 24.8187 51.8658 24.2C51.2471 23.5813 50.9378 22.7173 50.9378 21.608V19.592C50.9378 18.472 51.2471 17.608 51.8658 17C52.4844 16.3813 53.3271 16.072 54.3938 16.072C55.4604 16.072 56.3031 16.3813 56.9218 17C57.5404 17.608 57.8498 18.472 57.8498 19.592V21.608C57.8498 22.7173 57.5351 23.5813 56.9058 24.2C56.2871 24.8187 55.4498 25.128 54.3938 25.128ZM54.3938 23.848C55.0231 23.848 55.5138 23.672 55.8658 23.32C56.2284 22.968 56.4098 22.4507 56.4098 21.768V19.432C56.4098 18.7493 56.2284 18.232 55.8658 17.88C55.5138 17.528 55.0231 17.352 54.3938 17.352C53.7751 17.352 53.2844 17.528 52.9218 17.88C52.5591 18.232 52.3778 18.7493 52.3778 19.432V21.768C52.3778 22.4507 52.5591 22.968 52.9218 23.32C53.2844 23.672 53.7751 23.848 54.3938 23.848ZM63.9875 25.16C62.9315 25.16 62.0942 24.8507 61.4755 24.232C60.8675 23.6133 60.5635 22.776 60.5635 21.72V17.672C60.5635 16.3813 60.8515 15.3787 61.4275 14.664C62.0142 13.9493 62.8728 13.5387 64.0035 13.432L66.9155 13.16V14.584L64.2275 14.824C62.5848 14.9733 61.7635 15.9227 61.7635 17.672V18.392C61.8915 17.88 62.1688 17.48 62.5955 17.192C63.0328 16.8933 63.5822 16.744 64.2435 16.744C65.2568 16.744 66.0355 17.0533 66.5795 17.672C67.1342 18.2907 67.4115 19.1173 67.4115 20.152V21.72C67.4115 22.776 67.1022 23.6133 66.4835 24.232C65.8755 24.8507 65.0435 25.16 63.9875 25.16ZM63.9875 23.88C64.6062 23.88 65.0915 23.688 65.4435 23.304C65.7955 22.9093 65.9715 22.3813 65.9715 21.72V20.152C65.9715 19.4907 65.7955 18.968 65.4435 18.584C65.0915 18.1893 64.6062 17.992 63.9875 17.992C63.3688 17.992 62.8835 18.1893 62.5315 18.584C62.1795 18.968 62.0035 19.4907 62.0035 20.152V21.72C62.0035 22.3813 62.1795 22.9093 62.5315 23.304C62.8835 23.688 63.3688 23.88 63.9875 23.88ZM70.2533 27.88V16.2H71.6933V17.88H71.7093C71.7839 17.304 72.0346 16.856 72.4613 16.536C72.8879 16.2053 73.4319 16.04 74.0933 16.04C74.9786 16.04 75.6826 16.3333 76.2053 16.92C76.7279 17.496 76.9893 18.2907 76.9893 19.304V21.88C76.9893 22.8933 76.7279 23.6933 76.2053 24.28C75.6826 24.8667 74.9786 25.16 74.0933 25.16C73.4319 25.16 72.8879 24.9947 72.4613 24.664C72.0346 24.3333 71.7839 23.8853 71.7093 23.32H71.6613L71.6933 25.32V27.88H70.2533ZM73.6133 23.912C74.2213 23.912 74.6959 23.752 75.0373 23.432C75.3786 23.112 75.5493 22.5947 75.5493 21.88V19.32C75.5493 18.5947 75.3786 18.0773 75.0373 17.768C74.6959 17.448 74.2213 17.288 73.6133 17.288C73.0266 17.288 72.5573 17.4747 72.2053 17.848C71.8639 18.2213 71.6933 18.7387 71.6933 19.4V21.8C71.6933 22.4613 71.8639 22.9787 72.2053 23.352C72.5573 23.7253 73.0266 23.912 73.6133 23.912ZM82.407 25.16C81.5003 25.16 80.7803 24.9093 80.247 24.408C79.7137 23.896 79.447 23.2293 79.447 22.408C79.447 21.864 79.5697 21.3893 79.815 20.984C80.0603 20.5787 80.4017 20.264 80.839 20.04C81.2763 19.8053 81.7777 19.688 82.343 19.688H85.063V19C85.063 17.8587 84.439 17.288 83.191 17.288C82.6363 17.288 82.1883 17.3893 81.847 17.592C81.5057 17.7947 81.3243 18.0773 81.303 18.44H79.863C79.9163 17.7467 80.2363 17.176 80.823 16.728C81.4203 16.2693 82.2097 16.04 83.191 16.04C84.2577 16.04 85.0737 16.296 85.639 16.808C86.215 17.32 86.503 18.0347 86.503 18.952V25H85.079V23.4H85.047C84.9617 23.944 84.6897 24.376 84.231 24.696C83.7723 25.0053 83.1643 25.16 82.407 25.16ZM82.759 23.944C83.463 23.944 84.023 23.7733 84.439 23.432C84.855 23.0907 85.063 22.6267 85.063 22.04V20.808H82.503C82.0337 20.808 81.6497 20.952 81.351 21.24C81.063 21.5173 80.919 21.8907 80.919 22.36C80.919 22.8507 81.079 23.24 81.399 23.528C81.7297 23.8053 82.183 23.944 82.759 23.944ZM92.0488 25V17.512H88.8488V16.2H96.6888V17.512H93.4888V25H92.0488ZM99.2425 25V16.2H100.683V19.432H103.195C104.187 19.432 104.965 19.6827 105.531 20.184C106.107 20.6747 106.395 21.352 106.395 22.216C106.395 23.0693 106.107 23.7467 105.531 24.248C104.955 24.7493 104.176 25 103.195 25H99.2425ZM100.683 23.688H103.195C103.749 23.688 104.171 23.5653 104.459 23.32C104.757 23.064 104.907 22.696 104.907 22.216C104.907 21.736 104.757 21.3733 104.459 21.128C104.171 20.872 103.749 20.744 103.195 20.744H100.683V23.688ZM118.398 25V16.2H119.838V19.832H121.55L123.982 16.2H125.63L122.782 20.424L125.79 25H124.11L121.566 21.144H119.838V25H118.398ZM131.144 25.128C130.088 25.128 129.245 24.8187 128.616 24.2C127.997 23.5813 127.688 22.7173 127.688 21.608V19.592C127.688 18.472 127.997 17.608 128.616 17C129.234 16.3813 130.077 16.072 131.144 16.072C132.21 16.072 133.053 16.3813 133.672 17C134.29 17.608 134.6 18.472 134.6 19.592V21.608C134.6 22.7173 134.285 23.5813 133.656 24.2C133.037 24.8187 132.2 25.128 131.144 25.128ZM131.144 23.848C131.773 23.848 132.264 23.672 132.616 23.32C132.978 22.968 133.16 22.4507 133.16 21.768V19.432C133.16 18.7493 132.978 18.232 132.616 17.88C132.264 17.528 131.773 17.352 131.144 17.352C130.525 17.352 130.034 17.528 129.672 17.88C129.309 18.232 129.128 18.7493 129.128 19.432V21.768C129.128 22.4507 129.309 22.968 129.672 23.32C130.034 23.672 130.525 23.848 131.144 23.848ZM137.41 27.88V16.2H138.85V17.88H138.866C138.94 17.304 139.191 16.856 139.618 16.536C140.044 16.2053 140.588 16.04 141.25 16.04C142.135 16.04 142.839 16.3333 143.362 16.92C143.884 17.496 144.146 18.2907 144.146 19.304V21.88C144.146 22.8933 143.884 23.6933 143.362 24.28C142.839 24.8667 142.135 25.16 141.25 25.16C140.588 25.16 140.044 24.9947 139.618 24.664C139.191 24.3333 138.94 23.8853 138.866 23.32H138.818L138.85 25.32V27.88H137.41ZM140.77 23.912C141.378 23.912 141.852 23.752 142.194 23.432C142.535 23.112 142.706 22.5947 142.706 21.88V19.32C142.706 18.5947 142.535 18.0773 142.194 17.768C141.852 17.448 141.378 17.288 140.77 17.288C140.183 17.288 139.714 17.4747 139.362 17.848C139.02 18.2213 138.85 18.7387 138.85 19.4V21.8C138.85 22.4613 139.02 22.9787 139.362 23.352C139.714 23.7253 140.183 23.912 140.77 23.912ZM149.787 25.112C148.827 25.112 148.065 24.888 147.499 24.44C146.934 23.9813 146.651 23.3627 146.651 22.584H148.091C148.091 22.9573 148.241 23.256 148.539 23.48C148.849 23.704 149.265 23.816 149.787 23.816H150.635C151.19 23.816 151.627 23.6987 151.947 23.464C152.267 23.2187 152.427 22.888 152.427 22.472C152.427 22.0347 152.267 21.6933 151.947 21.448C151.627 21.192 151.19 21.064 150.635 21.064H148.715V19.816H150.587C151.089 19.816 151.483 19.704 151.771 19.48C152.07 19.256 152.219 18.952 152.219 18.568C152.219 18.1947 152.075 17.9013 151.787 17.688C151.499 17.464 151.105 17.352 150.603 17.352H149.851C149.382 17.352 149.003 17.4427 148.715 17.624C148.438 17.8053 148.289 18.0507 148.267 18.36H146.827C146.849 17.6667 147.131 17.1173 147.675 16.712C148.219 16.296 148.945 16.088 149.851 16.088H150.603C151.563 16.088 152.321 16.2853 152.875 16.68C153.441 17.0747 153.723 17.64 153.723 18.376C153.723 18.8667 153.553 19.2827 153.211 19.624C152.881 19.9547 152.449 20.1413 151.915 20.184V20.248C152.555 20.2907 153.051 20.5147 153.403 20.92C153.755 21.3253 153.931 21.848 153.931 22.488C153.931 23.288 153.633 23.928 153.035 24.408C152.449 24.8773 151.649 25.112 150.635 25.112H149.787ZM156.597 25V16.2H157.973V20.936C157.973 21.3947 157.962 21.8693 157.941 22.36C157.93 22.8507 157.882 23.2507 157.797 23.56L161.461 16.2H163.253V25H161.877V20.248C161.877 19.7787 161.882 19.2987 161.893 18.808C161.914 18.3173 161.968 17.9173 162.053 17.608L158.389 25H156.597ZM166.191 25V16.2H167.631V19.832H171.407V16.2H172.847V25H171.407V21.144H167.631V25H166.191ZM177.161 27.88L178.457 24.456L175.177 16.2H176.729L178.809 21.64C178.894 21.8533 178.974 22.0773 179.049 22.312C179.123 22.5467 179.177 22.7493 179.209 22.92C179.241 22.7493 179.294 22.5467 179.369 22.312C179.443 22.0773 179.518 21.8533 179.593 21.64L181.529 16.2H183.049L178.665 27.88H177.161ZM194.972 25V16.2H201.628V25H200.188V17.512H196.412V25H194.972ZM207.894 25.128C206.838 25.128 205.995 24.8187 205.366 24.2C204.747 23.5813 204.438 22.7173 204.438 21.608V19.592C204.438 18.472 204.747 17.608 205.366 17C205.984 16.3813 206.827 16.072 207.894 16.072C208.96 16.072 209.803 16.3813 210.422 17C211.04 17.608 211.35 18.472 211.35 19.592V21.608C211.35 22.7173 211.035 23.5813 210.406 24.2C209.787 24.8187 208.95 25.128 207.894 25.128ZM207.894 23.848C208.523 23.848 209.014 23.672 209.366 23.32C209.728 22.968 209.91 22.4507 209.91 21.768V19.432C209.91 18.7493 209.728 18.232 209.366 17.88C209.014 17.528 208.523 17.352 207.894 17.352C207.275 17.352 206.784 17.528 206.422 17.88C206.059 18.232 205.878 18.7493 205.878 19.432V21.768C205.878 22.4507 206.059 22.968 206.422 23.32C206.784 23.672 207.275 23.848 207.894 23.848ZM226.537 25.112C225.577 25.112 224.815 24.888 224.249 24.44C223.684 23.9813 223.401 23.3627 223.401 22.584H224.841C224.841 22.9573 224.991 23.256 225.289 23.48C225.599 23.704 226.015 23.816 226.537 23.816H227.385C227.94 23.816 228.377 23.6987 228.697 23.464C229.017 23.2187 229.177 22.888 229.177 22.472C229.177 22.0347 229.017 21.6933 228.697 21.448C228.377 21.192 227.94 21.064 227.385 21.064H225.465V19.816H227.337C227.839 19.816 228.233 19.704 228.521 19.48C228.82 19.256 228.969 18.952 228.969 18.568C228.969 18.1947 228.825 17.9013 228.537 17.688C228.249 17.464 227.855 17.352 227.353 17.352H226.601C226.132 17.352 225.753 17.4427 225.465 17.624C225.188 17.8053 225.039 18.0507 225.017 18.36H223.577C223.599 17.6667 223.881 17.1173 224.425 16.712C224.969 16.296 225.695 16.088 226.601 16.088H227.353C228.313 16.088 229.071 16.2853 229.625 16.68C230.191 17.0747 230.473 17.64 230.473 18.376C230.473 18.8667 230.303 19.2827 229.961 19.624C229.631 19.9547 229.199 20.1413 228.665 20.184V20.248C229.305 20.2907 229.801 20.5147 230.153 20.92C230.505 21.3253 230.681 21.848 230.681 22.488C230.681 23.288 230.383 23.928 229.785 24.408C229.199 24.8773 228.399 25.112 227.385 25.112H226.537ZM235.907 25.16C235 25.16 234.28 24.9093 233.747 24.408C233.214 23.896 232.947 23.2293 232.947 22.408C232.947 21.864 233.07 21.3893 233.315 20.984C233.56 20.5787 233.902 20.264 234.339 20.04C234.776 19.8053 235.278 19.688 235.843 19.688H238.563V19C238.563 17.8587 237.939 17.288 236.691 17.288C236.136 17.288 235.688 17.3893 235.347 17.592C235.006 17.7947 234.824 18.0773 234.803 18.44H233.363C233.416 17.7467 233.736 17.176 234.323 16.728C234.92 16.2693 235.71 16.04 236.691 16.04C237.758 16.04 238.574 16.296 239.139 16.808C239.715 17.32 240.003 18.0347 240.003 18.952V25H238.579V23.4H238.547C238.462 23.944 238.19 24.376 237.731 24.696C237.272 25.0053 236.664 25.16 235.907 25.16ZM236.259 23.944C236.963 23.944 237.523 23.7733 237.939 23.432C238.355 23.0907 238.563 22.6267 238.563 22.04V20.808H236.003C235.534 20.808 235.15 20.952 234.851 21.24C234.563 21.5173 234.419 21.8907 234.419 22.36C234.419 22.8507 234.579 23.24 234.899 23.528C235.23 23.8053 235.683 23.944 236.259 23.944ZM242.941 25V16.2H249.597V25H248.157V17.512H244.381V25H242.941ZM252.535 27.88V16.2H253.975V17.88H253.991C254.065 17.304 254.316 16.856 254.743 16.536C255.169 16.2053 255.713 16.04 256.375 16.04C257.26 16.04 257.964 16.3333 258.487 16.92C259.009 17.496 259.271 18.2907 259.271 19.304V21.88C259.271 22.8933 259.009 23.6933 258.487 24.28C257.964 24.8667 257.26 25.16 256.375 25.16C255.713 25.16 255.169 24.9947 254.743 24.664C254.316 24.3333 254.065 23.8853 253.991 23.32H253.943L253.975 25.32V27.88H252.535ZM255.895 23.912C256.503 23.912 256.977 23.752 257.319 23.432C257.66 23.112 257.831 22.5947 257.831 21.88V19.32C257.831 18.5947 257.66 18.0773 257.319 17.768C256.977 17.448 256.503 17.288 255.895 17.288C255.308 17.288 254.839 17.4747 254.487 17.848C254.145 18.2213 253.975 18.7387 253.975 19.4V21.8C253.975 22.4613 254.145 22.9787 254.487 23.352C254.839 23.7253 255.308 23.912 255.895 23.912ZM265.456 25.128C264.4 25.128 263.558 24.8187 262.928 24.2C262.31 23.5813 262 22.7173 262 21.608V19.592C262 18.472 262.31 17.608 262.928 17C263.547 16.3813 264.39 16.072 265.456 16.072C266.523 16.072 267.366 16.3813 267.984 17C268.603 17.608 268.912 18.472 268.912 19.592V21.608C268.912 22.7173 268.598 23.5813 267.968 24.2C267.35 24.8187 266.512 25.128 265.456 25.128ZM265.456 23.848C266.086 23.848 266.576 23.672 266.928 23.32C267.291 22.968 267.472 22.4507 267.472 21.768V19.432C267.472 18.7493 267.291 18.232 266.928 17.88C266.576 17.528 266.086 17.352 265.456 17.352C264.838 17.352 264.347 17.528 263.984 17.88C263.622 18.232 263.44 18.7493 263.44 19.432V21.768C263.44 22.4507 263.622 22.968 263.984 23.32C264.347 23.672 264.838 23.848 265.456 23.848ZM275.178 25.16C274.111 25.16 273.258 24.8613 272.618 24.264C271.978 23.6667 271.658 22.8453 271.658 21.8V19.4C271.658 18.3547 271.978 17.5333 272.618 16.936C273.258 16.3387 274.111 16.04 275.178 16.04C276.191 16.04 277.007 16.312 277.626 16.856C278.255 17.4 278.586 18.1413 278.618 19.08H277.178C277.146 18.5147 276.954 18.0827 276.602 17.784C276.25 17.4747 275.775 17.32 275.178 17.32C274.549 17.32 274.042 17.5013 273.658 17.864C273.285 18.216 273.098 18.7227 273.098 19.384V21.8C273.098 22.4613 273.285 22.9733 273.658 23.336C274.042 23.6987 274.549 23.88 275.178 23.88C275.775 23.88 276.25 23.7253 276.602 23.416C276.954 23.1067 277.146 22.6747 277.178 22.12H278.618C278.586 23.0587 278.255 23.8 277.626 24.344C277.007 24.888 276.191 25.16 275.178 25.16ZM282.692 27.88L283.988 24.456L280.708 16.2H282.26L284.34 21.64C284.425 21.8533 284.505 22.0773 284.58 22.312C284.654 22.5467 284.708 22.7493 284.74 22.92C284.772 22.7493 284.825 22.5467 284.9 22.312C284.974 22.0773 285.049 21.8533 285.124 21.64L287.06 16.2H288.58L284.196 27.88H282.692Z" fill="white"/>
<path d="M23.7949 10.1125C23.9542 10.2188 24.0697 10.3442 24.1564 10.5176C24.1602 10.6152 24.1615 10.7116 24.161 10.8093C24.161 10.8393 24.161 10.8693 24.161 10.9002C24.161 10.9996 24.1607 11.0991 24.1604 11.1985C24.1603 11.2673 24.1602 11.3362 24.1602 11.405C24.16 11.5864 24.1596 11.7678 24.1592 11.9492C24.1588 12.1342 24.1586 12.3192 24.1584 12.5043C24.1579 12.8674 24.1572 13.2306 24.1564 13.5937C24.5895 13.5937 25.0226 13.5937 25.4689 13.5937C25.467 13.4693 25.465 13.3448 25.4631 13.2166C25.4618 13.0956 25.4608 12.9747 25.4598 12.8537C25.459 12.7699 25.4579 12.686 25.4565 12.6022C25.4545 12.4814 25.4536 12.3607 25.4528 12.2399C25.452 12.2026 25.4511 12.1653 25.4503 12.1269C25.4502 11.897 25.4787 11.7659 25.6329 11.584C25.8184 11.4166 25.9525 11.3656 26.2049 11.3702C26.4005 11.3903 26.5267 11.4827 26.6506 11.6276C26.7564 11.7696 26.7865 11.8292 26.786 12.0013C26.786 12.0366 26.786 12.0719 26.786 12.1083C26.7858 12.1464 26.7856 12.1846 26.7854 12.2239C26.7853 12.2824 26.7853 12.2824 26.7852 12.3422C26.785 12.4671 26.7844 12.5921 26.7839 12.717C26.7837 12.8016 26.7835 12.8862 26.7834 12.9708C26.7829 13.1785 26.7822 13.3861 26.7814 13.5937C26.8475 13.5925 26.8475 13.5925 26.915 13.5913C26.9739 13.5907 27.0329 13.59 27.0919 13.5894C27.1208 13.5888 27.1497 13.5883 27.1795 13.5877C27.4638 13.5855 27.7072 13.6524 27.9708 13.7578C28.0061 13.7712 28.0413 13.7847 28.0777 13.7985C28.6345 14.0411 29.0581 14.5494 29.2782 15.1036C29.3788 15.377 29.4123 15.6124 29.4089 15.9034C29.4087 15.9338 29.4085 15.9642 29.4084 15.9955C29.4079 16.0699 29.4071 16.1443 29.4064 16.2187C29.4585 16.2179 29.5106 16.217 29.5643 16.2161C29.7583 16.2132 29.9523 16.2113 30.1464 16.2097C30.2302 16.2089 30.3141 16.2078 30.3979 16.2064C30.5187 16.2044 30.6394 16.2034 30.7602 16.2027C30.7975 16.2019 30.8348 16.201 30.8732 16.2002C31.1031 16.2001 31.2342 16.2286 31.4161 16.3828C31.5835 16.5683 31.6345 16.7024 31.6299 16.9548C31.6098 17.1503 31.5174 17.2766 31.3725 17.4005C31.2305 17.5063 31.1709 17.5364 30.9988 17.5359C30.9459 17.5359 30.9459 17.5359 30.8918 17.5359C30.8537 17.5357 30.8155 17.5355 30.7762 17.5352C30.7372 17.5352 30.6982 17.5351 30.6579 17.5351C30.533 17.5348 30.408 17.5343 30.2831 17.5338C30.1985 17.5336 30.1139 17.5334 30.0293 17.5332C29.8216 17.5328 29.614 17.532 29.4064 17.5312C29.4064 17.9644 29.4064 18.3975 29.4064 18.8437C29.4983 18.8429 29.5902 18.842 29.6848 18.8411C29.9888 18.8384 30.2928 18.8366 30.5969 18.8352C30.7811 18.8344 30.9654 18.8332 31.1497 18.8314C31.3276 18.8296 31.5055 18.8286 31.6834 18.8282C31.7512 18.8279 31.819 18.8273 31.8868 18.8264C31.982 18.8252 32.0771 18.825 32.1722 18.8251C32.2263 18.8248 32.2804 18.8244 32.3361 18.824C32.5544 18.8534 32.6785 18.9522 32.8235 19.1129C32.9444 19.2876 32.9549 19.4572 32.9337 19.6641C32.8515 19.8968 32.7035 20.0458 32.4825 20.1562C32.3849 20.16 32.2885 20.1614 32.1908 20.1609C32.1458 20.1609 32.1458 20.1609 32.0999 20.1609C32.0005 20.1609 31.901 20.1606 31.8016 20.1602C31.7328 20.1602 31.6639 20.1601 31.5951 20.1601C31.4137 20.1599 31.2323 20.1595 31.0509 20.1591C30.8659 20.1586 30.6809 20.1585 30.4958 20.1582C30.1327 20.1578 29.7695 20.1571 29.4064 20.1562C29.4064 20.5894 29.4064 21.0225 29.4064 21.4687C29.5308 21.4668 29.6553 21.4649 29.7835 21.463C29.9045 21.4617 30.0254 21.4607 30.1464 21.4597C30.2302 21.4589 30.3141 21.4578 30.3979 21.4564C30.5187 21.4544 30.6394 21.4534 30.7602 21.4527C30.7975 21.4519 30.8348 21.451 30.8732 21.4502C31.1031 21.4501 31.2342 21.4786 31.4161 21.6328C31.5835 21.8183 31.6345 21.9524 31.6299 22.2048C31.6098 22.4003 31.5174 22.5266 31.3725 22.6505C31.2305 22.7563 31.1709 22.7864 30.9988 22.7859C30.9459 22.7859 30.9459 22.7859 30.8918 22.7859C30.8537 22.7857 30.8155 22.7855 30.7762 22.7852C30.7372 22.7852 30.6982 22.7851 30.6579 22.7851C30.533 22.7848 30.408 22.7843 30.2831 22.7838C30.1985 22.7836 30.1139 22.7834 30.0293 22.7832C29.8216 22.7828 29.614 22.7821 29.4064 22.7812C29.4076 22.8474 29.4076 22.8474 29.4088 22.9149C29.4094 22.9738 29.4101 23.0328 29.4107 23.0917C29.4113 23.1207 29.4118 23.1496 29.4124 23.1794C29.4146 23.4637 29.3477 23.7071 29.2423 23.9707C29.2289 24.006 29.2154 24.0412 29.2016 24.0776C28.959 24.6344 28.4507 25.058 27.8965 25.2781C27.6231 25.3786 27.3877 25.4122 27.0967 25.4088C27.0663 25.4086 27.0359 25.4084 27.0046 25.4082C26.9302 25.4078 26.8558 25.407 26.7814 25.4062C26.7822 25.4584 26.7831 25.5105 26.784 25.5642C26.7869 25.7582 26.7888 25.9522 26.7904 26.1462C26.7912 26.2301 26.7923 26.314 26.7937 26.3978C26.7957 26.5186 26.7967 26.6393 26.7974 26.7601C26.7982 26.7974 26.7991 26.8347 26.7999 26.8731C26.8 27.103 26.7713 27.2339 26.6173 27.416C26.4445 27.5759 26.3394 27.6143 26.1097 27.6313C25.9206 27.6183 25.791 27.5749 25.6555 27.438C25.5264 27.2866 25.4636 27.1951 25.4642 26.9987C25.4642 26.9634 25.4642 26.9281 25.4642 26.8917C25.4644 26.8536 25.4646 26.8154 25.4648 26.7761C25.4649 26.7176 25.4649 26.7176 25.465 26.6578C25.4653 26.5329 25.4658 26.4079 25.4663 26.283C25.4665 26.1984 25.4667 26.1138 25.4669 26.0292C25.4673 25.8215 25.4681 25.6139 25.4689 25.4062C25.0357 25.4062 24.6026 25.4062 24.1564 25.4062C24.1572 25.4981 24.1581 25.59 24.159 25.6847C24.1617 25.9887 24.1635 26.2927 24.1649 26.5967C24.1657 26.781 24.1669 26.9653 24.1687 27.1496C24.1705 27.3275 24.1715 27.5054 24.1719 27.6833C24.1722 27.7511 24.1728 27.8189 24.1737 27.8867C24.1749 27.9818 24.1751 28.0769 24.175 28.1721C24.1753 28.2262 24.1757 28.2803 24.1761 28.336C24.1468 28.5532 24.0478 28.6772 23.8898 28.8234C23.7089 28.9454 23.5532 28.9486 23.336 28.9336C23.1033 28.8498 22.9546 28.704 22.8439 28.4824C22.8401 28.3848 22.8387 28.2884 22.8392 28.1907C22.8392 28.1607 22.8392 28.1307 22.8392 28.0998C22.8392 28.0003 22.8395 27.9009 22.8398 27.8015C22.8399 27.7326 22.84 27.6638 22.84 27.5949C22.8402 27.4136 22.8406 27.2322 22.841 27.0508C22.8415 26.8658 22.8416 26.6807 22.8419 26.4957C22.8423 26.1326 22.843 25.7694 22.8439 25.4062C22.4107 25.4062 21.9776 25.4062 21.5314 25.4062C21.5333 25.5307 21.5352 25.6552 21.5371 25.7834C21.5384 25.9043 21.5394 26.0253 21.5404 26.1462C21.5412 26.2301 21.5423 26.314 21.5437 26.3978C21.5457 26.5186 21.5467 26.6393 21.5474 26.7601C21.5482 26.7974 21.5491 26.8347 21.5499 26.8731C21.55 27.103 21.5213 27.2339 21.3673 27.416C21.1945 27.5759 21.0894 27.6143 20.8597 27.6313C20.6706 27.6183 20.541 27.5749 20.4055 27.438C20.2764 27.2866 20.2136 27.1951 20.2142 26.9987C20.2142 26.9634 20.2142 26.9281 20.2142 26.8917C20.2144 26.8536 20.2146 26.8154 20.2148 26.7761C20.2149 26.7176 20.2149 26.7176 20.215 26.6578C20.2153 26.5329 20.2158 26.4079 20.2163 26.283C20.2165 26.1984 20.2167 26.1138 20.2169 26.0292C20.2173 25.8215 20.218 25.6139 20.2189 25.4062C20.1527 25.4074 20.1527 25.4074 20.0851 25.4086C20.0261 25.4092 19.9672 25.4098 19.9082 25.4104C19.8792 25.411 19.8503 25.4115 19.8204 25.4121C19.2206 25.4166 18.6859 25.1253 18.2591 24.7207C17.8218 24.2703 17.5821 23.7223 17.5908 23.0943C17.5911 23.049 17.5911 23.049 17.5915 23.0028C17.592 22.9289 17.5929 22.8551 17.5939 22.7812C17.5156 22.7825 17.5156 22.7825 17.4359 22.7838C17.2419 22.7868 17.0479 22.7887 16.8539 22.7903C16.77 22.7911 16.6861 22.7922 16.6023 22.7936C16.4815 22.7956 16.3608 22.7965 16.24 22.7973C16.2027 22.7981 16.1654 22.799 16.127 22.7998C15.8972 22.7999 15.766 22.7714 15.5841 22.6172C15.4166 22.4316 15.366 22.2976 15.3702 22.0452C15.3946 21.8117 15.5369 21.6587 15.7071 21.5098C15.8212 21.4717 15.8884 21.4637 16.0061 21.4641C16.0414 21.4641 16.0767 21.4641 16.113 21.4641C16.151 21.4643 16.1889 21.4645 16.228 21.4647C16.267 21.4648 16.3059 21.4649 16.3461 21.4649C16.4706 21.4651 16.5952 21.4657 16.7197 21.4662C16.8041 21.4664 16.8885 21.4666 16.9729 21.4667C17.1799 21.4672 17.3869 21.468 17.5939 21.4687C17.5939 21.0356 17.5939 20.6025 17.5939 20.1562C17.456 20.1575 17.456 20.1575 17.3154 20.1588C17.0114 20.1616 16.7074 20.1634 16.4034 20.1647C16.2191 20.1656 16.0348 20.1668 15.8505 20.1686C15.6726 20.1704 15.4947 20.1714 15.3168 20.1718C15.249 20.1721 15.1812 20.1727 15.1134 20.1736C15.0183 20.1748 14.9232 20.1749 14.828 20.1749C14.7739 20.1752 14.7198 20.1756 14.6641 20.176C14.4458 20.1466 14.3217 20.0477 14.1767 19.8871C14.0559 19.7125 14.0449 19.5427 14.0665 19.3359C14.1382 19.1435 14.2406 19.0195 14.3946 18.8848C14.5376 18.8371 14.6653 18.8383 14.814 18.8391C14.8441 18.8391 14.8741 18.8391 14.905 18.8391C15.0042 18.8391 15.1034 18.8394 15.2026 18.8397C15.2714 18.8398 15.3402 18.8399 15.409 18.8399C15.59 18.8401 15.7711 18.8405 15.9521 18.8409C16.1369 18.8413 16.3216 18.8415 16.5064 18.8417C16.8689 18.8422 17.2314 18.8429 17.5939 18.8437C17.5939 18.4106 17.5939 17.9775 17.5939 17.5312C17.4694 17.5331 17.3449 17.5351 17.2167 17.537C17.0958 17.5383 16.9748 17.5393 16.8539 17.5403C16.77 17.5411 16.6861 17.5422 16.6023 17.5436C16.4815 17.5456 16.3608 17.5465 16.24 17.5473C16.2027 17.5481 16.1654 17.549 16.127 17.5498C15.8972 17.5499 15.766 17.5214 15.5841 17.3672C15.4166 17.1816 15.366 17.0476 15.3702 16.7952C15.3946 16.5617 15.5369 16.4087 15.7071 16.2598C15.8212 16.2217 15.8884 16.2137 16.0061 16.2141C16.0414 16.2141 16.0767 16.2141 16.113 16.2141C16.151 16.2143 16.1889 16.2145 16.228 16.2147C16.267 16.2148 16.3059 16.2149 16.3461 16.2149C16.4706 16.2151 16.5952 16.2157 16.7197 16.2162C16.8041 16.2164 16.8885 16.2166 16.9729 16.2167C17.1799 16.2172 17.3869 16.2179 17.5939 16.2187C17.5931 16.1746 17.5922 16.1305 17.5914 16.0851C17.5908 16.0261 17.5901 15.9672 17.5895 15.9082C17.5889 15.8793 17.5884 15.8504 17.5878 15.8206C17.5856 15.5363 17.6525 15.2929 17.7579 15.0293C17.7713 14.994 17.7848 14.9588 17.7986 14.9224C18.0412 14.3656 18.5495 13.942 19.1037 13.7219C19.3772 13.6213 19.6125 13.5878 19.9035 13.5912C19.9339 13.5914 19.9643 13.5916 19.9956 13.5917C20.07 13.5922 20.1444 13.593 20.2189 13.5937C20.218 13.5416 20.2171 13.4895 20.2163 13.4357C20.2133 13.2418 20.2114 13.0478 20.2098 12.8537C20.209 12.7699 20.2079 12.686 20.2065 12.6022C20.2045 12.4814 20.2036 12.3607 20.2028 12.2399C20.202 12.2026 20.2011 12.1653 20.2003 12.1269C20.2002 11.897 20.2287 11.7659 20.3829 11.584C20.5684 11.4166 20.7025 11.3656 20.9549 11.3702C21.1505 11.3903 21.2767 11.4827 21.4006 11.6276C21.5064 11.7696 21.5365 11.8292 21.536 12.0013C21.536 12.0366 21.536 12.0719 21.536 12.1083C21.5358 12.1464 21.5356 12.1846 21.5354 12.2239C21.5353 12.2824 21.5353 12.2824 21.5352 12.3422C21.535 12.4671 21.5344 12.5921 21.5339 12.717C21.5337 12.8016 21.5335 12.8862 21.5334 12.9708C21.5329 13.1785 21.5321 13.3861 21.5314 13.5937C21.9645 13.5937 22.3976 13.5937 22.8439 13.5937C22.843 13.5018 22.8421 13.4099 22.8413 13.3153C22.8385 13.0113 22.8367 12.7073 22.8354 12.4032C22.8345 12.219 22.8333 12.0347 22.8315 11.8504C22.8297 11.6725 22.8287 11.4946 22.8283 11.3167C22.828 11.2489 22.8274 11.1811 22.8265 11.1133C22.8253 11.0181 22.8252 10.923 22.8252 10.8279C22.8249 10.7738 22.8245 10.7197 22.8241 10.6639C22.8535 10.4457 22.9524 10.3216 23.113 10.1766C23.326 10.0292 23.5576 10.0288 23.7949 10.1125ZM20.724 17.7392C20.5291 18.0249 20.4603 18.3067 20.4577 18.648C20.4574 18.6776 20.4571 18.7071 20.4569 18.7376C20.4561 18.8352 20.4556 18.9328 20.4552 19.0304C20.455 19.0638 20.4548 19.0973 20.4547 19.1317C20.4538 19.3086 20.4532 19.4855 20.4528 19.6624C20.4524 19.8448 20.451 20.0271 20.4493 20.2094C20.4483 20.35 20.4479 20.4905 20.4478 20.6311C20.4476 20.6983 20.4471 20.7655 20.4463 20.8327C20.4453 20.9269 20.4454 21.0211 20.4457 21.1154C20.4454 21.1689 20.4452 21.2224 20.4449 21.2775C20.4714 21.476 20.5371 21.6374 20.6953 21.7707C20.8779 21.8957 21.0698 21.9178 21.2853 21.8789C21.5028 21.7681 21.6584 21.6207 21.7364 21.3867C21.7398 21.323 21.7408 21.2591 21.7404 21.1953C21.7403 21.1622 21.7402 21.1292 21.7401 21.0952C21.7398 21.0535 21.7394 21.0118 21.739 20.9689C21.7377 20.7696 21.7377 20.7696 21.7364 20.5664C22.1831 20.5664 22.6298 20.5664 23.0899 20.5664C23.0797 20.9791 23.0797 20.9791 23.0752 21.1075C23.0721 21.3609 23.1028 21.5093 23.254 21.7148C23.4293 21.861 23.5949 21.906 23.8225 21.8948C24.0132 21.8603 24.1255 21.7491 24.2512 21.6097C24.3677 21.4415 24.3669 21.3083 24.368 21.1082C24.3682 21.08 24.3684 21.0518 24.3687 21.0228C24.3693 20.9296 24.3695 20.8364 24.3698 20.7431C24.37 20.6781 24.3702 20.613 24.3705 20.548C24.3709 20.4114 24.3711 20.2748 24.3713 20.1382C24.3715 19.9642 24.3725 19.7901 24.3737 19.616C24.3744 19.4815 24.3746 19.347 24.3747 19.2124C24.3748 19.1483 24.3752 19.0842 24.3757 19.0201C24.3801 18.4551 24.3158 17.9425 23.901 17.5203C23.4756 17.1558 23.0489 17.0938 22.5084 17.0997C22.4133 17.1006 22.3184 17.0997 22.2233 17.0987C21.611 17.0975 21.1229 17.2502 20.724 17.7392ZM25.374 17.3903C25.2455 17.5759 25.2575 17.7524 25.2572 17.9697C25.257 18.0062 25.2568 18.0426 25.2565 18.0801C25.256 18.2008 25.2557 18.3214 25.2554 18.4421C25.2552 18.5259 25.255 18.6098 25.2547 18.6936C25.2543 18.8695 25.2541 19.0453 25.2539 19.2212C25.2537 19.4465 25.2527 19.6717 25.2515 19.8969C25.2508 20.0701 25.2506 20.2433 25.2505 20.4166C25.2504 20.4996 25.2501 20.5826 25.2495 20.6656C25.2488 20.7819 25.2489 20.8981 25.2492 21.0143C25.2488 21.0485 25.2484 21.0827 25.248 21.118C25.2497 21.348 25.2866 21.5255 25.4498 21.7003C25.6724 21.8705 25.8059 21.9108 26.0841 21.8789C26.2873 21.8133 26.3999 21.7001 26.5019 21.5116C26.5626 21.359 26.5581 21.2081 26.5565 21.0458C26.5568 21.0086 26.5571 20.9714 26.5574 20.9331C26.5581 20.8108 26.5576 20.6886 26.5571 20.5664C26.5572 20.4811 26.5573 20.3957 26.5575 20.3104C26.5578 20.1318 26.5574 19.9532 26.5567 19.7746C26.5557 19.5461 26.5563 19.3176 26.5572 19.089C26.5578 18.9129 26.5576 18.7367 26.5572 18.5606C26.5571 18.4764 26.5572 18.3921 26.5576 18.3079C26.558 18.19 26.5574 18.0721 26.5565 17.9542C26.5568 17.9196 26.5572 17.8851 26.5575 17.8495C26.5542 17.6149 26.5071 17.4777 26.3712 17.2851C26.1965 17.1387 26.0299 17.094 25.8027 17.1052C25.612 17.1397 25.4997 17.2509 25.374 17.3903Z" fill="white"/>
<path d="M22.1091 18.3762C22.1581 18.3761 22.2071 18.3759 22.2576 18.3758C22.3089 18.3762 22.3601 18.3767 22.4129 18.3772C22.4641 18.3767 22.5154 18.3763 22.5681 18.3758C22.6417 18.376 22.6417 18.376 22.7167 18.3762C22.7616 18.3764 22.8066 18.3765 22.8529 18.3767C22.9666 18.3926 22.9666 18.3926 23.043 18.4437C23.1022 18.535 23.1038 18.5898 23.1017 18.6981C23.1012 18.7451 23.1012 18.7451 23.1007 18.7931C23.0996 18.8326 23.0985 18.8722 23.0973 18.913C23.0948 19.039 23.0923 19.1651 23.0897 19.2949C22.643 19.2949 22.1963 19.2949 21.7361 19.2949C21.7336 19.1689 21.7311 19.0428 21.7284 18.913C21.7273 18.8734 21.7262 18.8338 21.7251 18.7931C21.7247 18.7617 21.7244 18.7304 21.7241 18.6981C21.7235 18.6661 21.7228 18.6341 21.7222 18.6011C21.7361 18.5156 21.7361 18.5156 21.7828 18.4437C21.8927 18.3702 21.9777 18.3766 22.1091 18.3762Z" fill="white"/>
</svg>
