<svg width="10" height="10" viewBox="0 0 10 10" fill="none" xmlns="http://www.w3.org/2000/svg">
<g clip-path="url(#clip0_287_1766)">
<path d="M4.99256 -0.00609415C5.01244 -0.00605205 5.03232 -0.00600996 5.05281 -0.00596659C5.33814 -0.00499646 5.61806 -9.61386e-05 5.89832 0.0586031C5.91736 0.0624835 5.9364 0.0663639 5.95602 0.0703619C6.71886 0.229935 7.43053 0.535124 8.04676 1.01563C8.06403 1.02878 8.0813 1.04192 8.0991 1.05546C8.40353 1.29181 8.68918 1.57107 8.92567 1.87501C8.94082 1.89374 8.95598 1.91247 8.9716 1.93177C9.64604 2.77964 10.0085 3.85641 10.0061 4.93609C10.006 4.9935 10.0064 5.0509 10.0069 5.10831C10.0078 5.3695 9.98427 5.62138 9.94129 5.87892C9.93578 5.91223 9.93578 5.91223 9.93016 5.94621C9.79294 6.71011 9.46125 7.43633 8.98426 8.04688C8.96943 8.06587 8.9546 8.08485 8.93932 8.10441C8.69842 8.40479 8.42887 8.68903 8.12489 8.92579C8.10661 8.94072 8.08833 8.95565 8.0695 8.97103C7.44542 9.47078 6.68045 9.79323 5.89832 9.94142C5.88251 9.94461 5.86671 9.94781 5.85042 9.95111C5.26368 10.0658 4.58706 10.0444 4.00379 9.92188C3.97405 9.91576 3.97405 9.91576 3.9437 9.90952C3.21824 9.75537 2.5373 9.44085 1.95301 8.98438C1.93403 8.96955 1.91504 8.95473 1.89548 8.93945C1.5951 8.69854 1.31087 8.42899 1.0741 8.12501C1.05171 8.09759 1.05171 8.09759 1.02886 8.06962C0.529118 7.44554 0.206662 6.68057 0.0584784 5.89845C0.0552809 5.88264 0.0520834 5.86683 0.0487891 5.85054C-0.0580391 5.30393 -0.0556774 4.64661 0.0584784 4.10157C0.0623588 4.08253 0.0662392 4.06349 0.0702372 4.04387C0.267248 3.10206 0.697656 2.23097 1.37133 1.53964C1.40598 1.50408 1.44031 1.46822 1.47465 1.43235C1.6133 1.28905 1.75805 1.16074 1.91799 1.04172C1.95387 1.01499 1.98945 0.987903 2.02503 0.960779C2.18962 0.836443 2.35944 0.726462 2.53895 0.625009C2.55126 0.617919 2.56357 0.610828 2.57626 0.603523C3.31353 0.181454 4.14886 -0.00930681 4.99256 -0.00609415ZM1.8721 1.89274C1.7535 2.01024 1.64441 2.13294 1.54285 2.26563C1.53445 2.27655 1.52605 2.28748 1.51739 2.29873C1.38203 2.47559 1.26222 2.658 1.15223 2.85157C1.14567 2.86283 1.1391 2.87408 1.13234 2.88568C0.811172 3.43814 0.606804 4.12596 0.6007 4.7667C0.600509 4.78332 0.600319 4.79994 0.600123 4.81706C0.596722 5.19108 0.602077 5.55111 0.683478 5.91798C0.687032 5.93446 0.690585 5.95094 0.694245 5.96792C0.908661 6.93423 1.47699 7.85356 2.26551 8.45704C2.27643 8.46544 2.28735 8.47385 2.2986 8.4825C2.47547 8.61787 2.65788 8.73768 2.85145 8.84767C2.8627 8.85423 2.87396 8.86079 2.88555 8.86755C3.83485 9.41943 5.02937 9.54376 6.08558 9.277C7.00879 9.02909 7.8719 8.49878 8.45692 7.73438C8.46532 7.72346 8.47372 7.71254 8.48238 7.70129C8.61771 7.52447 8.73781 7.34213 8.84754 7.14845C8.85421 7.13688 8.86087 7.12532 8.86774 7.1134C9.08662 6.73167 9.22898 6.3118 9.32117 5.88258C9.32413 5.86884 9.32708 5.85511 9.33012 5.84095C9.38603 5.56458 9.40237 5.29451 9.40174 5.01344C9.40173 4.99542 9.40172 4.97741 9.40171 4.95885C9.3985 3.77057 8.90711 2.67974 8.07484 1.83961C7.96722 1.73301 7.85462 1.63509 7.73426 1.54298C7.72334 1.53458 7.71242 1.52617 7.70117 1.51752C7.52434 1.38218 7.342 1.26208 7.14832 1.15235C7.13676 1.14569 7.12519 1.13902 7.11328 1.13215C6.67816 0.882667 6.19586 0.728378 5.70301 0.644541C5.67839 0.640336 5.65376 0.636131 5.62839 0.6318C4.2439 0.423365 2.8656 0.926694 1.8721 1.89274Z" fill="#171717"/>
<path d="M5.85962 1.25C5.87754 1.25439 5.89546 1.25879 5.91392 1.26331C6.56321 1.42739 7.15156 1.74458 7.63696 2.20703C7.64809 2.21763 7.65923 2.22824 7.6707 2.23916C7.83832 2.39984 7.99266 2.56253 8.12524 2.75391C8.134 2.76654 8.14275 2.77918 8.15177 2.7922C8.28454 2.98613 8.39771 3.18523 8.49634 3.39844C8.50673 3.42042 8.51713 3.4424 8.52784 3.46504C8.7109 3.86946 8.82857 4.33423 8.83302 4.77905C8.83321 4.79491 8.8334 4.81076 8.8336 4.8271C8.83696 5.17756 8.8346 5.51698 8.75024 5.85938C8.74585 5.8773 8.74145 5.89522 8.73693 5.91368C8.57285 6.56297 8.25566 7.15132 7.79321 7.63672C7.78261 7.64785 7.772 7.65899 7.76108 7.67046C7.6004 7.83808 7.43771 7.99242 7.24634 8.125C7.2337 8.13376 7.22106 8.14251 7.20805 8.15153C7.01415 8.28428 6.81507 8.39768 6.6018 8.49609C6.5796 8.50649 6.55739 8.51689 6.53451 8.5276C6.1254 8.71128 5.67094 8.82828 5.22119 8.83278C5.20533 8.83297 5.18948 8.83316 5.17314 8.83336C4.82245 8.83672 4.48359 8.83371 4.14087 8.75C4.12367 8.74592 4.10648 8.74184 4.08877 8.73763C3.56949 8.61097 3.07241 8.38501 2.65649 8.04688C2.6404 8.03472 2.62432 8.02256 2.60774 8.01003C2.33148 7.796 2.0729 7.53437 1.87524 7.24609C1.8666 7.23357 1.85796 7.22105 1.84905 7.20815C1.71616 7.01413 1.60265 6.81501 1.50415 6.60156C1.49375 6.57936 1.48335 6.55715 1.47264 6.53427C1.28896 6.12516 1.17196 5.6707 1.16746 5.22095C1.16718 5.19717 1.16718 5.19717 1.16688 5.1729C1.16353 4.82244 1.16588 4.48302 1.25024 4.14063C1.25464 4.12271 1.25903 4.10479 1.26356 4.08632C1.42763 3.43704 1.74482 2.84868 2.20727 2.36328C2.21788 2.35215 2.22848 2.34101 2.2394 2.32954C2.40008 2.16192 2.56277 2.00758 2.75415 1.875C2.76678 1.86625 2.77942 1.85749 2.79244 1.84847C3.22783 1.55039 3.70503 1.3491 4.21899 1.23047C4.24096 1.22522 4.24096 1.22522 4.26338 1.21986C4.76191 1.10622 5.36608 1.1284 5.85962 1.25ZM3.43774 2.16797C3.40696 2.18447 3.40696 2.18447 3.37556 2.20131C3.12816 2.33869 2.91909 2.52089 2.71509 2.71484C2.70174 2.72693 2.6884 2.73901 2.67465 2.75147C2.24249 3.1565 1.97627 3.72958 1.83618 4.29688C1.82994 4.32132 1.82369 4.34577 1.81726 4.37096C1.6546 5.09832 1.80542 5.92049 2.16821 6.5625C2.17518 6.57505 2.18216 6.5876 2.18934 6.60053C2.28467 6.7708 2.39032 6.92355 2.51977 7.07031C2.53428 7.08696 2.54878 7.1036 2.56372 7.12074C2.60702 7.16968 2.65107 7.21777 2.69555 7.26563C2.70824 7.2796 2.72093 7.29357 2.73401 7.30797C3.2873 7.89212 4.1217 8.21932 4.91899 8.24204C5.38815 8.24696 5.86235 8.16829 6.2893 7.96875C6.30184 7.96296 6.31438 7.95718 6.3273 7.95121C6.68063 7.78674 6.98057 7.5702 7.26587 7.30469C7.27986 7.29197 7.29386 7.27926 7.30829 7.26616C7.74702 6.85065 8.02098 6.28352 8.1643 5.70313C8.17055 5.67868 8.17679 5.65423 8.18322 5.62904C8.34588 4.90168 8.19506 4.07951 7.83227 3.4375C7.82181 3.41867 7.82181 3.41867 7.81114 3.39947C7.71582 3.2292 7.61017 3.07645 7.48071 2.92969C7.46621 2.91305 7.45171 2.8964 7.43676 2.87926C7.39347 2.83032 7.34941 2.78223 7.30493 2.73438C7.29224 2.7204 7.27955 2.70643 7.26648 2.69203C6.70366 2.09783 5.88067 1.78981 5.07478 1.7598C4.50352 1.74456 3.93651 1.89075 3.43774 2.16797Z" fill="#171717"/>
<path d="M4.99639 3.11768C5.02618 3.11684 5.02618 3.11684 5.05658 3.116C5.15799 3.13105 5.21553 3.18146 5.28173 3.25737C5.29673 3.27774 5.31174 3.29811 5.3272 3.31909C5.34428 3.34198 5.36137 3.36487 5.37847 3.38776C5.38703 3.39935 5.39559 3.41094 5.40441 3.42289C5.44311 3.47506 5.48283 3.52645 5.52251 3.57788C5.5303 3.58802 5.53809 3.59815 5.54612 3.6086C5.63053 3.71836 5.71567 3.82754 5.80089 3.93667C5.87357 4.0299 5.94509 4.12392 6.01567 4.21875C6.05557 4.20906 6.09544 4.19927 6.1353 4.18945C6.14857 4.18619 6.16184 4.18292 6.1755 4.17955C6.27557 4.15458 6.37513 4.12795 6.47458 4.10065C6.50073 4.09351 6.52689 4.08638 6.55304 4.07925C6.59244 4.0685 6.63182 4.0577 6.67115 4.04671C6.70858 4.03626 6.74608 4.02603 6.78357 4.01581C6.80541 4.00976 6.82726 4.00371 6.84976 3.99748C6.97182 3.97262 7.06238 3.97407 7.16802 4.04297C7.25792 4.12488 7.2758 4.18255 7.28527 4.30194C7.28516 4.3914 7.2625 4.47126 7.23729 4.55656C7.23195 4.57561 7.22662 4.59465 7.22113 4.61428C7.20354 4.67671 7.18546 4.73898 7.16733 4.80125C7.15486 4.84487 7.14242 4.88849 7.12999 4.93212C7.10393 5.02331 7.07761 5.11443 7.05112 5.2055C7.01725 5.322 6.98403 5.43867 6.95099 5.55541C6.92543 5.64545 6.89952 5.73538 6.87351 5.82529C6.86113 5.86827 6.84885 5.91127 6.83668 5.95431C6.8196 6.01452 6.80207 6.07458 6.78441 6.13462C6.7795 6.15227 6.7746 6.16991 6.76954 6.1881C6.73625 6.29897 6.6928 6.39016 6.60161 6.46484C6.52606 6.50341 6.4633 6.50888 6.37907 6.50913C6.35386 6.5093 6.32864 6.50946 6.30266 6.50963C6.27485 6.50962 6.24705 6.5096 6.21924 6.50958C6.18985 6.5097 6.16045 6.50983 6.13106 6.50998C6.05132 6.51032 5.97158 6.51042 5.89183 6.51044C5.84197 6.51047 5.79212 6.51055 5.74226 6.51065C5.5682 6.51102 5.39415 6.51118 5.22009 6.51114C5.05804 6.51112 4.89598 6.51153 4.73393 6.51215C4.59464 6.51266 4.45536 6.51287 4.31607 6.51285C4.23295 6.51284 4.14983 6.51295 4.06671 6.51336C3.98849 6.51374 3.91028 6.51374 3.83206 6.51346C3.80344 6.51342 3.77481 6.51351 3.74618 6.51375C3.44454 6.51608 3.44454 6.51608 3.33989 6.42578C3.26896 6.32875 3.23839 6.22577 3.2069 6.11076C3.202 6.09344 3.1971 6.07611 3.19205 6.05826C3.176 6.00137 3.16021 5.94441 3.14443 5.88745C3.13326 5.84768 3.12208 5.80792 3.11089 5.76816C3.08152 5.66371 3.05238 5.5592 3.02328 5.45468C2.99368 5.3485 2.96387 5.24239 2.93409 5.13626C2.88597 4.96478 2.83798 4.79327 2.79017 4.62171C2.78596 4.6066 2.78175 4.59149 2.77741 4.57592C2.77345 4.56173 2.7695 4.54754 2.76543 4.53291C2.75441 4.49382 2.74299 4.45486 2.73154 4.41589C2.70677 4.32599 2.70969 4.24988 2.73442 4.16016C2.77674 4.08731 2.82689 4.03802 2.89922 3.99536C3.03633 3.96526 3.15414 3.99834 3.28527 4.03633C3.30401 4.04158 3.32275 4.04683 3.34206 4.05224C3.40161 4.06892 3.46109 4.08582 3.52056 4.10278C3.59914 4.12517 3.67778 4.14735 3.75646 4.16939C3.77452 4.17462 3.79259 4.17984 3.8112 4.18523C3.82796 4.18992 3.84472 4.19462 3.86199 4.19945C3.87672 4.20366 3.89144 4.20787 3.90661 4.2122C3.9493 4.22254 3.9493 4.22254 4.00396 4.19922C4.03087 4.1718 4.03087 4.1718 4.05561 4.13704C4.06547 4.12393 4.07533 4.11082 4.08549 4.09731C4.09605 4.083 4.1066 4.0687 4.11748 4.05396C4.1403 4.02355 4.16314 3.99316 4.18599 3.96278C4.20371 3.93913 4.20371 3.93913 4.22179 3.915C4.27975 3.83817 4.33899 3.76235 4.39824 3.68652C4.46204 3.60479 4.52583 3.52307 4.58852 3.44048C4.60165 3.42321 4.60165 3.42321 4.61506 3.40559C4.63808 3.37525 4.66103 3.34485 4.68396 3.31444C4.77561 3.20114 4.8457 3.11957 4.99639 3.11768ZM4.98052 3.92578C4.94957 3.96214 4.92098 3.99855 4.89263 4.03687C4.87483 4.06047 4.85703 4.08407 4.83922 4.10767C4.83017 4.11975 4.82112 4.13184 4.81179 4.14429C4.76471 4.20698 4.71678 4.26903 4.66884 4.33106C4.61914 4.39542 4.56988 4.46007 4.52092 4.52499C4.49672 4.55679 4.47251 4.58858 4.44829 4.62036C4.43699 4.63548 4.42569 4.65061 4.41405 4.66619C4.27257 4.85093 4.27257 4.85093 4.15778 4.87027C4.01252 4.8772 3.87827 4.8344 3.74028 4.7937C3.69495 4.78053 3.64958 4.76748 3.60417 4.75456C3.58435 4.74873 3.56452 4.7429 3.54409 4.7369C3.49634 4.72137 3.49634 4.72137 3.45708 4.74609C3.49747 4.88769 3.53788 5.02929 3.5783 5.17088C3.59707 5.23663 3.61584 5.30237 3.63459 5.36812C3.65615 5.44371 3.67773 5.51929 3.69931 5.59486C3.70605 5.61849 3.71278 5.64211 3.71972 5.66645C3.7291 5.69929 3.7291 5.69929 3.73868 5.73279C3.74418 5.75209 3.74969 5.77139 3.75537 5.79127C3.76589 5.82722 3.77727 5.86291 3.78911 5.89844C4.58833 5.89844 5.38755 5.89844 6.21099 5.89844C6.38354 5.31425 6.38354 5.31425 6.54302 4.72656C6.49214 4.73831 6.44128 4.75012 6.39043 4.76196C6.37525 4.76548 6.36006 4.769 6.34442 4.77263C6.2604 4.79231 6.17768 4.81397 6.09502 4.83887C5.97342 4.87232 5.85749 4.89421 5.74338 4.83192C5.67512 4.77849 5.62625 4.72173 5.57378 4.65332C5.56376 4.64053 5.55374 4.62775 5.54342 4.61457C5.42191 4.45869 5.3043 4.29979 5.18628 4.14125C5.15932 4.10514 5.1322 4.06916 5.10503 4.0332C5.09694 4.0223 5.08886 4.01139 5.08053 4.00016C5.06114 3.97463 5.04047 3.95009 5.01958 3.92578C5.00669 3.92578 4.9938 3.92578 4.98052 3.92578Z" fill="#171717"/>
</g>
<defs>
<clipPath id="clip0_287_1766">
<rect width="10" height="10" fill="white"/>
</clipPath>
</defs>
</svg>
