<svg width="68" height="20" viewBox="0 0 68 20" fill="none" xmlns="http://www.w3.org/2000/svg">
<rect width="68" height="20" rx="4" fill="white"/>
<g clip-path="url(#clip0_289_25)">
<path d="M15.9392 6H14.6044V12.7689H15.9392V6Z" fill="black"/>
<path d="M13.0711 6.37876H11.7363V13.1475H13.0711V6.37876Z" fill="black"/>
<path d="M10.203 6.80162H8.86814V13.5716H10.203V6.80162Z" fill="black"/>
<path d="M7.33482 7.22917H6L6.00001 14H7.33482L7.33482 7.22917Z" fill="black"/>
<path d="M51.194 9.60629L49.0447 7.21668H47.7882V12.7494H49.1001V9.21944L51.0623 11.3108H51.3047L53.2332 9.21944V12.7494H54.5451V7.21668H53.2886L51.194 9.60629Z" fill="black"/>
<path d="M60.795 7.21668L57.5435 10.8128V7.21668H56.2316V12.7494H57.4335L60.685 9.15335V12.7494H61.9969V7.21668H60.795Z" fill="black"/>
<path d="M40.7222 9.2412C40.7222 10.1221 41.2039 10.816 41.9433 11.1069L40.5568 12.7494H42.1625L43.4238 11.2552H44.7886V12.7494H46.1005V7.21668H42.7606C41.5154 7.21668 40.7222 8.06856 40.7222 9.2412ZM44.7895 8.43526V10.0713H43.0039C42.4082 10.0713 42.0886 9.73927 42.0886 9.25248C42.0886 8.76569 42.4194 8.43365 43.0039 8.43365L44.7895 8.43526Z" fill="black"/>
<path d="M34.626 8.32323C34.5457 10.2261 34.1443 11.4543 33.3583 11.4543H33.1616V12.7825L33.3712 12.7938C34.9472 12.8816 35.8183 11.4986 35.9612 8.47797H38.0341V12.7494H39.3436V7.21668H34.6702L34.626 8.32323Z" fill="black"/>
<path d="M29.6877 7.13938C27.9134 7.13938 26.6369 8.36763 26.6369 9.98273C26.6369 11.6534 28.0258 12.8382 29.6877 12.8382C31.4187 12.8382 32.7635 11.5874 32.7635 9.98273C32.7635 8.37811 31.4187 7.13938 29.6877 7.13938ZM29.6877 11.51C28.685 11.51 28.0017 10.8572 28.0017 9.98273C28.0017 9.08653 28.6858 8.45145 29.6877 8.45145C30.6897 8.45145 31.3962 9.11554 31.3962 9.98273C31.3962 10.8499 30.6801 11.51 29.6877 11.51Z" fill="black"/>
<path d="M25.2456 7.22712H20.6155L20.5713 8.33367C20.5055 9.92782 20.0896 11.4438 19.3036 11.4655L18.9399 11.4768V14L20.263 13.9973V12.7502H24.8594V13.9973H26.1937V11.4655H25.2456V7.22712ZM23.9337 11.4655H21.1341C21.6078 10.7467 21.8615 9.70618 21.9057 8.48922H23.9337V11.4655Z" fill="black"/>
</g>
<defs>
<clipPath id="clip0_289_25">
<rect width="56" height="8" fill="white" transform="translate(6 6)"/>
</clipPath>
</defs>
</svg>
