<svg width="14" height="14" viewBox="0 0 14 14" fill="none" xmlns="http://www.w3.org/2000/svg">
<g clip-path="url(#clip0_287_1799)">
<path d="M8.25767 0.082036C8.28432 0.0874686 8.31098 0.0929012 8.33844 0.0984984C9.65217 0.373307 10.8606 0.963839 11.826 1.90305C11.8825 1.95582 11.9434 2.0026 12.0038 2.05079C12.0338 2.08236 12.0629 2.11484 12.0909 2.1482C12.1446 2.21136 12.1986 2.27318 12.2557 2.3333C13.2219 3.35276 13.7953 4.74432 13.9725 6.125C13.9749 6.14325 13.9773 6.16149 13.9797 6.18029C13.9988 6.3366 14.0046 6.49079 14.0054 6.64817C14.0056 6.67404 14.0058 6.69992 14.006 6.72658C14.0122 7.8071 14.0122 7.8071 13.9178 8.25782C13.9097 8.2978 13.9097 8.2978 13.9014 8.33859C13.632 9.62645 13.0581 10.8051 12.1544 11.7655C12.1059 11.8181 12.06 11.8705 12.0149 11.9257C11.9621 11.9885 11.9124 12.0405 11.85 12.0928C11.7874 12.1459 11.7262 12.1992 11.6667 12.2558C10.6472 13.2221 9.25558 13.7954 7.87486 13.9727C7.85662 13.975 7.83839 13.9774 7.8196 13.9799C7.66297 13.999 7.50843 14.0048 7.35073 14.0056C7.32459 14.0057 7.29844 14.0059 7.27151 14.006C7.21629 14.0063 7.16107 14.0065 7.10585 14.0066C7.02353 14.0068 6.94123 14.0077 6.85892 14.0085C6.48933 14.0106 6.13377 13.9792 5.76939 13.918C5.73831 13.9128 5.70724 13.9077 5.67523 13.9024C5.60423 13.8896 5.5339 13.8755 5.46348 13.8599C5.4255 13.8515 5.4255 13.8515 5.38675 13.8429C4.20552 13.5682 3.11651 12.9846 2.23435 12.1545C2.1818 12.106 2.12947 12.0603 2.07424 12.0151C2.01093 11.9618 1.95827 11.9114 1.90537 11.8484C1.83545 11.7661 1.76362 11.6865 1.69004 11.6074C0.885972 10.712 0.365951 9.587 0.116066 8.41675C0.110629 8.39146 0.105192 8.36618 0.0995902 8.34012C0.00957802 7.89697 -0.0104072 7.46128 -0.00868996 7.01026C-0.00863103 6.98242 -0.0085721 6.95457 -0.00851139 6.92589C-0.00715253 6.52607 0.0012054 6.13509 0.0818862 5.74219C0.0873188 5.71451 0.0927513 5.68682 0.0983485 5.65829C0.360202 4.34883 0.969808 3.13296 1.9029 2.17384C1.95567 2.11741 2.00245 2.05646 2.05064 1.9961C2.08221 1.96607 2.11469 1.93697 2.14805 1.90894C2.23704 1.8332 2.32262 1.7548 2.40781 1.67481C3.32213 0.842582 4.53688 0.307158 5.74204 0.082036C5.76405 0.0775992 5.78607 0.0731624 5.80875 0.0685911C6.57413 -0.0810573 7.49447 -0.0778135 8.25767 0.082036ZM2.70689 2.78907C2.69106 2.80478 2.67523 2.8205 2.65893 2.83669C2.31073 3.18661 2.02098 3.59085 1.7772 4.01954C1.7613 4.04746 1.7613 4.04746 1.74509 4.07595C0.969862 5.45248 0.779332 7.09185 1.20298 8.61329C1.42974 9.40756 1.79754 10.1357 2.32407 10.7734C2.34331 10.7968 2.34331 10.7968 2.36294 10.8207C2.63281 11.147 2.91959 11.4413 3.25376 11.7031C3.28133 11.7254 3.30889 11.7476 3.33729 11.7705C3.55295 11.9429 3.77875 12.0878 4.01939 12.2227C4.03905 12.2338 4.05872 12.2449 4.07899 12.2564C5.41413 13.0069 7.04794 13.2325 8.53111 12.8242C9.59214 12.5188 10.4645 11.992 11.2655 11.2383C11.2835 11.2214 11.3015 11.2046 11.3201 11.1872C11.4608 11.0513 11.582 10.8996 11.703 10.7461C11.7331 10.708 11.7331 10.708 11.7638 10.6692C12.7327 9.41144 13.1635 7.82722 12.972 6.25291C12.7607 4.6693 11.9463 3.22487 10.6844 2.24048C9.72054 1.50947 8.52002 1.0179 7.30064 0.98438C7.28033 0.983675 7.26002 0.98297 7.2391 0.982244C5.52911 0.928879 3.91489 1.58642 2.70689 2.78907Z" fill="#9D9D9D"/>
<path d="M7.54935 5.94342C7.64923 6.02267 7.69693 6.08507 7.7383 6.20703C7.74534 6.28012 7.74534 6.28012 7.74562 6.36025C7.74585 6.39076 7.74608 6.42127 7.74632 6.45271C7.7463 6.48592 7.74627 6.51914 7.74625 6.55336C7.74643 6.58854 7.74662 6.62372 7.7468 6.65997C7.74729 6.7563 7.74742 6.85263 7.74745 6.94895C7.74749 7.00919 7.74761 7.06943 7.74775 7.12967C7.74826 7.33998 7.74848 7.55029 7.74844 7.76061C7.7484 7.9564 7.74898 8.15217 7.74985 8.34796C7.75056 8.51628 7.75085 8.68459 7.75082 8.85291C7.7508 8.95334 7.75096 9.05376 7.75154 9.15419C7.75217 9.26625 7.75192 9.37829 7.75159 9.49035C7.7519 9.52346 7.7522 9.55656 7.75252 9.59067C7.75116 9.77234 7.73871 9.888 7.62893 10.0352C7.57712 10.0818 7.57712 10.0818 7.52468 10.1121C7.50759 10.1224 7.49049 10.1327 7.47288 10.1434C7.18421 10.2747 6.84517 10.266 6.5496 10.1625C6.41705 10.0756 6.30685 9.97821 6.27131 9.81862C6.26458 9.7219 6.26385 9.62678 6.26519 9.52982C6.26502 9.49288 6.26476 9.45594 6.26444 9.41899C6.2638 9.31921 6.26436 9.21947 6.26517 9.1197C6.26587 9.01504 6.26557 8.91038 6.26542 8.80572C6.26533 8.63006 6.266 8.45442 6.26713 8.27876C6.26844 8.0759 6.26858 7.87307 6.26809 7.67021C6.26764 7.47468 6.26797 7.27917 6.26866 7.08364C6.26894 7.00059 6.26897 6.91754 6.26878 6.83449C6.2686 6.73667 6.2691 6.63887 6.27012 6.54106C6.27051 6.48819 6.27024 6.43532 6.26995 6.38245C6.27375 6.1233 6.27375 6.1233 6.35465 6.02281C6.41982 5.96614 6.47074 5.92922 6.55056 5.89771C6.5709 5.88935 6.59124 5.881 6.61219 5.87239C6.89473 5.77383 7.29332 5.77688 7.54935 5.94342Z" fill="#9D9D9D"/>
<path d="M7.4646 3.77343C7.63707 3.90669 7.74313 4.04816 7.77286 4.26562C7.78215 4.44868 7.72382 4.60459 7.61328 4.74926C7.47727 4.89822 7.27597 4.98873 7.07655 5.01042C6.83765 5.0179 6.62931 4.95766 6.44092 4.80737C6.29921 4.67061 6.23076 4.51844 6.21875 4.32202C6.22739 4.14271 6.29452 3.98746 6.42094 3.85942C6.47518 3.81609 6.52929 3.78038 6.5896 3.74609C6.60585 3.73682 6.6221 3.72755 6.63884 3.718C6.8926 3.60008 7.22905 3.6281 7.4646 3.77343Z" fill="#9D9D9D"/>
</g>
<defs>
<clipPath id="clip0_287_1799">
<rect width="14" height="14" fill="white"/>
</clipPath>
</defs>
</svg>
