<svg width="22" height="22" viewBox="0 0 22 22" fill="none" xmlns="http://www.w3.org/2000/svg">
<rect width="22" height="22" rx="4" fill="#F4F4F4"/>
<path d="M6.48231 7.24116L6.4823 7.24114L6.47992 7.24361C5.97959 7.76371 5.65918 8.47312 5.65918 9.28235C5.65918 10.0795 5.98037 10.7874 6.47757 11.3186L6.47755 11.3186L6.47992 11.3211L10.8199 15.8325L11.0001 16.0198L11.1803 15.8325L15.5203 11.3211C16.0206 10.801 16.341 10.0916 16.341 9.28235C16.341 8.48518 16.0198 7.77728 15.5226 7.24609L15.5226 7.24608L15.5203 7.24361C15.0199 6.7235 14.3331 6.38637 13.5455 6.38637C12.7696 6.38637 12.0842 6.72432 11.5732 7.24116L11.5732 7.24114L11.5708 7.24361C11.335 7.4888 11.1391 7.77606 10.9979 8.09603C10.8573 7.78017 10.6637 7.4939 10.4317 7.24609L10.4317 7.24608L10.4293 7.24361C9.929 6.7235 9.24219 6.38637 8.45463 6.38637C7.67868 6.38637 6.99333 6.72432 6.48231 7.24116Z" fill="#EF0000" stroke="#EF0000" stroke-width="0.5"/>
</svg>
