<svg width="7" height="11" viewBox="0 0 7 11" fill="none" xmlns="http://www.w3.org/2000/svg">
<path d="M2.38907 0.00803514C2.4147 0.00788166 2.44034 0.00772819 2.46676 0.00757006C2.49523 0.00750914 2.52369 0.00745098 2.55216 0.00739529C2.5821 0.0072609 2.61204 0.00711833 2.64198 0.00696818C2.74034 0.0065171 2.8387 0.00629466 2.93706 0.0060809C2.97093 0.00599408 3.0048 0.00590577 3.03867 0.005816C3.19777 0.00540743 3.35688 0.00510215 3.51598 0.00492346C3.69962 0.0047138 3.88326 0.0041491 4.0669 0.00328258C4.20886 0.00263571 4.35082 0.00231806 4.49278 0.00224701C4.57756 0.00219659 4.66234 0.00200436 4.74712 0.00146495C4.82689 0.000965589 4.90666 0.000874791 4.98643 0.00109519C5.01567 0.00110582 5.04491 0.000970187 5.07415 0.000675731C5.34794 -0.00192672 5.34794 -0.00192672 5.44779 0.0969885C5.47849 0.136117 5.47849 0.136117 5.49782 0.176082C5.50456 0.188995 5.51131 0.201907 5.51826 0.21521C5.56074 0.410241 5.46406 0.586775 5.38878 0.759232C5.37595 0.789147 5.36316 0.819075 5.35039 0.849014C5.32262 0.914041 5.29472 0.979003 5.26673 1.04393C5.19586 1.20853 5.12639 1.37379 5.0567 1.53895C5.03204 1.59735 5.00734 1.65574 4.98263 1.71412C4.85069 2.02581 4.71946 2.33782 4.58855 2.64998C4.57771 2.67583 4.57771 2.67583 4.56665 2.7022C4.55361 2.73328 4.54058 2.76436 4.52755 2.79545C4.45185 2.97589 4.37501 3.15581 4.29838 3.33581C4.31081 3.33574 4.32325 3.33566 4.33606 3.33557C4.63913 3.33368 4.94219 3.33226 5.24525 3.33137C5.39182 3.33093 5.53838 3.33033 5.68494 3.32934C5.81273 3.32849 5.94052 3.32793 6.06831 3.32774C6.13593 3.32763 6.20355 3.32732 6.27117 3.32674C6.34679 3.32612 6.42239 3.32603 6.49802 3.32607C6.52026 3.32577 6.54251 3.32546 6.56544 3.32514C6.69608 3.32588 6.79654 3.34189 6.90507 3.42161C6.97511 3.49664 6.9936 3.55951 7 3.66157C6.99067 3.88784 6.83563 4.06951 6.71834 4.25067C6.6491 4.35824 6.58277 4.46769 6.51638 4.57719C6.43183 4.71654 6.34708 4.85572 6.2611 4.9941C6.112 5.23419 5.96475 5.47552 5.81724 5.71667C5.49476 6.24385 5.49476 6.24385 5.3497 6.47749C5.26555 6.61319 5.1822 6.74941 5.09886 6.88565C5.00686 7.03604 4.91473 7.18634 4.82177 7.33609C4.67357 7.57486 4.52716 7.81484 4.38048 8.05463C4.058 8.58181 4.058 8.58181 3.91294 8.81545C3.82879 8.95115 3.74544 9.08737 3.6621 9.22361C3.56139 9.38824 3.46039 9.55265 3.35861 9.71656C3.29033 9.82664 3.22265 9.93711 3.15509 10.0477C3.09897 10.1395 3.04271 10.2312 2.98644 10.3229C2.95776 10.3697 2.92915 10.4165 2.90059 10.4634C2.85911 10.5315 2.81741 10.5995 2.77567 10.6674C2.76312 10.6881 2.75057 10.7089 2.73764 10.7302C2.66887 10.8416 2.60851 10.9324 2.49216 10.9932C2.38315 11.0045 2.29363 11.0074 2.19455 10.9556C2.10651 10.8728 2.06507 10.8113 2.0559 10.6853C2.05779 10.553 2.09343 10.4272 2.1244 10.2997C2.13123 10.271 2.13805 10.2423 2.14484 10.2136C2.16335 10.1356 2.18209 10.0577 2.20088 9.97977C2.22083 9.89686 2.24055 9.8139 2.2603 9.73094C2.29804 9.57259 2.33598 9.41428 2.37398 9.256C2.41607 9.08068 2.45794 8.90531 2.49979 8.72993C2.57268 8.42451 2.64577 8.11915 2.719 7.81381C2.77187 7.59329 2.82459 7.37272 2.87712 7.1521C2.90063 7.05335 2.92418 6.9546 2.94772 6.85584C2.96024 6.80329 2.97274 6.75074 2.98522 6.69818C3.00216 6.6269 3.01915 6.55563 3.03615 6.48436C3.0411 6.46346 3.04605 6.44255 3.05114 6.42101C3.05566 6.40213 3.06018 6.38324 3.06483 6.36378C3.06872 6.34743 3.07261 6.33107 3.07662 6.31421C3.08739 6.27435 3.08739 6.27435 3.10792 6.23145C3.09337 6.23153 3.07881 6.23161 3.06382 6.23169C2.70937 6.23359 2.35492 6.23501 2.00047 6.2359C1.82906 6.23634 1.65765 6.23694 1.48624 6.23793C1.3368 6.23878 1.18736 6.23933 1.03792 6.23953C0.958826 6.23964 0.879738 6.2399 0.800645 6.24052C0.726113 6.24111 0.65159 6.24129 0.577056 6.24116C0.536838 6.24119 0.496621 6.24165 0.456406 6.24213C0.284732 6.24129 0.165379 6.22368 0.0394068 6.09203C-0.0444105 5.88765 0.0205092 5.70149 0.0946217 5.50605C0.109844 5.4668 0.125197 5.42761 0.140664 5.38847C0.165835 5.32476 0.190497 5.26087 0.215038 5.19689C0.241462 5.12802 0.267916 5.05916 0.294517 4.99036C0.390354 4.74236 0.482303 4.49282 0.574067 4.24314C0.621914 4.113 0.669934 3.98293 0.71794 3.85286C0.727374 3.82728 0.736809 3.80171 0.746529 3.77536C0.838892 3.52504 0.931716 3.2749 1.02461 3.0248C1.15566 2.67197 1.28629 2.31898 1.41663 1.96587C1.44514 1.88864 1.47367 1.81143 1.50222 1.73422C1.587 1.50483 1.6717 1.2754 1.75584 1.04575C1.79171 0.947911 1.82769 0.850122 1.86369 0.752341C1.88056 0.706444 1.89737 0.660527 1.91412 0.614586C1.93717 0.551394 1.96041 0.488279 1.98368 0.425178C1.99036 0.406737 1.99703 0.388296 2.0039 0.369297C2.05041 0.244048 2.10322 0.12034 2.20481 0.032641C2.27113 0.00953899 2.3193 0.00832146 2.38907 0.00803514Z" fill="#171717"/>
</svg>
