<svg width="11" height="11" viewBox="0 0 11 11" fill="none" xmlns="http://www.w3.org/2000/svg">
<g clip-path="url(#clip0_287_1741)">
<path d="M1.4134 -0.00559529C1.44059 -0.00567748 1.46779 -0.00575966 1.49581 -0.00584434C1.57085 -0.00606436 1.64589 -0.00601855 1.72094 -0.0059264C1.80205 -0.00587324 1.88315 -0.00606725 1.96426 -0.00622799C2.12298 -0.00650147 2.28171 -0.00654043 2.44043 -0.00649009C2.56949 -0.00645174 2.69855 -0.00648947 2.82761 -0.00658085C2.846 -0.00659364 2.86439 -0.00660643 2.88333 -0.0066196C2.9207 -0.00664564 2.95806 -0.00667172 2.99542 -0.00669786C3.34557 -0.00693136 3.69571 -0.00688512 4.04586 -0.00675404C4.36592 -0.00664299 4.68598 -0.0068848 5.00604 -0.00729326C5.33498 -0.00770983 5.66393 -0.00788693 5.99287 -0.00780624C6.17743 -0.00776519 6.36198 -0.00781826 6.54654 -0.00812237C6.70365 -0.00837865 6.86076 -0.00840815 7.01787 -0.00814836C7.09796 -0.00802207 7.17805 -0.00799759 7.25815 -0.00825584C7.34513 -0.00853302 7.4321 -0.00830674 7.51908 -0.00803431C7.54418 -0.00819274 7.56927 -0.00835117 7.59513 -0.0085144C7.96774 -0.00606479 8.3201 0.14609 8.58205 0.411314C8.81491 0.671589 8.94497 0.986824 8.94332 1.33488C8.9434 1.35366 8.94348 1.37243 8.94357 1.39177C8.94379 1.45416 8.9437 1.51654 8.94362 1.57893C8.94371 1.62387 8.94382 1.66881 8.94395 1.71375C8.94424 1.83547 8.94425 1.95718 8.9442 2.0789C8.94417 2.18066 8.94428 2.28242 8.94438 2.38418C8.94462 2.62432 8.94463 2.86447 8.9445 3.10461C8.94437 3.35202 8.94464 3.59943 8.94509 3.84684C8.94547 4.05957 8.9456 4.27231 8.94553 4.48504C8.94549 4.61196 8.94555 4.73887 8.94585 4.86579C8.94612 4.98518 8.94607 5.10456 8.9458 5.22394C8.94574 5.26763 8.9458 5.31133 8.94598 5.35502C8.94761 5.78655 8.86382 6.16741 8.557 6.48913C8.31256 6.73055 7.98149 6.88003 7.63782 6.87981C7.61813 6.87958 7.59843 6.87935 7.57813 6.87911C7.5567 6.87904 7.53527 6.87896 7.51319 6.87889C7.4418 6.8786 7.37041 6.87801 7.29902 6.87742C7.24766 6.87717 7.19629 6.87693 7.14493 6.87672C7.0345 6.87624 6.92407 6.87565 6.81364 6.87499C6.63882 6.87398 6.464 6.87359 6.28917 6.87334C6.25933 6.87329 6.22948 6.87324 6.19964 6.87319C6.13923 6.8731 6.07882 6.87301 6.01841 6.87292C5.86336 6.87269 5.70832 6.87242 5.55328 6.87208C5.53773 6.87205 5.52218 6.87202 5.50617 6.87198C5.25444 6.87142 5.00273 6.86999 4.75101 6.86828C4.49198 6.86655 4.23297 6.86589 3.97393 6.86618C3.82872 6.86631 3.68355 6.86594 3.53835 6.86429C3.40166 6.86279 3.26504 6.8626 3.12835 6.8634C3.07839 6.86346 3.02842 6.86305 2.97847 6.86211C2.73049 6.85772 2.53949 6.85797 2.3495 7.03199C2.3135 7.06785 2.27881 7.10441 2.24475 7.14211C2.19783 7.19205 2.14611 7.23284 2.09226 7.27515C2.00627 7.34481 1.92144 7.41564 1.83713 7.48731C1.73294 7.57585 1.62763 7.66284 1.52158 7.74915C1.45432 7.80445 1.38786 7.86062 1.32151 7.917C1.21739 8.00547 1.1122 8.09246 1.00612 8.17859C0.949917 8.22491 0.894611 8.27209 0.839447 8.31964C0.782234 8.36869 0.724293 8.4168 0.666235 8.46485C0.649203 8.47925 0.63217 8.49365 0.614622 8.50849C0.50598 8.59179 0.413846 8.61351 0.276914 8.60651C0.178625 8.58624 0.109666 8.53917 0.043188 8.46485C-0.000653155 8.39382 -0.00517743 8.33874 -0.00524807 8.25592C-0.00537337 8.23068 -0.00549859 8.20543 -0.00562769 8.17942C-0.0055465 8.15166 -0.00546532 8.1239 -0.00538166 8.0953C-0.00544654 8.06553 -0.00553001 8.03576 -0.00563064 8.00599C-0.00585216 7.92409 -0.00580452 7.84219 -0.00571276 7.76029C-0.00565987 7.67199 -0.00585329 7.58369 -0.00601436 7.49539C-0.00628864 7.32233 -0.0063267 7.14928 -0.00627646 6.97622C-0.00623818 6.83551 -0.00627573 6.69481 -0.00636727 6.5541C-0.00638645 6.52408 -0.00638638 6.52408 -0.00640595 6.49345C-0.00643198 6.4528 -0.00645816 6.41214 -0.0064843 6.37148C-0.00671813 5.98991 -0.00667129 5.60834 -0.00654036 5.22677C-0.0064294 4.87787 -0.00667089 4.52898 -0.00707963 4.18009C-0.00749613 3.82182 -0.00767337 3.46355 -0.00759268 3.10528C-0.00755161 2.90415 -0.00760482 2.70303 -0.0079087 2.5019C-0.0081649 2.33059 -0.00819465 2.15929 -0.00793476 1.98798C-0.00780839 1.90062 -0.00778411 1.81327 -0.00804213 1.72591C-0.00827592 1.64582 -0.00820828 1.56573 -0.00790772 1.48564C-0.00782426 1.44319 -0.00805553 1.40073 -0.00830078 1.35828C-0.00609958 0.993782 0.12829 0.650797 0.380937 0.385885C0.669012 0.101367 1.01916 -0.00686605 1.4134 -0.00559529ZM0.859594 0.923834C0.696868 1.14155 0.684433 1.363 0.685136 1.62555C0.685117 1.65068 0.685099 1.67581 0.68508 1.7017C0.685051 1.77118 0.685118 1.84065 0.685226 1.91012C0.685319 1.98515 0.685287 2.06017 0.685271 2.1352C0.685259 2.26509 0.685327 2.39498 0.685448 2.52487C0.685622 2.71267 0.685678 2.90047 0.685705 3.08827C0.685752 3.39298 0.685895 3.69769 0.686098 4.0024C0.686296 4.29835 0.686448 4.59431 0.686539 4.89027C0.686545 4.90852 0.68655 4.92677 0.686556 4.94557C0.686584 5.03713 0.686611 5.12868 0.686638 5.22024C0.686861 5.97951 0.687239 6.73878 0.687719 7.49805C0.714743 7.47799 0.741738 7.45789 0.768721 7.43778C0.791275 7.421 0.791275 7.421 0.814284 7.40388C0.884431 7.35011 0.950472 7.292 1.0167 7.23353C1.12923 7.13506 1.24307 7.0388 1.35927 6.94466C1.42614 6.88999 1.49203 6.83426 1.55784 6.77833C1.73471 6.62822 1.91419 6.48162 2.09629 6.3379C2.10936 6.32755 2.12243 6.31721 2.1359 6.30655C2.26345 6.20635 2.26345 6.20635 2.36479 6.20613C2.38315 6.20604 2.40152 6.20595 2.42044 6.20585C2.45088 6.20587 2.45088 6.20587 2.48193 6.20588C2.5034 6.2058 2.52486 6.20573 2.54698 6.20565C2.61939 6.20542 2.69179 6.20534 2.76419 6.20526C2.81592 6.20513 2.86765 6.20498 2.91938 6.20482C3.03103 6.20451 3.14268 6.20426 3.25433 6.20405C3.41599 6.20375 3.57766 6.2033 3.73932 6.2028C4.0019 6.20198 4.26448 6.20123 4.52706 6.20055C4.54279 6.20051 4.55852 6.20047 4.57472 6.20043C4.79758 6.19985 5.02045 6.19934 5.24331 6.19885C5.25899 6.19882 5.27466 6.19878 5.29081 6.19875C5.30646 6.19871 5.32212 6.19868 5.33825 6.19864C5.59962 6.19807 5.861 6.19733 6.12237 6.19646C6.28352 6.19592 6.44467 6.19553 6.60583 6.19531C6.7295 6.19513 6.85318 6.19474 6.97686 6.19426C7.02749 6.1941 7.07812 6.19401 7.12875 6.194C7.19801 6.19398 7.26727 6.19369 7.33653 6.19334C7.35644 6.1934 7.37635 6.19346 7.39686 6.19351C7.65878 6.19147 7.88653 6.13873 8.07834 5.95118C8.22162 5.75948 8.2536 5.56286 8.25309 5.32677C8.25314 5.30994 8.25319 5.29312 8.25324 5.27579C8.25337 5.21975 8.25336 5.16372 8.25334 5.10768C8.2534 5.06737 8.25348 5.02705 8.25356 4.98674C8.25375 4.87745 8.2538 4.76816 8.25381 4.65887C8.25383 4.59053 8.25387 4.52219 8.25393 4.45385C8.25413 4.21526 8.25422 3.97667 8.2542 3.73807C8.25419 3.51595 8.25441 3.29383 8.25475 3.0717C8.25503 2.88076 8.25515 2.68981 8.25514 2.49886C8.25513 2.38493 8.25519 2.27099 8.25542 2.15706C8.25563 2.04986 8.25563 1.94266 8.25547 1.83546C8.25545 1.79623 8.2555 1.757 8.25563 1.71777C8.25663 1.39502 8.25227 1.10318 8.01389 0.859381C7.79591 0.69646 7.57402 0.684261 7.31118 0.684633C7.27331 0.68456 7.27331 0.68456 7.23468 0.684485C7.16489 0.684373 7.0951 0.684357 7.0253 0.684382C6.94992 0.684387 6.87454 0.684268 6.79916 0.684166C6.65158 0.683988 6.504 0.683929 6.35642 0.683917C6.23643 0.683906 6.11643 0.683862 5.99644 0.683794C5.65602 0.683605 5.31559 0.683506 4.97517 0.683522C4.95683 0.683523 4.93849 0.683524 4.91959 0.683524C4.90123 0.683525 4.88286 0.683526 4.86394 0.683527C4.56637 0.683536 4.2688 0.68333 3.97123 0.683027C3.66547 0.682719 3.35972 0.68257 3.05396 0.682589C2.88238 0.682596 2.71081 0.682537 2.53924 0.682306C2.39316 0.68211 2.24708 0.682064 2.10099 0.682209C2.02652 0.682279 1.95204 0.682281 1.87757 0.682094C1.79669 0.681928 1.71582 0.682028 1.63494 0.682194C1.6116 0.682083 1.58825 0.681973 1.5642 0.681859C1.293 0.683083 1.05912 0.728746 0.859594 0.923834Z" fill="#979797"/>
<path d="M9.67218 2.7406C9.68839 2.74095 9.70461 2.7413 9.72131 2.74165C10.068 2.75381 10.4015 2.91529 10.6445 3.16131C10.9076 3.45542 11.0069 3.78578 11.0059 4.17288C11.006 4.20111 11.0061 4.22935 11.0062 4.25844C11.0065 4.33639 11.0065 4.41433 11.0064 4.49228C11.0064 4.5765 11.0067 4.66073 11.0069 4.74495C11.0072 4.90976 11.0073 5.07456 11.0074 5.23937C11.0074 5.3733 11.0075 5.50724 11.0076 5.64117C11.008 6.02101 11.0082 6.40085 11.0082 6.78069C11.0081 6.80114 11.0081 6.8216 11.0081 6.84268C11.0081 6.86316 11.0081 6.88364 11.0081 6.90474C11.0081 7.23703 11.0085 7.56932 11.0091 7.90161C11.0098 8.24291 11.0101 8.58421 11.01 8.92551C11.01 9.11709 11.0101 9.30866 11.0106 9.50024C11.011 9.66325 11.0111 9.82626 11.0108 9.98927C11.0106 10.0724 11.0106 10.1556 11.011 10.2388C11.0114 10.3289 11.0111 10.419 11.0108 10.5091C11.011 10.5355 11.0112 10.5618 11.0115 10.5889C11.0104 10.7252 11.0074 10.8112 10.9142 10.9141C10.8167 11.0068 10.7268 11.0111 10.5983 11.0156C10.4279 10.978 10.2889 10.8376 10.1583 10.7274C10.1262 10.7007 10.0942 10.674 10.0621 10.6474C10.0464 10.6343 10.0306 10.6212 10.0144 10.6077C9.9495 10.5543 9.88351 10.5024 9.8172 10.4508C9.70914 10.3666 9.6024 10.281 9.49628 10.1943C9.28163 10.0189 9.28163 10.0189 9.0619 9.84992C9.02362 9.81836 9.02362 9.81836 8.98593 9.77576C8.84926 9.63655 8.72155 9.62729 8.5365 9.62452C8.46982 9.62445 8.40318 9.62523 8.3365 9.62603C8.28838 9.62597 8.24026 9.62583 8.19214 9.62563C8.0888 9.62535 7.98548 9.62562 7.88214 9.62631C7.71861 9.6274 7.5551 9.62729 7.39157 9.62702C7.16222 9.62678 6.93288 9.62709 6.70353 9.62788C6.46799 9.62869 6.23245 9.62932 5.9969 9.6296C5.98239 9.62962 5.96789 9.62964 5.95294 9.62966C5.71062 9.62994 5.4683 9.62995 5.22597 9.62986C5.06354 9.62983 4.90112 9.63019 4.73869 9.63088C4.63751 9.63126 4.53632 9.63138 4.43514 9.63144C4.38837 9.63152 4.34159 9.63172 4.29482 9.63204C3.84025 9.63504 3.84025 9.63504 3.65253 9.56055C3.63671 9.55437 3.62089 9.54819 3.60459 9.54183C3.21843 9.38406 2.989 9.11727 2.81556 8.74196C2.74805 8.55434 2.74218 8.37285 2.74222 8.17592C2.74213 8.12768 2.74134 8.07949 2.74053 8.03126C2.74041 8.00025 2.74032 7.96924 2.74028 7.93823C2.7401 7.91043 2.73993 7.88264 2.73975 7.854C2.75526 7.74006 2.80799 7.67517 2.88983 7.59742C3.0008 7.5459 3.10253 7.54631 3.22284 7.5625C3.32956 7.61205 3.38266 7.67437 3.43768 7.77735C3.44999 7.85428 3.45069 7.9305 3.45111 8.0083C3.45481 8.27763 3.47673 8.54138 3.67401 8.74414C3.8766 8.89369 4.0828 8.91963 4.32884 8.91797C4.34893 8.91793 4.36903 8.91788 4.38973 8.91783C4.45685 8.91766 4.52397 8.91734 4.59109 8.91702C4.63931 8.91688 4.68752 8.91674 4.73574 8.91662C4.8395 8.91635 4.94326 8.91604 5.04702 8.9157C5.21127 8.91521 5.37553 8.91509 5.53978 8.91507C5.58141 8.91507 5.58141 8.91507 5.62387 8.91506C5.72379 8.91505 5.82371 8.91505 5.92363 8.91506C6.02615 8.91506 6.12868 8.91505 6.2312 8.91502C6.25312 8.91501 6.25312 8.91501 6.27549 8.915C6.51201 8.91491 6.74853 8.91413 6.98506 8.91311C7.22837 8.91207 7.47168 8.91188 7.715 8.91238C7.85143 8.91264 7.98783 8.91251 8.12426 8.91147C8.2527 8.91049 8.3811 8.91052 8.50955 8.91131C8.5565 8.91142 8.60346 8.91117 8.65042 8.91052C8.95692 8.90652 9.13953 8.94256 9.36737 9.15235C9.40011 9.1787 9.43297 9.20491 9.46606 9.23082C9.49412 9.25425 9.52209 9.27778 9.54999 9.3014C9.58096 9.32724 9.61196 9.35306 9.64298 9.37886C9.65803 9.39139 9.67308 9.40391 9.68859 9.41682C9.84856 9.54877 10.0137 9.67437 10.178 9.80076C10.191 9.81073 10.204 9.82069 10.2173 9.83096C10.2491 9.85541 10.2809 9.87986 10.3127 9.9043C10.3109 9.17171 10.3089 8.43912 10.3067 7.70653C10.3064 7.61999 10.3061 7.53346 10.3059 7.44692C10.3058 7.42108 10.3058 7.42108 10.3057 7.39472C10.3049 7.11596 10.3041 6.83721 10.3035 6.55845C10.3028 6.27231 10.302 5.98618 10.301 5.70004C10.3004 5.52355 10.2999 5.34706 10.2996 5.17057C10.2994 5.04946 10.299 4.92836 10.2985 4.80725C10.2982 4.73743 10.298 4.66761 10.298 4.59779C10.2979 4.52194 10.2976 4.44609 10.2972 4.37024C10.2972 4.33745 10.2972 4.33745 10.2973 4.304C10.2954 4.05591 10.2557 3.81522 10.0764 3.63086C9.9385 3.5291 9.80641 3.48156 9.63593 3.46167C9.49277 3.4405 9.41638 3.40316 9.31635 3.29786C9.26483 3.18689 9.26524 3.08516 9.28143 2.96485C9.36052 2.79451 9.49047 2.7349 9.67218 2.7406Z" fill="#979797"/>
<path d="M2.45837 2.05157C2.48524 2.05137 2.48524 2.05137 2.51266 2.05117C2.57253 2.05082 2.63239 2.05109 2.69226 2.05136C2.73525 2.05125 2.77824 2.0511 2.82123 2.05091C2.93788 2.05052 3.05453 2.05067 3.17119 2.05094C3.29328 2.05116 3.41536 2.05096 3.53745 2.05082C3.74248 2.05067 3.9475 2.05087 4.15253 2.05128C4.38955 2.05175 4.62657 2.0516 4.8636 2.05112C5.06712 2.05073 5.27063 2.05068 5.47415 2.0509C5.5957 2.05104 5.71724 2.05106 5.83879 2.05077C5.95306 2.05052 6.06733 2.0507 6.1816 2.05119C6.22353 2.05131 6.26547 2.05127 6.3074 2.05108C6.36466 2.05085 6.42188 2.05114 6.47913 2.05157C6.50402 2.05128 6.50402 2.05128 6.52941 2.05099C6.64068 2.05261 6.70306 2.07873 6.78906 2.14842C6.86701 2.23048 6.88166 2.29629 6.88574 2.40623C6.88166 2.51617 6.86701 2.58199 6.78906 2.66405C6.68718 2.7466 6.60673 2.76237 6.47913 2.7609C6.45226 2.7611 6.45226 2.7611 6.42484 2.7613C6.36497 2.76165 6.30511 2.76138 6.24524 2.7611C6.20225 2.76122 6.15926 2.76137 6.11627 2.76156C5.99962 2.76195 5.88297 2.7618 5.76631 2.76153C5.64422 2.76131 5.52214 2.76151 5.40005 2.76165C5.19502 2.7618 4.99 2.7616 4.78497 2.76119C4.54795 2.76072 4.31093 2.76087 4.0739 2.76135C3.87038 2.76174 3.66687 2.76179 3.46335 2.76157C3.3418 2.76143 3.22026 2.76141 3.09871 2.7617C2.98444 2.76195 2.87018 2.76177 2.7559 2.76128C2.71397 2.76116 2.67203 2.7612 2.6301 2.76139C2.57284 2.76162 2.51562 2.76133 2.45837 2.7609C2.43348 2.76118 2.43348 2.76118 2.40809 2.76148C2.29682 2.75986 2.23444 2.73374 2.14844 2.66405C2.07048 2.58199 2.05584 2.51617 2.05176 2.40623C2.05584 2.29629 2.07048 2.23048 2.14844 2.14842C2.25032 2.06587 2.33077 2.0501 2.45837 2.05157Z" fill="#979797"/>
<path d="M2.56604 3.42638C2.59548 3.42627 2.62493 3.42611 2.65437 3.42593C2.73409 3.42554 2.81381 3.42569 2.89353 3.42596C2.97709 3.42618 3.06064 3.42597 3.14419 3.42584C3.28448 3.42568 3.42477 3.42589 3.56506 3.4263C3.72711 3.42677 3.88915 3.42661 4.0512 3.42614C4.19049 3.42575 4.32978 3.4257 4.46907 3.42592C4.55219 3.42606 4.63531 3.42607 4.71843 3.42579C4.79659 3.42554 4.87474 3.42571 4.9529 3.42621C4.99516 3.42638 5.03741 3.42612 5.07967 3.42586C5.31039 3.42807 5.31039 3.42807 5.41406 3.52344C5.49202 3.60549 5.50666 3.67131 5.51074 3.78125C5.50666 3.89119 5.49202 3.95701 5.41406 4.03906C5.29046 4.15277 5.15768 4.13714 4.99646 4.13612C4.96702 4.13624 4.93757 4.13639 4.90813 4.13658C4.82841 4.13697 4.74869 4.13682 4.66897 4.13655C4.58541 4.13633 4.50186 4.13653 4.41831 4.13666C4.27802 4.13682 4.13773 4.13662 3.99744 4.13621C3.83539 4.13574 3.67335 4.13589 3.5113 4.13636C3.37201 4.13675 3.23272 4.13681 3.09343 4.13658C3.01031 4.13645 2.92719 4.13643 2.84407 4.13672C2.76591 4.13696 2.68776 4.13679 2.6096 4.13629C2.56734 4.13613 2.52509 4.13638 2.48283 4.13665C2.25211 4.13444 2.25211 4.13444 2.14844 4.03906C2.07048 3.95701 2.05584 3.89119 2.05176 3.78125C2.05584 3.67131 2.07048 3.60549 2.14844 3.52344C2.27204 3.40973 2.40482 3.42536 2.56604 3.42638Z" fill="#979797"/>
</g>
<defs>
<clipPath id="clip0_287_1741">
<rect width="11" height="11" fill="white"/>
</clipPath>
</defs>
</svg>
