<svg width="21" height="21" viewBox="0 0 21 21" fill="none" xmlns="http://www.w3.org/2000/svg">
<path d="M11.8537 5.49609C11.983 5.55337 12.0703 5.62044 12.1699 5.72034C12.1994 5.74979 12.229 5.77924 12.2594 5.80958C12.2915 5.84188 12.3235 5.87419 12.3564 5.90747C12.3905 5.94149 12.4245 5.9755 12.4596 6.01055C12.5721 6.1231 12.6842 6.23593 12.7964 6.34877C12.8743 6.42686 12.9523 6.50488 13.0302 6.58291C13.2144 6.76737 13.3984 6.95204 13.5824 7.13678C13.7918 7.34713 14.0014 7.55724 14.2111 7.76734C14.6424 8.19945 15.0733 8.63185 15.5041 9.06445C15.3066 9.4909 14.8712 9.82627 14.5428 10.1541C14.4827 10.2143 14.4226 10.2745 14.3625 10.3347C14.1998 10.4975 14.0371 10.6602 13.8743 10.8228C13.7036 10.9934 13.533 11.1641 13.3624 11.3348C13.0759 11.6213 12.7894 11.9078 12.5028 12.1942C12.1719 12.5249 11.8411 12.8557 11.5105 13.1866C11.2261 13.4712 10.9416 13.7557 10.657 14.0401C10.4873 14.2098 10.3176 14.3795 10.1479 14.5493C9.98842 14.7089 9.8288 14.8684 9.66911 15.0279C9.61068 15.0863 9.55228 15.1447 9.49392 15.2031C8.95873 15.7391 8.95873 15.7391 8.71906 15.9405C8.59645 16.0461 8.48578 16.1639 8.37349 16.2803C8.32112 16.3338 8.26873 16.3873 8.21631 16.4407C8.13563 16.5231 8.05511 16.6057 7.97505 16.6888C7.23888 17.451 6.46487 17.7849 5.46042 18.0802C5.38866 18.1015 5.31691 18.1227 5.24516 18.144C5.02831 18.2081 4.8112 18.2712 4.59396 18.334C4.54321 18.3486 4.54321 18.3486 4.49144 18.3636C4.30198 18.4182 4.11235 18.4721 3.92241 18.525C3.86489 18.541 3.8074 18.5572 3.74996 18.5735C3.02851 18.7775 3.02851 18.7775 2.65902 18.6229C2.49112 18.5269 2.40373 18.3891 2.32528 18.2135C2.2539 17.8955 2.33194 17.6325 2.41853 17.3249C2.43776 17.2552 2.43776 17.2552 2.45739 17.184C2.59684 16.6818 2.74343 16.1816 2.89249 15.6821C2.93849 15.5277 2.98405 15.3732 3.0296 15.2187C3.05937 15.1186 3.08917 15.0185 3.119 14.9185C3.13229 14.8732 3.14559 14.828 3.15928 14.7813C3.43499 13.8637 3.95308 13.3436 4.61853 12.6803C4.69599 12.6028 4.77343 12.5253 4.85085 12.4478C5.03845 12.26 5.22626 12.0724 5.41414 11.8849C5.63308 11.6664 5.8518 11.4476 6.07051 11.2289C6.46062 10.8388 6.85092 10.4488 7.24133 10.059C7.62007 9.68087 7.99867 9.30256 8.37711 8.92409C8.41215 8.88906 8.41215 8.88906 8.44789 8.85331C8.4712 8.82999 8.49452 8.80668 8.51854 8.78265C8.94992 8.35124 9.38144 7.91996 9.81302 7.48875C9.96556 7.33634 10.1181 7.18389 10.2705 7.03143C10.4561 6.84588 10.6418 6.66041 10.8275 6.47504C10.9223 6.38047 11.017 6.28585 11.1116 6.19116C11.2141 6.08865 11.3168 5.98627 11.4194 5.88392C11.4494 5.85382 11.4795 5.82373 11.5104 5.79272C11.5516 5.75175 11.5516 5.75175 11.5936 5.70995C11.6173 5.6863 11.6409 5.66265 11.6653 5.63829C11.7307 5.57812 11.7307 5.57812 11.8537 5.49609Z" fill="#171717"/>
<path d="M17.1035 2.66601C17.2361 2.77492 17.3606 2.89191 17.4839 3.01111C17.5923 3.11706 17.5923 3.11706 17.704 3.20337C17.8229 3.29905 17.9148 3.40623 18.0131 3.52237C18.0609 3.57797 18.1102 3.63231 18.1614 3.68483C18.5775 4.11931 18.7261 4.67535 18.7159 5.26249C18.645 6.10142 18.0951 6.6042 17.5285 7.16826C17.4699 7.22667 17.4114 7.2853 17.3531 7.34395C17.1613 7.53541 16.9674 7.72078 16.7616 7.89699C16.646 7.99871 16.5446 8.1133 16.4415 8.22747C16.3652 8.28515 16.3652 8.28515 16.2869 8.27654C16.1843 8.23776 16.1387 8.19255 16.0653 8.11144C16.0397 8.08362 16.0141 8.05579 15.9877 8.02712C15.9604 7.99683 15.9331 7.96654 15.9049 7.93532C15.8457 7.87105 15.7864 7.80686 15.7271 7.74274C15.6968 7.70997 15.6665 7.67719 15.6353 7.64342C15.4979 7.49659 15.3566 7.35386 15.2144 7.21168C15.1867 7.18398 15.159 7.15627 15.1305 7.12773C15.044 7.0413 14.9574 6.95498 14.8707 6.86867C14.8091 6.80714 14.7475 6.7456 14.6859 6.68406C14.5264 6.52464 14.3667 6.36535 14.207 6.20608C14.043 6.04253 13.8791 5.87885 13.7152 5.71518C13.3956 5.39594 13.0758 5.07683 12.7559 4.7578C12.9019 4.45578 13.157 4.22902 13.3954 3.99773C13.476 3.91509 13.5515 3.83124 13.6268 3.74395C14.5307 2.70326 15.7296 1.71305 17.1035 2.66601Z" fill="#171717"/>
</svg>
