<svg width="16" height="16" viewBox="0 0 16 16" fill="none" xmlns="http://www.w3.org/2000/svg">
<path d="M13.5314 2.12499C13.7568 2.29144 13.9259 2.47621 14.0002 2.74999C14.0585 3.40587 13.8375 4.05059 13.4239 4.56109C13.1908 4.83854 12.9386 5.09455 12.6783 5.34631C12.6267 5.39653 12.575 5.44676 12.5234 5.497C12.4439 5.57444 12.3641 5.65162 12.2837 5.7282C12.205 5.80338 12.1271 5.87943 12.0494 5.95568C12.0251 5.97841 12.0008 6.00114 11.9758 6.02455C11.8568 6.13694 11.8568 6.13694 11.8041 6.28574C11.811 6.36093 11.811 6.36093 11.8439 6.46874C11.8489 6.4942 11.8539 6.51966 11.859 6.54589C11.8666 6.57731 11.8666 6.57731 11.8743 6.60937C11.8799 6.63253 11.8854 6.65569 11.8911 6.67956C11.8968 6.7028 11.9025 6.72605 11.9084 6.74999C11.9171 6.78631 11.9171 6.78631 11.926 6.82336C11.9402 6.88227 11.9546 6.94113 11.9689 6.99999C11.9999 6.98968 12.0308 6.97937 12.0627 6.96874C12.2755 6.94667 12.4602 6.94343 12.6369 7.07482C12.792 7.2281 12.8265 7.39394 12.8293 7.60656C12.7889 7.80332 12.6759 7.92575 12.5306 8.05396C12.3622 8.19828 12.3622 8.19828 12.2575 8.38732C12.2652 8.47189 12.2873 8.54374 12.3127 8.62499C12.3296 8.70263 12.345 8.78051 12.3605 8.85844C12.3847 8.97889 12.4112 9.09878 12.4377 9.21874C12.5241 9.21874 12.5573 9.17639 12.6252 9.12499C12.8124 9.0626 13.0227 9.06008 13.2014 9.14453C13.3727 9.30329 13.4591 9.41294 13.4787 9.64843C13.4752 9.79846 13.4313 9.90938 13.3439 10.0312C13.2751 10.0903 13.2751 10.0903 13.1955 10.149C13.0144 10.2851 12.8518 10.4185 12.7502 10.625C12.7101 10.9516 12.8224 11.2835 12.9122 11.5946C12.9449 11.7105 12.974 11.8272 13.0032 11.944C13.0362 12.0753 13.0694 12.2065 13.1058 12.337C13.1164 12.3757 13.1271 12.4145 13.1381 12.4544C13.1524 12.5051 13.1524 12.5051 13.1671 12.5568C13.2069 12.7489 13.1978 12.8921 13.1048 13.0617C13.0279 13.1774 12.9332 13.2724 12.8342 13.3691C12.8142 13.3896 12.7942 13.41 12.7737 13.4311C12.6186 13.5849 12.4866 13.6758 12.2639 13.6992C12.0657 13.6776 11.9602 13.5979 11.8336 13.4467C11.7377 13.3149 11.665 13.1702 11.5902 13.0257C11.5394 12.9275 11.4875 12.8297 11.4359 12.7319C11.4255 12.7122 11.415 12.6925 11.4043 12.6721C11.3083 12.4904 11.2077 12.3113 11.1057 12.1328C10.9486 11.8574 10.7963 11.5797 10.6458 11.3007C10.5098 11.0486 10.3714 10.7979 10.2318 10.5478C10.0924 10.298 9.9536 10.0479 9.81482 9.79768C9.74781 9.67691 9.68063 9.55623 9.61337 9.43559C9.56667 9.35179 9.52009 9.26792 9.47354 9.18404C9.45102 9.14351 9.42845 9.10301 9.40583 9.06254C9.37438 9.00624 9.34309 8.94984 9.31183 8.89343C9.29387 8.86116 9.2759 8.82889 9.2574 8.79564C9.21894 8.71874 9.21894 8.71874 9.21894 8.65624C9.03098 8.80551 8.85116 8.95655 8.68378 9.12866C8.60847 9.20428 8.52841 9.27316 8.44757 9.34277C8.35689 9.42229 8.26836 9.50398 8.17987 9.58593C8.16251 9.60201 8.14515 9.61808 8.12726 9.63465C8.09189 9.6674 8.05653 9.70016 8.02117 9.73292C7.82853 9.91115 7.63503 10.0884 7.43964 10.2637C7.30224 10.3869 7.16645 10.5119 7.0312 10.6375C7.01549 10.6521 6.99977 10.6666 6.98358 10.6816C6.96801 10.6966 6.95243 10.7116 6.93638 10.7271C6.87519 10.7812 6.87519 10.7812 6.7982 10.834C6.66384 10.9337 6.5771 11.0115 6.53075 11.1755C6.51188 11.3126 6.50959 11.45 6.50702 11.5881C6.50495 11.6391 6.50275 11.69 6.5004 11.7409C6.49461 11.8743 6.49056 12.0076 6.48693 12.141C6.48223 12.303 6.47566 12.4649 6.46917 12.6268C6.46413 12.7528 6.45942 12.8788 6.45581 13.0048C6.45467 13.0397 6.45467 13.0397 6.4535 13.0753C6.45145 13.1378 6.44964 13.2003 6.44784 13.2628C6.42751 13.4874 6.36979 13.6233 6.20526 13.7754C6.18994 13.7903 6.17461 13.8052 6.15882 13.8205C6.03749 13.9369 5.95616 14.0091 5.78534 14.0117C5.759 14.0126 5.73265 14.0135 5.70551 14.0144C5.59177 13.994 5.54873 13.9594 5.46894 13.875C5.41601 13.7785 5.37858 13.6771 5.34003 13.5742C5.32752 13.542 5.31501 13.5099 5.30212 13.4767C5.21555 13.2528 5.13161 13.0278 5.04707 12.8031C5.00711 12.697 4.96707 12.5909 4.92702 12.4848C4.87306 12.3419 4.81952 12.1988 4.76622 12.0556C4.74107 11.9886 4.71591 11.9217 4.69074 11.8547C4.67923 11.8235 4.66771 11.7923 4.65585 11.7601C4.64497 11.7313 4.63409 11.7026 4.62287 11.6729C4.61348 11.6477 4.60408 11.6225 4.5944 11.5966C4.52779 11.4593 4.44029 11.4195 4.30034 11.3672C4.26578 11.3542 4.23121 11.3411 4.1956 11.3277C4.1581 11.3138 4.12061 11.2999 4.08197 11.2856C4.04273 11.2709 4.0035 11.2562 3.96428 11.2414C3.86069 11.2024 3.75699 11.1637 3.65326 11.1251C3.32057 11.0012 2.98833 10.876 2.65644 10.75C2.62658 10.7387 2.59672 10.7275 2.56596 10.7159C2.49052 10.6872 2.41536 10.658 2.34027 10.6284C2.30921 10.6168 2.30921 10.6168 2.27752 10.6049C2.14755 10.5525 2.07708 10.4918 2.00019 10.375C1.96677 10.2651 1.97066 10.1732 2.00019 10.0625C2.08115 9.94414 2.17799 9.84871 2.28144 9.74999C2.30883 9.71814 2.33619 9.68625 2.36347 9.65429C2.50594 9.53806 2.70947 9.55767 2.88721 9.55094C2.93261 9.54914 2.97802 9.54732 3.02342 9.54551C3.05903 9.54413 3.05903 9.54413 3.09536 9.54273C3.24873 9.53662 3.40205 9.52937 3.55538 9.52237C3.68976 9.5163 3.82413 9.51061 3.95855 9.50569C4.08913 9.50088 4.21964 9.49506 4.35016 9.48855C4.39968 9.48627 4.44922 9.48435 4.49877 9.48282C4.81131 9.48206 4.81131 9.48206 5.07288 9.33222C5.10183 9.29523 5.12973 9.25739 5.15644 9.21874C5.1893 9.18069 5.22247 9.14289 5.25605 9.10546C5.27405 9.0846 5.29206 9.06373 5.31061 9.04223C5.39057 8.95124 5.47258 8.8623 5.55487 8.77343C5.57095 8.75607 5.58702 8.73871 5.60358 8.72083C5.63634 8.68546 5.6691 8.65009 5.70186 8.61473C5.8801 8.42208 6.05739 8.22859 6.23261 8.0332C6.34037 7.91315 6.44928 7.79423 6.55878 7.67578C6.5746 7.65864 6.59042 7.64151 6.60672 7.62386C6.68489 7.53924 6.7632 7.45476 6.84174 7.37048C7.01803 7.18062 7.18556 6.98636 7.34394 6.78124C7.31653 6.77281 7.28912 6.76438 7.26087 6.75569C7.16158 6.72056 7.07699 6.67933 6.98542 6.62768C6.95263 6.60931 6.91984 6.59095 6.88607 6.57202C6.83331 6.54217 6.83331 6.54217 6.77948 6.51171C6.74201 6.49067 6.70453 6.46966 6.66704 6.44866C6.6084 6.4158 6.54976 6.38294 6.49115 6.35002C6.3012 6.24335 6.11052 6.138 5.91969 6.03291C5.86299 6.00169 5.80631 5.97044 5.74963 5.93919C5.67333 5.89712 5.59703 5.85505 5.52072 5.813C5.35042 5.71912 5.18016 5.62516 5.00989 5.53121C4.91551 5.47914 4.82113 5.42707 4.72675 5.37499C4.68899 5.35416 4.65123 5.33333 4.61347 5.31249C4.59478 5.30218 4.57608 5.29187 4.55683 5.28124C4.38691 5.18749 4.3869 5.18749 4.33027 5.15625C4.29248 5.1354 4.25469 5.11455 4.21689 5.0937C4.12298 5.0419 4.02909 4.99007 3.93522 4.93818C3.75947 4.84106 3.58358 4.74422 3.4072 4.64825C3.32455 4.60326 3.24198 4.55812 3.15941 4.51298C3.1203 4.49165 3.08115 4.47038 3.04197 4.4492C2.39853 4.10127 2.39853 4.10127 2.31269 3.84374C2.29647 3.64919 2.32322 3.53697 2.43769 3.37499C2.51038 3.28986 2.58833 3.21122 2.66816 3.13281C2.68838 3.11222 2.7086 3.09164 2.72943 3.07043C2.87134 2.92938 2.98986 2.82199 3.19692 2.80309C3.38028 2.80578 3.55221 2.86308 3.72745 2.91262C3.8599 2.94936 3.99335 2.98234 4.12661 3.016C4.24297 3.04562 4.3587 3.07647 4.47393 3.11022C4.97861 3.27499 4.97861 3.27499 5.47735 3.19754C5.66243 3.0538 5.79802 2.88025 5.93804 2.69419C6.04899 2.57065 6.17219 2.53732 6.33637 2.52453C6.54905 2.54945 6.67745 2.60493 6.82245 2.76952C6.93629 2.92975 6.92096 3.08948 6.90644 3.28124C6.8649 3.39075 6.83195 3.44948 6.75019 3.53124C6.90441 3.58611 7.05946 3.62462 7.21894 3.66015C7.24335 3.66583 7.26776 3.67151 7.29291 3.67736C7.48931 3.72543 7.48931 3.72543 7.68769 3.71874C7.76999 3.6563 7.83737 3.58239 7.90644 3.50585C8.17729 3.21105 8.17729 3.21105 8.39057 3.17394C8.57626 3.17364 8.72643 3.19481 8.87519 3.31249C9.00989 3.46395 9.0595 3.61201 9.06269 3.81249C9.0432 3.88578 9.02254 3.95878 9.00019 4.03124C9.10618 4.05847 9.21234 4.08496 9.31855 4.11132C9.34854 4.11904 9.37853 4.12675 9.40943 4.1347C9.43853 4.14185 9.46764 4.149 9.49762 4.15637C9.53763 4.16643 9.53763 4.16643 9.57846 4.1767C9.6692 4.18926 9.72473 4.18244 9.81269 4.15624C9.88657 4.09977 9.88657 4.09977 9.95643 4.0252C9.99777 3.9834 9.99777 3.9834 10.0399 3.94075C10.0545 3.92576 10.069 3.91076 10.084 3.89532C10.1299 3.84795 10.1761 3.80098 10.2225 3.75409C10.3213 3.65412 10.4195 3.55363 10.5178 3.45312C10.631 3.33739 10.7444 3.22187 10.8582 3.10672C10.9032 3.06101 10.9479 3.01501 10.9925 2.96898C11.5318 2.4219 12.7472 1.58196 13.5314 2.12499Z" fill="#828282"/>
</svg>
