<svg width="16" height="16" viewBox="0 0 16 16" fill="none" xmlns="http://www.w3.org/2000/svg">
<path d="M3.66814 4.7207C3.84064 4.81696 3.93705 4.93565 4.00017 5.125C4.00305 5.16833 4.00423 5.2118 4.00433 5.25523C4.00446 5.28189 4.00459 5.30856 4.00473 5.33603C4.00471 5.37998 4.00471 5.37998 4.00469 5.42483C4.00486 5.47151 4.00486 5.47151 4.00503 5.51914C4.00536 5.62393 4.00547 5.72871 4.00559 5.8335C4.00579 5.90844 4.006 5.98337 4.00623 6.05831C4.00668 6.21996 4.00705 6.38161 4.00735 6.54326C4.00778 6.77732 4.00844 7.01139 4.00917 7.24545C4.01036 7.62563 4.01145 8.00582 4.01244 8.38601C4.0125 8.40877 4.01256 8.43153 4.01262 8.45498C4.01346 8.77764 4.01421 9.10029 4.01492 9.42294C4.01497 9.44564 4.01502 9.46834 4.01507 9.49172C4.01512 9.51439 4.01517 9.53705 4.01522 9.56041C4.01606 9.9389 4.01713 10.3174 4.0184 10.6959C4.0191 10.9083 4.01969 11.1207 4.01998 11.3332C4.02026 11.5331 4.02082 11.733 4.0216 11.933C4.02183 12.0063 4.02196 12.0796 4.02197 12.1529C4.022 12.2531 4.02242 12.3534 4.02293 12.4536C4.02284 12.4825 4.02276 12.5113 4.02268 12.541C4.02569 12.9239 4.12216 13.2621 4.35173 13.5742C4.66082 13.8693 5.03524 13.9724 5.45429 13.9729C5.47698 13.973 5.49966 13.9731 5.52303 13.9731C5.59849 13.9733 5.67395 13.9733 5.74941 13.9733C5.80374 13.9734 5.85807 13.9735 5.91239 13.9736C6.05961 13.9739 6.20682 13.974 6.35404 13.974C6.44611 13.974 6.53819 13.9741 6.63027 13.9741C6.95178 13.9744 7.2733 13.9746 7.59481 13.9745C7.89404 13.9745 8.19327 13.9748 8.4925 13.9753C8.7498 13.9758 9.00711 13.9759 9.26442 13.9759C9.41791 13.9759 9.57141 13.976 9.72491 13.9763C9.86935 13.9766 10.0138 13.9766 10.1582 13.9764C10.211 13.9764 10.2639 13.9764 10.3167 13.9766C10.6582 13.9778 10.9813 13.9783 11.2912 13.8164C11.3364 13.7933 11.3364 13.7933 11.3826 13.7698C11.6767 13.5959 11.8412 13.3235 11.9377 13C11.9696 12.8206 11.9734 12.647 11.9732 12.4655C11.9733 12.4342 11.9734 12.4029 11.9735 12.3706C11.9738 12.2659 11.9738 12.1613 11.9738 12.0566C11.974 11.9814 11.9742 11.9063 11.9743 11.8311C11.9747 11.6694 11.9749 11.5077 11.9751 11.3459C11.9755 11.0903 11.9761 10.8346 11.9768 10.579C11.977 10.4915 11.9773 10.4039 11.9775 10.3164C11.9776 10.2836 11.9776 10.2836 11.9777 10.2501C11.9783 10.0014 11.9789 9.75266 11.9795 9.50394C11.9795 9.48122 11.9796 9.45849 11.9796 9.43508C11.9805 9.06653 11.981 8.69798 11.9816 8.32942C11.9821 7.95079 11.983 7.57216 11.9842 7.19353C11.9849 6.96009 11.9854 6.72667 11.9854 6.49324C11.9855 6.31443 11.9861 6.13564 11.9868 5.95684C11.987 5.8835 11.9871 5.81015 11.987 5.73681C11.9869 5.63678 11.9873 5.53676 11.9879 5.43673C11.9877 5.40764 11.9876 5.37854 11.9874 5.34857C11.9895 5.14492 12.0292 5.01515 12.1623 4.85547C12.3504 4.69664 12.5116 4.63374 12.7603 4.64441C12.9742 4.6747 13.1076 4.77817 13.2431 4.94128C13.3557 5.11377 13.3529 5.27176 13.3523 5.47161C13.3524 5.50366 13.3526 5.5357 13.3527 5.56872C13.3531 5.67625 13.353 5.78379 13.353 5.89132C13.3532 5.96838 13.3534 6.04543 13.3536 6.12249C13.3541 6.31024 13.3543 6.498 13.3544 6.68575C13.3544 6.83857 13.3545 6.99138 13.3547 7.1442C13.3553 7.5781 13.3556 8.01199 13.3555 8.44589C13.3555 8.46928 13.3555 8.49267 13.3555 8.51677C13.3555 8.54018 13.3555 8.5636 13.3555 8.58773C13.3555 8.96636 13.3561 9.34499 13.3569 9.72362C13.3578 10.113 13.3583 10.5024 13.3582 10.8918C13.3582 11.1102 13.3584 11.3285 13.359 11.5469C13.3597 11.7526 13.3597 11.9583 13.3592 12.164C13.3591 12.2392 13.3593 12.3144 13.3597 12.3895C13.3638 13.2616 13.1886 13.9843 12.5622 14.6305C12.101 15.082 11.4544 15.3485 10.8112 15.3483C10.7864 15.3485 10.7616 15.3486 10.736 15.3487C10.6532 15.349 10.5704 15.3492 10.4876 15.3493C10.428 15.3495 10.3685 15.3497 10.309 15.3499C10.1137 15.3506 9.91847 15.3509 9.72319 15.3512C9.65578 15.3513 9.58836 15.3514 9.52095 15.3516C9.20401 15.3522 8.88707 15.3526 8.57012 15.3529C8.2053 15.3532 7.84048 15.354 7.47565 15.3553C7.19305 15.3562 6.91045 15.3567 6.62785 15.3568C6.45938 15.3569 6.29091 15.3571 6.12243 15.3579C5.96363 15.3587 5.80484 15.3588 5.64603 15.3585C5.58816 15.3584 5.53027 15.3586 5.4724 15.3591C4.66006 15.3648 3.96417 15.1383 3.36967 14.562C2.89271 14.0749 2.65169 13.4151 2.65182 12.7415C2.6517 12.7092 2.65159 12.6769 2.65147 12.6437C2.65113 12.5356 2.65101 12.4275 2.65089 12.3194C2.65069 12.2419 2.65048 12.1644 2.65026 12.0869C2.64966 11.8544 2.64933 11.6219 2.64905 11.3894C2.64892 11.2798 2.64875 11.1702 2.64859 11.0606C2.64805 10.6963 2.6476 10.3319 2.64737 9.96751C2.64731 9.87306 2.64725 9.77862 2.64719 9.68417C2.64718 9.6607 2.64716 9.63722 2.64715 9.61304C2.64689 9.2326 2.6461 8.85217 2.64508 8.47174C2.64405 8.08089 2.64349 7.69004 2.64339 7.29918C2.64332 7.07984 2.64305 6.8605 2.64225 6.64115C2.6415 6.43488 2.64139 6.22861 2.64171 6.02233C2.64172 5.94664 2.64152 5.87096 2.6411 5.79527C2.64054 5.69191 2.64076 5.58857 2.64118 5.4852C2.64083 5.45529 2.64049 5.42539 2.64014 5.39457C2.64223 5.17613 2.69178 5.01012 2.83598 4.84301C2.85343 4.82908 2.87087 4.81514 2.88884 4.80078C2.9062 4.78636 2.92356 4.77194 2.94145 4.75708C3.16673 4.61001 3.42693 4.61109 3.66814 4.7207Z" fill="#DA0000"/>
<path d="M5.99567 0.647904C6.03234 0.647638 6.069 0.647371 6.10678 0.647097C6.16671 0.647139 6.16671 0.647139 6.22785 0.647182C6.27057 0.646995 6.31329 0.646783 6.35602 0.646546C6.47185 0.645995 6.58768 0.645848 6.70352 0.645808C6.77597 0.645763 6.84841 0.64563 6.92086 0.645464C7.17382 0.644886 7.42677 0.644631 7.67973 0.64468C7.91516 0.644718 8.15059 0.644058 8.38602 0.643071C8.58844 0.642253 8.79086 0.641919 8.99329 0.641958C9.11405 0.641974 9.23482 0.641798 9.35558 0.641135C9.46924 0.640528 9.58289 0.640526 9.69655 0.64098C9.75785 0.641076 9.81916 0.640556 9.88046 0.640015C10.1502 0.64193 10.3263 0.672534 10.5254 0.867199C10.6789 1.09536 10.7009 1.28966 10.6966 1.55763C10.6965 1.58918 10.6964 1.62073 10.6962 1.65324C10.6957 1.75322 10.6945 1.85317 10.6933 1.95314C10.6929 2.02125 10.6924 2.08937 10.692 2.15748C10.691 2.32375 10.6895 2.49 10.6875 2.65626C10.7393 2.65574 10.7393 2.65574 10.7921 2.65521C11.1186 2.65203 11.445 2.6497 11.7714 2.64817C11.9392 2.64735 12.107 2.64625 12.2748 2.64447C12.4369 2.64277 12.599 2.64184 12.7611 2.64144C12.8227 2.64115 12.8844 2.64059 12.9461 2.63974C13.5895 2.63126 13.5895 2.63126 13.8125 2.81251C13.9941 3.00691 14.0147 3.19297 14.0128 3.45021C13.9912 3.6397 13.9044 3.76481 13.7616 3.88746C13.625 3.98399 13.5111 4.00393 13.3476 4.00421C13.2898 4.00441 13.2898 4.00441 13.2307 4.00463C13.1877 4.00463 13.1447 4.00462 13.1017 4.00461C13.0561 4.00471 13.0106 4.00483 12.9651 4.00496C12.8396 4.00527 12.7142 4.00539 12.5887 4.00547C12.4536 4.00559 12.3184 4.00589 12.1833 4.00617C11.8567 4.00678 11.5301 4.0071 11.2035 4.00738C11.0498 4.00751 10.896 4.00768 10.7423 4.00784C10.2313 4.00838 9.72034 4.00883 9.20936 4.00905C9.07673 4.00911 8.9441 4.00917 8.81147 4.00924C8.76202 4.00926 8.76202 4.00926 8.71158 4.00928C8.17746 4.00954 7.64333 4.01033 7.10921 4.01135C6.56101 4.01238 6.01281 4.01294 5.46461 4.01304C5.15674 4.01311 4.84888 4.01339 4.54102 4.01418C4.27885 4.01486 4.01668 4.01511 3.75451 4.01481C3.62075 4.01467 3.48699 4.01473 3.35323 4.01533C3.23072 4.01588 3.10823 4.01585 2.98572 4.01537C2.94145 4.01529 2.89718 4.01543 2.85291 4.0158C2.60715 4.01773 2.4276 4.01061 2.21872 3.87501C2.15439 3.81141 2.15439 3.81141 2.1113 3.74806C2.08912 3.71658 2.08912 3.71658 2.0665 3.68446C1.96578 3.51473 1.98705 3.31562 1.99997 3.12501C2.06409 2.93603 2.18823 2.80941 2.36256 2.71501C2.50577 2.64558 2.6294 2.63929 2.78653 2.64207C2.82773 2.64204 2.82773 2.64204 2.86977 2.64202C2.95973 2.6421 3.04966 2.64307 3.13962 2.64405C3.20232 2.64429 3.26502 2.64447 3.32772 2.64459C3.49212 2.64507 3.65651 2.64629 3.82091 2.64768C3.98891 2.64896 4.15692 2.64953 4.32492 2.65016C4.65411 2.6515 4.98329 2.65363 5.31247 2.65626C5.31217 2.63704 5.31187 2.61782 5.31156 2.59802C5.30877 2.41844 5.30696 2.23886 5.30561 2.05926C5.30498 1.99167 5.30413 1.92409 5.30304 1.8565C5.30151 1.75891 5.30081 1.66134 5.30027 1.56373C5.29962 1.5339 5.29897 1.50407 5.29831 1.47334C5.29824 1.24594 5.33533 1.01999 5.49217 0.845353C5.64422 0.705572 5.78819 0.648588 5.99567 0.647904ZM6.68747 2.00001C6.68747 2.21657 6.68747 2.43314 6.68747 2.65626C7.55372 2.65626 8.41997 2.65626 9.31247 2.65626C9.31247 2.4397 9.31247 2.22314 9.31247 2.00001C8.44622 2.00001 7.57997 2.00001 6.68747 2.00001Z" fill="#DA0000"/>
<path d="M9.64262 6.02942C9.80494 6.1273 9.9286 6.26068 10.0002 6.4375C10.0084 6.53214 10.0084 6.53214 10.0089 6.6452C10.0091 6.66604 10.0093 6.68688 10.0095 6.70835C10.0101 6.77813 10.0101 6.8479 10.0102 6.91769C10.0105 6.96774 10.0108 7.0178 10.0112 7.06785C10.012 7.20383 10.0124 7.33981 10.0127 7.4758C10.0129 7.56081 10.0131 7.64583 10.0134 7.73084C10.0143 7.99699 10.0149 8.26314 10.0151 8.52929C10.0154 8.83622 10.0165 9.14313 10.0183 9.45005C10.0196 9.68748 10.0203 9.9249 10.0204 10.1623C10.0204 10.304 10.0208 10.4457 10.0219 10.5875C10.0229 10.7209 10.0231 10.8543 10.0225 10.9877C10.0225 11.0365 10.0227 11.0853 10.0234 11.1341C10.0267 11.4128 10.016 11.6339 9.81267 11.8438C9.60578 12.0211 9.38637 12.0177 9.12517 12C8.93504 11.9355 8.82434 11.8152 8.71532 11.6497C8.61974 11.4516 8.63872 11.2324 8.63975 11.0176C8.63953 10.9688 8.63925 10.92 8.63893 10.8712C8.63823 10.7392 8.63832 10.6073 8.6386 10.4753C8.63876 10.3649 8.63853 10.2544 8.6383 10.144C8.63777 9.88337 8.63788 9.62273 8.63841 9.36208C8.63893 9.09374 8.63844 8.82543 8.63743 8.5571C8.63659 8.3262 8.63637 8.0953 8.63663 7.8644C8.63679 7.72672 8.63672 7.58906 8.63608 7.45138C8.6355 7.32184 8.63569 7.19232 8.63646 7.06278C8.63661 7.01544 8.63651 6.9681 8.63611 6.92076C8.63401 6.64966 8.64615 6.4135 8.81267 6.1875C9.03201 5.98008 9.35776 5.92461 9.64262 6.02942Z" fill="#DA0000"/>
<path d="M6.65225 5.99023C6.68955 5.98971 6.72685 5.98919 6.76529 5.98865C6.96368 6.00919 7.09193 6.09993 7.21866 6.25C7.37185 6.48257 7.36161 6.71338 7.36033 6.98241C7.36055 7.0312 7.36082 7.07999 7.36114 7.12878C7.36184 7.26076 7.36175 7.39272 7.36148 7.5247C7.36132 7.63513 7.36154 7.74555 7.36177 7.85598C7.3623 8.11663 7.36219 8.37727 7.36167 8.63792C7.36114 8.90626 7.36163 9.17457 7.36264 9.4429C7.36348 9.6738 7.36371 9.9047 7.36344 10.1356C7.36329 10.2733 7.36335 10.4109 7.364 10.5486C7.36457 10.6782 7.36438 10.8077 7.36362 10.9372C7.36346 10.9846 7.36357 11.0319 7.36396 11.0792C7.36606 11.3503 7.35393 11.5865 7.18741 11.8125C6.99925 11.9904 6.82123 12.0115 6.57168 12.0084C6.39612 11.9941 6.28224 11.9443 6.16299 11.8143C6.03536 11.6509 5.99608 11.5374 5.9951 11.3283C5.99496 11.3076 5.99482 11.2869 5.99468 11.2655C5.99426 11.196 5.99407 11.1265 5.99388 11.057C5.99363 11.0072 5.99337 10.9574 5.9931 10.9076C5.99229 10.7439 5.99181 10.5803 5.99136 10.4166C5.99119 10.3603 5.99103 10.3039 5.99086 10.2475C5.99018 10.0131 5.9896 9.77856 5.98924 9.54408C5.98874 9.20817 5.9877 8.87227 5.98592 8.53637C5.98471 8.30011 5.9841 8.06386 5.98393 7.8276C5.98382 7.68653 5.98345 7.54547 5.98243 7.40441C5.98149 7.27162 5.98129 7.13884 5.98166 7.00604C5.98167 6.95742 5.98141 6.90879 5.98086 6.86017C5.97575 6.38184 5.97575 6.38184 6.15616 6.1875C6.31668 6.03872 6.4331 5.99094 6.65225 5.99023Z" fill="#DA0000"/>
</svg>
