<svg width="10" height="10" viewBox="0 0 10 10" fill="none" xmlns="http://www.w3.org/2000/svg">
<g clip-path="url(#clip0_287_1995)">
<path d="M6.53916 -0.0109711C6.55821 -0.0118019 6.57727 -0.0126328 6.59691 -0.0134888C6.74419 0.0180331 6.85686 0.151461 6.96274 0.252701C6.98848 0.277031 7.01425 0.301343 7.04002 0.325638C7.0521 0.33703 7.06418 0.348423 7.07662 0.360161C7.12532 0.405685 7.17551 0.449322 7.22603 0.492798C7.27905 0.53925 7.33082 0.587029 7.38266 0.634781C7.44712 0.694135 7.51175 0.753171 7.57797 0.810562C7.65475 0.877101 7.72938 0.945914 7.80411 1.01472C7.85834 1.06458 7.91293 1.11388 7.9686 1.16212C8.04537 1.22866 8.12 1.29748 8.19473 1.36629C8.24897 1.41614 8.30356 1.46544 8.35922 1.51369C8.4265 1.57208 8.49247 1.63179 8.5582 1.69191C8.56795 1.70081 8.57771 1.70971 8.58776 1.71888C8.78536 1.90016 8.78536 1.90016 8.79425 1.98389C8.79802 2.09953 8.7999 2.18431 8.72246 2.27426C8.67686 2.31875 8.63012 2.36109 8.58132 2.40205C8.52546 2.44954 8.47164 2.49909 8.41782 2.54884C8.34147 2.61917 8.26433 2.68838 8.18588 2.75636C8.13231 2.80364 8.07975 2.85201 8.02719 2.90041C7.95083 2.97072 7.8737 3.03994 7.79526 3.10793C7.74168 3.1552 7.68913 3.20357 7.63657 3.25197C7.5602 3.32228 7.48308 3.3915 7.40463 3.45949C7.35105 3.50676 7.2985 3.55513 7.24594 3.60353C7.16922 3.67417 7.09185 3.74386 7.01294 3.81204C6.94363 3.87312 6.87628 3.93636 6.8087 3.99934C6.71682 4.0779 6.64532 4.1148 6.52329 4.12111C6.41451 4.10235 6.36026 4.06797 6.28891 3.98439C6.24927 3.92493 6.24499 3.91402 6.24541 3.84743C6.24542 3.83179 6.24542 3.81615 6.24542 3.80004C6.24562 3.78326 6.24583 3.76647 6.24603 3.74918C6.24612 3.72329 6.24612 3.72329 6.2462 3.69688C6.24642 3.64175 6.24691 3.58663 6.24741 3.53151C6.2476 3.49414 6.24778 3.45677 6.24794 3.4194C6.24837 3.32778 6.24905 3.23616 6.24985 3.14455C6.0717 3.14576 5.89357 3.14727 5.71543 3.14915C5.63266 3.15001 5.54989 3.15078 5.46712 3.15131C5.09971 3.15374 4.73768 3.15739 4.37485 3.22267C4.35035 3.22704 4.32586 3.23142 4.30062 3.23592C4.24072 3.24768 4.1815 3.26083 4.12216 3.27516C4.10121 3.28015 4.08025 3.28515 4.05866 3.29029C3.40621 3.45075 2.78082 3.73129 2.24594 4.14064C2.23476 4.14907 2.22357 4.15749 2.21205 4.16617C2.03797 4.29752 1.87564 4.43864 1.7186 4.58986C1.70326 4.60456 1.70326 4.60456 1.6876 4.61956C1.55063 4.75144 1.42425 4.88794 1.30844 5.03908C1.29832 5.05214 1.2882 5.06521 1.27777 5.07866C1.01556 5.41878 0.807887 5.78188 0.628053 6.1712C0.622168 6.18365 0.616282 6.19609 0.610219 6.20891C0.594243 6.24273 0.578632 6.27673 0.56305 6.31075C0.519822 6.37881 0.481384 6.40832 0.410005 6.44533C0.301933 6.46447 0.205366 6.45941 0.10605 6.41237C0.0424611 6.35204 0.00422058 6.30181 -0.00773335 6.21359C-0.00779943 6.19324 -0.00786552 6.17288 -0.00793362 6.1519C-0.00805478 6.12897 -0.00817595 6.10604 -0.00830078 6.08241C-0.00802855 6.05796 -0.00775633 6.03351 -0.00747585 6.00832C-0.00729175 5.98299 -0.00710764 5.95765 -0.00691795 5.93155C0.000982913 5.41891 0.106272 4.91723 0.273286 4.43361C0.277525 4.42094 0.281764 4.40826 0.286132 4.3952C0.471166 3.84494 0.767655 3.33974 1.13266 2.89064C1.14198 2.87906 1.1513 2.86748 1.16091 2.85555C1.38826 2.57495 1.64525 2.30811 1.93344 2.08986C1.95637 2.07179 1.97928 2.05371 2.00218 2.03561C2.20298 1.8789 2.41513 1.7466 2.63657 1.62111C2.65918 1.60819 2.65918 1.60819 2.68225 1.59502C3.41481 1.18053 4.25201 0.967293 5.09209 0.972763C5.12577 0.972836 5.15945 0.972892 5.19313 0.972931C5.28056 0.973078 5.36799 0.97346 5.45542 0.973896C5.54512 0.9743 5.63482 0.974474 5.72453 0.97467C5.89963 0.975086 6.07474 0.97575 6.24985 0.976578C6.24944 0.952933 6.24903 0.929289 6.24861 0.904928C6.24719 0.816916 6.2463 0.728905 6.24556 0.640884C6.24516 0.602844 6.24463 0.564804 6.24395 0.526768C6.243 0.471979 6.24256 0.417207 6.24222 0.362411C6.24182 0.3455 6.24141 0.328589 6.241 0.311165C6.24096 0.204128 6.25641 0.143416 6.32797 0.058609C6.39769 0.00486756 6.45171 -0.00925197 6.53916 -0.0109711Z" fill="#171717"/>
<path d="M9.91936 3.61085C10.012 3.70348 10.0053 3.79006 10.0064 3.9159C10.0062 3.95282 10.0062 3.95282 10.006 3.99049C10.0059 4.01591 10.0058 4.04133 10.0057 4.06751C9.99818 4.70021 9.84662 5.3401 9.58977 5.91798C9.58252 5.9343 9.57528 5.95062 9.56782 5.96744C9.38186 6.38148 9.15344 6.75727 8.86711 7.10938C8.85297 7.12691 8.85297 7.12691 8.83855 7.14479C8.61604 7.41871 8.36643 7.67608 8.08586 7.89063C8.05655 7.9139 8.05655 7.9139 8.02665 7.93763C7.42913 8.41006 6.73089 8.74156 5.98869 8.91114C5.9689 8.91572 5.9491 8.92029 5.92871 8.92501C5.86021 8.93986 5.79159 8.95263 5.72258 8.96485C5.70138 8.96879 5.70138 8.96879 5.67976 8.97281C5.30113 9.04083 4.91939 9.03038 4.53631 9.02747C4.44738 9.02686 4.35845 9.0266 4.26952 9.02631C4.09632 9.02569 3.92312 9.02469 3.74992 9.02345C3.75033 9.04709 3.75074 9.07073 3.75116 9.0951C3.75258 9.18311 3.75347 9.27112 3.75421 9.35914C3.75461 9.39718 3.75514 9.43522 3.75582 9.47326C3.75677 9.52804 3.75721 9.58282 3.75755 9.63761C3.75795 9.65452 3.75836 9.67143 3.75877 9.68886C3.75881 9.7959 3.74336 9.85661 3.6718 9.94141C3.60208 9.99516 3.54806 10.0093 3.46062 10.011C3.43203 10.0122 3.43203 10.0122 3.40286 10.0135C3.25558 9.98199 3.14291 9.84856 3.03703 9.74732C3.01129 9.72299 2.98552 9.69868 2.95975 9.67439C2.94163 9.6573 2.94163 9.6573 2.92315 9.63986C2.87445 9.59434 2.82426 9.5507 2.77374 9.50723C2.72073 9.46077 2.66895 9.41299 2.61711 9.36524C2.55265 9.30589 2.48802 9.24685 2.4218 9.18946C2.34502 9.12292 2.27039 9.05411 2.19566 8.9853C2.14143 8.93545 2.08684 8.88614 2.03117 8.8379C1.9544 8.77136 1.87977 8.70255 1.80504 8.63374C1.7508 8.58388 1.69621 8.53458 1.64055 8.48634C1.57327 8.42795 1.5073 8.36823 1.44157 8.30811C1.43182 8.29921 1.42206 8.29031 1.41201 8.28114C1.21441 8.09986 1.21441 8.09986 1.20552 8.01614C1.20175 7.90049 1.19987 7.81572 1.27731 7.72576C1.32291 7.68128 1.36965 7.63893 1.41846 7.59797C1.47431 7.55049 1.52813 7.50093 1.58195 7.45118C1.6583 7.38085 1.73544 7.31165 1.81389 7.24366C1.86747 7.19639 1.92002 7.14802 1.97258 7.09962C2.04894 7.0293 2.12607 6.96008 2.20451 6.8921C2.25809 6.84482 2.31064 6.79645 2.3632 6.74805C2.43957 6.67774 2.51669 6.60852 2.59514 6.54054C2.64872 6.49326 2.70127 6.44489 2.75383 6.39649C2.83055 6.32586 2.90792 6.25616 2.98683 6.18798C3.05614 6.12691 3.12349 6.06366 3.19107 6.00068C3.28295 5.92212 3.35445 5.88523 3.47648 5.87891C3.58526 5.89767 3.63951 5.93205 3.71086 6.01563C3.7505 6.0751 3.75478 6.086 3.75436 6.1526C3.75435 6.17605 3.75435 6.17605 3.75435 6.19998C3.75415 6.21677 3.75394 6.23355 3.75374 6.25085C3.75368 6.26811 3.75363 6.28536 3.75357 6.30314C3.75335 6.35827 3.75286 6.41339 3.75236 6.46851C3.75217 6.50589 3.75199 6.54326 3.75183 6.58063C3.7514 6.67225 3.75072 6.76386 3.74992 6.85548C3.92807 6.85427 4.1062 6.85275 4.28434 6.85087C4.36711 6.85001 4.44988 6.84924 4.53265 6.84871C5.05396 6.84527 5.54764 6.81126 6.05461 6.6797C6.07083 6.6755 6.08706 6.6713 6.10377 6.66697C6.76836 6.49071 7.40169 6.16272 7.92961 5.72266C7.94054 5.71372 7.95147 5.70477 7.96273 5.69555C8.22955 5.47691 8.48273 5.2364 8.69133 4.96095C8.70634 4.94152 8.70634 4.94152 8.72165 4.9217C8.98402 4.58148 9.1918 4.21831 9.37172 3.82882C9.38054 3.81016 9.38054 3.81016 9.38955 3.79112C9.40553 3.75729 9.42114 3.72329 9.43672 3.68928C9.48913 3.60676 9.55311 3.56585 9.64592 3.53761C9.75025 3.53343 9.83174 3.55371 9.91936 3.61085Z" fill="#171717"/>
</g>
<defs>
<clipPath id="clip0_287_1995">
<rect width="10" height="10" fill="white"/>
</clipPath>
</defs>
</svg>
