<svg width="10" height="10" viewBox="0 0 10 10" fill="none" xmlns="http://www.w3.org/2000/svg">
<path d="M4.50847 1.00005C4.52591 1.00003 4.54334 1.00002 4.5613 1C4.81681 1.00035 5.06115 1.00941 5.30999 1.07213C5.33423 1.07784 5.33423 1.07784 5.35897 1.08367C5.6063 1.1425 5.83604 1.22692 6.06435 1.3383C6.07845 1.34513 6.09255 1.35196 6.10707 1.359C6.39311 1.49961 6.64862 1.67423 6.88121 1.89264C6.93003 1.9386 6.93003 1.9386 6.98694 1.98257C7.58625 2.46652 7.94437 3.34148 8.0344 4.08609C8.04812 4.22568 8.04446 4.36714 8.04456 4.50733C8.04458 4.52475 8.04459 4.54217 8.04461 4.56012C8.04426 4.81562 8.03562 5.05979 7.97245 5.3086C7.96853 5.32416 7.9646 5.33972 7.96056 5.35574C7.84424 5.80632 7.65722 6.24593 7.3734 6.61725C7.41051 6.71432 7.48325 6.777 7.55583 6.84831C7.56997 6.86239 7.58412 6.87647 7.59869 6.89097C7.6294 6.92149 7.66015 6.95197 7.69095 6.98239C7.73973 7.03059 7.78837 7.07893 7.83698 7.12731C7.95776 7.24747 8.07879 7.36738 8.1998 7.4873C8.30202 7.58861 8.40415 7.69001 8.50615 7.79154C8.554 7.83908 8.60197 7.88648 8.64995 7.93388C8.67942 7.96318 8.70888 7.99248 8.73834 8.0218C8.75164 8.03487 8.76494 8.04794 8.77865 8.0614C8.91354 8.19621 8.99565 8.31146 9 8.50674C8.99842 8.63596 8.98771 8.73369 8.90432 8.83529C8.78372 8.94591 8.68816 8.99381 8.52297 8.99749C8.49886 8.99832 8.47475 8.99915 8.44991 9C8.27245 8.97854 8.15478 8.8752 8.03364 8.75127C8.01868 8.73633 8.00373 8.72139 7.98832 8.706C7.93936 8.657 7.89074 8.6077 7.8421 8.55838C7.80805 8.52418 7.77398 8.48999 7.73989 8.45582C7.65055 8.36617 7.56148 8.27626 7.47246 8.18628C7.38145 8.09439 7.29018 8.00274 7.19894 7.91108C7.02018 7.73143 6.8417 7.55149 6.66341 7.37138C6.57148 7.40642 6.49798 7.45026 6.41657 7.50585C5.92712 7.82893 5.32462 8.03548 4.73572 8.04208C4.71956 8.0423 4.7034 8.04252 4.68676 8.04274C4.32487 8.04662 3.97545 8.04427 3.62376 7.94807C3.60456 7.94284 3.58535 7.9376 3.56557 7.93221C3.15293 7.81522 2.76702 7.6316 2.42565 7.37138C2.39682 7.34955 2.39682 7.34955 2.36741 7.32728C1.63115 6.7534 1.1478 5.92936 1.01594 5.00308C0.997166 4.84784 1.00024 4.69121 1.00012 4.53506C1.0001 4.51763 1.00009 4.5002 1.00007 4.48225C1.00042 4.22673 1.00973 3.98266 1.07223 3.73379C1.07776 3.7099 1.07776 3.7099 1.08341 3.68554C1.14515 3.42124 1.24166 3.17878 1.36066 2.93529C1.37325 2.90947 1.38583 2.88365 1.3988 2.85705C1.53063 2.60061 1.69768 2.37186 1.8942 2.16131C1.92956 2.12321 1.96226 2.0847 1.99438 2.04391C2.60693 1.33735 3.59953 1.00074 4.50847 1.00005ZM2.53658 2.89093C2.25043 3.2386 2.04311 3.68562 1.9819 4.13304C1.97826 4.15821 1.97826 4.15821 1.97454 4.18389C1.89398 4.84214 2.06154 5.53542 2.47002 6.06274C2.54757 6.15512 2.63037 6.24212 2.71408 6.3289C2.72864 6.34486 2.7432 6.36081 2.7582 6.37725C3.18297 6.83008 3.82056 7.05611 4.42978 7.08945C5.12024 7.11149 5.77299 6.85534 6.2773 6.38903C6.78049 5.91061 7.07306 5.26655 7.09163 4.57093C7.0961 3.84138 6.80945 3.19625 6.30425 2.67883C5.83381 2.2103 5.18311 1.95845 4.52234 1.95103C3.73839 1.95983 3.05052 2.30877 2.53658 2.89093Z" fill="#171717"/>
</svg>
