<svg width="57" height="11" viewBox="0 0 57 11" fill="none" xmlns="http://www.w3.org/2000/svg">
<rect width="57" height="11" rx="3" fill="#DA0000"/>
<path d="M9.0037 2.32622C9.0037 2.00083 8.57748 1.87819 8.38975 2.14794C6.66749 4.62295 9.11495 4.73438 9.11495 5.9375C9.11495 6.42463 8.71014 6.81879 8.21314 6.81237C7.72407 6.80621 7.33498 6.40535 7.33498 5.92452V4.75544C7.33498 4.45876 6.96689 4.31479 6.75885 4.52985C6.38659 4.9143 6 5.57288 6 6.375C6 7.82244 7.19773 9 8.66996 9C10.1422 9 11.3399 7.82244 11.3399 6.375C11.3399 4.04682 9.0037 3.73633 9.0037 2.32622Z" fill="white"/>
<path d="M15.462 8V3.62H16.92C17.212 3.62 17.466 3.676 17.682 3.788C17.902 3.9 18.072 4.058 18.192 4.262C18.312 4.462 18.372 4.698 18.372 4.97C18.372 5.242 18.312 5.48 18.192 5.684C18.072 5.884 17.902 6.04 17.682 6.152C17.466 6.264 17.212 6.32 16.92 6.32H16.212V8H15.462ZM16.212 5.66H16.92C17.132 5.66 17.3 5.596 17.424 5.468C17.548 5.34 17.61 5.174 17.61 4.97C17.61 4.766 17.548 4.6 17.424 4.472C17.3 4.344 17.132 4.28 16.92 4.28H16.212V5.66ZM20.0317 8.06C19.6957 8.06 19.4297 7.966 19.2337 7.778C19.0417 7.586 18.9457 7.336 18.9457 7.028C18.9457 6.708 19.0557 6.454 19.2757 6.266C19.4957 6.074 19.7977 5.978 20.1817 5.978H20.9857V5.744C20.9857 5.412 20.7917 5.246 20.4037 5.246C20.2277 5.246 20.0877 5.28 19.9837 5.348C19.8797 5.416 19.8217 5.512 19.8097 5.636H19.0897C19.1057 5.34 19.2297 5.1 19.4617 4.916C19.6977 4.732 20.0137 4.64 20.4097 4.64C20.8297 4.64 21.1557 4.738 21.3877 4.934C21.6197 5.13 21.7357 5.406 21.7357 5.762V8H21.0037V7.382C20.9757 7.594 20.8757 7.76 20.7037 7.88C20.5317 8 20.3077 8.06 20.0317 8.06ZM20.2717 7.448C20.4917 7.448 20.6657 7.394 20.7937 7.286C20.9217 7.178 20.9857 7.034 20.9857 6.854V6.464H20.2177C20.0537 6.464 19.9237 6.51 19.8277 6.602C19.7317 6.694 19.6837 6.812 19.6837 6.956C19.6837 7.104 19.7337 7.224 19.8337 7.316C19.9377 7.404 20.0837 7.448 20.2717 7.448ZM24.0493 8.06C23.7653 8.06 23.5173 8.008 23.3053 7.904C23.0973 7.796 22.9353 7.646 22.8193 7.454C22.7033 7.258 22.6453 7.028 22.6453 6.764V5.936C22.6453 5.672 22.7033 5.444 22.8193 5.252C22.9353 5.056 23.0973 4.906 23.3053 4.802C23.5173 4.694 23.7653 4.64 24.0493 4.64C24.4613 4.64 24.7913 4.748 25.0393 4.964C25.2913 5.176 25.4233 5.466 25.4353 5.834H24.6973C24.6853 5.662 24.6193 5.53 24.4993 5.438C24.3833 5.342 24.2333 5.294 24.0493 5.294C23.8453 5.294 23.6853 5.35 23.5693 5.462C23.4533 5.57 23.3953 5.726 23.3953 5.93V6.764C23.3953 6.968 23.4533 7.126 23.5693 7.238C23.6853 7.35 23.8453 7.406 24.0493 7.406C24.2373 7.406 24.3893 7.36 24.5053 7.268C24.6213 7.172 24.6853 7.038 24.6973 6.866H25.4353C25.4233 7.234 25.2913 7.526 25.0393 7.742C24.7913 7.954 24.4613 8.06 24.0493 8.06ZM26.255 8V4.7H28.931V8H28.181V5.384H27.005V8H26.255ZM29.8526 9.08V4.7H30.5846V5.306C30.6446 5.098 30.7526 4.936 30.9086 4.82C31.0646 4.7 31.2586 4.64 31.4906 4.64C31.7026 4.64 31.8886 4.692 32.0486 4.796C32.2126 4.9 32.3386 5.048 32.4266 5.24C32.5186 5.428 32.5646 5.648 32.5646 5.9V6.794C32.5646 7.174 32.4666 7.48 32.2706 7.712C32.0746 7.944 31.8146 8.06 31.4906 8.06C31.2586 8.06 31.0626 8 30.9026 7.88C30.7466 7.76 30.6386 7.592 30.5786 7.376L30.6026 8.156V9.08H29.8526ZM31.2086 7.412C31.4006 7.412 31.5486 7.36 31.6526 7.256C31.7606 7.152 31.8146 6.992 31.8146 6.776V5.924C31.8146 5.708 31.7606 5.548 31.6526 5.444C31.5486 5.34 31.4006 5.288 31.2086 5.288C31.0166 5.288 30.8666 5.346 30.7586 5.462C30.6546 5.578 30.6026 5.742 30.6026 5.954V6.746C30.6026 6.958 30.6546 7.122 30.7586 7.238C30.8666 7.354 31.0166 7.412 31.2086 7.412ZM34.7883 8.054C34.3643 8.054 34.0283 7.936 33.7803 7.7C33.5323 7.46 33.4083 7.138 33.4083 6.734V5.966C33.4083 5.558 33.5323 5.236 33.7803 5C34.0283 4.764 34.3643 4.646 34.7883 4.646C35.2123 4.646 35.5483 4.764 35.7963 5C36.0443 5.236 36.1683 5.558 36.1683 5.966V6.734C36.1683 7.138 36.0443 7.46 35.7963 7.7C35.5483 7.936 35.2123 8.054 34.7883 8.054ZM34.7883 7.4C34.9883 7.4 35.1423 7.346 35.2503 7.238C35.3623 7.126 35.4183 6.966 35.4183 6.758V5.942C35.4183 5.734 35.3623 5.576 35.2503 5.468C35.1423 5.356 34.9883 5.3 34.7883 5.3C34.5883 5.3 34.4323 5.356 34.3203 5.468C34.2123 5.576 34.1583 5.734 34.1583 5.942V6.758C34.1583 6.966 34.2123 7.126 34.3203 7.238C34.4323 7.346 34.5883 7.4 34.7883 7.4ZM36.7239 8.84V7.358H36.9459C37.0179 7.286 37.0899 7.162 37.1619 6.986C37.2339 6.806 37.2719 6.554 37.2759 6.23L37.2999 4.7H39.6339V7.358H40.0359V8.84H39.3459V8H37.4139V8.84H36.7239ZM37.6899 7.358H38.9199V5.348H37.9959L37.9839 6.236C37.9799 6.548 37.9459 6.796 37.8819 6.98C37.8219 7.16 37.7579 7.286 37.6899 7.358ZM41.6176 8.06C41.2816 8.06 41.0156 7.966 40.8196 7.778C40.6276 7.586 40.5316 7.336 40.5316 7.028C40.5316 6.708 40.6416 6.454 40.8616 6.266C41.0816 6.074 41.3836 5.978 41.7676 5.978H42.5716V5.744C42.5716 5.412 42.3776 5.246 41.9896 5.246C41.8136 5.246 41.6736 5.28 41.5696 5.348C41.4656 5.416 41.4076 5.512 41.3956 5.636H40.6756C40.6916 5.34 40.8156 5.1 41.0476 4.916C41.2836 4.732 41.5996 4.64 41.9956 4.64C42.4156 4.64 42.7416 4.738 42.9736 4.934C43.2056 5.13 43.3216 5.406 43.3216 5.762V8H42.5896V7.382C42.5616 7.594 42.4616 7.76 42.2896 7.88C42.1176 8 41.8936 8.06 41.6176 8.06ZM41.8576 7.448C42.0776 7.448 42.2516 7.394 42.3796 7.286C42.5076 7.178 42.5716 7.034 42.5716 6.854V6.464H41.8036C41.6396 6.464 41.5096 6.51 41.4136 6.602C41.3176 6.694 41.2696 6.812 41.2696 6.956C41.2696 7.104 41.3196 7.224 41.4196 7.316C41.5236 7.404 41.6696 7.448 41.8576 7.448ZM43.7993 8L44.5013 6.302L43.8473 4.7H44.5193L45.0593 6.068H45.3113V4.7H45.8513V6.068H46.1033L46.6733 4.7H47.3153L46.6613 6.284L47.3633 8H46.6973L46.1153 6.56H45.8513V8H45.3113V6.56H45.0473L44.4893 8H43.7993ZM48.8129 8.06C48.4769 8.06 48.2109 7.966 48.0149 7.778C47.8229 7.586 47.7269 7.336 47.7269 7.028C47.7269 6.708 47.8369 6.454 48.0569 6.266C48.2769 6.074 48.5789 5.978 48.9629 5.978H49.7669V5.744C49.7669 5.412 49.5729 5.246 49.1849 5.246C49.0089 5.246 48.8689 5.28 48.7649 5.348C48.6609 5.416 48.6029 5.512 48.5909 5.636H47.8709C47.8869 5.34 48.0109 5.1 48.2429 4.916C48.4789 4.732 48.7949 4.64 49.1909 4.64C49.6109 4.64 49.9369 4.738 50.1689 4.934C50.4009 5.13 50.5169 5.406 50.5169 5.762V8H49.7849V7.382C49.7569 7.594 49.6569 7.76 49.4849 7.88C49.3129 8 49.0889 8.06 48.8129 8.06ZM49.0529 7.448C49.2729 7.448 49.4469 7.394 49.5749 7.286C49.7029 7.178 49.7669 7.034 49.7669 6.854V6.464H48.9989C48.8349 6.464 48.7049 6.51 48.6089 6.602C48.5129 6.694 48.4649 6.812 48.4649 6.956C48.4649 7.104 48.5149 7.224 48.6149 7.316C48.7189 7.404 48.8649 7.448 49.0529 7.448Z" fill="white"/>
</svg>
