<svg width="12" height="12" viewBox="0 0 12 12" fill="none" xmlns="http://www.w3.org/2000/svg">
<g clip-path="url(#clip0_287_2012)">
<path d="M10.8752 0.468752C10.8919 0.481954 10.9087 0.495157 10.9259 0.50876C11.2943 0.812409 11.5781 1.32888 11.6252 1.80469C11.6652 2.43144 11.5617 2.97388 11.1564 3.46875C11.1432 3.48549 11.13 3.50223 11.1164 3.51947C10.8128 3.88783 10.2963 4.17164 9.82049 4.21875C9.17882 4.25976 8.63409 4.14798 8.13949 3.71796C8.09897 3.68146 8.05871 3.64465 8.01883 3.60745C7.96778 3.55928 7.96778 3.55928 7.89862 3.51563C7.53416 3.72775 7.17109 3.94181 6.81104 4.16134C6.78371 4.17801 6.75637 4.19467 6.72903 4.21134C6.71546 4.21961 6.70189 4.22788 6.68791 4.2364C6.52946 4.33289 6.37028 4.42815 6.21112 4.52344C5.9976 4.65131 5.78442 4.7797 5.5718 4.90904C5.46368 4.97481 5.35549 5.04047 5.2473 5.10612C5.21687 5.12458 5.18644 5.14305 5.15602 5.16152C5.05784 5.22111 4.95959 5.28058 4.86125 5.33991C4.82969 5.35897 4.79815 5.37807 4.76663 5.39721C4.72298 5.42371 4.67925 5.45007 4.6355 5.47641C4.59794 5.49912 4.59794 5.49912 4.55963 5.52228C4.50018 5.55469 4.50018 5.55469 4.45331 5.55469C4.46149 5.57844 4.46968 5.60218 4.47812 5.62665C4.4889 5.65832 4.49967 5.69 4.51044 5.72168C4.51852 5.74507 4.51852 5.74507 4.52678 5.76892C4.53199 5.78433 4.5372 5.79974 4.54257 5.81561C4.54736 5.82961 4.55214 5.8436 4.55708 5.85801C4.601 6.01591 4.59823 6.17296 4.59833 6.33545C4.59861 6.36099 4.5989 6.38654 4.5992 6.41286C4.59944 6.547 4.59253 6.6692 4.55716 6.79891C4.54362 6.85133 4.54362 6.85133 4.54706 6.9375C4.56176 6.94479 4.57647 6.95209 4.59163 6.9596C4.85886 7.09225 5.12533 7.22588 5.38877 7.36591C5.529 7.44017 5.67057 7.51147 5.81268 7.58203C5.97296 7.66161 6.13221 7.74268 6.29022 7.82666C6.48155 7.92834 6.67502 8.02535 6.86908 8.1217C7.01955 8.1966 7.16872 8.27354 7.31708 8.35254C7.4849 8.44188 7.65432 8.52472 7.82831 8.60156C7.85174 8.57478 7.85174 8.57478 7.87564 8.54746C8.24016 8.1364 8.70769 7.81444 9.27404 7.7771C9.88606 7.76414 10.3897 7.85246 10.8752 8.25C10.8919 8.2632 10.9087 8.27641 10.9259 8.29001C11.2943 8.59366 11.5781 9.11013 11.6252 9.58594C11.6652 10.2127 11.5617 10.7551 11.1564 11.25C11.1432 11.2667 11.13 11.2835 11.1164 11.3007C10.8128 11.6691 10.2963 11.9529 9.82049 12C9.19374 12.0401 8.65131 11.9365 8.15643 11.5313C8.13969 11.518 8.12296 11.5048 8.10571 11.4912C7.73751 11.1877 7.45333 10.671 7.40643 10.1953C7.40063 10.0976 7.39849 10.0002 7.39764 9.90234C7.39732 9.87844 7.39699 9.85454 7.39665 9.82991C7.39781 9.64052 7.43173 9.46486 7.47674 9.28125C7.45255 9.26925 7.45255 9.26925 7.42787 9.257C7.14567 9.11683 6.86398 8.97618 6.58577 8.82821C6.4247 8.74284 6.26166 8.66165 6.09839 8.58059C5.94082 8.50213 5.78493 8.42092 5.62948 8.33835C5.46699 8.25236 5.30263 8.17037 5.13794 8.08867C4.99404 8.01706 4.85154 7.9432 4.70965 7.86768C4.54084 7.77786 4.37048 7.69447 4.19549 7.61719C4.17933 7.63532 4.16317 7.65344 4.14651 7.67212C3.84766 8.00483 3.53094 8.263 3.09393 8.39063C3.07345 8.39757 3.05296 8.40452 3.03186 8.41168C2.49589 8.56831 1.91007 8.4637 1.42706 8.20474C1.31892 8.14327 1.22125 8.07086 1.12518 7.99219C1.10844 7.97899 1.09171 7.96578 1.07446 7.95218C0.7061 7.64853 0.422294 7.13206 0.375181 6.65625C0.335128 6.0295 0.43866 5.48706 0.843931 4.99219C0.863735 4.96708 0.863735 4.96708 0.88394 4.94147C1.18759 4.57311 1.70406 4.2893 2.17987 4.24219C2.78779 4.20334 3.31454 4.29627 3.79706 4.6875C3.85875 4.74346 3.91962 4.7999 3.97925 4.85806C4.03279 4.908 4.03279 4.908 4.12518 4.89844C4.18201 4.86953 4.23506 4.83945 4.28924 4.80615C4.30639 4.79585 4.32353 4.78554 4.34119 4.77493C4.40214 4.7382 4.46288 4.70114 4.52362 4.66406C4.57223 4.63451 4.62084 4.60497 4.66946 4.57544C4.75098 4.52592 4.83249 4.47638 4.91395 4.42676C5.1267 4.29731 5.34055 4.16981 5.55487 4.04297C5.82344 3.884 6.0909 3.72331 6.35745 3.56098C6.53488 3.45293 6.7127 3.34559 6.89105 3.23907C6.98635 3.18207 7.08127 3.12451 7.17572 3.0661C7.19528 3.05403 7.21484 3.04196 7.23499 3.02952C7.27222 3.00648 7.3094 2.98336 7.34652 2.96014C7.47157 2.88281 7.47157 2.88281 7.52362 2.88281C7.51516 2.85605 7.5067 2.82928 7.49798 2.8017C7.32105 2.20085 7.36708 1.60314 7.66263 1.05189C7.7241 0.943743 7.79651 0.846067 7.87518 0.750002C7.88838 0.733264 7.90159 0.716526 7.91519 0.699281C8.6407 -0.180848 10.0196 -0.231908 10.8752 0.468752Z" fill="#005864"/>
</g>
<defs>
<clipPath id="clip0_287_2012">
<rect width="12" height="12" fill="white"/>
</clipPath>
</defs>
</svg>
