<svg width="91" height="15" viewBox="0 0 91 15" fill="none" xmlns="http://www.w3.org/2000/svg">
<rect width="91" height="15" rx="5" fill="#171717"/>
<path d="M22.8 10.06C22.392 10.06 22.07 9.944 21.834 9.712C21.598 9.476 21.48 9.146 21.48 8.722V6.898C21.48 6.474 21.598 6.146 21.834 5.914C22.07 5.678 22.392 5.56 22.8 5.56C23.208 5.56 23.53 5.678 23.766 5.914C24.002 6.146 24.12 6.472 24.12 6.892V8.722C24.12 9.146 24.002 9.476 23.766 9.712C23.53 9.944 23.208 10.06 22.8 10.06ZM22.8 9.484C23.016 9.484 23.182 9.424 23.298 9.304C23.414 9.184 23.472 9.01 23.472 8.782V6.838C23.472 6.61 23.414 6.436 23.298 6.316C23.186 6.196 23.02 6.136 22.8 6.136C22.58 6.136 22.412 6.196 22.296 6.316C22.184 6.436 22.128 6.61 22.128 6.838V8.782C22.128 9.01 22.186 9.184 22.302 9.304C22.418 9.424 22.584 9.484 22.8 9.484ZM26.0737 11.08V10C25.8337 9.992 25.6217 9.934 25.4377 9.826C25.2577 9.718 25.1157 9.57 25.0117 9.382C24.9117 9.194 24.8617 8.978 24.8617 8.734V7.954C24.8617 7.714 24.9117 7.502 25.0117 7.318C25.1157 7.13 25.2577 6.982 25.4377 6.874C25.6217 6.766 25.8337 6.708 26.0737 6.7V5.62H26.7217V6.7C26.9617 6.708 27.1717 6.766 27.3517 6.874C27.5357 6.982 27.6777 7.13 27.7777 7.318C27.8817 7.502 27.9337 7.714 27.9337 7.954V8.734C27.9337 8.978 27.8817 9.194 27.7777 9.382C27.6777 9.57 27.5357 9.718 27.3517 9.826C27.1717 9.934 26.9617 9.992 26.7217 10V11.08H26.0737ZM26.1397 9.502V7.198C25.9237 7.198 25.7537 7.262 25.6297 7.39C25.5097 7.518 25.4497 7.692 25.4497 7.912V8.776C25.4497 9 25.5097 9.178 25.6297 9.31C25.7537 9.438 25.9237 9.502 26.1397 9.502ZM26.6557 9.502C26.8717 9.502 27.0397 9.438 27.1597 9.31C27.2837 9.178 27.3457 9 27.3457 8.776V7.912C27.3457 7.692 27.2837 7.518 27.1597 7.39C27.0397 7.262 26.8717 7.198 26.6557 7.198V9.502ZM29.9953 10.054C29.5873 10.054 29.2613 9.936 29.0173 9.7C28.7773 9.464 28.6573 9.142 28.6573 8.734V7.966C28.6573 7.554 28.7773 7.232 29.0173 7C29.2573 6.764 29.5833 6.646 29.9953 6.646C30.4073 6.646 30.7333 6.764 30.9733 7C31.2133 7.232 31.3333 7.554 31.3333 7.966V8.734C31.3333 9.142 31.2113 9.464 30.9673 9.7C30.7273 9.936 30.4033 10.054 29.9953 10.054ZM29.9953 9.484C30.2113 9.484 30.3793 9.424 30.4993 9.304C30.6233 9.18 30.6853 9.004 30.6853 8.776V7.924C30.6853 7.696 30.6233 7.522 30.4993 7.402C30.3793 7.278 30.2113 7.216 29.9953 7.216C29.7793 7.216 29.6093 7.278 29.4853 7.402C29.3653 7.522 29.3053 7.696 29.3053 7.924V8.776C29.3053 9.004 29.3653 9.18 29.4853 9.304C29.6093 9.424 29.7793 9.484 29.9953 9.484ZM32.297 11.08V6.7H32.939V7.324C32.983 7.108 33.083 6.94 33.239 6.82C33.399 6.7 33.599 6.64 33.839 6.64C34.167 6.64 34.429 6.754 34.625 6.982C34.821 7.206 34.919 7.506 34.919 7.882V8.812C34.919 9.192 34.821 9.496 34.625 9.724C34.429 9.948 34.167 10.06 33.839 10.06C33.599 10.06 33.399 9.998 33.239 9.874C33.079 9.746 32.977 9.572 32.933 9.352H32.927L32.945 10.138V11.08H32.297ZM33.611 9.496C33.819 9.496 33.981 9.442 34.097 9.334C34.213 9.222 34.271 9.044 34.271 8.8V7.894C34.271 7.654 34.213 7.48 34.097 7.372C33.981 7.26 33.819 7.204 33.611 7.204C33.403 7.204 33.239 7.268 33.119 7.396C33.003 7.52 32.945 7.696 32.945 7.924V8.77C32.945 9.002 33.003 9.182 33.119 9.31C33.239 9.434 33.403 9.496 33.611 9.496ZM35.7686 10V6.7H36.5966L37.1786 8.284L37.7726 6.7H38.6126V10H38.0066V9.46C38.0066 9.144 38.0066 8.834 38.0066 8.53C38.0106 8.222 38.0166 7.938 38.0246 7.678C38.0366 7.414 38.0566 7.19 38.0846 7.006L37.4486 8.764H36.9026L36.2906 7.102C36.3346 7.35 36.3586 7.68 36.3626 8.092C36.3706 8.5 36.3746 8.956 36.3746 9.46V10H35.7686ZM39.4923 10V6.7H40.0923V8.386C40.0923 8.562 40.0883 8.746 40.0803 8.938C40.0723 9.13 40.0523 9.292 40.0203 9.424L41.2863 6.7H42.0843V10H41.4843V8.314C41.4843 8.134 41.4863 7.952 41.4903 7.768C41.4983 7.584 41.5203 7.43 41.5563 7.306L40.2903 10H39.4923ZM44.0619 10V7.288H42.8979V6.7H45.8739V7.288H44.7099V10H44.0619ZM46.7596 10V6.7H47.4076V7.846H48.2896C48.6736 7.846 48.9756 7.942 49.1956 8.134C49.4156 8.326 49.5256 8.59 49.5256 8.926C49.5256 9.258 49.4136 9.52 49.1896 9.712C48.9696 9.904 48.6696 10 48.2896 10H46.7596ZM47.4076 9.424H48.2716C48.4636 9.424 48.6096 9.382 48.7096 9.298C48.8136 9.21 48.8656 9.084 48.8656 8.92C48.8656 8.76 48.8136 8.638 48.7096 8.554C48.6096 8.466 48.4636 8.422 48.2716 8.422H47.4076V9.424ZM53.8829 10V6.7H56.4749V10H55.8269V7.288H54.5309V10H53.8829ZM58.7766 10.054C58.3686 10.054 58.0426 9.936 57.7986 9.7C57.5586 9.464 57.4386 9.142 57.4386 8.734V7.966C57.4386 7.554 57.5586 7.232 57.7986 7C58.0386 6.764 58.3646 6.646 58.7766 6.646C59.1886 6.646 59.5146 6.764 59.7546 7C59.9946 7.232 60.1146 7.554 60.1146 7.966V8.734C60.1146 9.142 59.9926 9.464 59.7486 9.7C59.5086 9.936 59.1846 10.054 58.7766 10.054ZM58.7766 9.484C58.9926 9.484 59.1606 9.424 59.2806 9.304C59.4046 9.18 59.4666 9.004 59.4666 8.776V7.924C59.4666 7.696 59.4046 7.522 59.2806 7.402C59.1606 7.278 58.9926 7.216 58.7766 7.216C58.5606 7.216 58.3906 7.278 58.2666 7.402C58.1466 7.522 58.0866 7.696 58.0866 7.924V8.776C58.0866 9.004 58.1466 9.18 58.2666 9.304C58.3906 9.424 58.5606 9.484 58.7766 9.484ZM60.7242 10.84V9.436H60.9582C61.0342 9.364 61.1082 9.236 61.1802 9.052C61.2522 8.868 61.2922 8.588 61.3002 8.212L61.3242 6.7H63.5862V9.436H64.0062V10.84H63.4182V10H61.3122V10.84H60.7242ZM61.6062 9.436H62.9562V7.258H61.9302L61.9182 8.218C61.9102 8.586 61.8742 8.864 61.8102 9.052C61.7462 9.24 61.6782 9.368 61.6062 9.436ZM64.6759 10V6.7H67.2679V10H66.6199V7.288H65.3239V10H64.6759ZM68.2735 10V6.7H68.8735V8.386C68.8735 8.562 68.8695 8.746 68.8615 8.938C68.8535 9.13 68.8335 9.292 68.8015 9.424L70.0675 6.7H70.8655V10H70.2655V8.314C70.2655 8.134 70.2675 7.952 70.2715 7.768C70.2795 7.584 70.3015 7.43 70.3375 7.306L69.0715 10H68.2735ZM73.2152 10.06C72.8032 10.06 72.4732 9.946 72.2252 9.718C71.9772 9.49 71.8532 9.178 71.8532 8.782V7.918C71.8532 7.522 71.9772 7.21 72.2252 6.982C72.4732 6.754 72.8032 6.64 73.2152 6.64C73.6152 6.64 73.9352 6.744 74.1752 6.952C74.4152 7.16 74.5432 7.444 74.5592 7.804H73.9172C73.9052 7.616 73.8352 7.47 73.7072 7.366C73.5832 7.262 73.4192 7.21 73.2152 7.21C72.9952 7.21 72.8212 7.272 72.6932 7.396C72.5652 7.516 72.5012 7.688 72.5012 7.912V8.782C72.5012 9.01 72.5652 9.186 72.6932 9.31C72.8212 9.43 72.9952 9.49 73.2152 9.49C73.4232 9.49 73.5892 9.438 73.7132 9.334C73.8372 9.23 73.9052 9.082 73.9172 8.89H74.5592C74.5432 9.25 74.4152 9.536 74.1752 9.748C73.9352 9.956 73.6152 10.06 73.2152 10.06ZM75.5288 10V6.7H76.1768V8.014H76.7648L77.5928 6.7H78.3248L77.3168 8.29L78.3848 10H77.6408L76.7648 8.602H76.1768V10H75.5288ZM79.5885 11.08L80.0685 9.808L78.8325 6.7H79.5225L80.2245 8.56C80.2605 8.648 80.2945 8.744 80.3265 8.848C80.3585 8.952 80.3805 9.044 80.3925 9.124C80.4085 9.044 80.4305 8.952 80.4585 8.848C80.4905 8.744 80.5225 8.648 80.5545 8.56L81.2085 6.7H81.8925L80.2665 11.08H79.5885Z" fill="white"/>
<path d="M12.7632 5.43982L14.3506 7.87965L16.335 6.2531L15.5412 10.3195H9.98513L9.19141 6.2531L11.1757 7.87965L12.7632 5.43982Z" stroke="white" stroke-linecap="round" stroke-linejoin="round"/>
</svg>
