<svg width="126" height="33" viewBox="0 0 126 33" fill="none" xmlns="http://www.w3.org/2000/svg">
<rect width="126" height="33" rx="10" fill="#FFCC00"/>
<path d="M25.19 21V10.78H28.2C29.1613 10.78 29.9173 11.018 30.468 11.494C31.028 11.9607 31.308 12.6047 31.308 13.426C31.308 13.9673 31.1447 14.4433 30.818 14.854C30.4913 15.2553 30.0667 15.5027 29.544 15.596V15.638C29.936 15.6847 30.2813 15.8247 30.58 16.058C30.888 16.2913 31.126 16.5853 31.294 16.94C31.462 17.2947 31.546 17.6913 31.546 18.13C31.546 19.0073 31.2613 19.7073 30.692 20.23C30.1227 20.7433 29.3573 21 28.396 21H25.19ZM26.66 15.064H28.186C28.6807 15.064 29.0727 14.9333 29.362 14.672C29.6607 14.4013 29.81 14.0327 29.81 13.566C29.81 13.1087 29.6653 12.7493 29.376 12.488C29.0867 12.2173 28.6947 12.082 28.2 12.082H26.66V15.064ZM26.66 19.698H28.27C28.8207 19.698 29.2547 19.5533 29.572 19.264C29.8893 18.9653 30.048 18.564 30.048 18.06C30.048 17.5373 29.8893 17.1173 29.572 16.8C29.2547 16.4827 28.8207 16.324 28.27 16.324H26.66V19.698ZM42.1051 21V13.3H43.6171V16.366H44.9891L46.9211 13.3H48.6291L46.2771 17.01L48.7691 21H47.0331L44.9891 17.738H43.6171V21H42.1051ZM53.3836 21.126C52.4316 21.126 51.6709 20.8507 51.1016 20.3C50.5416 19.7493 50.2616 18.998 50.2616 18.046V16.254C50.2616 15.2927 50.5416 14.5413 51.1016 14C51.6616 13.4493 52.4223 13.174 53.3836 13.174C54.3449 13.174 55.1056 13.4493 55.6656 14C56.2256 14.5413 56.5056 15.2927 56.5056 16.254V18.046C56.5056 18.998 56.2209 19.7493 55.6516 20.3C55.0916 20.8507 54.3356 21.126 53.3836 21.126ZM53.3836 19.796C53.8876 19.796 54.2796 19.656 54.5596 19.376C54.8489 19.0867 54.9936 18.676 54.9936 18.144V16.156C54.9936 15.624 54.8489 15.218 54.5596 14.938C54.2796 14.6487 53.8876 14.504 53.3836 14.504C52.8796 14.504 52.4829 14.6487 52.1936 14.938C51.9136 15.218 51.7736 15.624 51.7736 16.156V18.144C51.7736 18.676 51.9136 19.0867 52.1936 19.376C52.4829 19.656 52.8796 19.796 53.3836 19.796ZM58.7541 23.52V13.3H60.2521V14.756C60.3548 14.252 60.5881 13.86 60.9521 13.58C61.3255 13.3 61.7921 13.16 62.3521 13.16C63.1175 13.16 63.7288 13.426 64.1861 13.958C64.6435 14.4807 64.8721 15.1807 64.8721 16.058V18.228C64.8721 19.1147 64.6435 19.824 64.1861 20.356C63.7288 20.8787 63.1175 21.14 62.3521 21.14C61.7921 21.14 61.3255 20.9953 60.9521 20.706C60.5788 20.4073 60.3408 20.0013 60.2381 19.488H60.2241L60.2661 21.322V23.52H58.7541ZM61.8201 19.824C62.3055 19.824 62.6835 19.698 62.9541 19.446C63.2248 19.1847 63.3601 18.7693 63.3601 18.2V16.086C63.3601 15.526 63.2248 15.12 62.9541 14.868C62.6835 14.6067 62.3055 14.476 61.8201 14.476C61.3348 14.476 60.9521 14.6253 60.6721 14.924C60.4015 15.2133 60.2661 15.624 60.2661 16.156V18.13C60.2661 18.6713 60.4015 19.0913 60.6721 19.39C60.9521 19.6793 61.3348 19.824 61.8201 19.824ZM69.6547 21.098C68.7867 21.098 68.096 20.8973 67.5827 20.496C67.0693 20.0853 66.8127 19.5347 66.8127 18.844H68.2967C68.2967 19.1427 68.418 19.3807 68.6607 19.558C68.9127 19.726 69.244 19.81 69.6547 19.81H70.4807C70.9193 19.81 71.2647 19.7167 71.5167 19.53C71.7687 19.334 71.8947 19.0727 71.8947 18.746C71.8947 18.41 71.7687 18.144 71.5167 17.948C71.2647 17.752 70.9193 17.654 70.4807 17.654H68.7447V16.408H70.4247C70.826 16.408 71.1433 16.3193 71.3767 16.142C71.61 15.9647 71.7267 15.7267 71.7267 15.428C71.7267 15.1293 71.6053 14.896 71.3627 14.728C71.1293 14.5507 70.8167 14.462 70.4247 14.462H69.7387C69.356 14.462 69.0527 14.5367 68.8287 14.686C68.6047 14.826 68.488 15.022 68.4787 15.274H66.9807C66.99 14.6393 67.242 14.1353 67.7367 13.762C68.2313 13.3887 68.8987 13.202 69.7387 13.202H70.4247C71.2833 13.202 71.9693 13.3793 72.4827 13.734C72.996 14.0887 73.2527 14.5787 73.2527 15.204C73.2527 15.6427 73.0987 16.0067 72.7907 16.296C72.492 16.5853 72.1047 16.744 71.6287 16.772V16.842C72.1887 16.8793 72.632 17.0753 72.9587 17.43C73.2853 17.7753 73.4487 18.2233 73.4487 18.774C73.4487 19.474 73.178 20.0387 72.6367 20.468C72.1047 20.888 71.386 21.098 70.4807 21.098H69.6547ZM75.5432 21V13.3H76.9432V17.234C76.9432 17.6447 76.9339 18.074 76.9152 18.522C76.8965 18.97 76.8499 19.348 76.7752 19.656L79.7292 13.3H81.5912V21H80.1912V17.066C80.1912 16.646 80.1959 16.2213 80.2052 15.792C80.2239 15.3627 80.2752 15.0033 80.3592 14.714L77.4052 21H75.5432ZM83.9377 21V13.3H85.4497V16.366H88.4737V13.3H89.9857V21H88.4737V17.738H85.4497V21H83.9377ZM93.5503 23.52L94.6703 20.552L91.7863 13.3H93.3963L95.0343 17.64C95.1183 17.8453 95.1976 18.0693 95.2722 18.312C95.3469 18.5547 95.3983 18.7693 95.4263 18.956C95.4636 18.7693 95.5149 18.5547 95.5803 18.312C95.6549 18.0693 95.7296 17.8453 95.8043 17.64L97.3303 13.3H98.9263L95.1323 23.52H93.5503Z" fill="#171717"/>
</svg>
