<svg width="44" height="44" viewBox="0 0 44 44" fill="none" xmlns="http://www.w3.org/2000/svg">
<rect width="44" height="44" rx="8" fill="#EBEBEB"/>
<path d="M16.5848 17.9009C16.8004 18.0212 16.9209 18.1696 16.9998 18.4063C17.0034 18.4604 17.0049 18.5148 17.005 18.569C17.0052 18.6024 17.0054 18.6357 17.0055 18.67C17.0055 18.725 17.0055 18.725 17.0055 18.781C17.0057 18.8394 17.0057 18.8394 17.0059 18.8989C17.0063 19.0299 17.0065 19.1609 17.0066 19.2919C17.0069 19.3856 17.0071 19.4792 17.0074 19.5729C17.008 19.775 17.0085 19.977 17.0088 20.1791C17.0094 20.4717 17.0102 20.7642 17.0111 21.0568C17.0126 21.532 17.0139 22.0073 17.0152 22.4825C17.0153 22.511 17.0153 22.5394 17.0154 22.5687C17.0165 22.9721 17.0174 23.3754 17.0183 23.7787C17.0183 23.8071 17.0184 23.8354 17.0185 23.8647C17.0185 23.893 17.0186 23.9213 17.0187 23.9505C17.0197 24.4236 17.021 24.8967 17.0226 25.3699C17.0235 25.6354 17.0242 25.9009 17.0246 26.1665C17.025 26.4164 17.0257 26.6663 17.0266 26.9162C17.0269 27.0078 17.0271 27.0995 17.0271 27.1911C17.0271 27.3164 17.0277 27.4417 17.0283 27.5671C17.0282 27.6031 17.0281 27.6391 17.028 27.6762C17.0317 28.1548 17.1523 28.5777 17.4393 28.9678C17.8257 29.3366 18.2937 29.4655 18.8175 29.4662C18.8459 29.4663 18.8742 29.4663 18.9034 29.4664C18.9977 29.4667 19.0921 29.4666 19.1864 29.4666C19.2543 29.4667 19.3222 29.4669 19.3901 29.467C19.5741 29.4674 19.7582 29.4675 19.9422 29.4675C20.0573 29.4675 20.1724 29.4676 20.2875 29.4677C20.6894 29.4681 21.0913 29.4682 21.4931 29.4682C21.8672 29.4682 22.2412 29.4686 22.6153 29.4692C22.9369 29.4697 23.2585 29.4699 23.5802 29.4699C23.772 29.4699 23.9639 29.47 24.1558 29.4704C24.3363 29.4708 24.5169 29.4708 24.6974 29.4705C24.7634 29.4705 24.8295 29.4705 24.8955 29.4708C25.3223 29.4722 25.7262 29.4729 26.1136 29.2705C26.1702 29.2417 26.1702 29.2417 26.2279 29.2122C26.5954 28.9949 26.8011 28.6544 26.9217 28.25C26.9616 28.0258 26.9664 27.8087 26.9662 27.5819C26.9663 27.5428 26.9664 27.5036 26.9665 27.4633C26.9668 27.3324 26.9669 27.2016 26.9669 27.0707C26.9671 26.9768 26.9673 26.8828 26.9675 26.7889C26.968 26.5867 26.9683 26.3846 26.9686 26.1824C26.969 25.8629 26.9698 25.5433 26.9706 25.2237C26.9709 25.1143 26.9712 25.0049 26.9715 24.8955C26.9716 24.8545 26.9716 24.8545 26.9717 24.8126C26.9725 24.5017 26.9733 24.1908 26.974 23.8799C26.974 23.8515 26.9741 23.8231 26.9742 23.7939C26.9752 23.3332 26.9759 22.8725 26.9766 22.4118C26.9773 21.9385 26.9784 21.4652 26.9799 20.9919C26.9808 20.7001 26.9814 20.4083 26.9814 20.1166C26.9815 19.8931 26.9822 19.6696 26.9831 19.4461C26.9834 19.3544 26.9835 19.2627 26.9834 19.171C26.9832 19.046 26.9838 18.921 26.9845 18.7959C26.9843 18.7596 26.9841 18.7232 26.9839 18.6857C26.9865 18.4312 27.0361 18.2689 27.2025 18.0693C27.4376 17.8708 27.6391 17.7922 27.95 17.8055C28.2174 17.8434 28.3841 17.9727 28.5535 18.1766C28.6942 18.3922 28.6908 18.5897 28.69 18.8395C28.6902 18.8796 28.6903 18.9196 28.6905 18.9609C28.691 19.0953 28.6909 19.2297 28.6909 19.3642C28.6911 19.4605 28.6914 19.5568 28.6917 19.6531C28.6923 19.8878 28.6925 20.1225 28.6926 20.3572C28.6926 20.5482 28.6928 20.7392 28.693 20.9303C28.6937 21.4726 28.6941 22.015 28.694 22.5574C28.694 22.5866 28.694 22.6158 28.694 22.646C28.694 22.6752 28.694 22.7045 28.694 22.7347C28.694 23.208 28.6947 23.6812 28.6958 24.1545C28.6969 24.6413 28.6975 25.128 28.6974 25.6148C28.6974 25.8877 28.6976 26.1607 28.6984 26.4336C28.6992 26.6908 28.6992 26.9479 28.6986 27.205C28.6986 27.299 28.6987 27.393 28.6992 27.4869C28.7044 28.577 28.4854 29.4804 27.7024 30.2881C27.1259 30.8526 26.3176 31.1856 25.5136 31.1854C25.4826 31.1856 25.4516 31.1857 25.4197 31.1859C25.3161 31.1863 25.2126 31.1865 25.1091 31.1866C25.0347 31.1869 24.9603 31.1871 24.8859 31.1874C24.6418 31.1882 24.3977 31.1886 24.1536 31.189C24.0694 31.1892 23.9851 31.1893 23.9008 31.1895C23.5046 31.1902 23.1085 31.1908 22.7123 31.1911C22.2563 31.1915 21.8002 31.1925 21.3442 31.1941C20.9909 31.1953 20.6377 31.1959 20.2845 31.196C20.0739 31.1961 19.8633 31.1964 19.6527 31.1974C19.4542 31.1983 19.2557 31.1985 19.0572 31.1981C18.9848 31.1981 18.9125 31.1983 18.8401 31.1988C17.8247 31.206 16.9548 30.9229 16.2117 30.2025C15.6155 29.5936 15.3142 28.7689 15.3144 27.9269C15.3143 27.8865 15.3141 27.8462 15.314 27.8046C15.3135 27.6695 15.3134 27.5344 15.3132 27.3993C15.313 27.3024 15.3127 27.2055 15.3125 27.1086C15.3117 26.818 15.3113 26.5273 15.311 26.2367C15.3108 26.0997 15.3106 25.9628 15.3104 25.8258C15.3097 25.3703 15.3091 24.9149 15.3089 24.4594C15.3088 24.3413 15.3087 24.2233 15.3086 24.1052C15.3086 24.0759 15.3086 24.0465 15.3086 24.0163C15.3082 23.5408 15.3073 23.0652 15.306 22.5897C15.3047 22.1011 15.304 21.6126 15.3039 21.124C15.3038 20.8498 15.3034 20.5756 15.3024 20.3014C15.3015 20.0436 15.3014 19.7858 15.3018 19.5279C15.3018 19.4333 15.3015 19.3387 15.301 19.2441C15.3003 19.1149 15.3006 18.9857 15.3011 18.8565C15.3007 18.8191 15.3002 18.7817 15.2998 18.7432C15.3024 18.4702 15.3644 18.2627 15.5446 18.0538C15.5664 18.0364 15.5882 18.0189 15.6107 18.001C15.6324 17.983 15.6541 17.9649 15.6764 17.9464C15.958 17.7625 16.2833 17.7639 16.5848 17.9009Z" fill="#171717"/>
<path d="M19.4945 12.8099C19.5403 12.8095 19.5861 12.8092 19.6334 12.8089C19.7083 12.8089 19.7083 12.8089 19.7847 12.809C19.8381 12.8087 19.8915 12.8085 19.9449 12.8082C20.0897 12.8075 20.2345 12.8073 20.3793 12.8072C20.4698 12.8072 20.5604 12.807 20.651 12.8068C20.9671 12.8061 21.2833 12.8058 21.5995 12.8058C21.8938 12.8059 22.1881 12.8051 22.4824 12.8038C22.7354 12.8028 22.9885 12.8024 23.2415 12.8024C23.3924 12.8025 23.5434 12.8022 23.6944 12.8014C23.8364 12.8006 23.9785 12.8006 24.1206 12.8012C24.1972 12.8013 24.2738 12.8007 24.3505 12.8C24.6877 12.8024 24.9077 12.8407 25.1566 13.084C25.3485 13.3692 25.376 13.6121 25.3707 13.947C25.3705 13.9865 25.3703 14.0259 25.3702 14.0665C25.3695 14.1915 25.368 14.3164 25.3665 14.4414C25.366 14.5265 25.3654 14.6117 25.3649 14.6968C25.3637 14.9047 25.3617 15.1125 25.3592 15.3203C25.424 15.3197 25.424 15.3197 25.4901 15.319C25.8981 15.315 26.3061 15.3121 26.7141 15.3102C26.9239 15.3092 27.1336 15.3078 27.3433 15.3056C27.546 15.3034 27.7486 15.3023 27.9512 15.3018C28.0283 15.3014 28.1054 15.3007 28.1825 15.2997C28.9867 15.2891 28.9867 15.2891 29.2655 15.5156C29.4925 15.7586 29.5182 15.9912 29.5159 16.3127C29.4888 16.5496 29.3804 16.706 29.2018 16.8593C29.0311 16.98 28.8888 17.0049 28.6844 17.0052C28.6121 17.0055 28.6121 17.0055 28.5383 17.0058C28.4845 17.0058 28.4307 17.0058 28.3769 17.0057C28.32 17.0059 28.2631 17.006 28.2062 17.0062C28.0494 17.0066 27.8926 17.0067 27.7358 17.0068C27.5669 17.007 27.3979 17.0073 27.2289 17.0077C26.8207 17.0085 26.4125 17.0089 26.0043 17.0092C25.8121 17.0094 25.6199 17.0096 25.4277 17.0098C24.789 17.0105 24.1503 17.011 23.5116 17.0113C23.3458 17.0114 23.18 17.0115 23.0142 17.0115C22.9524 17.0116 22.9524 17.0116 22.8893 17.0116C22.2217 17.0119 21.554 17.0129 20.8864 17.0142C20.2011 17.0155 19.5159 17.0162 18.8306 17.0163C18.4458 17.0164 18.061 17.0167 17.6762 17.0177C17.3484 17.0186 17.0207 17.0189 16.693 17.0185C16.5258 17.0183 16.3586 17.0184 16.1914 17.0192C16.0383 17.0198 15.8852 17.0198 15.732 17.0192C15.6767 17.0191 15.6214 17.0193 15.566 17.0197C15.2588 17.0221 15.0344 17.0132 14.7733 16.8437C14.6929 16.7643 14.6929 16.7643 14.639 16.6851C14.6113 16.6457 14.6113 16.6457 14.583 16.6056C14.4571 16.3934 14.4837 16.1445 14.4998 15.9062C14.58 15.67 14.7352 15.5117 14.9531 15.3937C15.1321 15.307 15.2866 15.2991 15.483 15.3026C15.5345 15.3025 15.5345 15.3025 15.5871 15.3025C15.6995 15.3026 15.812 15.3038 15.9244 15.3051C16.0028 15.3053 16.0812 15.3056 16.1595 15.3057C16.365 15.3063 16.5705 15.3079 16.776 15.3096C16.986 15.3112 17.196 15.3119 17.406 15.3127C17.8175 15.3144 18.229 15.317 18.6405 15.3203C18.6401 15.2963 18.6397 15.2723 18.6393 15.2475C18.6358 15.023 18.6336 14.7986 18.6319 14.5741C18.6311 14.4896 18.63 14.4051 18.6287 14.3206C18.6268 14.1986 18.6259 14.0767 18.6252 13.9546C18.6244 13.9174 18.6236 13.8801 18.6228 13.8417C18.6227 13.5574 18.669 13.275 18.8651 13.0567C19.0552 12.882 19.2351 12.8107 19.4945 12.8099ZM20.3592 14.5C20.3592 14.7707 20.3592 15.0414 20.3592 15.3203C21.442 15.3203 22.5248 15.3203 23.6405 15.3203C23.6405 15.0496 23.6405 14.7789 23.6405 14.5C22.5577 14.5 21.4748 14.5 20.3592 14.5Z" fill="#171717"/>
<path d="M24.053 19.5368C24.2559 19.6591 24.4105 19.8258 24.5 20.0469C24.5102 20.1652 24.5102 20.1652 24.5109 20.3065C24.5112 20.3326 24.5114 20.3586 24.5116 20.3854C24.5123 20.4727 24.5124 20.5599 24.5126 20.6471C24.5129 20.7097 24.5133 20.7722 24.5137 20.8348C24.5148 21.0048 24.5153 21.1748 24.5156 21.3447C24.5158 21.451 24.5162 21.5573 24.5165 21.6636C24.5176 21.9962 24.5183 22.3289 24.5186 22.6616C24.519 23.0453 24.5203 23.4289 24.5226 23.8126C24.5243 24.1093 24.5251 24.4061 24.5252 24.7029C24.5253 24.8801 24.5257 25.0572 24.5271 25.2343C24.5284 25.4011 24.5286 25.5678 24.5279 25.7346C24.5278 25.7956 24.5282 25.8566 24.529 25.9176C24.5331 26.2661 24.5197 26.5424 24.2656 26.8047C24.007 27.0264 23.7327 27.0221 23.4062 27C23.1685 26.9194 23.0302 26.769 22.8939 26.5621C22.7744 26.3146 22.7982 26.0405 22.7994 25.772C22.7992 25.711 22.7988 25.65 22.7984 25.589C22.7975 25.4241 22.7977 25.2591 22.798 25.0941C22.7982 24.9561 22.7979 24.8181 22.7976 24.68C22.797 24.3542 22.7971 24.0284 22.7978 23.7026C22.7984 23.3672 22.7978 23.0318 22.7965 22.6964C22.7955 22.4077 22.7952 22.1191 22.7955 21.8305C22.7957 21.6584 22.7957 21.4863 22.7949 21.3142C22.7941 21.1523 22.7944 20.9904 22.7953 20.8285C22.7955 20.7693 22.7954 20.7101 22.7949 20.651C22.7923 20.3121 22.8074 20.0169 23.0156 19.7344C23.2898 19.4751 23.697 19.4058 24.053 19.5368Z" fill="#171717"/>
<path d="M20.3156 19.4878C20.3622 19.4871 20.4088 19.4865 20.4569 19.4858C20.7048 19.5115 20.8652 19.6249 21.0236 19.8125C21.2151 20.1032 21.2023 20.3917 21.2007 20.728C21.2009 20.789 21.2013 20.85 21.2017 20.911C21.2025 21.0759 21.2024 21.2409 21.2021 21.4059C21.2019 21.5439 21.2022 21.6819 21.2025 21.82C21.2031 22.1458 21.203 22.4716 21.2023 22.7974C21.2017 23.1328 21.2023 23.4682 21.2036 23.8036C21.2046 24.0923 21.2049 24.3809 21.2045 24.6695C21.2044 24.8416 21.2044 25.0137 21.2052 25.1858C21.206 25.3477 21.2057 25.5096 21.2048 25.6715C21.2046 25.7307 21.2047 25.7899 21.2052 25.849C21.2078 26.1879 21.1927 26.4831 20.9845 26.7656C20.7493 26.988 20.5268 27.0143 20.2148 27.0105C19.9954 26.9926 19.853 26.9304 19.704 26.7679C19.5444 26.5636 19.4953 26.4217 19.4941 26.1603C19.4939 26.1345 19.4938 26.1086 19.4936 26.0819C19.4931 25.995 19.4928 25.9081 19.4926 25.8212C19.4923 25.759 19.492 25.6967 19.4916 25.6345C19.4906 25.4299 19.49 25.2254 19.4894 25.0208C19.4892 24.9503 19.489 24.8799 19.4888 24.8094C19.488 24.5163 19.4872 24.2232 19.4868 23.9301C19.4862 23.5102 19.4849 23.0903 19.4826 22.6705C19.4811 22.3751 19.4804 22.0798 19.4802 21.7845C19.48 21.6082 19.4796 21.4318 19.4783 21.2555C19.4771 21.0895 19.4769 20.9236 19.4773 20.7576C19.4773 20.6968 19.477 20.636 19.4763 20.5752C19.4699 19.9773 19.4699 19.9773 19.6954 19.7344C19.8961 19.5484 20.0416 19.4887 20.3156 19.4878Z" fill="#171717"/>
</svg>
