<svg width="11" height="11" viewBox="0 0 11 11" fill="none" xmlns="http://www.w3.org/2000/svg">
<g clip-path="url(#clip0_287_1749)">
<path d="M8.46225 1.894C8.48468 1.9136 8.48468 1.9136 8.50757 1.93361C8.53392 1.9556 8.56032 1.97755 8.58679 1.9994C8.60319 2.01314 8.61958 2.02688 8.63647 2.04103C8.62431 2.12446 8.58623 2.16473 8.52905 2.22499C8.45816 2.30138 8.39034 2.37882 8.32495 2.45998C8.26247 2.53721 8.19851 2.61214 8.13159 2.68556C8.04723 2.77814 7.96799 2.87405 7.88922 2.9714C7.81847 3.05735 7.74442 3.14019 7.66968 3.22267C7.59635 3.19225 7.54062 3.14592 7.48021 3.09517C6.85965 2.57524 6.04427 2.32529 5.2375 2.39141C4.38959 2.47368 3.62088 2.8803 3.07194 3.53453C2.70617 3.98868 2.48304 4.53773 2.40601 5.1133C2.40321 5.13252 2.40041 5.15174 2.39753 5.17154C2.38363 5.28312 2.38369 5.39435 2.3841 5.50664C2.38413 5.52256 2.38416 5.53848 2.38419 5.55488C2.38427 5.59388 2.38439 5.63288 2.38452 5.67189C2.41785 5.67236 2.41785 5.67236 2.45184 5.67284C2.53453 5.67409 2.61721 5.67575 2.69989 5.67753C2.73563 5.67824 2.77136 5.67884 2.8071 5.67933C2.85858 5.68006 2.91003 5.68118 2.96149 5.68238C2.98533 5.68259 2.98533 5.68259 3.00966 5.6828C3.13589 5.68636 3.20407 5.718 3.29224 5.80617C3.33919 5.87995 3.34981 5.9282 3.35132 6.01564C3.31674 6.15395 3.22561 6.2384 3.12943 6.34042C3.0762 6.39784 3.02687 6.45669 2.97803 6.51784C2.89496 6.62087 2.80672 6.71751 2.71633 6.81403C2.63204 6.90454 2.55384 6.99885 2.47642 7.09531C2.4228 7.15997 2.36653 7.22176 2.30933 7.28322C2.21778 7.38159 2.13223 7.48335 2.04799 7.58811C1.98181 7.66767 1.91205 7.74354 1.84133 7.81907C1.78956 7.87455 1.74113 7.93042 1.69702 7.9922C1.63441 7.98506 1.61276 7.97249 1.5687 7.92599C1.55389 7.90663 1.53907 7.88727 1.5238 7.86732C1.4522 7.77644 1.37858 7.68996 1.29956 7.60548C1.22538 7.52583 1.15421 7.44467 1.08606 7.35976C1.01374 7.26985 0.937941 7.18475 0.859131 7.1006C0.763338 6.99831 0.673549 6.89296 0.585793 6.78362C0.532176 6.71897 0.475898 6.65718 0.418701 6.59572C0.324448 6.49437 0.235131 6.39016 0.149055 6.28168C0.109763 6.23172 0.109763 6.23172 0.0713425 6.1954C0.00385342 6.12924 -0.00889558 6.07453 -0.0136719 5.98341C-0.00992722 5.90477 -0.00182632 5.85148 0.0467529 5.78871C0.148288 5.70071 0.228656 5.68801 0.361382 5.68918C0.403027 5.68938 0.403027 5.68938 0.445515 5.6896C0.474622 5.68996 0.50373 5.69032 0.532837 5.69069C0.562364 5.6909 0.591891 5.6911 0.621418 5.69128C0.693498 5.69178 0.76557 5.69249 0.837646 5.69337C0.836899 5.66728 0.836151 5.6412 0.835381 5.61432C0.816716 4.65786 1.06768 3.66221 1.63257 2.87892C1.64791 2.85737 1.66325 2.83583 1.67906 2.81363C1.97629 2.40717 2.32088 2.03765 2.72827 1.74025C2.74644 1.72673 2.76461 1.71322 2.78333 1.69929C4.45313 0.490881 6.88516 0.547948 8.46225 1.894Z" fill="#979797"/>
<path d="M9.30273 3.4375C9.36476 3.4447 9.38668 3.45688 9.4303 3.50296C9.44492 3.52212 9.45954 3.54129 9.47461 3.56104C9.54975 3.65645 9.62773 3.74653 9.71094 3.83496C9.80676 3.93722 9.89652 4.0426 9.98428 4.15194C10.0379 4.21659 10.0942 4.27839 10.1514 4.33984C10.2255 4.41952 10.2967 4.50066 10.3649 4.58557C10.4372 4.67548 10.513 4.76057 10.5918 4.84473C10.7051 4.96575 10.8109 5.09089 10.9141 5.2207C10.9298 5.23823 10.9455 5.25576 10.9616 5.27383C11.0261 5.36514 11.0183 5.4571 11 5.56445C10.9649 5.63724 10.9172 5.68105 10.8443 5.71756C10.7738 5.73994 10.7123 5.74327 10.6384 5.74522C10.6106 5.74605 10.5828 5.74689 10.5542 5.74774C10.5251 5.74842 10.496 5.74909 10.4669 5.74976C10.4374 5.75058 10.4079 5.75142 10.3783 5.75227C10.3063 5.7543 10.2342 5.75614 10.1621 5.75781C10.1607 5.77226 10.1593 5.78671 10.1579 5.80159C10.0591 6.80093 9.7426 7.7442 9.06641 8.50781C9.05184 8.52471 9.03727 8.5416 9.02226 8.55901C8.7938 8.81926 8.55036 9.0544 8.27148 9.25977C8.24411 9.28016 8.24411 9.28016 8.21618 9.30097C7.21744 10.0224 5.96684 10.2907 4.75477 10.1094C4.08969 9.99944 3.4301 9.76191 2.87891 9.36719C2.86686 9.35862 2.85482 9.35005 2.84241 9.34122C2.63271 9.19125 2.63271 9.19125 2.57812 9.10938C2.59139 9.09506 2.60466 9.08074 2.61832 9.06599C2.72937 8.94514 2.83562 8.82214 2.93874 8.69437C2.98539 8.63786 3.03365 8.58345 3.08301 8.5293C3.16693 8.43721 3.24561 8.34173 3.32395 8.24488C3.40179 8.15081 3.48387 8.06066 3.56641 7.9707C3.63144 8.0007 3.68987 8.03767 3.74932 8.07746C4.21994 8.39076 4.76 8.58966 5.32813 8.61523C5.35264 8.61637 5.37714 8.61751 5.4024 8.61868C6.2662 8.6388 7.06888 8.31192 7.6923 7.72064C7.93187 7.48619 8.11636 7.21402 8.27148 6.91797C8.2845 6.89335 8.29752 6.86873 8.31093 6.84336C8.48736 6.49603 8.56332 6.11949 8.61523 5.73633C8.59378 5.73667 8.57233 5.737 8.55023 5.73735C8.47023 5.73852 8.39023 5.73926 8.31023 5.73987C8.27568 5.74019 8.24113 5.74063 8.20658 5.74119C8.15677 5.74198 8.10696 5.74234 8.05714 5.74262C8.04183 5.74295 8.02652 5.74329 8.01074 5.74363C7.88322 5.74367 7.79754 5.71243 7.70618 5.62354C7.66089 5.54973 7.64993 5.50069 7.64844 5.41406C7.68301 5.27578 7.77409 5.19136 7.87025 5.08936C7.92391 5.03147 7.97374 4.97212 8.02307 4.91052C8.10168 4.81306 8.18444 4.72101 8.26968 4.62942C8.33351 4.56043 8.39394 4.48967 8.45276 4.41638C8.53532 4.31373 8.62315 4.2176 8.71312 4.12153C8.79723 4.03121 8.8753 3.93712 8.95252 3.84084C9.01837 3.76146 9.08795 3.6859 9.15843 3.61063C9.2102 3.55515 9.25863 3.49928 9.30273 3.4375Z" fill="#979797"/>
</g>
<defs>
<clipPath id="clip0_287_1749">
<rect width="11" height="11" fill="white"/>
</clipPath>
</defs>
</svg>
