<svg width="33" height="33" viewBox="0 0 33 33" fill="none" xmlns="http://www.w3.org/2000/svg">
<rect width="33" height="33" rx="10" fill="#FFCC00"/>
<path d="M15.413 9.01098C15.4496 9.01077 15.4862 9.01056 15.5239 9.01035C15.5646 9.01027 15.6053 9.01019 15.6459 9.01011C15.6887 9.00993 15.7315 9.00973 15.7743 9.00953C15.9148 9.00891 16.0553 9.0086 16.1958 9.00831C16.2442 9.00819 16.2926 9.00807 16.341 9.00795C16.5682 9.00739 16.7955 9.00697 17.0228 9.00673C17.2852 9.00644 17.5475 9.00567 17.8099 9.00449C18.0127 9.0036 18.2155 9.00317 18.4183 9.00307C18.5394 9.003 18.6605 9.00274 18.7816 9.002C18.8956 9.00132 19.0095 9.0012 19.1235 9.0015C19.1652 9.00151 19.207 9.00133 19.2488 9.00092C19.6399 8.99737 19.6399 8.99737 19.7825 9.13259C19.8264 9.18608 19.8264 9.18608 19.854 9.24071C19.8637 9.25836 19.8733 9.27601 19.8832 9.2942C19.9439 9.56081 19.8058 9.80214 19.6983 10.0379C19.6799 10.0788 19.6617 10.1197 19.6434 10.1606C19.6037 10.2495 19.5639 10.3383 19.5239 10.4271C19.4227 10.6521 19.3234 10.878 19.2239 11.1038C19.1886 11.1836 19.1533 11.2634 19.118 11.3433C18.9296 11.7693 18.7421 12.1959 18.5551 12.6226C18.5396 12.6579 18.5396 12.6579 18.5238 12.694C18.5052 12.7365 18.4865 12.779 18.4679 12.8215C18.3598 13.0681 18.25 13.3141 18.1405 13.5602C18.1583 13.56 18.1761 13.5599 18.1944 13.5598C18.6273 13.5572 19.0603 13.5553 19.4932 13.5541C19.7026 13.5535 19.912 13.5527 20.1213 13.5513C20.3039 13.5501 20.4865 13.5494 20.669 13.5491C20.7656 13.549 20.8622 13.5485 20.9588 13.5478C21.0668 13.5469 21.1748 13.5468 21.2829 13.5468C21.3147 13.5464 21.3464 13.546 21.3792 13.5456C21.5658 13.5466 21.7093 13.5685 21.8644 13.6774C21.9644 13.78 21.9909 13.866 22 14.0055C21.9867 14.3148 21.7652 14.5631 21.5976 14.8108C21.4987 14.9578 21.4039 15.1075 21.3091 15.2571C21.1883 15.4476 21.0673 15.6379 20.9444 15.8271C20.7314 16.1553 20.5211 16.4852 20.3103 16.8149C19.8497 17.5355 19.8497 17.5355 19.6424 17.8549C19.5222 18.0404 19.4031 18.2266 19.2841 18.4129C19.1527 18.6185 19.021 18.8239 18.8882 19.0286C18.6765 19.3551 18.4674 19.6831 18.2578 20.0109C17.7971 20.7316 17.7971 20.7316 17.5899 21.051C17.4697 21.2365 17.3506 21.4227 17.2316 21.6089C17.0877 21.834 16.9434 22.0588 16.798 22.2828C16.7005 22.4333 16.6038 22.5843 16.5073 22.7355C16.4271 22.8609 16.3467 22.9863 16.2663 23.1116C16.2254 23.1756 16.1845 23.2397 16.1437 23.3038C16.0844 23.3969 16.0249 23.4898 15.9652 23.5827C15.9473 23.611 15.9294 23.6393 15.9109 23.6685C15.8127 23.8208 15.7264 23.9449 15.5602 24.028C15.4045 24.0435 15.2766 24.0474 15.1351 23.9767C15.0093 23.8635 14.9501 23.7793 14.937 23.6071C14.9397 23.4263 14.9906 23.2543 15.0349 23.08C15.0446 23.0408 15.0544 23.0015 15.0641 22.9622C15.0905 22.8556 15.1173 22.7491 15.1441 22.6426C15.1726 22.5293 15.2008 22.4159 15.229 22.3025C15.2829 22.086 15.3371 21.8696 15.3914 21.6532C15.4515 21.4136 15.5113 21.1738 15.5711 20.9341C15.6753 20.5166 15.7797 20.0991 15.8843 19.6817C15.9598 19.3802 16.0351 19.0787 16.1102 18.7771C16.1438 18.6421 16.1774 18.5071 16.211 18.3721C16.2289 18.3003 16.2468 18.2285 16.2646 18.1566C16.2888 18.0592 16.3131 17.9617 16.3374 17.8643C16.3444 17.8357 16.3515 17.8072 16.3588 17.7777C16.3652 17.7519 16.3717 17.7261 16.3783 17.6995C16.3839 17.6771 16.3894 17.6548 16.3952 17.6317C16.4106 17.5772 16.4106 17.5772 16.4399 17.5186C16.4191 17.5187 16.3983 17.5188 16.3769 17.5189C15.8705 17.5215 15.3642 17.5234 14.8578 17.5247C14.6129 17.5253 14.3681 17.5261 14.1232 17.5274C13.9097 17.5286 13.6962 17.5294 13.4827 17.5296C13.3698 17.5298 13.2568 17.5301 13.1438 17.531C13.0373 17.5318 12.9308 17.532 12.8244 17.5318C12.7669 17.5319 12.7095 17.5325 12.652 17.5332C12.4068 17.532 12.2363 17.5079 12.0563 17.328C11.9366 17.0486 12.0293 16.7941 12.1352 16.5269C12.1569 16.4733 12.1789 16.4197 12.2009 16.3662C12.2369 16.2791 12.2721 16.1918 12.3072 16.1043C12.3449 16.0102 12.3827 15.916 12.4207 15.822C12.5576 15.4829 12.689 15.1418 12.8201 14.8005C12.8884 14.6226 12.957 14.4448 13.0256 14.267C13.0391 14.232 13.0526 14.197 13.0665 14.161C13.1984 13.8188 13.331 13.4769 13.4637 13.135C13.6509 12.6527 13.8376 12.1701 14.0238 11.6874C14.0645 11.5818 14.1052 11.4763 14.146 11.3707C14.2671 11.0571 14.3881 10.7435 14.5083 10.4296C14.5596 10.2958 14.611 10.1621 14.6624 10.0285C14.6865 9.96573 14.7105 9.90296 14.7345 9.84016C14.7674 9.75377 14.8006 9.66749 14.8338 9.58123C14.8434 9.55602 14.8529 9.53081 14.8627 9.50484C14.9292 9.33362 15.0046 9.16451 15.1497 9.04462C15.2445 9.01304 15.3133 9.01138 15.413 9.01098Z" fill="#171717"/>
</svg>
