<svg width="15" height="15" viewBox="0 0 11 11.6471" fill="none" xmlns="http://www.w3.org/2000/svg" xmlns:xlink="http://www.w3.org/1999/xlink">
	
	<defs/>
	<path id="Vector" d="M1.29 1.61C1.29 0.72 2.01 0 2.91 0L5.5 0C8.55 0 11 2.62 11 5.82C11 7.02 10.65 8.14 10.06 9.07C9.72 9.6 9.49 10.16 9.49 10.72L9.49 11.32C9.49 11.5 9.34 11.64 9.16 11.64C8.98 11.64 8.84 11.5 8.84 11.32L8.84 10.72C8.84 9.98 9.15 9.3 9.52 8.72C10.04 7.89 10.35 6.9 10.35 5.82C10.35 2.94 8.16 0.64 5.5 0.64L2.91 0.64C2.37 0.64 1.94 1.08 1.94 1.61L1.94 2.58C1.94 2.62 1.93 2.65 1.92 2.69L0.77 6.14L1.61 6.14C1.79 6.14 1.94 6.29 1.94 6.47L1.94 9.05C1.94 9.23 2.08 9.38 2.26 9.38L3.23 9.38C3.41 9.38 3.55 9.52 3.55 9.7C3.55 9.88 3.41 10.02 3.23 10.02L2.26 10.02C1.72 10.02 1.29 9.59 1.29 9.05L1.29 6.79L0.32 6.79C0.21 6.79 0.12 6.74 0.06 6.65C0 6.57 -0.02 6.46 0.01 6.36L1.29 2.53L1.29 1.61Z" fill="#979797" fill-opacity="1.000000" fill-rule="evenodd"/>
	<path id="Vector" d="M2.58 3.55C2.58 2.66 3.31 1.94 4.2 1.94C5.09 1.94 5.82 2.66 5.82 3.55C5.82 3.93 5.69 4.28 5.47 4.56L6.43 5.52C6.71 5.3 7.06 5.17 7.44 5.17C8.33 5.17 9.05 5.9 9.05 6.79C9.05 7.68 8.33 8.41 7.44 8.41C6.54 8.41 5.82 7.68 5.82 6.79C5.82 6.51 5.89 6.25 6.02 6.02L4.97 4.97C4.75 5.1 4.48 5.17 4.2 5.17C3.31 5.17 2.58 4.45 2.58 3.55ZM4.2 2.58C3.66 2.58 3.23 3.02 3.23 3.55C3.23 4.09 3.66 4.52 4.2 4.52C4.74 4.52 5.17 4.09 5.17 3.55C5.17 3.02 4.74 2.58 4.2 2.58ZM7.44 5.82C6.9 5.82 6.47 6.25 6.47 6.79C6.47 7.33 6.9 7.76 7.44 7.76C7.97 7.76 8.41 7.33 8.41 6.79C8.41 6.25 7.97 5.82 7.44 5.82Z" fill="#979797" fill-opacity="1.000000" fill-rule="evenodd"/>
</svg>
