<svg width="90.000000" height="90.000000" viewBox="0 0 90 90" fill="none" xmlns="http://www.w3.org/2000/svg" xmlns:xlink="http://www.w3.org/1999/xlink">
	
	<defs>
		<clipPath id="clip287_2735">
			<rect id="Simplification" rx="-0.500000" width="89.000000" height="89.000000" transform="translate(0.500000 0.500000)" fill="white" fill-opacity="0"/>
		</clipPath>
		<linearGradient x1="44.991409" y1="43.285889" x2="44.991409" y2="90.092415" id="paint_linear_287_2736_0" gradientUnits="userSpaceOnUse">
			<stop stop-color="#D1D1D1"/>
			<stop offset="1.000000" stop-color="#6B6B6B"/>
		</linearGradient>
		<linearGradient x1="44.394745" y1="-0.182495" x2="44.394745" y2="43.473248" id="paint_linear_287_2737_0" gradientUnits="userSpaceOnUse">
			<stop stop-color="#D1D1D1"/>
			<stop offset="1.000000" stop-color="#6B6B6B"/>
		</linearGradient>
	</defs>
	<rect id="Simplification" rx="-0.500000" width="89.000000" height="89.000000" transform="translate(0.500000 0.500000)" fill="#FFFFFF" fill-opacity="0"/>
	<g clip-path="url(#clip287_2735)">
		<path id="Vector" d="M33.1 46.3C34.55 47.25 36 48.05 37.61 48.69C37.72 48.73 37.83 48.77 37.95 48.82C43.33 50.9 48.49 50.24 53.71 48.07C55.26 47.35 56.67 46.39 58.09 45.44C61.4 43.21 61.4 43.21 63.23 43.31C63.37 43.32 63.5 43.32 63.64 43.33C68.08 43.52 72.28 45.33 75.32 48.62C81.03 55.18 82.46 64.55 82.61 72.94C82.62 73.16 82.63 73.37 82.63 73.59C82.71 77.43 81.97 81.69 79.34 84.64C79.08 84.91 78.83 85.17 78.57 85.42C78.42 85.58 78.26 85.74 78.11 85.91C77.97 86.04 77.83 86.17 77.69 86.3C77.57 86.42 77.57 86.42 77.44 86.55C73.82 89.87 69.16 90.07 64.53 90.07C64.06 90.07 63.58 90.07 63.11 90.07C61.96 90.07 60.81 90.07 59.66 90.07C58.72 90.07 57.78 90.07 56.85 90.07C56.71 90.07 56.58 90.07 56.44 90.07C56.17 90.07 55.9 90.07 55.63 90.07C53.08 90.08 50.54 90.08 47.99 90.07C45.67 90.07 43.35 90.07 41.03 90.08C38.63 90.08 36.24 90.08 33.85 90.08C32.51 90.08 31.17 90.08 29.83 90.09C28.69 90.09 27.55 90.09 26.41 90.09C25.83 90.08 25.25 90.08 24.67 90.09C19.58 90.1 15.19 89.3 11.42 85.6C11.28 85.47 11.15 85.34 11.01 85.2C8.51 82.62 7.36 79.03 7.34 75.48C7.34 75.32 7.34 75.16 7.34 74.99C7.34 74.47 7.33 73.94 7.33 73.42C7.33 73.24 7.33 73.06 7.33 72.87C7.34 70.16 7.44 67.54 7.91 64.86C7.94 64.67 7.97 64.48 8 64.29C8.42 61.78 8.97 59.35 9.84 56.95C9.88 56.83 9.92 56.72 9.96 56.6C10.97 53.81 12.34 51.32 14.23 49.04C14.33 48.92 14.42 48.8 14.52 48.67C16.94 45.64 20.98 43.89 24.76 43.45C28.26 43.09 30.25 44.41 33.1 46.3Z" fill="url(#paint_linear_287_2736_0)" fill-opacity="0.800000" fill-rule="nonzero"/>
		<path id="Vector" d="M57.82 4.47C59.33 5.74 60.67 7.03 61.87 8.61C61.98 8.75 62.08 8.89 62.19 9.03C64.2 11.77 65.31 14.76 65.91 18.1C65.95 18.28 65.98 18.46 66.01 18.65C66.68 24.56 65.32 30.23 61.69 34.98C61.19 35.59 60.66 36.16 60.11 36.73C59.96 36.89 59.82 37.05 59.66 37.22C58.5 38.43 57.3 39.35 55.89 40.25C55.75 40.35 55.6 40.44 55.45 40.54C52.21 42.62 48.23 43.49 44.42 43.47C44.22 43.47 44.01 43.47 43.8 43.47C42.15 43.44 40.61 43.29 39.02 42.89C38.84 42.84 38.84 42.84 38.67 42.8C35.5 41.97 32.49 40.4 30.1 38.16C29.77 37.85 29.43 37.57 29.08 37.28C28.23 36.56 27.57 35.68 26.89 34.8C26.78 34.66 26.68 34.53 26.57 34.39C23.83 30.67 22.6 26.39 22.6 21.8C22.61 21.68 22.61 21.57 22.61 21.44C22.62 18.32 23.11 15.49 24.43 12.65C24.51 12.47 24.59 12.29 24.67 12.11C26.36 8.48 29.35 5.32 32.69 3.16C32.84 3.06 33 2.96 33.16 2.85C40.6 -1.76 51.04 -1.05 57.82 4.47Z" fill="url(#paint_linear_287_2737_0)" fill-opacity="0.800000" fill-rule="nonzero"/>
	</g>
</svg>
