<svg width="15" height="15" viewBox="0 0 11 9.97409" fill="none" xmlns="http://www.w3.org/2000/svg" xmlns:xlink="http://www.w3.org/1999/xlink">
	
	<defs/>
	<path id="Vector" d="M10.83 9.04L9.13 7.35C9.44 6.85 9.55 6.26 9.44 5.69C9.34 5.11 9.03 4.6 8.57 4.24C8.1 3.88 7.53 3.7 6.94 3.73C6.36 3.77 5.81 4.01 5.39 4.43C4.98 4.84 4.73 5.39 4.7 5.97C4.66 6.55 4.84 7.13 5.2 7.59C5.56 8.05 6.08 8.36 6.66 8.46C7.23 8.57 7.83 8.46 8.33 8.15L10.03 9.85C10.14 9.96 10.62 10.06 10.83 9.85C10.94 9.74 10.99 9.59 11 9.44C11 9.29 10.94 9.15 10.83 9.04ZM5.64 6.14C5.64 5.85 5.73 5.56 5.89 5.32C6.05 5.08 6.28 4.89 6.55 4.78C6.82 4.67 7.11 4.64 7.4 4.7C7.68 4.76 7.94 4.9 8.15 5.1C8.35 5.31 8.49 5.57 8.55 5.85C8.61 6.14 8.58 6.43 8.47 6.7C8.36 6.97 8.17 7.19 7.93 7.35C7.68 7.52 7.4 7.6 7.11 7.6C6.72 7.6 6.35 7.45 6.07 7.17C5.79 6.9 5.64 6.53 5.64 6.14ZM6.64 2.36L6.64 2.94C7.28 2.84 7.95 2.94 8.53 3.23L8.53 0.47C8.53 0.34 8.48 0.22 8.39 0.13C8.3 0.04 8.18 0 8.06 0L3.32 0C3.19 0 3.07 0.04 2.98 0.13C2.89 0.22 2.84 0.34 2.84 0.47L2.84 1.88L6.16 1.88C6.29 1.88 6.41 1.93 6.5 2.02C6.59 2.11 6.64 2.23 6.64 2.36Z" fill="#979797" fill-opacity="1.000000" fill-rule="nonzero"/>
	<path id="Vector" d="M3.86 6.14C3.86 5.53 4.03 4.94 4.35 4.43C4.67 3.92 5.13 3.5 5.67 3.24C5.66 3.13 5.6 3.02 5.52 2.95C5.43 2.87 5.33 2.83 5.21 2.83L0.47 2.83C0.34 2.83 0.22 2.88 0.13 2.97C0.05 3.06 0 3.18 0 3.3L0 8.97C0 9.1 0.05 9.22 0.13 9.31C0.22 9.39 0.34 9.44 0.47 9.44L5.21 9.44C5.33 9.44 5.43 9.4 5.52 9.33C5.6 9.25 5.66 9.15 5.67 9.04C5.13 8.77 4.67 8.36 4.35 7.84C4.03 7.33 3.86 6.74 3.86 6.14Z" fill="#979797" fill-opacity="1.000000" fill-rule="nonzero"/>
</svg>
