<svg width="15" height="15" viewBox="0 0 11 11.156" fill="none" xmlns="http://www.w3.org/2000/svg" xmlns:xlink="http://www.w3.org/1999/xlink">
	
	<defs/>
	<path id="Vector" d="M7.33 0.46L1.83 0.46C1.32 0.46 0.91 0.88 0.91 1.39L0.91 7.9L1.83 7.9L1.83 1.39L7.33 1.39L7.33 0.46ZM8.7 2.32L3.66 2.32C3.16 2.32 2.74 2.74 2.74 3.25L2.74 9.76C2.74 10.27 3.16 10.69 3.66 10.69L8.7 10.69C9.21 10.69 9.62 10.27 9.62 9.76L9.62 3.25C9.62 2.74 9.21 2.32 8.7 2.32ZM8.7 9.76L3.66 9.76L3.66 3.25L8.7 3.25L8.7 9.76Z" fill="#979797" fill-opacity="1.000000" fill-rule="nonzero"/>
</svg>
