<svg width="15" height="15" viewBox="0 0 12 12" fill="none" xmlns="http://www.w3.org/2000/svg" xmlns:xlink="http://www.w3.org/1999/xlink">
	<defs>
		<clipPath id="clip287_1348">
			<rect id="Simplification" rx="-0.500000" width="11.000000" height="11.000000" transform="translate(0.500000 0.500000)" fill="white" fill-opacity="0"/>
		</clipPath>
	</defs>
	<rect id="Simplification" rx="-0.500000" width="11.000000" height="11.000000" transform="translate(0.500000 0.500000)" fill="#FFFFFF" fill-opacity="0"/>
	<g clip-path="url(#clip287_1348)">
		<path id="Vector" d="M1.62 1.81C1.65 1.81 1.68 1.81 1.7 1.81C1.79 1.81 1.88 1.81 1.97 1.81C2.03 1.81 2.1 1.81 2.16 1.81C2.32 1.81 2.47 1.81 2.63 1.81C2.81 1.81 2.99 1.81 3.17 1.81C3.49 1.81 3.81 1.81 4.13 1.81C4.45 1.81 4.76 1.81 5.07 1.81C5.41 1.81 5.75 1.81 6.09 1.81C6.13 1.81 6.17 1.81 6.2 1.81C6.22 1.81 6.24 1.81 6.26 1.81C6.38 1.81 6.51 1.81 6.63 1.81C6.79 1.81 6.94 1.81 7.1 1.81C7.17 1.81 7.25 1.81 7.33 1.81C7.41 1.81 7.5 1.81 7.58 1.81C7.62 1.81 7.62 1.81 7.66 1.81C7.8 1.81 7.91 1.83 8.03 1.93C8.1 2.03 8.13 2.07 8.13 2.19C8.13 2.22 8.13 2.24 8.13 2.26C8.13 2.28 8.13 2.31 8.13 2.33C8.13 2.35 8.13 2.38 8.13 2.4C8.13 2.46 8.13 2.52 8.13 2.57C8.16 2.57 8.16 2.57 8.19 2.57C8.38 2.57 8.58 2.57 8.77 2.57C8.87 2.57 8.97 2.57 9.07 2.57C9.16 2.57 9.26 2.57 9.35 2.57C9.39 2.57 9.43 2.57 9.46 2.57C9.84 2.56 9.84 2.56 9.98 2.64C10.08 2.76 10.16 2.89 10.22 3.03C10.23 3.05 10.24 3.07 10.25 3.08C10.28 3.15 10.31 3.21 10.34 3.27C10.36 3.31 10.39 3.35 10.41 3.4C10.46 3.51 10.52 3.62 10.57 3.74C10.66 3.92 10.75 4.1 10.84 4.28C10.87 4.34 10.91 4.4 10.94 4.47C11.15 4.91 11.15 4.91 11.44 5.32C11.47 5.35 11.5 5.38 11.52 5.41C11.53 5.43 11.55 5.44 11.56 5.46C12 5.99 12 5.99 12 6.17C12 6.21 12 6.21 12 6.24C12 6.27 12 6.29 12 6.32C12 6.34 12 6.37 12 6.4C12 6.48 12 6.57 12 6.66C12 6.69 12 6.72 12 6.75C12 6.89 12 7.03 12 7.17C12 7.34 12 7.5 12 7.66C12 7.8 12 7.94 12 8.08C12 8.14 12.01 8.2 12.01 8.26C12.01 8.35 12.01 8.43 12.01 8.52C12.01 8.55 12.01 8.55 12.01 8.59C12.01 8.74 11.99 8.83 11.9 8.95C11.77 9.07 11.6 9.05 11.43 9.05C11.41 9.05 11.38 9.05 11.35 9.05C11.27 9.05 11.19 9.05 11.1 9.05C11.05 9.05 10.99 9.05 10.93 9.05C10.8 9.05 10.66 9.04 10.52 9.04C10.52 9.06 10.51 9.07 10.51 9.09C10.5 9.11 10.5 9.11 10.5 9.14C10.49 9.16 10.49 9.18 10.49 9.2C10.41 9.51 10.12 9.78 9.86 9.96C9.48 10.17 9.06 10.23 8.64 10.12C8.19 9.99 7.9 9.71 7.68 9.31C7.64 9.23 7.64 9.23 7.59 9.04C6.85 9.04 6.12 9.04 5.36 9.04C5.34 9.12 5.32 9.2 5.29 9.28C5.16 9.57 4.95 9.79 4.68 9.96C4.66 9.97 4.66 9.97 4.63 9.99C4.27 10.19 3.85 10.22 3.46 10.12C3.19 10.04 2.98 9.9 2.78 9.7C2.77 9.68 2.75 9.67 2.74 9.66C2.64 9.56 2.58 9.44 2.52 9.32C2.51 9.3 2.5 9.28 2.49 9.27C2.45 9.19 2.43 9.14 2.43 9.04C2.42 9.04 2.41 9.04 2.39 9.04C2.25 9.05 2.11 9.05 1.97 9.05C1.92 9.05 1.87 9.05 1.82 9.05C1.74 9.05 1.67 9.05 1.59 9.05C1.56 9.05 1.56 9.05 1.52 9.06C1.37 9.06 1.26 9.03 1.14 8.92C1.06 8.81 1.03 8.71 1.05 8.57C1.09 8.45 1.15 8.36 1.26 8.29C1.33 8.27 1.37 8.26 1.44 8.26C1.46 8.26 1.48 8.26 1.5 8.26C1.54 8.26 1.54 8.26 1.57 8.26C1.6 8.26 1.62 8.26 1.65 8.26C1.72 8.26 1.8 8.26 1.87 8.26C1.93 8.25 1.98 8.25 2.03 8.25C2.16 8.25 2.28 8.25 2.41 8.24C2.41 8.23 2.42 8.21 2.43 8.19C2.57 7.8 2.8 7.47 3.18 7.28C3.57 7.1 3.99 7.05 4.4 7.19C4.82 7.36 5.12 7.64 5.32 8.06C5.33 8.13 5.35 8.2 5.36 8.27C6.1 8.27 6.83 8.27 7.59 8.27C7.6 8.2 7.62 8.13 7.64 8.06C7.79 7.68 8.08 7.4 8.46 7.23C8.84 7.08 9.24 7.07 9.63 7.21C9.84 7.3 10.01 7.43 10.17 7.59C10.18 7.6 10.2 7.62 10.21 7.63C10.38 7.8 10.47 8.02 10.54 8.24C10.77 8.25 10.99 8.26 11.22 8.27C11.22 8.02 11.23 7.77 11.23 7.53C11.23 7.41 11.23 7.3 11.23 7.18C11.23 7.07 11.23 6.96 11.23 6.85C11.23 6.81 11.23 6.77 11.23 6.72C11.24 6.4 11.17 6.23 10.95 5.99C10.92 5.95 10.89 5.91 10.87 5.86C10.82 5.77 10.78 5.69 10.68 5.64C10.48 5.59 10.26 5.61 10.04 5.61C9.96 5.61 9.87 5.61 9.79 5.61C9.63 5.61 9.47 5.61 9.31 5.62C9.02 5.62 8.73 5.62 8.44 5.62C8.34 5.62 8.24 5.62 8.14 5.63C8.09 5.63 8.04 5.63 8 5.63C7.94 5.63 7.88 5.63 7.82 5.63C7.67 5.63 7.58 5.63 7.47 5.53C7.38 5.43 7.35 5.36 7.35 5.23C7.35 5.19 7.35 5.19 7.35 5.16C7.35 5.13 7.35 5.11 7.35 5.08C7.35 5.05 7.35 5.03 7.35 5C7.35 4.91 7.35 4.82 7.35 4.73C7.35 4.67 7.35 4.61 7.35 4.55C7.35 4.4 7.35 4.26 7.35 4.11C7.35 3.95 7.35 3.78 7.35 3.62C7.35 3.28 7.35 2.94 7.35 2.6C7.31 2.6 7.31 2.6 7.26 2.6C6.53 2.6 5.79 2.6 5.06 2.6C4.97 2.6 4.88 2.6 4.79 2.6C4.77 2.6 4.75 2.6 4.73 2.6C4.44 2.6 4.15 2.6 3.86 2.6C3.56 2.6 3.26 2.6 2.96 2.6C2.78 2.6 2.6 2.6 2.41 2.6C2.27 2.6 2.13 2.6 1.99 2.6C1.93 2.6 1.87 2.6 1.81 2.6C1.73 2.61 1.66 2.61 1.58 2.61C1.55 2.61 1.53 2.61 1.51 2.61C1.38 2.6 1.3 2.6 1.19 2.53C1.11 2.44 1.05 2.36 1.05 2.24C1.06 2.11 1.08 2.02 1.17 1.92C1.31 1.82 1.45 1.81 1.62 1.81ZM8.13 3.37C8.13 3.86 8.13 4.34 8.13 4.85C8.82 4.85 9.52 4.85 10.24 4.85C10.07 4.49 10.07 4.49 9.89 4.13C9.88 4.1 9.88 4.1 9.86 4.07C9.83 4 9.79 3.93 9.76 3.86C9.63 3.62 9.63 3.62 9.51 3.37C9.05 3.37 8.6 3.37 8.13 3.37ZM3.37 8.1C3.22 8.26 3.13 8.45 3.14 8.67C3.17 8.9 3.25 9.09 3.44 9.24C3.62 9.36 3.79 9.41 4 9.38C4.24 9.33 4.4 9.21 4.54 9.02C4.64 8.83 4.66 8.63 4.61 8.43C4.54 8.23 4.4 8.07 4.21 7.96C3.91 7.83 3.61 7.9 3.37 8.1ZM8.53 8.11C8.38 8.29 8.3 8.47 8.31 8.71C8.33 8.91 8.42 9.08 8.57 9.21C8.74 9.34 8.93 9.4 9.13 9.39C9.32 9.37 9.49 9.27 9.63 9.14C9.78 8.93 9.81 8.73 9.79 8.48C9.75 8.28 9.64 8.13 9.47 8.02C9.13 7.83 8.82 7.86 8.53 8.11Z" fill="#171717" fill-opacity="1.000000" fill-rule="nonzero"/>
		<path id="Vector" d="M1.05 3.37C1.07 3.37 1.1 3.37 1.13 3.37C1.16 3.37 1.2 3.37 1.23 3.37C1.26 3.37 1.29 3.37 1.33 3.37C1.42 3.37 1.51 3.37 1.6 3.37C1.65 3.37 1.71 3.37 1.77 3.37C1.94 3.36 2.12 3.36 2.3 3.36C2.5 3.36 2.71 3.36 2.91 3.36C3.07 3.36 3.22 3.36 3.38 3.36C3.48 3.36 3.57 3.36 3.67 3.36C3.75 3.36 3.84 3.36 3.93 3.36C3.96 3.36 4 3.36 4.03 3.36C4.07 3.36 4.12 3.36 4.16 3.36C4.19 3.36 4.21 3.36 4.24 3.36C4.38 3.38 4.47 3.45 4.56 3.56C4.61 3.65 4.62 3.74 4.61 3.84C4.57 3.98 4.51 4.04 4.4 4.12C4.34 4.15 4.29 4.15 4.22 4.15C4.17 4.15 4.17 4.15 4.13 4.15C4.1 4.15 4.06 4.15 4.03 4.15C4 4.15 3.96 4.15 3.93 4.15C3.84 4.15 3.74 4.15 3.65 4.15C3.59 4.15 3.53 4.15 3.48 4.15C3.29 4.15 3.11 4.15 2.93 4.15C2.72 4.15 2.51 4.15 2.3 4.15C2.14 4.15 1.98 4.15 1.82 4.15C1.72 4.15 1.62 4.15 1.52 4.15C1.43 4.15 1.34 4.15 1.25 4.15C1.22 4.15 1.18 4.15 1.15 4.15C0.84 4.16 0.84 4.16 0.7 4.05C0.61 3.95 0.59 3.83 0.6 3.7C0.62 3.58 0.67 3.51 0.77 3.43C0.87 3.38 0.94 3.37 1.05 3.37Z" fill="#171717" fill-opacity="1.000000" fill-rule="nonzero"/>
		<path id="Vector" d="M0.59 4.86C0.62 4.86 0.66 4.86 0.69 4.86C0.78 4.86 0.87 4.86 0.96 4.86C1.06 4.86 1.16 4.86 1.25 4.86C1.41 4.86 1.58 4.86 1.74 4.86C1.92 4.86 2.11 4.86 2.3 4.86C2.46 4.86 2.62 4.86 2.78 4.86C2.88 4.86 2.97 4.86 3.07 4.86C3.16 4.86 3.25 4.86 3.34 4.86C3.37 4.86 3.4 4.86 3.44 4.86C3.75 4.86 3.75 4.86 3.89 4.96C3.98 5.08 3.99 5.18 3.99 5.33C3.97 5.44 3.91 5.5 3.83 5.58C3.74 5.64 3.67 5.65 3.56 5.65C3.53 5.65 3.5 5.65 3.47 5.65C3.44 5.65 3.41 5.65 3.38 5.65C3.34 5.65 3.31 5.65 3.28 5.65C3.19 5.65 3.1 5.65 3 5.65C2.95 5.65 2.89 5.65 2.83 5.65C2.66 5.65 2.48 5.65 2.3 5.65C2.09 5.65 1.89 5.65 1.68 5.65C1.52 5.65 1.37 5.65 1.21 5.65C1.11 5.65 1.02 5.65 0.92 5.65C0.83 5.65 0.74 5.65 0.65 5.65C0.62 5.65 0.59 5.65 0.56 5.65C0.51 5.65 0.47 5.65 0.42 5.65C0.4 5.65 0.37 5.65 0.35 5.65C0.25 5.64 0.17 5.6 0.1 5.54C-0.01 5.4 -0.02 5.3 0 5.13C0.03 5.02 0.1 4.94 0.2 4.89C0.32 4.85 0.46 4.86 0.59 4.86Z" fill="#171717" fill-opacity="1.000000" fill-rule="nonzero"/>
		<path id="Vector" d="M1.09 6.34C1.11 6.34 1.13 6.34 1.15 6.34C1.21 6.34 1.27 6.34 1.33 6.34C1.35 6.34 1.37 6.34 1.39 6.34C1.5 6.34 1.62 6.34 1.73 6.34C1.84 6.34 1.96 6.34 2.07 6.34C2.16 6.34 2.25 6.34 2.33 6.34C2.38 6.34 2.42 6.34 2.46 6.34C2.52 6.34 2.58 6.34 2.64 6.34C2.66 6.34 2.66 6.34 2.69 6.33C2.82 6.34 2.89 6.37 3 6.44C3.1 6.56 3.12 6.65 3.12 6.8C3.11 6.9 3.08 6.95 3.02 7.03C2.89 7.11 2.81 7.13 2.66 7.13C2.64 7.13 2.62 7.13 2.6 7.13C2.53 7.13 2.47 7.13 2.41 7.13C2.36 7.13 2.32 7.13 2.28 7.13C2.18 7.13 2.09 7.13 2 7.13C1.88 7.13 1.76 7.13 1.64 7.13C1.55 7.13 1.46 7.13 1.37 7.13C1.33 7.13 1.28 7.13 1.24 7.13C1.18 7.13 1.12 7.13 1.06 7.13C1.04 7.13 1.02 7.13 1 7.13C0.88 7.13 0.82 7.1 0.72 7.03C0.62 6.92 0.6 6.83 0.6 6.68C0.61 6.59 0.64 6.54 0.7 6.46C0.83 6.36 0.93 6.34 1.09 6.34Z" fill="#171717" fill-opacity="1.000000" fill-rule="nonzero"/>
	</g>
</svg>
