<svg width="15.000000" height="15.000000" viewBox="0 0 11 11" fill="none" xmlns="http://www.w3.org/2000/svg" xmlns:xlink="http://www.w3.org/1999/xlink">
	<defs>
		<clipPath id="clip287_923">
			<rect id="Simplification" rx="-0.500000" width="10.000000" height="10.000000" transform="translate(0.500000 0.500000)" fill="white" fill-opacity="0"/>
		</clipPath>
	</defs>
	<rect id="Simplification" rx="-0.500000" width="10.000000" height="10.000000" transform="translate(0.500000 0.500000)" fill="#FFFFFF" fill-opacity="0"/>
	<g clip-path="url(#clip287_923)">
		<path id="Vector" d="M1.41 -0.01C1.44 -0.01 1.46 -0.01 1.49 -0.01C1.57 -0.01 1.64 -0.01 1.72 -0.01C1.8 -0.01 1.88 -0.01 1.96 -0.01C2.12 -0.01 2.28 -0.01 2.44 -0.01C2.56 -0.01 2.69 -0.01 2.82 -0.01C2.84 -0.01 2.86 -0.01 2.88 -0.01C2.92 -0.01 2.95 -0.01 2.99 -0.01C3.34 -0.01 3.69 -0.01 4.04 -0.01C4.36 -0.01 4.68 -0.01 5 -0.01C5.33 -0.01 5.66 -0.01 5.99 -0.01C6.17 -0.01 6.36 -0.01 6.54 -0.01C6.7 -0.01 6.86 -0.01 7.01 -0.01C7.09 -0.01 7.17 -0.01 7.25 -0.01C7.34 -0.01 7.43 -0.01 7.51 -0.01C7.54 -0.01 7.56 -0.01 7.59 -0.01C7.96 -0.01 8.31 0.14 8.58 0.41C8.81 0.67 8.94 0.98 8.94 1.33C8.94 1.35 8.94 1.37 8.94 1.39C8.94 1.45 8.94 1.51 8.94 1.57C8.94 1.62 8.94 1.66 8.94 1.71C8.94 1.83 8.94 1.95 8.94 2.07C8.94 2.18 8.94 2.28 8.94 2.38C8.94 2.62 8.94 2.86 8.94 3.1C8.94 3.35 8.94 3.59 8.94 3.84C8.94 4.05 8.94 4.27 8.94 4.48C8.94 4.61 8.94 4.73 8.94 4.86C8.94 4.98 8.94 5.1 8.94 5.22C8.94 5.26 8.94 5.31 8.94 5.35C8.94 5.78 8.86 6.16 8.55 6.48C8.31 6.73 7.98 6.88 7.63 6.87C7.61 6.87 7.59 6.87 7.57 6.87C7.55 6.87 7.53 6.87 7.51 6.87C7.44 6.87 7.37 6.87 7.29 6.87C7.24 6.87 7.19 6.87 7.14 6.87C7.03 6.87 6.92 6.87 6.81 6.87C6.63 6.87 6.46 6.87 6.28 6.87C6.25 6.87 6.22 6.87 6.19 6.87C6.13 6.87 6.07 6.87 6.01 6.87C5.86 6.87 5.7 6.87 5.55 6.87C5.53 6.87 5.52 6.87 5.5 6.87C5.25 6.87 5 6.87 4.75 6.86C4.49 6.86 4.23 6.86 3.97 6.86C3.82 6.86 3.68 6.86 3.53 6.86C3.4 6.86 3.26 6.86 3.12 6.86C3.07 6.86 3.02 6.86 2.97 6.86C2.73 6.85 2.53 6.85 2.34 7.03C2.31 7.06 2.27 7.1 2.24 7.14C2.19 7.19 2.14 7.23 2.09 7.27C2 7.34 1.92 7.41 1.83 7.48C1.73 7.57 1.62 7.66 1.52 7.74C1.45 7.8 1.38 7.86 1.32 7.91C1.21 8 1.11 8.09 1 8.17C0.94 8.22 0.89 8.27 0.83 8.31C0.78 8.36 0.72 8.41 0.66 8.46C0.64 8.47 0.63 8.49 0.61 8.5C0.5 8.59 0.41 8.61 0.27 8.6C0.17 8.58 0.1 8.53 0.04 8.46C-0.01 8.39 -0.01 8.33 -0.01 8.25C-0.01 8.23 -0.01 8.2 -0.01 8.17C-0.01 8.15 -0.01 8.12 -0.01 8.09C-0.01 8.06 -0.01 8.03 -0.01 8C-0.01 7.92 -0.01 7.84 -0.01 7.76C-0.01 7.67 -0.01 7.58 -0.01 7.49C-0.01 7.32 -0.01 7.14 -0.01 6.97C-0.01 6.83 -0.01 6.69 -0.01 6.55C-0.01 6.52 -0.01 6.52 -0.01 6.49C-0.01 6.45 -0.01 6.41 -0.01 6.37C-0.01 5.98 -0.01 5.6 -0.01 5.22C-0.01 4.87 -0.01 4.52 -0.01 4.18C-0.01 3.82 -0.01 3.46 -0.01 3.1C-0.01 2.9 -0.01 2.7 -0.01 2.5C-0.01 2.33 -0.01 2.15 -0.01 1.98C-0.01 1.9 -0.01 1.81 -0.01 1.72C-0.01 1.64 -0.01 1.56 -0.01 1.48C-0.01 1.44 -0.01 1.4 -0.01 1.35C-0.01 0.99 0.12 0.65 0.38 0.38C0.66 0.1 1.01 -0.01 1.41 -0.01ZM0.85 0.92C0.69 1.14 0.68 1.36 0.68 1.62C0.68 1.65 0.68 1.67 0.68 1.7C0.68 1.77 0.68 1.84 0.68 1.91C0.68 1.98 0.68 2.06 0.68 2.13C0.68 2.26 0.68 2.39 0.68 2.52C0.68 2.71 0.68 2.9 0.68 3.08C0.68 3.39 0.68 3.69 0.68 4C0.68 4.29 0.68 4.59 0.68 4.89C0.68 4.9 0.68 4.92 0.68 4.94C0.68 5.03 0.68 5.12 0.68 5.22C0.68 5.97 0.68 6.73 0.68 7.49C0.71 7.47 0.74 7.45 0.76 7.43C0.79 7.42 0.79 7.42 0.81 7.4C0.88 7.35 0.95 7.29 1.01 7.23C1.12 7.13 1.24 7.03 1.35 6.94C1.42 6.89 1.49 6.83 1.55 6.77C1.73 6.62 1.91 6.48 2.09 6.33C2.1 6.32 2.12 6.31 2.13 6.3C2.26 6.2 2.26 6.2 2.36 6.2C2.38 6.2 2.4 6.2 2.42 6.2C2.45 6.2 2.45 6.2 2.48 6.2C2.5 6.2 2.52 6.2 2.54 6.2C2.61 6.2 2.69 6.2 2.76 6.2C2.81 6.2 2.86 6.2 2.91 6.2C3.03 6.2 3.14 6.2 3.25 6.2C3.41 6.2 3.57 6.2 3.73 6.2C4 6.2 4.26 6.2 4.52 6.2C4.54 6.2 4.55 6.2 4.57 6.2C4.79 6.19 5.02 6.19 5.24 6.19C5.25 6.19 5.27 6.19 5.29 6.19C5.3 6.19 5.32 6.19 5.33 6.19C5.59 6.19 5.86 6.19 6.12 6.19C6.28 6.19 6.44 6.19 6.6 6.19C6.72 6.19 6.85 6.19 6.97 6.19C7.02 6.19 7.07 6.19 7.12 6.19C7.19 6.19 7.26 6.19 7.33 6.19C7.35 6.19 7.37 6.19 7.39 6.19C7.65 6.19 7.88 6.13 8.07 5.95C8.22 5.75 8.25 5.56 8.25 5.32C8.25 5.3 8.25 5.29 8.25 5.27C8.25 5.21 8.25 5.16 8.25 5.1C8.25 5.06 8.25 5.02 8.25 4.98C8.25 4.87 8.25 4.76 8.25 4.65C8.25 4.59 8.25 4.52 8.25 4.45C8.25 4.21 8.25 3.97 8.25 3.73C8.25 3.51 8.25 3.29 8.25 3.07C8.25 2.88 8.25 2.68 8.25 2.49C8.25 2.38 8.25 2.27 8.25 2.15C8.25 2.04 8.25 1.94 8.25 1.83C8.25 1.79 8.25 1.75 8.25 1.71C8.25 1.39 8.25 1.1 8.01 0.85C7.79 0.69 7.57 0.68 7.31 0.68C7.27 0.68 7.27 0.68 7.23 0.68C7.16 0.68 7.09 0.68 7.02 0.68C6.94 0.68 6.87 0.68 6.79 0.68C6.65 0.68 6.5 0.68 6.35 0.68C6.23 0.68 6.11 0.68 5.99 0.68C5.65 0.68 5.31 0.68 4.97 0.68C4.95 0.68 4.93 0.68 4.91 0.68C4.9 0.68 4.88 0.68 4.86 0.68C4.56 0.68 4.26 0.68 3.97 0.68C3.66 0.68 3.35 0.68 3.05 0.68C2.88 0.68 2.71 0.68 2.53 0.68C2.39 0.68 2.24 0.68 2.1 0.68C2.02 0.68 1.95 0.68 1.87 0.68C1.79 0.68 1.71 0.68 1.63 0.68C1.61 0.68 1.58 0.68 1.56 0.68C1.29 0.68 1.05 0.72 0.85 0.92Z" fill="#979797" fill-opacity="1.000000" fill-rule="nonzero"/>
		<path id="Vector" d="M9.67 2.74C9.68 2.74 9.7 2.74 9.72 2.74C10.06 2.75 10.4 2.91 10.64 3.16C10.9 3.45 11 3.78 11 4.17C11 4.2 11 4.22 11 4.25C11 4.33 11 4.41 11 4.49C11 4.57 11 4.66 11 4.74C11 4.9 11 5.07 11 5.23C11 5.37 11 5.5 11 5.64C11 6.02 11 6.4 11 6.78C11 6.8 11 6.82 11 6.84C11 6.86 11 6.88 11 6.9C11 7.23 11 7.56 11 7.9C11 8.24 11 8.58 11 8.92C11 9.11 11 9.3 11.01 9.5C11.01 9.66 11.01 9.82 11.01 9.98C11.01 10.07 11.01 10.15 11.01 10.23C11.01 10.32 11.01 10.41 11.01 10.5C11.01 10.53 11.01 10.56 11.01 10.58C11.01 10.72 11 10.81 10.91 10.91C10.81 11 10.72 11.01 10.59 11.01C10.42 10.97 10.28 10.83 10.15 10.72C10.12 10.7 10.09 10.67 10.06 10.64C10.04 10.63 10.03 10.62 10.01 10.6C9.94 10.55 9.88 10.5 9.81 10.45C9.7 10.36 9.6 10.28 9.49 10.19C9.28 10.01 9.28 10.01 9.06 9.84C9.02 9.81 9.02 9.81 8.98 9.77C8.84 9.63 8.72 9.62 8.53 9.62C8.46 9.62 8.4 9.62 8.33 9.62C8.28 9.62 8.23 9.62 8.19 9.62C8.08 9.62 7.98 9.62 7.88 9.62C7.71 9.62 7.55 9.62 7.39 9.62C7.16 9.62 6.93 9.62 6.7 9.62C6.46 9.62 6.23 9.62 5.99 9.62C5.98 9.62 5.96 9.62 5.95 9.62C5.71 9.62 5.46 9.63 5.22 9.62C5.06 9.62 4.9 9.63 4.73 9.63C4.63 9.63 4.53 9.63 4.43 9.63C4.38 9.63 4.34 9.63 4.29 9.63C3.84 9.63 3.84 9.63 3.65 9.56C3.63 9.55 3.62 9.54 3.6 9.54C3.21 9.38 2.98 9.11 2.81 8.74C2.74 8.55 2.74 8.37 2.74 8.17C2.74 8.12 2.74 8.07 2.74 8.03C2.74 8 2.73 7.96 2.73 7.93C2.73 7.91 2.73 7.88 2.73 7.85C2.75 7.74 2.8 7.67 2.88 7.59C3 7.54 3.1 7.54 3.22 7.56C3.32 7.61 3.38 7.67 3.43 7.77C3.44 7.85 3.45 7.93 3.45 8C3.45 8.27 3.47 8.54 3.67 8.74C3.87 8.89 4.08 8.91 4.32 8.91C4.34 8.91 4.36 8.91 4.38 8.91C4.45 8.91 4.52 8.91 4.59 8.91C4.63 8.91 4.68 8.91 4.73 8.91C4.83 8.91 4.94 8.91 5.04 8.91C5.21 8.91 5.37 8.91 5.53 8.91C5.58 8.91 5.58 8.91 5.62 8.91C5.72 8.91 5.82 8.91 5.92 8.91C6.02 8.91 6.12 8.91 6.23 8.91C6.25 8.91 6.25 8.91 6.27 8.91C6.51 8.91 6.74 8.91 6.98 8.91C7.22 8.91 7.47 8.91 7.71 8.91C7.85 8.91 7.98 8.91 8.12 8.91C8.25 8.91 8.38 8.91 8.5 8.91C8.55 8.91 8.6 8.91 8.65 8.91C8.95 8.9 9.13 8.94 9.36 9.15C9.39 9.17 9.43 9.2 9.46 9.23C9.49 9.25 9.52 9.27 9.54 9.3C9.58 9.32 9.61 9.35 9.64 9.37C9.65 9.39 9.67 9.4 9.68 9.41C9.84 9.54 10.01 9.67 10.17 9.8C10.19 9.81 10.2 9.82 10.21 9.83C10.24 9.85 10.28 9.87 10.31 9.9C10.31 9.17 10.3 8.43 10.3 7.7C10.3 7.62 10.3 7.53 10.3 7.44C10.3 7.42 10.3 7.42 10.3 7.39C10.3 7.11 10.3 6.83 10.3 6.55C10.3 6.27 10.3 5.98 10.3 5.7C10.3 5.52 10.29 5.34 10.29 5.17C10.29 5.04 10.29 4.92 10.29 4.8C10.29 4.73 10.29 4.66 10.29 4.59C10.29 4.52 10.29 4.44 10.29 4.37C10.29 4.33 10.29 4.33 10.29 4.3C10.29 4.05 10.25 3.81 10.07 3.63C9.93 3.52 9.8 3.48 9.63 3.46C9.49 3.44 9.41 3.4 9.31 3.29C9.26 3.18 9.26 3.08 9.28 2.96C9.36 2.79 9.49 2.73 9.67 2.74Z" fill="#979797" fill-opacity="1.000000" fill-rule="nonzero"/>
		<path id="Vector" d="M2.45 2.05C2.48 2.05 2.48 2.05 2.51 2.05C2.57 2.05 2.63 2.05 2.69 2.05C2.73 2.05 2.77 2.05 2.82 2.05C2.93 2.05 3.05 2.05 3.17 2.05C3.29 2.05 3.41 2.05 3.53 2.05C3.74 2.05 3.94 2.05 4.15 2.05C4.38 2.05 4.62 2.05 4.86 2.05C5.06 2.05 5.27 2.05 5.47 2.05C5.59 2.05 5.71 2.05 5.83 2.05C5.95 2.05 6.06 2.05 6.18 2.05C6.22 2.05 6.26 2.05 6.3 2.05C6.36 2.05 6.42 2.05 6.47 2.05C6.5 2.05 6.5 2.05 6.52 2.05C6.64 2.05 6.7 2.07 6.78 2.14C6.86 2.23 6.88 2.29 6.88 2.4C6.88 2.51 6.86 2.58 6.78 2.66C6.68 2.74 6.6 2.76 6.47 2.76C6.45 2.76 6.45 2.76 6.42 2.76C6.36 2.76 6.3 2.76 6.24 2.76C6.2 2.76 6.15 2.76 6.11 2.76C5.99 2.76 5.88 2.76 5.76 2.76C5.64 2.76 5.52 2.76 5.4 2.76C5.19 2.76 4.98 2.76 4.78 2.76C4.54 2.76 4.31 2.76 4.07 2.76C3.87 2.76 3.66 2.76 3.46 2.76C3.34 2.76 3.22 2.76 3.09 2.76C2.98 2.76 2.87 2.76 2.75 2.76C2.71 2.76 2.67 2.76 2.63 2.76C2.57 2.76 2.51 2.76 2.45 2.76C2.43 2.76 2.43 2.76 2.4 2.76C2.29 2.76 2.23 2.73 2.14 2.66C2.07 2.58 2.05 2.51 2.05 2.4C2.05 2.29 2.07 2.23 2.14 2.14C2.25 2.06 2.33 2.05 2.45 2.05Z" fill="#979797" fill-opacity="1.000000" fill-rule="nonzero"/>
		<path id="Vector" d="M2.56 3.42C2.59 3.42 2.62 3.42 2.65 3.42C2.73 3.42 2.81 3.42 2.89 3.42C2.97 3.42 3.06 3.42 3.14 3.42C3.28 3.42 3.42 3.42 3.56 3.42C3.72 3.42 3.88 3.42 4.05 3.42C4.19 3.42 4.32 3.42 4.46 3.42C4.55 3.42 4.63 3.42 4.71 3.42C4.79 3.42 4.87 3.42 4.95 3.42C4.99 3.42 5.03 3.42 5.07 3.42C5.31 3.42 5.31 3.42 5.41 3.52C5.49 3.6 5.5 3.67 5.51 3.78C5.5 3.89 5.49 3.95 5.41 4.03C5.29 4.15 5.15 4.13 4.99 4.13C4.96 4.13 4.93 4.13 4.9 4.13C4.82 4.13 4.74 4.13 4.66 4.13C4.58 4.13 4.5 4.13 4.41 4.13C4.27 4.13 4.13 4.13 3.99 4.13C3.83 4.13 3.67 4.13 3.51 4.13C3.37 4.13 3.23 4.13 3.09 4.13C3.01 4.13 2.92 4.13 2.84 4.13C2.76 4.13 2.68 4.13 2.6 4.13C2.56 4.13 2.52 4.13 2.48 4.13C2.25 4.13 2.25 4.13 2.14 4.03C2.07 3.95 2.05 3.89 2.05 3.78C2.05 3.67 2.07 3.6 2.14 3.52C2.27 3.4 2.4 3.42 2.56 3.42Z" fill="#979797" fill-opacity="1.000000" fill-rule="nonzero"/>
	</g>
</svg>
