<svg width="68.000000" height="20.000000" viewBox="0 0 68 20" fill="none" xmlns="http://www.w3.org/2000/svg" xmlns:xlink="http://www.w3.org/1999/xlink">
	<desc>
			Created with Pixso.
	</desc>
	<defs>
		<clipPath id="clip10_180">
			<rect id="Dolyame logo" rx="-0.222222" width="55.555557" height="7.555555" transform="translate(6.222222 6.222222)" fill="white" fill-opacity="0"/>
		</clipPath>
	</defs>
	<rect id="Branding badge" rx="3.500000" width="67.000000" height="19.000000" transform="translate(0.500000 0.500000)" fill="#FFFFFF" fill-opacity="1.000000"/>
	<rect id="Dolyame logo" rx="-0.222222" width="55.555557" height="7.555555" transform="translate(6.222222 6.222222)" fill="#FFFFFF" fill-opacity="0"/>
	<g clip-path="url(#clip10_180)">
		<path id="Logo" d="M14.6 6L15.93 6L15.93 12.76L14.6 12.76L14.6 6ZM11.73 6.37L13.07 6.37L13.07 13.14L11.73 13.14L11.73 6.37ZM10.2 6.8L8.86 6.8L8.86 13.57L10.2 13.57L10.2 6.8ZM6 7.22L7.33 7.22L7.33 14L6 14L6 7.22Z" fill="#000000" fill-opacity="1.000000" fill-rule="evenodd"/>
		<path id="Dolyame kern" d="M29.68 7.13C27.91 7.13 26.63 8.36 26.63 9.98C26.63 11.65 28.02 12.83 29.68 12.83C31.41 12.83 32.76 11.58 32.76 9.98C32.76 8.37 31.41 7.13 29.68 7.13ZM33.35 11.45C34.14 11.45 34.54 10.22 34.62 8.32L34.67 7.21L39.34 7.21L39.34 12.74L38.03 12.74L38.03 8.47L35.96 8.47C35.81 11.49 34.94 12.88 33.37 12.79L33.16 12.78L33.16 11.45L33.35 11.45ZM40.72 9.24C40.72 10.12 41.2 10.81 41.94 11.1L40.55 12.74L42.16 12.74L43.42 11.25L44.78 11.25L44.78 12.74L46.1 12.74L46.1 7.21L42.76 7.21C41.51 7.21 40.72 8.06 40.72 9.24ZM51.19 9.6L49.04 7.21L47.78 7.21L47.78 12.74L49.1 12.74L49.1 9.21L51.06 11.31L51.3 11.31L53.23 9.21L53.23 12.74L54.54 12.74L54.54 7.21L53.28 7.21L51.19 9.6ZM57.54 10.81L60.79 7.21L61.99 7.21L61.99 12.74L60.68 12.74L60.68 9.15L57.43 12.74L56.23 12.74L56.23 7.21L57.54 7.21L57.54 10.81ZM20.61 7.22L25.24 7.22L25.24 11.46L26.19 11.46L26.19 13.99L24.85 13.99L24.85 12.75L20.26 12.75L20.26 13.99L18.93 14L18.93 11.47L19.3 11.46C20.08 11.44 20.5 9.92 20.57 8.33L20.61 7.22ZM44.78 8.43L44.78 10.07L43 10.07C42.4 10.07 42.08 9.73 42.08 9.25C42.08 8.76 42.41 8.43 43 8.43L44.78 8.43ZM29.68 11.51C28.68 11.51 28 10.85 28 9.98C28 9.08 28.68 8.45 29.68 8.45C30.68 8.45 31.39 9.11 31.39 9.98C31.39 10.84 30.68 11.51 29.68 11.51ZM21.13 11.46L23.93 11.46L23.93 8.48L21.9 8.48C21.86 9.7 21.6 10.74 21.13 11.46Z" fill="#000000" fill-opacity="1.000000" fill-rule="evenodd"/>
	</g>
</svg>
