<svg width="15" height="15" viewBox="0 0 12 9.19127" fill="none" xmlns="http://www.w3.org/2000/svg" xmlns:xlink="http://www.w3.org/1999/xlink">
	<desc>
			Created with Pixso.
	</desc>
	<defs/>
	<path id="Vector" d="M8.17 0.66L8.99 2.29C9.1 2.52 9.39 2.73 9.64 2.78L11.12 3.02C12.06 3.18 12.28 3.86 11.6 4.54L10.45 5.69C10.26 5.88 10.15 6.26 10.21 6.53L10.54 7.95C10.8 9.07 10.2 9.51 9.21 8.92L7.83 8.1C7.58 7.95 7.17 7.95 6.92 8.1L5.54 8.92C4.55 9.51 3.94 9.07 4.2 7.95L4.53 6.53C4.59 6.25 4.48 5.88 4.29 5.69L3.14 4.53C2.46 3.86 2.68 3.18 3.62 3.01L5.1 2.77C5.34 2.73 5.64 2.51 5.75 2.28L6.56 0.65C7.01 -0.23 7.73 -0.23 8.17 0.66Z" fill="#171717" fill-opacity="1.000000" fill-rule="nonzero"/>
	<path id="Vector" d="M3.9 0.97L0.43 0.97C0.19 0.97 0 0.77 0 0.54C0 0.3 0.19 0.1 0.43 0.1L3.9 0.1C4.14 0.1 4.33 0.3 4.33 0.54C4.33 0.77 4.14 0.97 3.9 0.97Z" fill="#171717" fill-opacity="1.000000" fill-rule="nonzero"/>
	<path id="Vector" d="M2.16 9.07L0.43 9.07C0.19 9.07 0 8.87 0 8.63C0 8.4 0.19 8.2 0.43 8.2L2.16 8.2C2.4 8.2 2.6 8.4 2.6 8.63C2.6 8.87 2.4 9.07 2.16 9.07Z" fill="#171717" fill-opacity="1.000000" fill-rule="nonzero"/>
	<path id="Vector" d="M1.01 5.02L0.43 5.02C0.19 5.02 0 4.82 0 4.59C0 4.35 0.19 4.15 0.43 4.15L1.01 4.15C1.24 4.15 1.44 4.35 1.44 4.59C1.44 4.82 1.24 5.02 1.01 5.02Z" fill="#171717" fill-opacity="1.000000" fill-rule="nonzero"/>
</svg>
