<svg width="15" height="15" viewBox="0 0 8 10.6667" fill="none" xmlns="http://www.w3.org/2000/svg" xmlns:xlink="http://www.w3.org/1999/xlink">
	<desc>
			Created with Pixso.
	</desc>
	<defs/>
	<path id="Vector" d="M4.5 0.49C4.5 0 3.86 -0.19 3.58 0.22C1 3.99 4.66 4.16 4.66 6C4.66 6.74 4.06 7.34 3.31 7.33C2.58 7.32 2 6.71 2 5.98L2 4.19C2 3.74 1.44 3.52 1.13 3.85C0.57 4.44 0 5.44 0 6.66C0 8.87 1.79 10.66 4 10.66C6.2 10.66 8 8.87 8 6.66C8 3.11 4.5 2.64 4.5 0.49Z" fill="#FFFFFF" fill-opacity="1.000000" fill-rule="nonzero"/>
</svg>
