<svg width="26" height="11" viewBox="0 0 26 11" fill="none" xmlns="http://www.w3.org/2000/svg">
<path d="M25.0192 4.8949C24.8922 3.59902 24.3034 2.36204 23.3509 1.45492C22.3638 0.518354 21.0822 0 19.7314 0C17.3357 0 15.269 1.61396 14.6225 3.94655C14.2184 3.53423 13.5545 3.25738 12.931 3.25738C12.3076 3.25738 11.6437 3.53423 11.2396 3.94655C10.5931 1.61396 8.5264 0 6.1307 0C4.78564 0 3.49831 0.512463 2.51116 1.44903C1.55865 2.36204 0.969827 3.59902 0.842826 4.8949H0V5.95517H0.842826C0.969827 7.25105 1.55865 8.48803 2.51116 9.39515C3.49831 10.3317 4.77986 10.8501 6.1307 10.8501C9.06327 10.8501 11.4474 8.42324 11.4474 5.43093V5.42504C11.4474 4.84189 12.1113 4.15272 12.931 4.15272C13.7508 4.15272 14.4146 4.84189 14.4146 5.42504V5.43093C14.4146 8.42324 16.7988 10.8501 19.7314 10.8501C21.0764 10.8501 22.3638 10.3376 23.3509 9.39515C24.3034 8.48803 24.8922 7.24516 25.0192 5.94928H25.8621V4.88901H25.0192V4.8949ZM19.7314 9.96063C17.2779 9.96063 15.2863 7.92256 15.2863 5.42504C15.2863 2.92163 17.2837 0.889447 19.7314 0.889447C22.1848 0.889447 24.1764 2.92752 24.1764 5.42504C24.1764 7.92845 22.1848 9.96063 19.7314 9.96063ZM6.1307 9.96063C3.67726 9.96063 1.68565 7.92256 1.68565 5.42504C1.68565 2.92163 3.68304 0.889447 6.1307 0.889447C8.58413 0.889447 10.5757 2.92752 10.5757 5.42504C10.5757 7.92845 8.58413 9.96063 6.1307 9.96063Z" fill="black"/>
</svg>
