<svg width="15" height="15" viewBox="0 0 7.43457 7.12036" fill="none" xmlns="http://www.w3.org/2000/svg" xmlns:xlink="http://www.w3.org/1999/xlink">
	
	<defs/>
	<path id="Star 10" d="M3.24 0.34L2.7 1.99C2.64 2.19 2.44 2.33 2.23 2.33L0.5 2.33C0.01 2.33 -0.19 2.95 0.2 3.24L1.6 4.25C1.78 4.38 1.85 4.61 1.78 4.81L1.25 6.46C1.1 6.92 1.63 7.3 2.02 7.02L3.42 6C3.59 5.87 3.83 5.87 4.01 6L5.41 7.02C5.8 7.3 6.33 6.92 6.18 6.46L5.64 4.81C5.57 4.61 5.65 4.38 5.82 4.25L7.22 3.24C7.61 2.95 7.41 2.33 6.93 2.33L5.2 2.33C4.98 2.33 4.79 2.19 4.72 1.99L4.19 0.34C4.04 -0.12 3.39 -0.12 3.24 0.34Z" fill="#D9D9D9" fill-opacity="1.000000" fill-rule="evenodd"/>
</svg>
