<svg width="20" height="20" viewBox="0 0 20 20" fill="none" xmlns="http://www.w3.org/2000/svg">
<path d="M16.7029 7.81359C17.6351 8.60915 17.9047 9.82223 17.9996 10.9928C18.0157 11.2674 18.0129 11.5422 18.0122 11.8172C18.0122 11.885 18.0122 11.9528 18.0123 12.0206C18.0123 12.2032 18.012 12.3859 18.0118 12.5686C18.0115 12.7601 18.0115 12.9515 18.0115 13.1429C18.0113 13.5048 18.011 13.8667 18.0106 14.2286C18.0101 14.7181 18.0099 15.2075 18.0097 15.697C18.0093 16.4673 18.0085 17.2375 18.0078 18.0078C16.8992 18.0078 15.7906 18.0078 14.6484 18.0078C14.647 17.5672 14.6455 17.1265 14.644 16.6725C14.6428 16.3925 14.6416 16.1125 14.6403 15.8325C14.6382 15.3885 14.6361 14.9446 14.6349 14.5006C14.634 14.1772 14.6327 13.8537 14.6309 13.5303C14.63 13.3593 14.6292 13.1883 14.629 13.0173C14.6288 12.8558 14.628 12.6944 14.6268 12.5329C14.6264 12.4741 14.6263 12.4154 14.6264 12.3566C14.6269 11.6455 14.5606 10.8895 14.0405 10.3566C13.6975 10.057 13.2756 9.98225 12.8288 10.0075C12.5165 10.0327 12.2257 10.0696 11.9531 10.2344C11.9136 10.2561 11.8742 10.2779 11.8335 10.3003C11.3355 10.6923 11.1378 11.2358 11.0631 11.8514C11.044 12.0818 11.0476 12.3134 11.0467 12.5444C11.0463 12.6041 11.0459 12.6638 11.0455 12.7235C11.0444 12.8848 11.0436 13.0461 11.0428 13.2075C11.042 13.3763 11.0409 13.5452 11.0399 13.714C11.0379 14.0335 11.0362 14.3529 11.0345 14.6723C11.0322 15.1042 11.0296 15.5361 11.027 15.9679C11.023 16.6479 11.0193 17.3279 11.0156 18.0078C9.90703 18.0078 8.79844 18.0078 7.65625 18.0078C7.65625 14.4758 7.65625 10.9438 7.65625 7.30471C8.71328 7.30471 9.77031 7.30471 10.8594 7.30471C10.8723 7.75588 10.8852 8.20705 10.8984 8.6719C10.9887 8.54299 11.0789 8.41408 11.1719 8.28127C11.7528 7.53769 12.6466 7.1584 13.567 7.04348C14.6591 6.95084 15.8218 7.12492 16.7029 7.81359Z" fill="#171717"/>
<path d="M2.22656 7.30469C3.33516 7.30469 4.44375 7.30469 5.58594 7.30469C5.58594 10.8367 5.58594 14.3687 5.58594 18.0078C4.47734 18.0078 3.36875 18.0078 2.22656 18.0078C2.22656 14.4758 2.22656 10.9438 2.22656 7.30469Z" fill="#171717"/>
<path d="M4.99014 2.27047C5.43685 2.57588 5.71077 2.9944 5.8396 3.51635C5.93481 4.07948 5.82139 4.60403 5.50772 5.07809C5.21383 5.4809 4.79045 5.76806 4.29678 5.85934C3.87889 5.89978 3.46439 5.90324 3.08585 5.70309C3.03562 5.67756 3.03562 5.67756 2.98437 5.65151C2.51865 5.39442 2.20017 4.99399 2.0336 4.48727C1.90335 3.92475 1.97678 3.38391 2.25577 2.88082C2.53201 2.44988 2.93119 2.16881 3.41925 2.01931C3.96888 1.90902 4.50481 1.98652 4.99014 2.27047Z" fill="#171717"/>
</svg>
