<svg width="10.000000" height="15.037292" viewBox="0 0 10 15.0373" fill="none" xmlns="http://www.w3.org/2000/svg" xmlns:xlink="http://www.w3.org/1999/xlink">
	<desc>
			Created with Pixso.
	</desc>
	<defs/>
	<path id="Vector" d="M3.41 0.01C3.44 0.01 3.48 0.01 3.52 0.01C3.56 0.01 3.6 0.01 3.64 0.01C3.68 0 3.73 0 3.77 0C3.91 0 4.05 0 4.19 0C4.24 0 4.29 0 4.34 0C4.56 0 4.79 0 5.02 0C5.28 0 5.54 0 5.8 0C6.01 0 6.21 0 6.41 0C6.53 0 6.66 0 6.78 0C6.89 0 7 0 7.12 0C7.16 0 7.2 0 7.24 0C7.63 -0.01 7.63 -0.01 7.78 0.13C7.82 0.18 7.82 0.18 7.85 0.24C7.86 0.25 7.87 0.27 7.88 0.29C7.94 0.56 7.8 0.8 7.69 1.03C7.67 1.07 7.66 1.11 7.64 1.16C7.6 1.24 7.56 1.33 7.52 1.42C7.42 1.65 7.32 1.87 7.22 2.1C7.18 2.18 7.15 2.26 7.11 2.34C6.92 2.76 6.74 3.19 6.55 3.62C6.53 3.65 6.53 3.65 6.52 3.69C6.5 3.73 6.48 3.77 6.46 3.82C6.35 4.06 6.25 4.31 6.14 4.56C6.15 4.56 6.17 4.55 6.19 4.55C6.62 4.55 7.06 4.55 7.49 4.55C7.7 4.55 7.91 4.55 8.12 4.55C8.3 4.55 8.48 4.54 8.66 4.54C8.76 4.54 8.86 4.54 8.95 4.54C9.06 4.54 9.17 4.54 9.28 4.54C9.31 4.54 9.34 4.54 9.37 4.54C9.56 4.54 9.7 4.56 9.86 4.67C9.96 4.78 9.99 4.86 10 5C9.98 5.31 9.76 5.56 9.59 5.81C9.49 5.95 9.4 6.1 9.3 6.25C9.18 6.44 9.06 6.63 8.94 6.82C8.73 7.15 8.52 7.48 8.31 7.81C7.84 8.53 7.84 8.53 7.64 8.85C7.52 9.04 7.4 9.22 7.28 9.41C7.15 9.61 7.02 9.82 6.88 10.02C6.67 10.35 6.46 10.68 6.25 11.01C5.79 11.73 5.79 11.73 5.58 12.05C5.46 12.23 5.35 12.42 5.23 12.6C5.08 12.83 4.94 13.05 4.79 13.28C4.7 13.43 4.6 13.58 4.5 13.73C4.42 13.86 4.34 13.98 4.26 14.11C4.22 14.17 4.18 14.23 4.14 14.3C4.08 14.39 4.02 14.48 3.96 14.58C3.94 14.61 3.92 14.63 3.91 14.66C3.81 14.82 3.72 14.94 3.56 15.02C3.4 15.04 3.27 15.04 3.13 14.97C3 14.86 2.95 14.77 2.93 14.6C2.93 14.42 2.99 14.25 3.03 14.08C3.04 14.04 3.05 14 3.06 13.96C3.09 13.85 3.11 13.74 3.14 13.64C3.17 13.52 3.2 13.41 3.22 13.3C3.28 13.08 3.33 12.86 3.39 12.65C3.45 12.41 3.51 12.17 3.57 11.93C3.67 11.51 3.77 11.09 3.88 10.68C3.95 10.38 4.03 10.07 4.11 9.77C4.14 9.64 4.17 9.5 4.21 9.37C4.22 9.3 4.24 9.22 4.26 9.15C4.28 9.05 4.31 8.96 4.33 8.86C4.34 8.83 4.35 8.8 4.35 8.77C4.36 8.75 4.37 8.72 4.37 8.69C4.38 8.67 4.38 8.65 4.39 8.63C4.41 8.57 4.41 8.57 4.43 8.51C4.41 8.51 4.39 8.51 4.37 8.51C3.87 8.52 3.36 8.52 2.85 8.52C2.61 8.52 2.36 8.52 2.12 8.52C1.9 8.52 1.69 8.52 1.48 8.52C1.36 8.52 1.25 8.53 1.14 8.53C1.03 8.53 0.93 8.53 0.82 8.53C0.76 8.53 0.7 8.53 0.65 8.53C0.4 8.53 0.23 8.5 0.05 8.32C-0.07 8.04 0.02 7.79 0.13 7.52C0.15 7.47 0.17 7.41 0.2 7.36C0.23 7.27 0.27 7.19 0.3 7.1C0.34 7.01 0.38 6.91 0.42 6.82C0.55 6.48 0.68 6.14 0.82 5.8C0.88 5.62 0.95 5.44 1.02 5.26C1.03 5.23 1.05 5.19 1.06 5.16C1.19 4.81 1.33 4.47 1.46 4.13C1.65 3.65 1.83 3.17 2.02 2.68C2.06 2.58 2.1 2.47 2.14 2.37C2.26 2.05 2.38 1.74 2.5 1.42C2.55 1.29 2.61 1.16 2.66 1.02C2.68 0.96 2.71 0.9 2.73 0.84C2.76 0.75 2.8 0.66 2.83 0.58C2.84 0.55 2.85 0.53 2.86 0.5C2.92 0.33 3 0.16 3.14 0.04C3.24 0.01 3.31 0.01 3.41 0.01Z" fill="#171717" fill-opacity="1.000000" fill-rule="nonzero"/>
</svg>
