<svg width="15.000000" height="15.000000" viewBox="0 0 11 11" fill="none" xmlns="http://www.w3.org/2000/svg" xmlns:xlink="http://www.w3.org/1999/xlink">
	
	<defs>
		<clipPath id="clip287_1278">
			<rect id="Simplification" rx="-0.500000" width="10.000000" height="10.000000" transform="translate(0.500000 0.500000)" fill="white" fill-opacity="0"/>
		</clipPath>
	</defs>
	<rect id="Simplification" rx="-0.500000" width="10.000000" height="10.000000" transform="translate(0.500000 0.500000)" fill="#FFFFFF" fill-opacity="0"/>
	<g clip-path="url(#clip287_1278)">
		<path id="Vector" d="M6.3 1.93C6.35 1.94 6.39 1.94 6.44 1.94C6.8 1.94 7.12 2.06 7.38 2.31C7.62 2.56 7.76 2.85 7.76 3.2C7.76 3.23 7.76 3.23 7.76 3.26C7.76 3.32 7.76 3.38 7.76 3.44C7.76 3.46 7.76 3.48 7.76 3.5C7.76 3.86 7.73 4.2 7.66 4.55C7.66 4.57 7.66 4.59 7.65 4.61C7.62 4.77 7.59 4.92 7.55 5.07C7.54 5.09 7.53 5.11 7.53 5.13C7.52 5.14 7.52 5.16 7.51 5.17C7.55 5.17 7.55 5.17 7.59 5.17C7.83 5.17 8.07 5.18 8.31 5.18C8.43 5.18 8.55 5.18 8.68 5.18C8.8 5.18 8.92 5.18 9.03 5.18C9.08 5.18 9.12 5.18 9.17 5.18C9.52 5.18 9.78 5.21 10.05 5.45C10.15 5.56 10.23 5.68 10.29 5.82C10.29 5.84 10.3 5.85 10.31 5.87C10.38 6.13 10.35 6.43 10.22 6.66C10.21 6.67 10.19 6.69 10.17 6.71C10.13 6.76 10.13 6.76 10.13 6.81C10.16 6.88 10.19 6.93 10.24 6.99C10.32 7.14 10.34 7.28 10.34 7.44C10.34 7.47 10.34 7.47 10.34 7.5C10.33 7.69 10.29 7.85 10.17 8C10.13 8.05 10.13 8.05 10.13 8.1C10.16 8.17 10.19 8.22 10.24 8.28C10.31 8.42 10.34 8.56 10.34 8.72C10.34 8.74 10.34 8.76 10.34 8.78C10.33 9.05 10.24 9.25 10.05 9.45C9.94 9.55 9.8 9.66 9.64 9.66C9.65 9.68 9.66 9.7 9.66 9.73C9.72 9.94 9.72 10.23 9.63 10.43C9.47 10.71 9.25 10.9 8.93 11C8.87 11 8.87 11 8.79 11C8.77 11 8.74 11 8.71 11C8.68 11 8.65 11 8.62 11C8.59 11 8.56 11 8.53 11C8.44 11 8.36 11 8.27 11C8.2 11 8.12 11 8.05 11C7.88 11 7.71 11 7.54 11C7.37 11 7.19 11 7.02 11C6.86 11 6.71 11 6.56 11C6.47 11 6.38 11 6.29 11C5.86 11 5.43 11 5.01 10.87C4.99 10.86 4.97 10.86 4.95 10.85C4.57 10.74 4.19 10.61 3.82 10.48C3.8 10.5 3.8 10.5 3.78 10.53C3.59 10.77 3.41 10.92 3.11 11C3.03 11 2.96 11 2.88 11C2.85 11 2.85 11 2.81 11C2.74 11 2.67 11 2.6 11C2.55 11 2.5 11 2.45 11C2.35 11 2.24 11 2.14 11C2 11 1.87 11 1.74 11.01C1.63 11.01 1.53 11.01 1.43 11.01C1.38 11.01 1.33 11.01 1.28 11.01C1.21 11.01 1.14 11.01 1.07 11.01C1.05 11.01 1.03 11.01 1.01 11.01C0.89 11.01 0.82 10.99 0.73 10.91C0.64 10.81 0.65 10.69 0.65 10.56C0.65 10.53 0.65 10.51 0.65 10.48C0.65 10.42 0.65 10.35 0.65 10.28C0.65 10.2 0.65 10.13 0.65 10.06C0.65 9.91 0.65 9.77 0.65 9.62C0.65 9.5 0.65 9.39 0.65 9.27C0.65 9.25 0.65 9.24 0.65 9.22C0.65 9.18 0.65 9.15 0.65 9.12C0.65 8.8 0.65 8.48 0.65 8.16C0.65 7.87 0.65 7.57 0.65 7.28C0.65 6.98 0.65 6.68 0.65 6.38C0.65 6.21 0.65 6.04 0.65 5.88C0.65 5.73 0.65 5.59 0.65 5.45C0.65 5.37 0.65 5.3 0.65 5.23C0.65 5.15 0.65 5.07 0.65 4.99C0.65 4.96 0.65 4.94 0.65 4.92C0.65 4.79 0.66 4.71 0.75 4.61C0.84 4.53 0.95 4.54 1.07 4.54C1.1 4.54 1.1 4.54 1.13 4.54C1.21 4.54 1.28 4.54 1.35 4.54C1.4 4.54 1.45 4.54 1.5 4.54C1.6 4.54 1.71 4.54 1.81 4.54C1.95 4.54 2.08 4.54 2.21 4.54C2.32 4.54 2.42 4.54 2.52 4.54C2.57 4.54 2.62 4.54 2.67 4.54C3.06 4.54 3.35 4.56 3.64 4.85C3.72 4.93 3.78 5.03 3.84 5.13C4.18 5.01 4.44 4.82 4.7 4.57C4.72 4.55 4.74 4.54 4.75 4.52C5.32 3.93 5.58 3.14 5.76 2.37C5.76 2.35 5.77 2.33 5.77 2.31C5.78 2.28 5.79 2.25 5.79 2.22C5.82 2.11 5.87 2.05 5.95 1.98C6.06 1.92 6.18 1.93 6.3 1.93ZM6.4 2.59C6.39 2.61 6.39 2.63 6.38 2.65C6.15 3.55 5.82 4.36 5.17 5.04C5.16 5.06 5.14 5.08 5.12 5.1C4.76 5.47 4.38 5.65 3.88 5.82C3.88 7.13 3.88 8.44 3.88 9.79C4.79 10.13 4.79 10.13 5.76 10.33C5.78 10.34 5.8 10.34 5.82 10.34C6.08 10.36 6.34 10.36 6.6 10.36C6.67 10.36 6.75 10.36 6.82 10.36C6.95 10.36 7.07 10.36 7.19 10.36C7.34 10.36 7.48 10.36 7.62 10.36C7.75 10.36 7.87 10.36 7.99 10.36C8.07 10.36 8.14 10.36 8.21 10.36C8.3 10.36 8.38 10.36 8.46 10.36C8.5 10.36 8.5 10.36 8.53 10.36C8.75 10.36 8.75 10.36 8.93 10.26C9.01 10.16 9.03 10.1 9.03 9.97C9.02 9.9 8.99 9.85 8.93 9.79C8.85 9.74 8.78 9.72 8.69 9.7C8.57 9.67 8.51 9.65 8.44 9.56C8.41 9.5 8.41 9.45 8.41 9.39C8.41 9.35 8.41 9.35 8.41 9.32C8.42 9.24 8.43 9.21 8.48 9.15C8.57 9.08 8.65 9.07 8.76 9.07C8.79 9.07 8.79 9.07 8.81 9.07C8.87 9.07 8.92 9.07 8.97 9.07C9.03 9.07 9.08 9.07 9.13 9.07C9.16 9.07 9.2 9.07 9.23 9.07C9.36 9.07 9.47 9.05 9.57 8.97C9.66 8.87 9.67 8.81 9.67 8.69C9.66 8.61 9.63 8.56 9.58 8.5C9.46 8.41 9.33 8.41 9.19 8.41C9.15 8.41 9.12 8.41 9.08 8.41C9.03 8.41 8.98 8.41 8.92 8.41C8.87 8.41 8.82 8.41 8.76 8.41C8.75 8.41 8.73 8.41 8.72 8.41C8.62 8.4 8.56 8.39 8.48 8.33C8.42 8.25 8.41 8.19 8.41 8.09C8.41 8.07 8.41 8.05 8.41 8.03C8.42 7.94 8.45 7.88 8.53 7.82C8.61 7.79 8.68 7.78 8.76 7.78C8.79 7.78 8.79 7.78 8.81 7.78C8.87 7.78 8.92 7.78 8.97 7.78C9.03 7.78 9.08 7.78 9.13 7.78C9.16 7.78 9.2 7.78 9.23 7.78C9.36 7.78 9.47 7.76 9.57 7.68C9.66 7.58 9.67 7.52 9.67 7.4C9.66 7.32 9.63 7.27 9.58 7.21C9.46 7.12 9.33 7.12 9.19 7.12C9.15 7.12 9.12 7.12 9.08 7.12C9.03 7.12 8.98 7.12 8.92 7.12C8.87 7.12 8.82 7.12 8.76 7.12C8.75 7.12 8.73 7.12 8.72 7.12C8.62 7.11 8.56 7.1 8.48 7.04C8.42 6.96 8.41 6.9 8.41 6.81C8.41 6.78 8.41 6.76 8.41 6.74C8.42 6.65 8.45 6.59 8.53 6.53C8.61 6.5 8.68 6.5 8.76 6.5C8.79 6.49 8.79 6.49 8.81 6.49C8.87 6.49 8.92 6.49 8.97 6.49C9.03 6.49 9.08 6.49 9.13 6.49C9.16 6.49 9.2 6.49 9.23 6.49C9.36 6.49 9.47 6.48 9.57 6.39C9.66 6.29 9.67 6.23 9.67 6.11C9.66 6.03 9.63 5.98 9.58 5.92C9.47 5.84 9.36 5.84 9.22 5.84C9.19 5.84 9.17 5.84 9.14 5.84C9.11 5.84 9.08 5.84 9.04 5.84C9.01 5.84 8.98 5.84 8.95 5.84C8.87 5.83 8.8 5.83 8.73 5.83C8.62 5.83 8.51 5.83 8.4 5.83C8.08 5.83 7.76 5.83 7.44 5.83C7.27 5.83 7.09 5.83 6.92 5.83C6.83 5.83 6.73 5.83 6.64 5.83C6.55 5.83 6.46 5.83 6.38 5.83C6.35 5.83 6.31 5.83 6.28 5.83C6.24 5.83 6.19 5.83 6.15 5.83C6.13 5.83 6.1 5.83 6.08 5.83C6 5.82 5.96 5.8 5.9 5.75C5.84 5.67 5.83 5.62 5.83 5.52C5.83 5.48 5.83 5.48 5.83 5.45C5.84 5.36 5.87 5.3 5.95 5.25C6.03 5.21 6.1 5.21 6.19 5.2C6.21 5.2 6.22 5.2 6.24 5.2C6.3 5.2 6.35 5.2 6.4 5.2C6.44 5.2 6.48 5.2 6.51 5.2C6.6 5.2 6.69 5.2 6.78 5.19C6.86 5.02 6.92 4.85 6.96 4.67C6.96 4.65 6.97 4.62 6.97 4.6C7.17 3.74 7.17 3.74 7.01 2.91C6.91 2.76 6.78 2.67 6.61 2.62C6.57 2.61 6.54 2.61 6.5 2.6C6.48 2.6 6.46 2.6 6.44 2.6C6.42 2.6 6.42 2.6 6.4 2.59ZM1.31 5.19C1.31 6.9 1.31 8.6 1.31 10.35C2.29 10.5 2.29 10.5 3.13 10.26C3.24 10.12 3.24 10.01 3.24 9.85C3.24 9.82 3.24 9.82 3.24 9.79C3.24 9.73 3.24 9.67 3.24 9.6C3.24 9.56 3.24 9.52 3.24 9.47C3.24 9.35 3.24 9.23 3.24 9.11C3.24 9.01 3.24 8.91 3.24 8.81C3.24 8.57 3.24 8.34 3.24 8.1C3.24 7.86 3.24 7.61 3.24 7.37C3.24 7.16 3.24 6.95 3.24 6.74C3.24 6.61 3.24 6.49 3.24 6.36C3.24 6.25 3.24 6.13 3.24 6.01C3.24 5.97 3.24 5.93 3.24 5.88C3.24 5.82 3.24 5.76 3.24 5.71C3.24 5.69 3.24 5.67 3.24 5.65C3.24 5.52 3.23 5.41 3.14 5.31C2.71 4.93 1.4 5.19 1.31 5.19Z" fill="#171717" fill-opacity="1.000000" fill-rule="nonzero"/>
		<path id="Vector" d="M9 0.89C9.1 0.94 9.14 1.01 9.17 1.11C9.19 1.24 9.15 1.33 9.08 1.43C9.01 1.52 8.94 1.59 8.86 1.67C8.84 1.69 8.82 1.71 8.8 1.73C8.57 1.95 8.57 1.95 8.42 1.98C8.3 1.98 8.23 1.97 8.14 1.89C8.05 1.79 8.04 1.72 8.04 1.6C8.08 1.41 8.23 1.29 8.36 1.16C8.39 1.13 8.39 1.13 8.42 1.1C8.59 0.93 8.75 0.78 9 0.89Z" fill="#171717" fill-opacity="1.000000" fill-rule="nonzero"/>
		<path id="Vector" d="M4.93 0.91C5.04 0.98 5.12 1.07 5.21 1.16C5.23 1.18 5.25 1.2 5.27 1.22C5.5 1.45 5.5 1.45 5.53 1.6C5.53 1.72 5.51 1.79 5.43 1.89C5.34 1.97 5.26 1.98 5.14 1.98C4.96 1.95 4.83 1.79 4.71 1.67C4.69 1.65 4.67 1.63 4.65 1.61C4.52 1.48 4.41 1.37 4.39 1.19C4.4 1.08 4.43 0.98 4.52 0.91C4.67 0.83 4.78 0.83 4.93 0.91Z" fill="#171717" fill-opacity="1.000000" fill-rule="nonzero"/>
		<path id="Vector" d="M6.91 3.81e-5C7.01 0.04 7.06 0.09 7.11 0.19C7.12 0.26 7.12 0.33 7.12 0.4C7.12 0.42 7.12 0.44 7.12 0.46C7.12 0.5 7.12 0.54 7.12 0.58C7.12 0.65 7.12 0.71 7.12 0.78C7.12 0.82 7.12 0.86 7.12 0.9C7.12 0.93 7.12 0.93 7.12 0.96C7.12 1.08 7.1 1.15 7.02 1.24C6.91 1.33 6.79 1.32 6.66 1.31C6.56 1.26 6.51 1.21 6.46 1.11C6.45 1.04 6.45 0.97 6.45 0.9C6.45 0.88 6.45 0.86 6.45 0.84C6.45 0.8 6.45 0.76 6.45 0.72C6.45 0.65 6.45 0.59 6.45 0.52C6.45 0.48 6.45 0.44 6.45 0.4C6.45 0.38 6.45 0.36 6.45 0.34C6.45 0.22 6.47 0.15 6.55 0.06C6.66 -0.03 6.78 -0.02 6.91 3.81e-5Z" fill="#171717" fill-opacity="1.000000" fill-rule="nonzero"/>
		<path id="Vector" d="M2.4 9.06C2.5 9.11 2.55 9.16 2.59 9.25C2.61 9.37 2.61 9.48 2.56 9.59C2.49 9.66 2.44 9.7 2.34 9.72C2.21 9.72 2.12 9.72 2.01 9.62C1.93 9.5 1.93 9.39 1.95 9.25C2.04 9.06 2.2 9.04 2.4 9.06Z" fill="#171717" fill-opacity="1.000000" fill-rule="nonzero"/>
	</g>
</svg>
