<svg width="15.000000" height="15.000000" viewBox="0 0 9 9" fill="none" xmlns="http://www.w3.org/2000/svg" xmlns:xlink="http://www.w3.org/1999/xlink">

	<defs>
		<clipPath id="clip287_908">
			<rect id="Simplification" rx="-0.500000" width="8.000000" height="8.000000" transform="translate(0.500000 0.500000)" fill="white" fill-opacity="0"/>
		</clipPath>
	</defs>
	<rect id="Simplification" rx="-0.500000" width="8.000000" height="8.000000" transform="translate(0.500000 0.500000)" fill="#FFFFFF" fill-opacity="0"/>
	<g clip-path="url(#clip287_908)">
		<path id="Vector" d="M5.25 0.63C5.27 0.64 5.28 0.64 5.3 0.65C5.61 0.84 5.86 1.07 5.98 1.43C6.01 1.59 6.01 1.73 5.98 1.89C5.98 1.9 5.98 1.92 5.98 1.93C5.95 2.08 5.92 2.23 5.88 2.38C5.88 2.41 5.87 2.44 5.86 2.47C5.85 2.53 5.84 2.59 5.82 2.65C5.81 2.73 5.79 2.81 5.77 2.89C5.76 2.95 5.74 3.01 5.73 3.07C5.72 3.1 5.72 3.13 5.71 3.16C5.7 3.2 5.69 3.24 5.68 3.28C5.68 3.29 5.68 3.31 5.68 3.32C5.66 3.4 5.66 3.4 5.64 3.44C5.66 3.44 5.68 3.44 5.7 3.44C5.89 3.44 6.07 3.44 6.26 3.44C6.36 3.44 6.46 3.44 6.55 3.44C6.65 3.44 6.74 3.44 6.83 3.44C6.87 3.44 6.91 3.44 6.94 3.43C7.38 3.43 7.74 3.51 8.07 3.82C8.31 4.07 8.43 4.4 8.43 4.74C8.42 5.16 8.22 5.46 7.99 5.79C7.93 5.88 7.87 5.96 7.82 6.04C7.81 6.06 7.79 6.08 7.78 6.1C7.66 6.28 7.54 6.46 7.42 6.64C7.26 6.89 7.09 7.14 6.92 7.39C6.9 7.42 6.88 7.46 6.86 7.49C6.56 7.94 6.24 8.3 5.69 8.42C5.51 8.45 5.33 8.44 5.14 8.44C5.1 8.44 5.06 8.44 5.01 8.44C4.92 8.44 4.83 8.44 4.74 8.44C4.62 8.44 4.51 8.44 4.39 8.44C4.3 8.44 4.21 8.44 4.12 8.44C4.08 8.44 4.03 8.44 3.99 8.44C3.48 8.44 3.08 8.33 2.7 7.98C2.7 7.99 2.69 7.99 2.69 8C2.63 8.09 2.59 8.15 2.49 8.18C2.46 8.19 2.42 8.19 2.39 8.19C2.37 8.19 2.36 8.19 2.34 8.19C2.33 8.19 2.31 8.19 2.3 8.19C2.28 8.19 2.27 8.19 2.25 8.19C2.2 8.19 2.14 8.19 2.09 8.19C2.06 8.19 2.02 8.19 1.98 8.19C1.9 8.19 1.83 8.19 1.75 8.19C1.65 8.19 1.55 8.19 1.46 8.19C1.38 8.19 1.3 8.19 1.23 8.19C1.19 8.19 1.16 8.19 1.12 8.19C1.07 8.19 1.02 8.19 0.97 8.19C0.95 8.19 0.94 8.19 0.92 8.19C0.8 8.19 0.72 8.17 0.63 8.08C0.55 7.97 0.55 7.87 0.55 7.74C0.55 7.72 0.55 7.7 0.55 7.69C0.55 7.62 0.55 7.56 0.55 7.5C0.55 7.46 0.55 7.41 0.55 7.37C0.55 7.26 0.55 7.16 0.55 7.05C0.55 6.96 0.55 6.87 0.55 6.79C0.55 6.78 0.55 6.76 0.55 6.75C0.55 6.73 0.55 6.7 0.55 6.67C0.55 6.44 0.55 6.2 0.55 5.97C0.55 5.75 0.55 5.54 0.55 5.32C0.55 5.1 0.55 4.88 0.55 4.66C0.55 4.53 0.55 4.41 0.55 4.28C0.55 4.17 0.55 4.05 0.55 3.93C0.55 3.89 0.55 3.85 0.55 3.8C0.55 3.74 0.55 3.69 0.55 3.63C0.55 3.61 0.55 3.59 0.55 3.58C0.55 3.46 0.56 3.36 0.64 3.26C0.65 3.26 0.66 3.25 0.67 3.24C0.68 3.23 0.69 3.22 0.7 3.21C0.78 3.17 0.87 3.17 0.96 3.17C0.98 3.17 0.99 3.17 1.01 3.17C1.06 3.17 1.11 3.17 1.17 3.17C1.2 3.17 1.24 3.17 1.28 3.17C1.35 3.17 1.43 3.17 1.51 3.17C1.61 3.17 1.7 3.17 1.8 3.17C1.88 3.17 1.95 3.17 2.03 3.17C2.06 3.17 2.1 3.17 2.14 3.17C2.19 3.17 2.24 3.17 2.29 3.17C2.3 3.17 2.32 3.17 2.33 3.17C2.44 3.17 2.54 3.18 2.63 3.26C2.65 3.28 2.65 3.28 2.65 3.32C2.72 3.25 2.78 3.18 2.83 3.1C2.85 3.08 2.85 3.08 2.86 3.06C2.95 2.94 3.04 2.82 3.13 2.69C3.16 2.65 3.19 2.61 3.22 2.57C3.36 2.37 3.49 2.17 3.62 1.96C3.65 1.91 3.68 1.87 3.71 1.82C3.81 1.65 3.92 1.48 4.02 1.31C4.03 1.28 4.03 1.28 4.05 1.25C4.1 1.17 4.14 1.08 4.19 1C4.31 0.79 4.46 0.64 4.7 0.57C4.88 0.53 5.09 0.54 5.25 0.63ZM4.72 1.26C4.69 1.31 4.66 1.35 4.64 1.4C4.62 1.43 4.6 1.47 4.58 1.5C4.57 1.52 4.56 1.54 4.55 1.56C4.39 1.82 4.23 2.09 4.06 2.35C4.04 2.39 4.01 2.43 3.99 2.47C3.11 3.87 3.11 3.87 2.75 4.07C2.71 4.1 2.7 4.12 2.69 4.18C2.69 4.25 2.69 4.32 2.69 4.4C2.69 4.43 2.69 4.45 2.68 4.48C2.68 4.56 2.68 4.63 2.68 4.71C2.68 4.76 2.68 4.81 2.68 4.85C2.68 5.02 2.68 5.19 2.68 5.35C2.68 5.51 2.68 5.66 2.68 5.82C2.68 5.95 2.67 6.09 2.67 6.22C2.67 6.3 2.67 6.38 2.67 6.46C2.65 6.89 2.65 6.89 2.85 7.25C2.87 7.27 2.89 7.29 2.92 7.31C2.99 7.38 3.05 7.47 3.11 7.56C3.3 7.76 3.56 7.85 3.83 7.87C3.94 7.87 4.06 7.87 4.18 7.87C4.21 7.87 4.25 7.87 4.28 7.87C4.35 7.87 4.42 7.87 4.5 7.87C4.59 7.87 4.68 7.87 4.77 7.87C4.84 7.87 4.91 7.87 4.98 7.87C5.02 7.87 5.05 7.87 5.08 7.87C5.45 7.88 5.79 7.85 6.07 7.58C6.19 7.45 6.29 7.3 6.38 7.15C6.44 7.06 6.5 6.98 6.55 6.89C6.56 6.87 6.58 6.85 6.59 6.83C6.71 6.65 6.83 6.48 6.95 6.3C7.13 6.03 7.31 5.76 7.48 5.49C7.49 5.48 7.51 5.46 7.52 5.44C7.55 5.4 7.58 5.35 7.61 5.3C7.62 5.29 7.63 5.27 7.64 5.26C7.68 5.2 7.72 5.13 7.76 5.07C7.77 5.06 7.77 5.05 7.78 5.04C7.86 4.9 7.87 4.72 7.83 4.57C7.77 4.36 7.65 4.21 7.46 4.1C7.32 4.03 7.19 4.01 7.03 4.01C7.01 4.01 6.99 4.01 6.97 4.01C6.93 4.01 6.89 4.01 6.84 4.01C6.78 4.01 6.71 4.01 6.64 4.01C6.49 4.01 6.33 4.01 6.18 4.01C6.02 4.01 5.87 4.01 5.72 4.01C5.65 4.01 5.58 4.01 5.52 4.01C5.48 4.01 5.43 4.01 5.39 4.01C5.38 4.01 5.36 4.01 5.34 4.01C5.24 4.01 5.17 4 5.09 3.95C5.02 3.87 5 3.8 5 3.7C5.01 3.62 5.02 3.54 5.04 3.47C5.05 3.45 5.05 3.43 5.05 3.41C5.07 3.36 5.08 3.3 5.09 3.24C5.1 3.2 5.11 3.16 5.12 3.12C5.14 3.01 5.17 2.91 5.19 2.8C5.23 2.63 5.27 2.46 5.31 2.29C5.32 2.23 5.33 2.17 5.35 2.12C5.35 2.08 5.36 2.04 5.37 2.01C5.37 1.99 5.38 1.97 5.38 1.96C5.43 1.77 5.43 1.77 5.41 1.57C5.4 1.56 5.4 1.55 5.39 1.53C5.34 1.41 5.25 1.33 5.14 1.25C5.12 1.24 5.12 1.24 5.1 1.23C5.02 1.16 4.97 1.14 4.87 1.13C4.79 1.15 4.76 1.2 4.72 1.26ZM1.14 3.76C1.14 5.03 1.14 6.3 1.14 7.61C1.46 7.61 1.79 7.61 2.12 7.61C2.12 6.34 2.12 5.07 2.12 3.76C1.8 3.76 1.47 3.76 1.14 3.76Z" fill="#171717" fill-opacity="1.000000" fill-rule="nonzero"/>
	</g>
</svg>
