<svg width="12.000000" height="12.000000" viewBox="0 0 12 12" fill="none" xmlns="http://www.w3.org/2000/svg" xmlns:xlink="http://www.w3.org/1999/xlink">
	<defs>
		<clipPath id="clip287_1355">
			<rect id="Simplification" rx="-0.500000" width="11.000000" height="11.000000" transform="translate(0.500000 0.500000)" fill="white" fill-opacity="0"/>
		</clipPath>
	</defs>
	<rect id="Simplification" rx="-0.500000" width="11.000000" height="11.000000" transform="translate(0.500000 0.500000)" fill="#FFFFFF" fill-opacity="0"/>
	<g clip-path="url(#clip287_1355)">
		<path id="Vector" d="M9.65 0.7C9.79 0.84 9.8 1.03 9.82 1.22C9.82 1.25 9.82 1.29 9.83 1.32C9.84 1.4 9.84 1.49 9.85 1.57C9.86 1.64 9.87 1.71 9.87 1.78C9.88 1.86 9.89 1.94 9.9 2.03C9.9 2.06 9.91 2.09 9.91 2.12C9.95 2.55 9.95 2.55 9.86 2.69C9.66 2.93 9.24 2.9 8.95 2.93C8.87 2.94 8.8 2.95 8.73 2.96C8.52 2.98 8.3 3 8.09 3C8.04 3.01 8.04 3.01 8 3.01C7.87 2.99 7.8 2.93 7.72 2.84C7.65 2.74 7.65 2.64 7.66 2.53C7.7 2.42 7.76 2.34 7.85 2.27C7.97 2.22 8.09 2.21 8.23 2.2C8.26 2.19 8.3 2.19 8.34 2.19C8.36 2.18 8.36 2.18 8.39 2.18C8.43 2.17 8.48 2.16 8.53 2.15C7.9 1.77 7.24 1.51 6.51 1.42C6.49 1.42 6.47 1.42 6.44 1.42C5.33 1.28 4.13 1.63 3.25 2.3C3.18 2.35 3.12 2.4 3.07 2.46C3.04 2.48 3.04 2.48 3.01 2.51C2.95 2.56 2.89 2.61 2.83 2.67C2.82 2.68 2.81 2.69 2.8 2.7C2.49 2.98 2.24 3.31 2.03 3.67C2.02 3.69 2.02 3.71 2.01 3.72C1.4 4.8 1.26 6.07 1.58 7.26C1.93 8.43 2.71 9.42 3.78 10.02C4.85 10.6 6.11 10.74 7.28 10.41C7.96 10.21 8.58 9.88 9.09 9.39C9.12 9.37 9.15 9.34 9.18 9.32C10.01 8.59 10.49 7.45 10.59 6.37C10.59 6.27 10.6 6.17 10.6 6.07C10.61 5.93 10.63 5.83 10.72 5.71C10.81 5.64 10.88 5.6 11 5.59C11.13 5.6 11.23 5.64 11.31 5.74C11.51 6.02 11.37 6.6 11.31 6.91C11.09 8.1 10.51 9.27 9.56 10.05C9.53 10.07 9.53 10.07 9.5 10.1C8.44 11.02 7 11.45 5.61 11.37C4.42 11.29 3.27 10.82 2.39 10C2.34 9.96 2.3 9.92 2.25 9.88C1.26 9.01 0.71 7.65 0.61 6.36C0.53 4.97 0.96 3.57 1.88 2.51C1.91 2.47 1.95 2.43 1.99 2.39C2.03 2.34 2.07 2.3 2.11 2.25C2.94 1.31 4.25 0.73 5.48 0.63C5.64 0.62 5.81 0.62 5.97 0.62C6 0.62 6 0.62 6.04 0.62C6.4 0.62 6.74 0.64 7.1 0.72C7.12 0.73 7.14 0.73 7.17 0.74C7.84 0.89 8.46 1.17 9.04 1.54C9.04 1.52 9.04 1.49 9.03 1.47C8.96 0.94 8.96 0.94 9.03 0.79C9.1 0.71 9.15 0.65 9.25 0.61C9.41 0.59 9.52 0.6 9.65 0.7Z" fill="#171717" fill-opacity="1.000000" fill-rule="nonzero"/>
		<path id="Vector" d="M3.44 4.96C3.53 4.98 3.6 5.01 3.68 5.05C3.7 5.07 3.73 5.08 3.75 5.1C3.78 5.11 3.81 5.13 3.83 5.14C3.86 5.16 3.89 5.17 3.91 5.19C3.97 5.22 4.03 5.26 4.08 5.29C4.21 5.37 4.34 5.44 4.47 5.51C4.52 5.54 4.57 5.57 4.62 5.6C4.65 5.62 4.67 5.63 4.7 5.65C4.77 5.68 4.83 5.72 4.9 5.76C4.94 5.79 4.98 5.81 5.02 5.83C5.07 5.86 5.13 5.89 5.18 5.92C5.2 5.94 5.22 5.95 5.25 5.96C5.27 5.98 5.29 5.99 5.31 6C5.42 6.06 5.53 6.12 5.64 6.18C5.64 7.02 5.64 7.85 5.64 8.71C5.54 8.68 5.47 8.65 5.37 8.6C5.34 8.58 5.34 8.58 5.3 8.56C5.28 8.54 5.25 8.53 5.23 8.51C5.2 8.5 5.17 8.48 5.15 8.47C4.99 8.38 4.83 8.29 4.67 8.2C4.57 8.14 4.47 8.08 4.37 8.02C4.34 8 4.31 7.99 4.28 7.97C4.23 7.94 4.18 7.91 4.12 7.88C3.8 7.69 3.56 7.52 3.45 7.15C3.43 7.06 3.44 6.98 3.44 6.89C3.44 6.87 3.44 6.85 3.44 6.83C3.44 6.76 3.44 6.69 3.44 6.62C3.44 6.57 3.44 6.53 3.44 6.48C3.44 6.35 3.44 6.23 3.44 6.1C3.44 5.97 3.44 5.85 3.44 5.72C3.44 5.47 3.44 5.21 3.44 4.96Z" fill="#171717" fill-opacity="1.000000" fill-rule="nonzero"/>
		<path id="Vector" d="M6.73 3.45C6.75 3.46 6.78 3.48 6.81 3.5C6.87 3.53 6.93 3.57 6.99 3.6C7.1 3.66 7.2 3.73 7.31 3.79C7.53 3.91 7.74 4.04 7.95 4.16C7.97 4.17 7.99 4.19 8.01 4.2C8.03 4.21 8.05 4.22 8.07 4.23C8.09 4.24 8.09 4.24 8.12 4.26C8.15 4.28 8.15 4.28 8.17 4.33C7.41 4.77 7.41 4.77 7.34 4.82C7.29 4.84 7.24 4.87 7.19 4.9C7.07 4.97 6.95 5.04 6.83 5.1C6.79 5.13 6.75 5.15 6.71 5.18C6.66 5.21 6.61 5.23 6.56 5.26C6.53 5.28 6.51 5.29 6.49 5.31C6.46 5.32 6.44 5.33 6.42 5.34C6.37 5.37 6.32 5.4 6.27 5.43C6.25 5.45 6.22 5.46 6.2 5.48C6.18 5.49 6.15 5.51 6.13 5.52C6.05 5.55 6.01 5.56 5.92 5.55C5.86 5.52 5.86 5.52 5.8 5.49C5.78 5.47 5.75 5.46 5.73 5.44C5.69 5.42 5.69 5.42 5.65 5.4C5.62 5.38 5.6 5.36 5.57 5.35C5.51 5.31 5.46 5.28 5.4 5.25C5.27 5.17 5.14 5.1 5.01 5.02C4.96 4.99 4.91 4.96 4.86 4.94C4.77 4.88 4.68 4.83 4.58 4.78C4.54 4.75 4.5 4.73 4.46 4.7C4.41 4.68 4.36 4.65 4.3 4.62C4.15 4.53 3.99 4.43 3.84 4.33C3.87 4.24 3.89 4.24 3.97 4.19C4.01 4.17 4.01 4.17 4.04 4.15C4.08 4.13 4.08 4.13 4.12 4.11C4.18 4.08 4.23 4.05 4.28 4.02C4.3 4.02 4.31 4.01 4.33 4C4.46 3.93 4.59 3.85 4.73 3.77C4.75 3.76 4.77 3.74 4.8 3.73C4.91 3.66 5.02 3.6 5.13 3.53C5.17 3.51 5.21 3.48 5.25 3.46C5.31 3.43 5.36 3.4 5.41 3.37C5.89 3.09 6.26 3.17 6.73 3.45Z" fill="#171717" fill-opacity="1.000000" fill-rule="nonzero"/>
		<path id="Vector" d="M8.55 4.96C8.55 5.24 8.55 5.52 8.55 5.79C8.56 5.92 8.56 6.05 8.56 6.18C8.56 6.3 8.56 6.43 8.56 6.55C8.56 6.6 8.56 6.65 8.56 6.69C8.56 7.04 8.55 7.33 8.29 7.59C8.19 7.7 8.07 7.76 7.94 7.83C7.92 7.85 7.9 7.86 7.87 7.88C7.82 7.91 7.77 7.94 7.71 7.97C7.61 8.02 7.51 8.08 7.41 8.14C7.33 8.19 7.26 8.23 7.18 8.27C7.09 8.33 6.99 8.38 6.9 8.44C6.84 8.47 6.78 8.5 6.73 8.54C6.69 8.56 6.65 8.58 6.61 8.61C6.58 8.62 6.56 8.63 6.53 8.65C6.51 8.66 6.49 8.67 6.47 8.69C6.42 8.71 6.42 8.71 6.37 8.71C6.37 7.88 6.37 7.04 6.37 6.18C6.59 6.06 6.8 5.94 7.03 5.81C7.2 5.71 7.38 5.6 7.56 5.5C7.64 5.45 7.72 5.41 7.8 5.36C7.83 5.34 7.86 5.33 7.88 5.31C7.94 5.28 7.99 5.25 8.04 5.22C8.06 5.21 8.09 5.2 8.11 5.18C8.13 5.17 8.16 5.16 8.18 5.14C8.26 5.09 8.35 5.04 8.43 4.99C8.48 4.96 8.48 4.96 8.55 4.96Z" fill="#171717" fill-opacity="1.000000" fill-rule="nonzero"/>
	</g>
</svg>
