<svg width="15.000000" height="15.000000" viewBox="0 0 11 11" fill="none" xmlns="http://www.w3.org/2000/svg" xmlns:xlink="http://www.w3.org/1999/xlink">
	<desc>
			Created with Pixso.
	</desc>
	<defs>
		<clipPath id="clip287_1208">
			<rect id="Simplification" rx="-0.500000" width="10.000000" height="10.000000" transform="translate(0.500000 0.500000)" fill="white" fill-opacity="0"/>
		</clipPath>
	</defs>
	<rect id="Simplification" rx="-0.500000" width="10.000000" height="10.000000" transform="translate(0.500000 0.500000)" fill="#FFFFFF" fill-opacity="0"/>
	<g clip-path="url(#clip287_1208)">
		<path id="Vector" d="M8.46 1.89C8.48 1.91 8.48 1.91 8.5 1.93C8.53 1.95 8.56 1.97 8.58 1.99C8.6 2.01 8.61 2.02 8.63 2.04C8.62 2.12 8.58 2.16 8.52 2.22C8.45 2.3 8.39 2.37 8.32 2.45C8.26 2.53 8.19 2.61 8.13 2.68C8.04 2.77 7.96 2.87 7.88 2.97C7.81 3.05 7.74 3.14 7.66 3.22C7.59 3.19 7.54 3.14 7.47 3.09C6.85 2.57 6.04 2.32 5.23 2.39C4.38 2.47 3.62 2.88 3.07 3.53C2.7 3.98 2.48 4.53 2.4 5.11C2.4 5.13 2.4 5.15 2.39 5.17C2.38 5.28 2.38 5.39 2.38 5.5C2.38 5.52 2.38 5.53 2.38 5.55C2.38 5.59 2.38 5.63 2.38 5.67C2.41 5.67 2.41 5.67 2.45 5.67C2.53 5.67 2.61 5.67 2.69 5.67C2.73 5.67 2.77 5.67 2.8 5.67C2.85 5.68 2.91 5.68 2.96 5.68C2.98 5.68 2.98 5.68 3 5.68C3.13 5.68 3.2 5.71 3.29 5.8C3.33 5.87 3.34 5.92 3.35 6.01C3.31 6.15 3.22 6.23 3.12 6.34C3.07 6.39 3.02 6.45 2.97 6.51C2.89 6.62 2.8 6.71 2.71 6.81C2.63 6.9 2.55 6.99 2.47 7.09C2.42 7.15 2.36 7.22 2.3 7.28C2.21 7.38 2.13 7.48 2.04 7.58C1.98 7.66 1.91 7.74 1.84 7.81C1.78 7.87 1.74 7.93 1.69 7.99C1.63 7.98 1.61 7.97 1.56 7.92C1.55 7.9 1.53 7.88 1.52 7.86C1.45 7.77 1.37 7.68 1.29 7.6C1.22 7.52 1.15 7.44 1.08 7.35C1.01 7.26 0.93 7.18 0.85 7.1C0.76 6.99 0.67 6.89 0.58 6.78C0.53 6.71 0.47 6.65 0.41 6.59C0.32 6.49 0.23 6.39 0.14 6.28C0.1 6.23 0.1 6.23 0.07 6.19C0 6.12 -0.01 6.07 -0.02 5.98C-0.01 5.9 -0.01 5.85 0.04 5.78C0.14 5.7 0.22 5.68 0.36 5.68C0.4 5.68 0.4 5.68 0.44 5.68C0.47 5.68 0.5 5.69 0.53 5.69C0.56 5.69 0.59 5.69 0.62 5.69C0.69 5.69 0.76 5.69 0.83 5.69C0.83 5.66 0.83 5.64 0.83 5.61C0.81 4.65 1.06 3.66 1.63 2.87C1.64 2.85 1.66 2.83 1.67 2.81C1.97 2.4 2.32 2.03 2.72 1.74C2.74 1.72 2.76 1.71 2.78 1.69C4.45 0.49 6.88 0.54 8.46 1.89Z" fill="#979797" fill-opacity="1.000000" fill-rule="nonzero"/>
		<path id="Vector" d="M9.3 3.43C9.36 3.44 9.38 3.45 9.43 3.5C9.44 3.52 9.45 3.54 9.47 3.56C9.54 3.65 9.62 3.74 9.71 3.83C9.8 3.93 9.89 4.04 9.98 4.15C10.03 4.21 10.09 4.27 10.15 4.33C10.22 4.41 10.29 4.5 10.36 4.58C10.43 4.67 10.51 4.76 10.59 4.84C10.7 4.96 10.81 5.09 10.91 5.22C10.92 5.23 10.94 5.25 10.96 5.27C11.02 5.36 11.01 5.45 11 5.56C10.96 5.63 10.91 5.68 10.84 5.71C10.77 5.73 10.71 5.74 10.63 5.74C10.61 5.74 10.58 5.74 10.55 5.74C10.52 5.74 10.49 5.74 10.46 5.74C10.43 5.75 10.4 5.75 10.37 5.75C10.3 5.75 10.23 5.75 10.16 5.75C10.16 5.77 10.15 5.78 10.15 5.8C10.05 6.8 9.74 7.74 9.06 8.5C9.05 8.52 9.03 8.54 9.02 8.55C8.79 8.81 8.55 9.05 8.27 9.25C8.24 9.28 8.24 9.28 8.21 9.3C7.21 10.02 5.96 10.29 4.75 10.1C4.08 9.99 3.43 9.76 2.87 9.36C2.86 9.35 2.85 9.35 2.84 9.34C2.63 9.19 2.63 9.19 2.57 9.1C2.59 9.09 2.6 9.08 2.61 9.06C2.72 8.94 2.83 8.82 2.93 8.69C2.98 8.63 3.03 8.58 3.08 8.52C3.16 8.43 3.24 8.34 3.32 8.24C3.4 8.15 3.48 8.06 3.56 7.97C3.63 8 3.68 8.03 3.74 8.07C4.21 8.39 4.75 8.58 5.32 8.61C5.35 8.61 5.37 8.61 5.4 8.61C6.26 8.63 7.06 8.31 7.69 7.72C7.93 7.48 8.11 7.21 8.27 6.91C8.28 6.89 8.29 6.86 8.31 6.84C8.48 6.49 8.56 6.11 8.61 5.73C8.59 5.73 8.57 5.73 8.55 5.73C8.47 5.73 8.39 5.73 8.31 5.73C8.27 5.74 8.24 5.74 8.2 5.74C8.15 5.74 8.1 5.74 8.05 5.74C8.04 5.74 8.02 5.74 8.01 5.74C7.88 5.74 7.79 5.71 7.7 5.62C7.66 5.54 7.64 5.5 7.64 5.41C7.68 5.27 7.77 5.19 7.87 5.08C7.92 5.03 7.97 4.97 8.02 4.91C8.1 4.81 8.18 4.72 8.26 4.62C8.33 4.56 8.39 4.48 8.45 4.41C8.53 4.31 8.62 4.21 8.71 4.12C8.79 4.03 8.87 3.93 8.95 3.84C9.01 3.76 9.08 3.68 9.15 3.61C9.2 3.55 9.25 3.49 9.3 3.43Z" fill="#979797" fill-opacity="1.000000" fill-rule="nonzero"/>
	</g>
</svg>
