<svg width="15.000000" height="15.000000" viewBox="0 0 9 9" fill="none" xmlns="http://www.w3.org/2000/svg" xmlns:xlink="http://www.w3.org/1999/xlink">
	
	<defs>
		<clipPath id="clip287_1214">
			<rect id="Simplification" rx="-0.500000" width="8.000000" height="8.000000" transform="translate(0.500000 0.500000)" fill="white" fill-opacity="0"/>
		</clipPath>
	</defs>
	<rect id="Simplification" rx="-0.500000" width="8.000000" height="8.000000" transform="translate(0.500000 0.500000)" fill="#FFFFFF" fill-opacity="0"/>
	<g clip-path="url(#clip287_1214)">
		<path id="Vector" d="M4.62 0.47C4.69 0.52 4.74 0.57 4.78 0.65C4.78 0.69 4.78 0.73 4.78 0.77C4.78 0.78 4.78 0.8 4.78 0.81C4.78 0.85 4.78 0.89 4.78 0.94C4.78 0.97 4.78 1 4.78 1.03C4.78 1.1 4.78 1.18 4.78 1.26C4.78 1.34 4.78 1.42 4.78 1.5C4.78 1.65 4.78 1.81 4.78 1.96C4.96 1.96 5.15 1.96 5.34 1.96C5.34 1.91 5.34 1.86 5.34 1.8C5.34 1.75 5.34 1.7 5.33 1.65C5.33 1.61 5.33 1.57 5.33 1.54C5.33 1.49 5.33 1.44 5.33 1.38C5.33 1.37 5.33 1.35 5.33 1.34C5.33 1.24 5.34 1.18 5.41 1.1C5.49 1.03 5.55 1.01 5.65 1.01C5.74 1.02 5.79 1.06 5.85 1.12C5.89 1.18 5.9 1.21 5.9 1.28C5.9 1.3 5.9 1.31 5.9 1.33C5.9 1.34 5.9 1.36 5.9 1.38C5.9 1.4 5.9 1.4 5.9 1.43C5.9 1.48 5.9 1.53 5.9 1.59C5.9 1.62 5.9 1.66 5.9 1.7C5.9 1.79 5.9 1.87 5.9 1.96C5.93 1.96 5.93 1.96 5.96 1.96C5.98 1.96 6.01 1.96 6.03 1.96C6.05 1.96 6.06 1.96 6.07 1.96C6.19 1.96 6.3 1.99 6.41 2.03C6.43 2.04 6.44 2.05 6.46 2.05C6.7 2.16 6.88 2.37 6.97 2.61C7.01 2.73 7.03 2.83 7.03 2.95C7.03 2.97 7.03 2.98 7.03 2.99C7.03 3.02 7.03 3.06 7.03 3.09C7.05 3.09 7.07 3.09 7.09 3.09C7.18 3.09 7.26 3.09 7.34 3.08C7.38 3.08 7.42 3.08 7.45 3.08C7.5 3.08 7.55 3.08 7.61 3.08C7.62 3.08 7.64 3.08 7.65 3.08C7.75 3.08 7.81 3.09 7.89 3.16C7.96 3.24 7.98 3.3 7.98 3.4C7.97 3.49 7.93 3.54 7.87 3.6C7.81 3.64 7.78 3.65 7.71 3.65C7.69 3.65 7.69 3.65 7.66 3.65C7.65 3.65 7.63 3.65 7.61 3.65C7.6 3.65 7.58 3.65 7.56 3.65C7.51 3.65 7.46 3.65 7.4 3.65C7.37 3.65 7.33 3.65 7.29 3.65C7.2 3.65 7.12 3.65 7.03 3.65C7.03 3.84 7.03 4.02 7.03 4.21C7.07 4.21 7.1 4.21 7.15 4.21C7.28 4.21 7.41 4.21 7.54 4.21C7.62 4.21 7.69 4.21 7.77 4.21C7.85 4.21 7.93 4.21 8 4.21C8.03 4.21 8.06 4.21 8.09 4.21C8.13 4.21 8.17 4.21 8.21 4.21C8.23 4.21 8.26 4.21 8.28 4.21C8.38 4.22 8.43 4.26 8.49 4.33C8.54 4.4 8.55 4.48 8.54 4.57C8.5 4.67 8.44 4.73 8.34 4.78C8.3 4.78 8.26 4.78 8.22 4.78C8.2 4.78 8.2 4.78 8.18 4.78C8.14 4.78 8.1 4.78 8.05 4.78C8.02 4.78 7.99 4.78 7.96 4.78C7.89 4.78 7.81 4.78 7.73 4.78C7.65 4.78 7.57 4.78 7.49 4.78C7.34 4.78 7.18 4.78 7.03 4.78C7.03 4.96 7.03 5.15 7.03 5.34C7.08 5.34 7.13 5.34 7.19 5.34C7.24 5.34 7.29 5.34 7.34 5.33C7.38 5.33 7.42 5.33 7.45 5.33C7.5 5.33 7.55 5.33 7.61 5.33C7.62 5.33 7.64 5.33 7.65 5.33C7.75 5.33 7.81 5.34 7.89 5.41C7.96 5.49 7.98 5.55 7.98 5.65C7.97 5.74 7.93 5.79 7.87 5.85C7.81 5.89 7.78 5.9 7.71 5.9C7.69 5.9 7.69 5.9 7.66 5.9C7.65 5.9 7.63 5.9 7.61 5.9C7.6 5.9 7.58 5.9 7.56 5.9C7.51 5.9 7.46 5.9 7.4 5.9C7.37 5.9 7.33 5.9 7.29 5.9C7.2 5.9 7.12 5.9 7.03 5.9C7.03 5.93 7.03 5.93 7.03 5.96C7.03 5.98 7.03 6.01 7.03 6.03C7.03 6.05 7.03 6.06 7.03 6.07C7.03 6.19 7 6.3 6.96 6.41C6.95 6.43 6.94 6.44 6.94 6.46C6.83 6.7 6.62 6.88 6.38 6.97C6.26 7.01 6.16 7.03 6.04 7.03C6.02 7.03 6.01 7.03 6 7.03C5.96 7.03 5.93 7.03 5.9 7.03C5.9 7.05 5.9 7.07 5.9 7.09C5.9 7.18 5.9 7.26 5.91 7.34C5.91 7.38 5.91 7.42 5.91 7.45C5.91 7.5 5.91 7.55 5.91 7.61C5.91 7.62 5.91 7.64 5.91 7.65C5.91 7.75 5.9 7.81 5.83 7.89C5.76 7.96 5.71 7.97 5.61 7.98C5.53 7.97 5.48 7.96 5.42 7.9C5.36 7.83 5.34 7.79 5.34 7.71C5.34 7.69 5.34 7.68 5.34 7.66C5.34 7.65 5.34 7.63 5.34 7.61C5.34 7.59 5.34 7.59 5.34 7.56C5.34 7.51 5.34 7.46 5.34 7.4C5.34 7.37 5.34 7.33 5.34 7.29C5.34 7.2 5.34 7.12 5.34 7.03C5.15 7.03 4.97 7.03 4.78 7.03C4.78 7.07 4.78 7.11 4.78 7.15C4.78 7.28 4.78 7.41 4.78 7.54C4.78 7.62 4.78 7.69 4.78 7.77C4.78 7.85 4.78 7.93 4.78 8C4.78 8.03 4.78 8.06 4.78 8.09C4.78 8.13 4.78 8.17 4.78 8.21C4.78 8.23 4.78 8.26 4.78 8.28C4.77 8.37 4.73 8.43 4.66 8.49C4.58 8.54 4.52 8.54 4.42 8.54C4.32 8.5 4.26 8.44 4.21 8.34C4.21 8.3 4.21 8.26 4.21 8.22C4.21 8.21 4.21 8.19 4.21 8.18C4.21 8.14 4.21 8.1 4.21 8.05C4.21 8.02 4.21 7.99 4.21 7.96C4.21 7.89 4.21 7.81 4.21 7.73C4.21 7.65 4.21 7.57 4.21 7.49C4.21 7.34 4.21 7.18 4.21 7.03C4.03 7.03 3.84 7.03 3.65 7.03C3.65 7.08 3.65 7.13 3.65 7.19C3.65 7.24 3.65 7.29 3.66 7.34C3.66 7.38 3.66 7.42 3.66 7.45C3.66 7.5 3.66 7.55 3.66 7.61C3.66 7.62 3.66 7.64 3.66 7.65C3.66 7.75 3.65 7.81 3.58 7.89C3.51 7.96 3.46 7.97 3.36 7.98C3.28 7.97 3.23 7.96 3.17 7.9C3.11 7.83 3.09 7.79 3.09 7.71C3.09 7.69 3.09 7.68 3.09 7.66C3.09 7.65 3.09 7.63 3.09 7.61C3.09 7.59 3.09 7.59 3.09 7.56C3.09 7.51 3.09 7.46 3.09 7.4C3.09 7.37 3.09 7.33 3.09 7.29C3.09 7.2 3.09 7.12 3.09 7.03C3.06 7.03 3.06 7.03 3.03 7.03C3.01 7.03 2.98 7.03 2.96 7.03C2.94 7.03 2.93 7.03 2.92 7.03C2.66 7.03 2.43 6.91 2.25 6.73C2.06 6.54 1.96 6.3 1.96 6.04C1.96 6.02 1.96 6.02 1.96 6C1.96 5.96 1.96 5.93 1.96 5.9C1.93 5.9 1.93 5.9 1.9 5.9C1.81 5.9 1.73 5.9 1.65 5.91C1.61 5.91 1.57 5.91 1.54 5.91C1.49 5.91 1.44 5.91 1.38 5.91C1.37 5.91 1.35 5.91 1.33 5.91C1.24 5.91 1.18 5.9 1.1 5.83C1.03 5.75 1.01 5.69 1.01 5.59C1.02 5.49 1.08 5.42 1.16 5.36C1.2 5.34 1.23 5.34 1.28 5.34C1.3 5.34 1.31 5.34 1.33 5.34C1.35 5.34 1.36 5.34 1.38 5.34C1.39 5.34 1.41 5.34 1.43 5.34C1.48 5.34 1.54 5.34 1.59 5.34C1.63 5.34 1.66 5.34 1.7 5.34C1.79 5.34 1.87 5.34 1.96 5.34C1.96 5.15 1.96 4.97 1.96 4.78C1.9 4.78 1.9 4.78 1.84 4.78C1.71 4.78 1.58 4.78 1.45 4.78C1.37 4.78 1.3 4.78 1.22 4.78C1.14 4.78 1.06 4.78 0.99 4.78C0.96 4.78 0.93 4.78 0.9 4.78C0.86 4.78 0.82 4.78 0.78 4.78C0.76 4.78 0.73 4.78 0.71 4.78C0.61 4.77 0.56 4.73 0.5 4.66C0.45 4.59 0.44 4.51 0.45 4.42C0.48 4.34 0.53 4.29 0.59 4.23C0.65 4.21 0.71 4.21 0.77 4.21C0.79 4.21 0.8 4.21 0.81 4.21C0.85 4.21 0.9 4.21 0.94 4.21C0.97 4.21 1 4.21 1.03 4.21C1.1 4.21 1.18 4.21 1.26 4.21C1.34 4.21 1.42 4.21 1.5 4.21C1.65 4.21 1.81 4.21 1.96 4.21C1.96 4.03 1.96 3.84 1.96 3.65C1.91 3.65 1.86 3.65 1.8 3.65C1.75 3.65 1.7 3.65 1.65 3.66C1.61 3.66 1.57 3.66 1.54 3.66C1.49 3.66 1.44 3.66 1.38 3.66C1.37 3.66 1.35 3.66 1.33 3.66C1.24 3.66 1.18 3.65 1.1 3.58C1.03 3.5 1.01 3.44 1.01 3.34C1.02 3.24 1.08 3.17 1.16 3.11C1.2 3.09 1.23 3.09 1.28 3.09C1.3 3.09 1.31 3.09 1.33 3.09C1.35 3.09 1.36 3.09 1.38 3.09C1.39 3.09 1.41 3.09 1.43 3.09C1.48 3.09 1.54 3.09 1.59 3.09C1.63 3.09 1.66 3.09 1.7 3.09C1.79 3.09 1.87 3.09 1.96 3.09C1.96 3.07 1.96 3.05 1.96 3.03C1.96 3.01 1.96 2.98 1.96 2.96C1.96 2.94 1.96 2.93 1.96 2.92C1.96 2.8 1.99 2.69 2.03 2.58C2.04 2.56 2.05 2.55 2.05 2.53C2.16 2.29 2.37 2.11 2.61 2.02C2.73 1.98 2.83 1.96 2.95 1.96C2.97 1.96 2.98 1.96 2.99 1.96C3.02 1.96 3.06 1.96 3.09 1.96C3.09 1.94 3.09 1.92 3.09 1.9C3.09 1.81 3.09 1.73 3.08 1.65C3.08 1.61 3.08 1.57 3.08 1.54C3.08 1.49 3.08 1.44 3.08 1.38C3.08 1.37 3.08 1.35 3.08 1.34C3.08 1.24 3.09 1.18 3.16 1.1C3.24 1.03 3.3 1.01 3.4 1.01C3.49 1.02 3.54 1.06 3.6 1.12C3.64 1.18 3.65 1.21 3.65 1.28C3.65 1.3 3.65 1.31 3.65 1.33C3.65 1.34 3.65 1.36 3.65 1.38C3.65 1.4 3.65 1.4 3.65 1.43C3.65 1.48 3.65 1.53 3.65 1.59C3.65 1.62 3.65 1.66 3.65 1.7C3.65 1.79 3.65 1.87 3.65 1.96C3.84 1.96 4.02 1.96 4.21 1.96C4.21 1.92 4.21 1.88 4.21 1.84C4.21 1.71 4.21 1.58 4.21 1.45C4.21 1.37 4.21 1.3 4.21 1.22C4.21 1.14 4.21 1.06 4.21 0.99C4.21 0.96 4.21 0.93 4.21 0.9C4.21 0.86 4.21 0.82 4.21 0.78C4.21 0.76 4.21 0.73 4.2 0.71C4.22 0.61 4.26 0.56 4.33 0.5C4.42 0.44 4.52 0.44 4.62 0.47ZM3.31 3.74C3.22 3.86 3.19 3.98 3.19 4.13C3.19 4.14 3.19 4.16 3.19 4.17C3.19 4.21 3.19 4.25 3.19 4.29C3.19 4.31 3.19 4.32 3.19 4.34C3.19 4.41 3.19 4.49 3.19 4.56C3.19 4.64 3.19 4.72 3.19 4.8C3.19 4.86 3.19 4.92 3.19 4.98C3.19 5.01 3.19 5.04 3.19 5.07C3.19 5.11 3.19 5.15 3.19 5.19C3.19 5.21 3.19 5.23 3.19 5.26C3.2 5.34 3.22 5.41 3.29 5.47C3.37 5.52 3.45 5.53 3.55 5.51C3.64 5.47 3.71 5.4 3.74 5.3C3.74 5.28 3.74 5.25 3.74 5.22C3.74 5.21 3.74 5.19 3.74 5.18C3.74 5.16 3.74 5.14 3.74 5.12C3.74 5.04 3.74 5.04 3.74 4.95C3.93 4.95 4.12 4.95 4.32 4.95C4.31 5.13 4.31 5.13 4.31 5.18C4.31 5.29 4.32 5.36 4.39 5.44C4.46 5.51 4.54 5.53 4.63 5.52C4.71 5.51 4.76 5.46 4.82 5.4C4.87 5.33 4.87 5.27 4.87 5.18C4.87 5.17 4.87 5.16 4.87 5.15C4.87 5.11 4.87 5.07 4.87 5.03C4.87 5 4.87 4.97 4.87 4.94C4.87 4.89 4.87 4.83 4.87 4.77C4.87 4.69 4.87 4.62 4.87 4.54C4.87 4.49 4.87 4.43 4.87 4.37C4.87 4.34 4.87 4.32 4.87 4.29C4.87 4.05 4.84 3.83 4.67 3.65C4.48 3.49 4.3 3.46 4.07 3.47C4.03 3.47 3.99 3.47 3.95 3.47C3.69 3.47 3.48 3.53 3.31 3.74ZM5.3 3.59C5.24 3.67 5.25 3.75 5.25 3.84C5.25 3.85 5.25 3.87 5.25 3.89C5.25 3.94 5.25 3.99 5.25 4.04C5.25 4.08 5.25 4.11 5.25 4.15C5.25 4.22 5.25 4.3 5.25 4.38C5.25 4.47 5.25 4.57 5.25 4.67C5.25 4.74 5.25 4.81 5.25 4.89C5.25 4.92 5.25 4.96 5.24 4.99C5.24 5.04 5.24 5.09 5.24 5.14C5.24 5.16 5.24 5.17 5.24 5.19C5.24 5.29 5.26 5.36 5.33 5.44C5.43 5.51 5.48 5.53 5.6 5.51C5.69 5.49 5.74 5.44 5.78 5.36C5.81 5.29 5.81 5.23 5.8 5.16C5.81 5.14 5.81 5.13 5.81 5.11C5.81 5.06 5.81 5 5.81 4.95C5.81 4.92 5.81 4.88 5.81 4.84C5.81 4.77 5.81 4.69 5.81 4.61C5.8 4.51 5.8 4.42 5.81 4.32C5.81 4.24 5.81 4.17 5.81 4.09C5.81 4.06 5.81 4.02 5.81 3.98C5.81 3.93 5.81 3.88 5.8 3.83C5.81 3.82 5.81 3.8 5.81 3.79C5.8 3.69 5.78 3.63 5.73 3.55C5.65 3.48 5.58 3.46 5.48 3.47C5.4 3.48 5.35 3.53 5.3 3.59Z" fill="#005864" fill-opacity="1.000000" fill-rule="nonzero"/>
		<path id="Vector" d="M3.9 4.01C3.92 4.01 3.94 4.01 3.96 4.01C3.98 4.01 4.01 4.01 4.03 4.01C4.05 4.01 4.07 4.01 4.1 4.01C4.13 4.01 4.13 4.01 4.16 4.01C4.18 4.01 4.2 4.01 4.22 4.01C4.27 4.02 4.27 4.02 4.3 4.04C4.32 4.08 4.33 4.1 4.32 4.15C4.32 4.17 4.32 4.17 4.32 4.19C4.32 4.21 4.32 4.23 4.32 4.24C4.32 4.3 4.32 4.35 4.32 4.41C4.13 4.41 3.94 4.41 3.74 4.41C3.74 4.35 3.74 4.3 3.74 4.24C3.74 4.23 3.74 4.21 3.73 4.19C3.73 4.18 3.73 4.17 3.73 4.15C3.73 4.14 3.73 4.12 3.73 4.11C3.74 4.07 3.74 4.07 3.76 4.04C3.81 4.01 3.84 4.01 3.9 4.01Z" fill="#005864" fill-opacity="1.000000" fill-rule="nonzero"/>
	</g>
</svg>
