<svg width="20" height="18" viewBox="0 0 20 18" fill="none" xmlns="http://www.w3.org/2000/svg">
<path d="M19.7656 0.406261C19.9935 0.604472 19.9935 0.604472 20.0081 0.774726C20.0142 1.14874 19.952 1.49719 19.8773 1.86124C19.864 1.92787 19.8508 1.99451 19.8376 2.06115C19.8016 2.24192 19.7651 2.42256 19.7284 2.60318C19.6895 2.7957 19.6511 2.98834 19.6126 3.18095C19.5469 3.50961 19.4809 3.8382 19.4147 4.16673C19.3197 4.63764 19.2252 5.10865 19.131 5.57969C18.9952 6.25793 18.8592 6.93612 18.723 7.61427C18.5196 8.62736 18.3178 9.64078 18.1174 10.6545C18.0594 10.948 18.0012 11.2414 17.9429 11.5348C17.7913 12.2978 17.641 13.061 17.4932 13.8247C17.4299 14.1517 17.3662 14.4787 17.3024 14.8057C17.251 15.0691 17.2002 15.3327 17.1499 15.5963C17.1192 15.7564 17.0879 15.9164 17.0566 16.0764C17.0422 16.1501 17.028 16.224 17.0141 16.2979C16.9951 16.399 16.9752 16.4999 16.9552 16.6009C16.9499 16.6298 16.9447 16.6588 16.9393 16.6886C16.863 17.0614 16.6368 17.3393 16.3281 17.5547C16.0154 17.7149 15.6723 17.6933 15.3384 17.6101C15.0603 17.5052 14.8357 17.2937 14.6077 17.1084C14.4758 17.0024 14.3411 16.9003 14.2065 16.7979C14.1501 16.7548 14.0937 16.7118 14.0373 16.6688C14.0091 16.6473 13.981 16.6259 13.952 16.6038C13.8129 16.4977 13.674 16.3914 13.5351 16.2852C13.4798 16.2428 13.4244 16.2005 13.3691 16.1582C13.2584 16.0736 13.1477 15.9889 13.0371 15.9043C13.0096 15.8834 12.9822 15.8624 12.954 15.8408C12.8988 15.7986 12.8436 15.7564 12.7884 15.7141C12.6481 15.6069 12.5078 15.4996 12.3675 15.3924C12.0774 15.1707 11.7876 14.9486 11.4984 14.7259C11.2622 14.5442 11.0253 14.3635 10.7886 14.1826C10.6494 14.0762 10.5102 13.9697 10.371 13.8633C10.3157 13.821 10.2604 13.7787 10.205 13.7363C10.0943 13.6517 9.98367 13.5671 9.87299 13.4824C9.84558 13.4615 9.81818 13.4405 9.78994 13.4189C9.73473 13.3767 9.67952 13.3345 9.62431 13.2923C9.48403 13.185 9.34375 13.0777 9.20343 12.9705C9.06482 12.8646 8.92623 12.7586 8.78769 12.6525C8.73807 12.6146 8.68844 12.5766 8.6388 12.5386C8.36071 12.3259 8.08479 12.1107 7.81244 11.8906C7.85738 11.8457 7.90233 11.8008 7.94733 11.7559C7.98863 11.7145 8.02972 11.6729 8.07062 11.6311C8.20982 11.4896 8.35355 11.3567 8.50382 11.2272C8.61353 11.1311 8.72083 11.0324 8.82807 10.9336C8.98079 10.793 9.13505 10.6545 9.29193 10.5186C9.39909 10.424 9.5042 10.3273 9.60932 10.2305C9.76204 10.0898 9.9163 9.95141 10.0732 9.81544C10.1803 9.72089 10.2854 9.62415 10.3906 9.52735C10.5442 9.38591 10.6992 9.24651 10.857 9.10972C10.9566 9.02227 11.0544 8.93305 11.1523 8.84376C11.2741 8.73262 11.3963 8.6222 11.5209 8.51417C11.6752 8.38018 11.8253 8.24181 11.9756 8.10341C12.1079 7.98181 12.2421 7.8628 12.3779 7.74513C12.506 7.63207 12.6313 7.51594 12.757 7.40019C12.8646 7.30128 12.9729 7.20351 13.0834 7.10792C13.2238 6.98635 13.3599 6.86061 13.496 6.73439C13.6555 6.58648 13.8163 6.44073 13.9808 6.29844C14.0876 6.20444 14.1922 6.1081 14.2968 6.01173C14.4495 5.8711 14.6038 5.73266 14.7607 5.59669C14.8678 5.50214 14.9729 5.4054 15.0781 5.3086C15.2308 5.16797 15.385 5.02954 15.5419 4.89357C15.6701 4.78051 15.7954 4.66438 15.9211 4.54863C16.0286 4.44972 16.137 4.35195 16.2475 4.25636C16.392 4.13082 16.5336 4.00232 16.6747 3.87306C16.6971 3.85274 16.7195 3.83243 16.7425 3.8115C16.922 3.64633 16.9989 3.53936 17.0312 3.29689C16.4848 3.26741 15.9708 3.71991 15.5349 4.00886C15.357 4.12588 15.1773 4.23994 14.9975 4.35401C14.9615 4.3769 14.9254 4.39979 14.8883 4.42338C14.6286 4.58824 14.3686 4.75252 14.1084 4.91663C13.7278 5.15684 13.3483 5.39882 12.9687 5.64064C12.5288 5.92089 12.0886 6.20084 11.6475 6.47914C11.2668 6.71935 10.8874 6.96132 10.5078 7.20314C10.0678 7.48339 9.6277 7.76334 9.18652 8.04164C8.80591 8.28185 8.42641 8.52382 8.04682 8.76564C7.60719 9.04569 7.1674 9.32546 6.72652 9.60354C6.41372 9.80094 6.10171 9.99958 5.78974 10.1983C5.73966 10.2296 5.73966 10.2296 5.68857 10.2615C5.61663 10.3082 5.54621 10.3573 5.47709 10.408C5.44088 10.4338 5.40468 10.4595 5.36737 10.4861C5.31922 10.522 5.31922 10.522 5.2701 10.5586C4.97481 10.67 4.58008 10.4525 4.29819 10.3556C4.24884 10.3388 4.19948 10.322 4.15011 10.3052C4.01857 10.2604 3.88711 10.2155 3.75567 10.1705C3.537 10.0956 3.31822 10.0211 3.09945 9.9466C3.04457 9.92791 2.9897 9.90921 2.93482 9.89049C2.58063 9.76974 2.22597 9.65061 1.87036 9.53407C1.83226 9.52155 1.79416 9.50902 1.75491 9.49612C1.54337 9.42664 1.54337 9.42664 1.3316 9.35791C0.342183 9.03874 0.342183 9.03874 0.0414457 8.62159C-0.0198654 8.43045 -0.0383978 8.26069 -5.82058e-05 8.06251C0.206614 7.67632 0.68016 7.49654 1.06867 7.35099C1.10654 7.33645 1.14441 7.32192 1.18342 7.30694C1.26436 7.27591 1.34537 7.24505 1.42643 7.21434C1.55526 7.16553 1.68393 7.1163 1.81255 7.06694C1.94371 7.01661 2.07488 6.9663 2.20609 6.91612C2.57689 6.77429 2.94636 6.62931 3.31537 6.48292C3.43514 6.43549 3.55493 6.38809 3.67472 6.34071C3.7205 6.32259 3.7205 6.32259 3.7672 6.30411C4.18672 6.13822 4.60678 5.97372 5.0268 5.80909C5.08987 5.78437 5.08987 5.78437 5.15421 5.75915C5.3689 5.67499 5.58359 5.59085 5.79828 5.50672C6.21171 5.34471 6.62512 5.18262 7.03852 5.02052C7.07925 5.00455 7.11997 4.98858 7.16194 4.97213C7.82159 4.71346 8.4811 4.45446 9.14057 4.19532C10.0871 3.82339 11.0338 3.45197 11.9806 3.08078C12.3531 2.93477 12.7255 2.78872 13.0979 2.64267C13.3055 2.56126 13.5131 2.47985 13.7206 2.39845C13.8037 2.3659 13.8867 2.33334 13.9697 2.30079C14.4677 2.10548 14.4677 2.10548 14.5922 2.05666C14.6753 2.02408 14.7584 1.9915 14.8414 1.95892C15.0479 1.87796 15.2543 1.797 15.4608 1.71606C15.8471 1.56462 16.2333 1.41311 16.6194 1.26139C16.8003 1.19035 16.9811 1.11934 17.1619 1.04833C17.2475 1.01473 17.333 0.981109 17.4186 0.947471C18.1803 0.647912 18.1803 0.647912 18.5589 0.504528C18.6062 0.486614 18.6534 0.468701 18.7021 0.450245C19.0549 0.327025 19.408 0.26721 19.7656 0.406261Z" fill="#00A8C6"/>
</svg>
