<svg width="20" height="20" viewBox="0 0 20 20" fill="none" xmlns="http://www.w3.org/2000/svg">
<g clip-path="url(#clip0_287_1487)">
<path d="M0.195312 1.86786e-05C0.956925 -0.0146059 1.71851 -0.0256144 2.48023 -0.0323639C2.83395 -0.0355818 3.18759 -0.0399651 3.54125 -0.047131C3.84965 -0.0533767 4.15799 -0.0573963 4.46645 -0.0587866C4.6297 -0.0595991 4.79276 -0.0614956 4.95595 -0.0660626C5.94817 -0.0927799 5.94817 -0.0927799 6.18957 0.0611009C6.33545 0.203362 6.42136 0.362155 6.49347 0.551122C6.53505 0.653644 6.59567 0.737971 6.66138 0.826435C6.70004 0.88299 6.73869 0.939549 6.77734 0.996112C6.98724 1.30307 7.19769 1.60963 7.40849 1.91597C7.49762 2.04552 7.5867 2.17512 7.67578 2.30471C7.71159 2.35679 7.7474 2.40887 7.7832 2.46096C10.1465 5.89846 10.1465 5.89846 10.2003 5.97667C10.2359 6.02847 10.2715 6.08026 10.3071 6.13206C10.3996 6.26659 10.4921 6.40117 10.5844 6.53582C10.6035 6.56359 10.6225 6.59136 10.6422 6.61997C10.6782 6.67255 10.7143 6.72514 10.7504 6.77774C10.8629 6.94176 10.9777 7.10405 11.0938 7.26564C11.2464 7.11694 11.3871 6.96099 11.5259 6.79934C11.548 6.77371 11.5701 6.74808 11.5929 6.72168C11.661 6.64266 11.7289 6.56354 11.7969 6.48439C11.8172 6.46071 11.8376 6.43704 11.8585 6.41264C11.9944 6.25442 12.1301 6.096 12.2656 5.93752C12.5269 5.63208 12.789 5.32734 13.0524 5.02377C13.273 4.76941 13.4921 4.51369 13.7109 4.25783C13.9722 3.95239 14.2343 3.64765 14.4977 3.34408C14.7184 3.08972 14.9374 2.834 15.1562 2.57814C15.4175 2.2727 15.6796 1.96796 15.9431 1.66439C16.2049 1.36254 16.4646 1.05885 16.7241 0.755024C16.7445 0.731209 16.7648 0.707395 16.7858 0.682859C16.8239 0.638297 16.862 0.593712 16.9 0.549097C16.9365 0.506422 16.9738 0.46439 17.0117 0.422964C17.0742 0.351321 17.0742 0.351321 17.1216 0.257845C17.1996 0.135155 17.2566 0.0747825 17.3828 1.86786e-05C17.6827 -0.0601704 17.9971 -0.0328578 18.3008 -0.021954C18.3859 -0.0201892 18.4711 -0.0185853 18.5562 -0.0171475C18.7641 -0.013287 18.9719 -0.00741702 19.1797 1.86786e-05C19.1429 0.0496934 19.106 0.0993077 19.069 0.148897C19.0382 0.19035 19.0382 0.19035 19.0068 0.232641C18.923 0.341569 18.8322 0.439578 18.7378 0.539569C18.5675 0.721907 18.4083 0.910485 18.2518 1.10491C18.1606 1.21513 18.0656 1.32056 17.9688 1.4258C17.8081 1.6004 17.6574 1.7809 17.5084 1.9655C17.3959 2.1018 17.2771 2.23166 17.1581 2.36223C17.0679 2.46368 16.9822 2.56775 16.897 2.67336C16.7462 2.85978 16.587 3.03639 16.4247 3.21276C16.2989 3.35283 16.1813 3.49873 16.0631 3.64519C15.9506 3.78148 15.8318 3.91135 15.7127 4.04192C15.6226 4.14336 15.5369 4.24744 15.4517 4.35305C15.3009 4.53947 15.1417 4.71608 14.9794 4.89244C14.8536 5.03252 14.736 5.17842 14.6178 5.32488C14.533 5.42764 14.4452 5.52656 14.3555 5.62502C14.2338 5.75851 14.1175 5.89475 14.0039 6.03517C13.8628 6.20956 13.7154 6.37619 13.5643 6.54192C13.4741 6.64336 13.3885 6.74744 13.3032 6.85305C13.1525 7.03947 12.9933 7.21608 12.831 7.39244C12.7055 7.53219 12.588 7.67763 12.4704 7.82396C12.3537 7.96491 12.2293 8.09813 12.1034 8.23092C12.0255 8.32741 11.9793 8.39399 11.9531 8.51564C11.9972 8.62079 11.9972 8.62079 12.0776 8.72316C12.1216 8.78487 12.1216 8.78487 12.1664 8.84783C12.1825 8.86989 12.1986 8.89195 12.2152 8.91468C12.2852 9.01146 12.3523 9.11008 12.4196 9.20873C12.4741 9.28854 12.5289 9.36812 12.5838 9.44765C12.6927 9.60562 12.8015 9.76374 12.9102 9.92189C12.946 9.97398 12.9818 10.0261 13.0176 10.0781C13.8053 11.224 14.5931 12.3698 15.3809 13.5156C15.3986 13.5414 15.4163 13.5672 15.4346 13.5937C15.4704 13.6459 15.5063 13.6981 15.5422 13.7503C15.6307 13.879 15.7192 14.0078 15.8078 14.1365C16.0229 14.4491 16.2374 14.7621 16.4515 15.0753C16.6399 15.3506 16.8288 15.6255 17.0179 15.9003C17.107 16.0299 17.1961 16.1595 17.2852 16.2891C17.321 16.3412 17.3568 16.3932 17.3926 16.4453C17.8939 17.1745 18.3952 17.9037 18.8965 18.6328C18.9142 18.6586 18.932 18.6845 18.9503 18.711C18.9859 18.7628 19.0214 18.8146 19.057 18.8664C19.1496 19.0013 19.2425 19.1359 19.3358 19.2702C19.355 19.298 19.3743 19.3257 19.3941 19.3543C19.4306 19.407 19.4671 19.4596 19.5038 19.5121C19.5205 19.5362 19.5371 19.5603 19.5543 19.5851C19.5687 19.6059 19.5832 19.6267 19.5981 19.6481C19.6716 19.7628 19.7373 19.8816 19.8047 20C19.0444 20.0174 18.2842 20.0305 17.5238 20.0385C17.1707 20.0423 16.8177 20.0475 16.4646 20.056C16.1567 20.0634 15.8489 20.0682 15.5409 20.0698C15.3779 20.0708 15.2152 20.0731 15.0523 20.0785C14.0648 20.1102 14.0648 20.1102 13.8037 19.9288C13.6382 19.7588 13.5353 19.5684 13.4422 19.352C13.3723 19.2015 13.276 19.0717 13.1787 18.938C13.1435 18.8871 13.1084 18.8361 13.0734 18.785C13.0562 18.7599 13.039 18.7349 13.0212 18.7091C12.9321 18.5795 12.843 18.4499 12.7539 18.3203C12.7181 18.2682 12.6823 18.2162 12.6465 18.1641C11.8587 17.0182 11.071 15.8724 10.2832 14.7266C10.2655 14.7008 10.2478 14.675 10.2295 14.6485C10.1936 14.5963 10.1578 14.5441 10.1219 14.4919C10.0334 14.3632 9.94484 14.2344 9.85626 14.1057C9.74785 13.9481 9.63953 13.7905 9.53125 13.6328C9.51079 13.603 9.49032 13.5733 9.46924 13.5426C9.18729 13.132 8.9078 12.72 8.63281 12.3047C8.37772 12.5762 8.12969 12.8495 7.89627 13.1401C7.81255 13.2421 7.72563 13.34 7.63672 13.4375C7.5158 13.5702 7.40033 13.7056 7.2876 13.8452C7.13683 14.0317 6.97766 14.2083 6.81534 14.3846C6.68957 14.5247 6.57191 14.6706 6.4537 14.8171C6.34122 14.9534 6.22239 15.0832 6.10336 15.2138C6.01321 15.3152 5.92752 15.4193 5.84229 15.5249C5.69152 15.7113 5.53234 15.888 5.37003 16.0643C5.24425 16.2044 5.1266 16.3503 5.00839 16.4968C4.89591 16.633 4.77707 16.7629 4.65805 16.8935C4.5679 16.9949 4.4822 17.099 4.39697 17.2046C4.24621 17.391 4.08703 17.5676 3.92471 17.744C3.79894 17.8841 3.68129 18.03 3.56308 18.1764C3.45059 18.3127 3.33176 18.4426 3.21274 18.5732C3.12258 18.6746 3.03689 18.7787 2.95166 18.8843C2.80128 19.0702 2.64256 19.2464 2.48062 19.4223C2.34786 19.5702 2.22295 19.7235 2.09824 19.8783C2.03125 19.961 2.03125 19.961 1.99219 20C1.93582 20.0037 1.87929 20.0046 1.82281 20.0045C1.76885 20.0044 1.76885 20.0044 1.7138 20.0044C1.6747 20.0042 1.63559 20.004 1.59531 20.0038C1.55548 20.0038 1.51565 20.0037 1.47461 20.0037C1.34684 20.0034 1.21908 20.003 1.09131 20.0025C1.00492 20.0023 0.918528 20.0021 0.832138 20.0019C0.619862 20.0015 0.407587 20.0008 0.195312 20C0.232506 19.95 0.269758 19.9 0.307035 19.8501C0.327774 19.8222 0.348513 19.7944 0.36988 19.7657C0.441338 19.6723 0.518053 19.5857 0.598145 19.4995C0.722376 19.3636 0.841302 19.2252 0.957031 19.0821C1.09811 18.9077 1.24557 18.741 1.39664 18.5753C1.48679 18.4739 1.57248 18.3698 1.65771 18.2642C1.80848 18.0778 1.96766 17.9011 2.12997 17.7248C2.25575 17.5847 2.3734 17.4388 2.49161 17.2923C2.60409 17.1561 2.72293 17.0262 2.84195 16.8956C2.9321 16.7942 3.0178 16.6901 3.10303 16.5845C3.25379 16.3981 3.41297 16.2215 3.57529 16.0451C3.70106 15.905 3.81871 15.7591 3.93692 15.6127C4.04941 15.4764 4.16824 15.3465 4.28726 15.2159C4.37742 15.1145 4.46311 15.0104 4.54834 14.9048C4.6991 14.7184 4.85828 14.5418 5.0206 14.3654C5.14637 14.2253 5.26403 14.0794 5.38223 13.933C5.49472 13.7967 5.61355 13.6668 5.73257 13.5362C5.82273 13.4348 5.90842 13.3307 5.99365 13.2251C6.14442 13.0387 6.30359 12.8621 6.46591 12.6857C6.59168 12.5456 6.70934 12.3997 6.82755 12.2533C6.93973 12.1174 7.05822 11.9878 7.17697 11.8576C7.30201 11.7169 7.41977 11.5706 7.53738 11.4237C7.61719 11.3281 7.61719 11.3281 7.70798 11.2473C7.72958 11.2224 7.75118 11.1975 7.77344 11.1719C7.7496 10.9985 7.64275 10.8717 7.54395 10.7324C7.50457 10.6761 7.4652 10.6197 7.42584 10.5634C7.40566 10.5346 7.38548 10.5059 7.36469 10.4763C7.27217 10.3442 7.18104 10.2112 7.08984 10.0781C7.05404 10.0261 7.01824 9.97397 6.98242 9.92189C6.62435 9.40106 6.26628 8.88023 5.9082 8.35939C5.89048 8.33362 5.87277 8.30785 5.85451 8.2813C5.81864 8.22912 5.78277 8.17694 5.7469 8.12476C5.65838 7.99599 5.56984 7.86724 5.48126 7.73851C5.2662 7.42593 5.05171 7.11297 4.83753 6.79977C4.64921 6.52444 4.4603 6.2495 4.2712 5.97469C4.18207 5.84514 4.09299 5.71555 4.00391 5.58596C3.9681 5.53387 3.93229 5.48179 3.89648 5.42971C3.10872 4.28387 2.32096 3.13804 1.5332 1.99221C1.50663 1.95355 1.50663 1.95355 1.47951 1.91411C1.44364 1.86193 1.40777 1.80975 1.3719 1.75757C1.28338 1.62881 1.19484 1.50005 1.10626 1.37133C1.03587 1.26902 0.965532 1.16669 0.895233 1.06432C0.811675 0.942646 0.7279 0.821123 0.644073 0.699634C0.597836 0.632447 0.551601 0.565258 0.505371 0.498066C0.483473 0.466402 0.461576 0.434739 0.439014 0.402116C0.408339 0.357463 0.408339 0.357463 0.377045 0.311908C0.358914 0.285611 0.340784 0.259314 0.322104 0.232219C0.273852 0.156916 0.234688 0.0802303 0.195312 1.86786e-05ZM2.61719 1.32814C2.66043 1.39645 2.70372 1.46473 2.74703 1.533C2.77113 1.57103 2.79523 1.60906 2.82007 1.64824C2.91204 1.7911 3.00896 1.92981 3.10791 2.06789C3.14877 2.12535 3.18961 2.18283 3.23044 2.24031C3.26204 2.28475 3.26204 2.28475 3.29428 2.33007C3.40621 2.48795 3.51705 2.64658 3.62793 2.80519C3.66219 2.85417 3.66219 2.85417 3.69714 2.90414C3.74364 2.97062 3.79014 3.03711 3.83663 3.1036C3.95093 3.26703 4.06531 3.4304 4.17969 3.59377C4.22526 3.65887 4.27083 3.72398 4.31641 3.78908C4.35024 3.83742 4.35024 3.83742 4.38477 3.88674C4.45312 3.98439 4.52148 4.08205 4.58984 4.17971C4.6124 4.21192 4.63495 4.24414 4.65818 4.27733C4.70382 4.34253 4.74946 4.40773 4.79509 4.47293C4.90801 4.63426 5.02096 4.79557 5.13397 4.95684C5.40302 5.34084 5.67121 5.72543 5.93884 6.11042C6.1757 6.45107 6.41354 6.79103 6.65165 7.13081C6.76522 7.2929 6.8787 7.45506 6.99219 7.61721C7.03776 7.68231 7.08333 7.74741 7.12891 7.81252C7.22005 7.94273 7.3112 8.07294 7.40234 8.20314C7.4249 8.23536 7.44745 8.26758 7.47068 8.30077C7.51632 8.36597 7.56196 8.43117 7.60759 8.49637C7.72051 8.6577 7.83346 8.81901 7.94647 8.98027C8.21552 9.36428 8.48371 9.74886 8.75134 10.1339C8.9882 10.4745 9.22604 10.8145 9.46415 11.1543C9.57772 11.3163 9.6912 11.4785 9.80469 11.6406C9.85026 11.7057 9.89583 11.7709 9.94141 11.836C10.0326 11.9662 10.1237 12.0964 10.2148 12.2266C10.2374 12.2588 10.2599 12.291 10.2832 12.3242C10.3288 12.3894 10.3745 12.4546 10.4201 12.5198C10.533 12.6811 10.646 12.8424 10.759 13.0037C11.028 13.3877 11.2962 13.7723 11.5638 14.1573C11.8007 14.4979 12.0385 14.8379 12.2766 15.1777C12.3902 15.3398 12.5037 15.5019 12.6172 15.6641C12.6628 15.7292 12.7083 15.7943 12.7539 15.8594C13.0273 16.25 13.3008 16.6406 13.5742 17.0313C13.5968 17.0635 13.6194 17.0958 13.6427 17.129C13.688 17.1938 13.7333 17.2585 13.7786 17.3233C13.8963 17.4915 14.0141 17.6596 14.1321 17.8276C14.1686 17.8796 14.1686 17.8796 14.2058 17.9327C14.2518 17.9983 14.2979 18.0639 14.344 18.1295C14.3651 18.1596 14.3862 18.1897 14.408 18.2207C14.4353 18.2596 14.4353 18.2596 14.4631 18.2992C14.5312 18.3985 14.5312 18.3985 14.5702 18.4866C14.6255 18.5963 14.673 18.6686 14.7656 18.75C14.9638 18.7999 15.1586 18.791 15.361 18.7844C15.4194 18.7837 15.4777 18.7832 15.5361 18.7828C15.6891 18.7815 15.842 18.7781 15.9949 18.7742C16.1513 18.7706 16.3076 18.769 16.4639 18.7672C16.7703 18.7634 17.0765 18.7574 17.3828 18.75C17.3392 18.6811 17.2955 18.6122 17.2517 18.5433C17.2274 18.5049 17.2031 18.4666 17.178 18.427C17.1008 18.307 17.0201 18.1915 16.936 18.0762C16.7598 17.8324 16.5875 17.586 16.416 17.3389C16.2163 17.0513 16.0163 16.7639 15.8154 16.4771C15.7821 16.4294 15.7821 16.4294 15.748 16.3808C15.7033 16.3171 15.6587 16.2533 15.614 16.1895C15.5004 16.0274 15.3869 15.8653 15.2734 15.7031C15.2279 15.638 15.1823 15.5729 15.1367 15.5078C15.0456 15.3776 14.9544 15.2474 14.8633 15.1172C14.8407 15.085 14.8182 15.0528 14.7949 15.0196C14.7493 14.9544 14.7037 14.8892 14.658 14.824C14.5451 14.6627 14.4322 14.5013 14.3192 14.3401C14.0501 13.9561 13.7819 13.5715 13.5143 13.1865C13.2774 12.8458 13.0396 12.5059 12.8015 12.1661C12.6879 12.004 12.5744 11.8419 12.4609 11.6797C12.4154 11.6146 12.3698 11.5495 12.3242 11.4844C12.2331 11.3542 12.1419 11.224 12.0508 11.0938C12.0282 11.0616 12.0057 11.0293 11.9824 10.9961C11.9368 10.9309 11.8912 10.8657 11.8455 10.8005C11.7326 10.6392 11.6197 10.4779 11.5067 10.3166C11.2376 9.93264 10.9694 9.54805 10.7018 9.16306C10.4649 8.82241 10.2271 8.48244 9.98898 8.14266C9.87541 7.98057 9.76193 7.81842 9.64844 7.65627C9.60287 7.59116 9.55729 7.52606 9.51172 7.46096C9.23828 7.07033 8.96484 6.67971 8.69141 6.28908C8.65758 6.24076 8.65758 6.24076 8.62307 6.19145C8.57743 6.12626 8.53179 6.06106 8.48616 5.99585C8.37324 5.83453 8.26029 5.67322 8.14728 5.51195C7.87823 5.12795 7.61004 4.74336 7.34241 4.35837C7.10555 4.01772 6.86771 3.67775 6.6296 3.33797C6.49345 3.14365 6.3574 2.94925 6.22137 2.75484C6.10367 2.58665 5.98588 2.41854 5.86792 2.25054C5.83144 2.19853 5.83144 2.19853 5.79422 2.14548C5.74817 2.07984 5.70209 2.01423 5.65598 1.94864C5.62433 1.90351 5.62433 1.90351 5.59204 1.85747C5.57384 1.83155 5.55563 1.80564 5.53688 1.77894C5.46875 1.67971 5.46875 1.67971 5.42982 1.59156C5.37446 1.48187 5.32697 1.40958 5.23438 1.32814C5.03619 1.27825 4.84144 1.28712 4.63898 1.29381C4.58064 1.29447 4.52229 1.29497 4.46395 1.29532C4.31093 1.29666 4.15803 1.30011 4.00505 1.304C3.84874 1.30761 3.69241 1.30921 3.53607 1.31098C3.22972 1.31474 2.92347 1.32073 2.61719 1.32814Z" fill="#171717"/>
</g>
<defs>
<clipPath id="clip0_287_1487">
<rect width="20" height="20" fill="white"/>
</clipPath>
</defs>
</svg>
