<svg width="15" height="15" viewBox="0 0 10.2881 9.8338" fill="none" xmlns="http://www.w3.org/2000/svg" xmlns:xlink="http://www.w3.org/1999/xlink">
	
	<defs/>
	<path id="Star 6" d="M4.66 0.34L3.79 3.02C3.72 3.23 3.53 3.37 3.32 3.37L0.5 3.37C0.01 3.37 -0.19 3.99 0.2 4.27L2.48 5.93C2.66 6.06 2.73 6.28 2.67 6.49L1.79 9.17C1.64 9.63 2.17 10.02 2.56 9.73L4.85 8.07C5.02 7.95 5.26 7.95 5.43 8.07L7.71 9.73C8.11 10.02 8.63 9.63 8.48 9.17L7.61 6.49C7.55 6.28 7.62 6.06 7.79 5.93L10.08 4.27C10.47 3.99 10.27 3.37 9.78 3.37L6.96 3.37C6.75 3.37 6.55 3.23 6.49 3.02L5.61 0.34C5.46 -0.12 4.81 -0.12 4.66 0.34Z" fill="#FFB800" fill-opacity="1.000000" fill-rule="evenodd"/>
</svg>
