<svg width="20" height="16" viewBox="0 0 20 16" fill="none" xmlns="http://www.w3.org/2000/svg">
<path d="M4.52863 0.885394C4.57735 0.885305 4.62606 0.885217 4.67625 0.885125C4.81012 0.884922 4.94399 0.884891 5.07786 0.884938C5.22277 0.884946 5.36768 0.884729 5.5126 0.884545C5.79602 0.884221 6.07943 0.884113 6.36285 0.884091C6.59346 0.884073 6.82406 0.883992 7.05466 0.883868C7.70979 0.883525 8.36491 0.883344 9.02004 0.883374C9.05529 0.883375 9.09055 0.883377 9.12687 0.883378C9.16217 0.88338 9.19747 0.883381 9.23383 0.883383C9.80546 0.883399 10.3771 0.883025 10.9487 0.882474C11.537 0.881912 12.1252 0.881644 12.7135 0.881677C13.0432 0.88169 13.3729 0.881585 13.7026 0.881163C13.9834 0.880805 14.2642 0.880723 14.545 0.880987C14.688 0.881114 14.831 0.88112 14.9739 0.880778C16.4658 0.87744 17.7299 1.0776 18.8499 2.14794C19.3738 2.68442 19.7471 3.36526 19.9216 4.09374C19.9284 4.12201 19.9352 4.15028 19.9422 4.17941C20.0132 4.51858 20.0114 4.85472 20.0111 5.19933C20.0114 5.26675 20.0116 5.33418 20.0119 5.4016C20.0126 5.5837 20.0128 5.76579 20.0128 5.94788C20.0129 6.06201 20.0131 6.17614 20.0133 6.29027C20.014 6.68949 20.0143 7.0887 20.0142 7.48792C20.0142 7.85832 20.015 8.22871 20.0163 8.5991C20.0173 8.91849 20.0177 9.23787 20.0176 9.55725C20.0176 9.74739 20.0178 9.93752 20.0187 10.1277C20.0194 10.3068 20.0194 10.4859 20.0189 10.6651C20.0188 10.7302 20.019 10.7954 20.0194 10.8605C20.0277 12.0658 19.5724 13.1073 18.7327 13.9668C17.8404 14.8357 16.683 15.1162 15.4709 15.1146C15.3978 15.1147 15.3978 15.1147 15.3233 15.1149C15.1894 15.1151 15.0555 15.1151 14.9217 15.115C14.7768 15.115 14.6319 15.1153 14.4869 15.1154C14.2035 15.1158 13.9201 15.1159 13.6367 15.1159C13.4061 15.1159 13.1755 15.116 12.9449 15.1161C12.2897 15.1165 11.6346 15.1166 10.9795 15.1166C10.9442 15.1166 10.909 15.1166 10.8727 15.1166C10.8374 15.1166 10.8021 15.1166 10.7657 15.1166C10.1941 15.1166 9.62244 15.117 9.05081 15.1175C8.46257 15.1181 7.87432 15.1183 7.28608 15.1183C6.95635 15.1183 6.62662 15.1184 6.29689 15.1188C6.01609 15.1192 5.73529 15.1193 5.45449 15.119C5.31152 15.1189 5.16856 15.1189 5.02559 15.1192C3.5337 15.1225 2.26965 14.9224 1.14967 13.852C0.625738 13.3156 0.252461 12.6347 0.0778933 11.9062C0.0711166 11.878 0.06434 11.8497 0.057358 11.8206C-0.0136853 11.4814 -0.0118208 11.1453 -0.0115805 10.8007C-0.0118146 10.7332 -0.0120806 10.6658 -0.0123756 10.5984C-0.0130619 10.4163 -0.0132486 10.2342 -0.0132986 10.0521C-0.0133543 9.93797 -0.0135218 9.82384 -0.0137283 9.70971C-0.0144499 9.3105 -0.0147701 8.91128 -0.0147085 8.51207C-0.0146617 8.14167 -0.0154849 7.77128 -0.0167199 7.40088C-0.0177463 7.0815 -0.0181602 6.76212 -0.0181104 6.44273C-0.0180907 6.25259 -0.0183056 6.06246 -0.0191398 5.87233C-0.0199044 5.69319 -0.0198971 5.51406 -0.0193341 5.33492C-0.0192534 5.26977 -0.0194308 5.20461 -0.019909 5.13946C-0.0281722 3.93418 0.427163 2.89267 1.26686 2.03319C2.15916 1.16427 3.31653 0.883752 4.52863 0.885394ZM7.30446 5.18749C7.26367 5.30985 7.26028 5.39544 7.25991 5.52385C7.25968 5.56947 7.25946 5.6151 7.25923 5.6621C7.25919 5.7122 7.25914 5.76231 7.2591 5.81393C7.25892 5.86719 7.25872 5.92045 7.25851 5.9737C7.258 6.11841 7.25775 6.26312 7.25757 6.40783C7.25746 6.49821 7.2573 6.5886 7.25712 6.67898C7.25659 6.96172 7.25621 7.24445 7.25606 7.52719C7.25589 7.85369 7.2552 8.18019 7.25407 8.50669C7.25323 8.75902 7.25283 9.01134 7.25278 9.26367C7.25274 9.4144 7.25251 9.56514 7.25181 9.71587C7.25117 9.85762 7.25108 9.99936 7.25142 10.1411C7.25147 10.218 7.25093 10.2948 7.25038 10.3717C7.2506 10.4174 7.25081 10.4631 7.25104 10.5102C7.25098 10.55 7.25092 10.5897 7.25086 10.6307C7.26745 10.749 7.30354 10.8028 7.38258 10.8906C7.60863 10.8707 7.7762 10.8053 7.97752 10.7032C8.02318 10.6807 8.02318 10.6807 8.06976 10.6577C8.13495 10.6255 8.20004 10.5931 8.26507 10.5605C8.43729 10.4743 8.61012 10.3894 8.78288 10.3042C8.81725 10.2872 8.85161 10.2703 8.88702 10.2528C9.16642 10.115 9.44794 9.98267 9.73121 9.85302C10.1872 9.64374 10.6381 9.42515 11.0887 9.20454C11.4055 9.04948 11.7225 8.8952 12.0428 8.74752C12.068 8.73589 12.0932 8.72426 12.1192 8.71227C12.2358 8.65865 12.3525 8.60542 12.4694 8.55259C12.8129 8.40134 12.8129 8.40134 13.1248 8.1953C13.1671 8.09586 13.1671 8.09586 13.1248 7.99999C12.9972 7.88602 12.8675 7.80595 12.7143 7.73113C12.6725 7.71049 12.6306 7.68984 12.5875 7.66857C12.5441 7.64742 12.5006 7.62627 12.4558 7.60448C12.1597 7.45948 11.866 7.31143 11.5748 7.15679C11.0933 6.9016 10.6049 6.6605 10.117 6.41796C9.59644 6.15921 9.07631 5.90052 8.56285 5.62797C8.3339 5.50659 8.1028 5.39084 7.86842 5.28027C7.8333 5.2634 7.79818 5.24653 7.76199 5.22915C7.72858 5.21329 7.69517 5.19743 7.66075 5.18108C7.63151 5.1672 7.60228 5.15333 7.57216 5.13903C7.44386 5.08646 7.42539 5.10687 7.30446 5.18749Z" fill="#F61C0D"/>
</svg>
